<?xml version="1.0" standalone="no"?>
<!DOCTYPE svg PUBLIC "-//W3C//DTD SVG 1.1//EN" "http://www.w3.org/Graphics/SVG/1.1/DTD/svg11.dtd" >
<svg xmlns="http://www.w3.org/2000/svg" xmlns:xlink="http://www.w3.org/1999/xlink" version="1.1">
<metadata>
Created by FontForge 20201107 at Tue Jun  8 14:49:18 2021
 By 
Copyright (c) 2019 by Martin Va'cha. All rights reserved.
</metadata>
<defs>
<font id="Teodor-Light" horiz-adv-x="796" >
  <font-face 
    font-family="Teodor Light"
    font-weight="300"
    font-stretch="normal"
    units-per-em="1000"
    panose-1="0 0 0 0 0 0 0 0 0 0"
    ascent="800"
    descent="-200"
    x-height="447"
    cap-height="668"
    bbox="-126 -265 1063 1034"
    underline-thickness="50"
    underline-position="-125"
    unicode-range="U+000D-277E"
  />
<missing-glyph horiz-adv-x="1106" 
d="M117.5 554q64.5 113 175.5 182t242 74v-1000q-132 4 -242.5 72.5t-175 181.5t-64.5 245t64.5 245zM571 806q41 -14 75 -84.5t54 -179.5t20 -233t-20 -232.5t-54 -179t-75 -84.5v993zM727.5 23.5q29.5 128.5 29.5 285.5t-29.5 286t-80.5 196q71 -30 127.5 -101.5
t88.5 -171t32 -209.5q0 -111 -31.5 -210t-88 -169.5t-128.5 -100.5q51 66 80.5 194.5zM882.5 45q49.5 122 49.5 264q0 141 -49.5 264t-133.5 196q90 -38 159 -108t107 -161t38 -191t-38 -191t-107 -160.5t-159 -107.5q84 73 133.5 195z" />
    <glyph glyph-name="f_f" unicode="ff" horiz-adv-x="578" 
d="M153.5 629q50.5 54 132.5 54q41 0 77 -13.5t58 -38.5q39 52 117 52q20 0 42 -4t36 -12l-5 -97h-12q-6 43 -26 65.5t-52 22.5q-35 0 -56 -29.5t-21 -80.5v-101h126v-25h-126v-356q0 -25 21.5 -37.5t71.5 -14.5v-14h-211v14q36 5 51 16.5t15 35.5v356h-237v-174h1v-182
q0 -26 21.5 -38t70.5 -14v-14h-210v14q35 5 50 16.5t15 35.5v356h-76v25h76v36q0 92 50.5 146zM392 447v79q0 28 7 59q-14 31 -45 52.5t-67 21.5q-61 0 -96.5 -42.5t-35.5 -111.5v-58h237z" />
    <glyph glyph-name="f_f_i" unicode="ffi" horiz-adv-x="832" 
d="M670 411q-11 11 -35 11h-191v-174h1v-182q0 -26 21.5 -38t70.5 -14v-14h-210v14q35 5 50 16.5t15 35.5v356h-237v-174h1v-182q0 -26 21.5 -38t70.5 -14v-14h-210v14q35 5 50 16.5t15 35.5v356h-76v25h76v36q0 92 50.5 146t132.5 54q48 0 87.5 -18t59.5 -50q25 33 62 50.5
t82 17.5q41 0 77.5 -9.5t51.5 -23.5l-6 -94h-11q-6 45 -42 73.5t-86 28.5q-53 0 -85 -43t-32 -111v-57h215l75 15v-396q0 -24 15 -35.5t51 -16.5v-14h-184v14q35 5 50 16.5t15 35.5v311q0 23 -11 34zM392 447v35q0 44 14 83q-8 37 -42.5 65.5t-76.5 28.5q-61 0 -96.5 -42.5
t-35.5 -111.5v-58h237z" />
    <glyph glyph-name="f_f_l" unicode="ffl" horiz-adv-x="827" 
d="M153.5 629q50.5 54 132.5 54q47 0 86.5 -17.5t59.5 -48.5q24 32 60.5 49t80.5 17q60 0 104 -26l57 29v-620q0 -24 15 -35.5t51 -16.5v-14h-184v14q35 5 50 16.5t15 35.5v532q-16 27 -44.5 44t-60.5 17q-61 0 -96.5 -42.5t-35.5 -111.5v-58h119v-25h-119v-174h1v-182
q0 -26 21.5 -38t70.5 -14v-14h-210v14q35 5 50 16.5t15 35.5v356h-237v-174h1v-182q0 -26 21.5 -38t70.5 -14v-14h-210v14q35 5 50 16.5t15 35.5v356h-76v25h76v36q0 92 50.5 146zM392 447v36q0 44 13 83q-9 37 -42.5 65t-75.5 28q-61 0 -96.5 -42.5t-35.5 -111.5v-58h237z
" />
    <glyph glyph-name="f_i" unicode="fi" horiz-adv-x="543" 
d="M381 411q-11 11 -35 11h-191v-174h1v-182q0 -26 21.5 -38t70.5 -14v-14h-210v14q35 5 50 16.5t15 35.5v356h-76v25h76v35q0 61 24 106.5t66 70t95 24.5q41 0 77.5 -9.5t51.5 -23.5l-6 -94h-11q-6 45 -42 73.5t-86 28.5q-53 0 -85 -43t-32 -111v-57h215l75 15v-396
q0 -24 15 -35.5t51 -16.5v-14h-184v14q35 5 50 16.5t15 35.5v311q0 23 -11 34z" />
    <glyph glyph-name="f_l" unicode="fl" horiz-adv-x="538" 
d="M347.5 642q-28.5 17 -60.5 17q-61 0 -96.5 -42.5t-35.5 -111.5v-58h119v-25h-119v-174h1v-182q0 -26 21.5 -38t70.5 -14v-14h-210v14q35 5 50 16.5t15 35.5v356h-76v25h76v36q0 92 50.5 146t132.5 54q57 0 102 -26l57 29v-620q0 -24 15 -35.5t51 -16.5v-14h-184v14
q35 5 50 16.5t15 35.5v532q-16 27 -44.5 44z" />
    <glyph glyph-name=".notdef" horiz-adv-x="1106" 
d="M117.5 554q64.5 113 175.5 182t242 74v-1000q-132 4 -242.5 72.5t-175 181.5t-64.5 245t64.5 245zM571 806q41 -14 75 -84.5t54 -179.5t20 -233t-20 -232.5t-54 -179t-75 -84.5v993zM727.5 23.5q29.5 128.5 29.5 285.5t-29.5 286t-80.5 196q71 -30 127.5 -101.5
t88.5 -171t32 -209.5q0 -111 -31.5 -210t-88 -169.5t-128.5 -100.5q51 66 80.5 194.5zM882.5 45q49.5 122 49.5 264q0 141 -49.5 264t-133.5 196q90 -38 159 -108t107 -161t38 -191t-38 -191t-107 -160.5t-159 -107.5q84 73 133.5 195z" />
    <glyph glyph-name=".null" horiz-adv-x="0" 
 />
    <glyph glyph-name="nonmarkingreturn" unicode="&#xd;" horiz-adv-x="600" 
 />
    <glyph glyph-name="space" unicode=" " horiz-adv-x="166" 
 />
    <glyph glyph-name="exclam" unicode="!" horiz-adv-x="229" 
d="M102.5 267q-4.5 42 -6.5 64q-11 90 -17.5 168t-6.5 169h85q0 -92 -6 -168t-17 -177q-9 -70 -12 -124h-14q-1 26 -5.5 68zM77.5 72.5q14.5 14.5 37.5 14.5t37 -14t14 -37q0 -22 -14.5 -36.5t-36.5 -14.5t-37 14.5t-15 36.5t14.5 36.5z" />
    <glyph glyph-name="quotedbl" unicode="&#x22;" horiz-adv-x="286" 
d="M65 581q-7 43 -10.5 79t-3.5 86h55q0 -50 -3.5 -86t-10.5 -79q-8 -59 -10 -90h-7q-2 31 -10 90zM193 581q-7 43 -10.5 79t-3.5 86h55q0 -50 -3.5 -86t-10.5 -79q-8 -59 -10 -90h-7q-2 31 -10 90z" />
    <glyph glyph-name="numbersign" unicode="#" horiz-adv-x="761" 
d="M384 728l-71 -251h209l71 251h29l-71 -251h167v-28h-174l-59 -207h163v-28h-170l-71 -251h-29l71 251h-209l-71 -251h-30l71 251h-167v28h174l59 207h-163v28h170l71 251h30zM456 242l59 207h-209l-59 -207h209z" />
    <glyph glyph-name="dollar" unicode="$" horiz-adv-x="603" 
d="M311 810v-128q58 -2 102.5 -26t68.5 -64.5t24 -90.5h-69q3 17 3 31q0 52 -34.5 85.5t-94.5 36.5v-269q75 -29 116.5 -50t72 -60.5t30.5 -100.5q0 -84 -60 -135t-159 -53v-135h-27v136q-90 7 -145 61.5t-56 136.5h69q-3 -16 -3 -32q0 -56 36.5 -94t98.5 -44v304
q-60 23 -98 44t-63.5 57t-25.5 91q0 73 51 119.5t136 51.5v128h27zM184.5 452q34.5 -30 99.5 -56v258q-61 -5 -97.5 -37.5t-36.5 -83.5t34.5 -81zM426.5 52.5q43.5 37.5 43.5 96.5q0 43 -21 73t-54 49t-84 38v-295q72 1 115.5 38.5z" />
    <glyph glyph-name="percent" unicode="%" horiz-adv-x="730" 
d="M160 0l383 668h28l-384 -668h-27zM81.5 633q38.5 50 101.5 50t101.5 -50.5t38.5 -133.5q0 -51 -18 -93t-49.5 -66.5t-72.5 -24.5q-40 0 -72 24t-50 66t-18 94q0 84 38.5 134zM123 379q22 -44 60 -44q39 0 60.5 44t21.5 120q0 81 -21 122.5t-61 41.5q-39 0 -60.5 -41.5
t-21.5 -122.5q0 -76 22 -120zM445.5 304q38.5 50 101.5 50t101.5 -50.5t38.5 -133.5q0 -51 -18 -93t-49.5 -66.5t-72.5 -24.5q-40 0 -72 24t-50 66t-18 94q0 84 38.5 134zM487 50q22 -44 60 -44q39 0 60.5 44t21.5 120q0 81 -21 122.5t-61 41.5q-39 0 -60.5 -41.5
t-21.5 -122.5q0 -76 22 -120z" />
    <glyph glyph-name="ampersand" unicode="&#x26;" horiz-adv-x="726" 
d="M219 351q-50 -29 -75.5 -74t-25.5 -94q0 -44 20 -82t59 -61t92 -23q46 0 91 20.5t78 57.5l-203 218zM204 367q-48 52 -69 88.5t-21 80.5q0 66 44 106.5t117 40.5q74 0 119 -39t45 -104q0 -55 -40.5 -98.5t-117.5 -68.5l27 -30l188 -200q41 69 41 158q0 28 -5 63h79
q-4 -73 -27 -136.5t-62 -111.5l39 -42q26 -28 53 -43.5t69 -16.5v-14h-136l-65 70q-42 -41 -97.5 -62.5t-120.5 -21.5q-101 0 -156 52.5t-55 136.5q0 137 151 192zM189 485.5q19 -31.5 78 -97.5q57 26 86.5 64.5t29.5 83.5q0 55 -30 88t-79 33q-47 0 -75.5 -28t-28.5 -74
q0 -38 19 -69.5z" />
    <glyph glyph-name="quotesingle" unicode="'" horiz-adv-x="158" 
d="M65 581q-7 43 -10.5 79t-3.5 86h55q0 -50 -3.5 -86t-10.5 -79q-8 -59 -10 -90h-7q-2 31 -10 90z" />
    <glyph glyph-name="parenleft" unicode="(" horiz-adv-x="300" 
d="M185.5 -51q-53.5 67 -83 150.5t-29.5 170.5t29.5 171t82.5 151.5t123 107.5l8 -14q-82 -67 -132.5 -182t-50.5 -234q0 -118 50.5 -232.5t132.5 -181.5l-8 -14q-69 40 -122.5 107z" />
    <glyph glyph-name="parenright" unicode=")" horiz-adv-x="300" 
d="M116.5 37.5q50.5 114.5 50.5 232.5q0 119 -50.5 234t-132.5 182l8 14q70 -40 123 -107.5t82.5 -151.5t29.5 -171t-29.5 -170.5t-83 -150.5t-122.5 -107l-8 14q82 67 132.5 181.5z" />
    <glyph glyph-name="asterisk" unicode="*" horiz-adv-x="388" 
d="M138 575q27 -16 51 -27q-1 13 -9 56q-1 6 -6.5 38.5t-6.5 66.5h54q-1 -44 -15 -105q-8 -43 -9 -56q24 11 51 27q53 32 93 47l19 -51q-39 -12 -100 -20q-38 -5 -58 -11q16 -18 43 -41q49 -45 71 -71l-43 -33q-21 30 -49 86q-3 6 -12.5 24.5t-18.5 30.5q-8 -12 -29 -53
q-24 -49 -50 -88l-43 33q22 26 71 71q27 23 43 41q-18 5 -58 11q-61 8 -100 20l18 51q40 -15 93 -47z" />
    <glyph glyph-name="plus" unicode="+" horiz-adv-x="521" 
d="M277 543v-193h191v-31h-191v-192h-32v192h-193v31h193v193h32z" />
    <glyph glyph-name="comma" unicode="," horiz-adv-x="238" 
d="M119.5 -69q23.5 26 24.5 61q-13 -7 -27 -7q-22 0 -36.5 14.5t-14.5 36.5q0 23 15 37.5t37 14.5q27 0 42.5 -19t15.5 -50q0 -52 -27.5 -86.5t-76.5 -49.5l-4 9q28 13 51.5 39z" />
    <glyph glyph-name="hyphen" unicode="-" horiz-adv-x="345" 
d="M299 258h-253v30h253v-30z" />
    <glyph glyph-name="period" unicode="." horiz-adv-x="236" 
d="M81 -0.5q-15 14.5 -15 36.5t14.5 36.5t37.5 14.5t37 -14t14 -37q0 -22 -14.5 -36.5t-36.5 -14.5t-37 14.5z" />
    <glyph glyph-name="slash" unicode="/" horiz-adv-x="392" 
d="M319 686h30l-276 -731h-30z" />
    <glyph glyph-name="zero" unicode="0" horiz-adv-x="607" 
d="M175.5 29q-55.5 44 -86.5 123.5t-31 181.5t31 181.5t86.5 123.5t127.5 44t128.5 -44t87.5 -123.5t31 -181.5t-31 -181.5t-87.5 -123.5t-128.5 -44t-127.5 44zM174 97.5q46 -84.5 129 -84.5q84 0 130.5 84.5t46.5 236.5q0 153 -46.5 237t-130.5 84q-83 0 -129 -84
t-46 -237q0 -152 46 -236.5z" />
    <glyph glyph-name="one" unicode="1" horiz-adv-x="331" 
d="M108.5 21q22.5 6 33.5 22.5t12 49.5v483h-111v14q58 14 95.5 34.5t65.5 58.5h13v-590q0 -33 10 -49.5t29 -22.5t52 -7v-14h-265v14q43 1 65.5 7z" />
    <glyph glyph-name="two" unicode="2" horiz-adv-x="556" 
d="M44 14l46 47l35 36q106 108 159.5 169t86.5 121t33 119q0 65 -38 107t-102 42q-56 0 -94 -35.5t-38 -99.5q0 -31 10 -65h-76q-2 24 -2 35q0 63 28.5 106.5t74.5 65t99 21.5q61 0 108.5 -24.5t73.5 -67t26 -96.5q0 -68 -42 -133t-105.5 -123t-178.5 -150q-24 -18 -36 -28
h234q47 0 70.5 7t37 28t26.5 67h14l-28 -163h-422v14z" />
    <glyph glyph-name="three" unicode="3" horiz-adv-x="551" 
d="M158 8q-49 22 -76.5 62t-27.5 91q0 14 1 22h70q-3 -16 -3 -33q0 -58 40.5 -97t106.5 -39q71 0 115.5 44.5t44.5 119.5q0 72 -45 119t-131 47q-24 0 -57 -5l1 15l219 253h-175q-72 0 -107.5 -25.5t-53.5 -95.5h-14l29 193q53 -11 148 -11h256v-14l-250 -287q32 6 59 6
q62 0 105.5 -26t64.5 -67.5t21 -89.5q0 -59 -29 -105.5t-81.5 -72.5t-120.5 -26q-61 0 -110 22z" />
    <glyph glyph-name="four" unicode="4" horiz-adv-x="565" 
d="M309.5 33.5q30.5 17.5 30.5 67.5v82h-321v14l350 473h34v-439h124v-48h-124v-82q0 -51 21 -68t71 -19v-14h-278v14q62 2 92.5 19.5zM340 231v353l-261 -353h261z" />
    <glyph glyph-name="five" unicode="5" horiz-adv-x="519" 
d="M131 668h330v-61h-314l-44 -206q60 12 113 12q122 0 192 -59.5t70 -162.5q0 -61 -28 -107.5t-79 -72t-117 -25.5q-96 0 -153 46.5t-57 128.5q0 14 1 22h67q-2 -11 -2 -32q0 -62 38 -99t104 -37q70 0 113 45.5t43 122.5q0 83 -62.5 134t-179.5 51q-44 0 -87 -7l-11 10z
" />
    <glyph glyph-name="six" unicode="6" horiz-adv-x="585" 
d="M117.5 76q-64.5 91 -64.5 255q0 135 44 213.5t105 108.5t121 30q47 0 91 -18t74.5 -59t33.5 -105h-75q3 52 -16 87t-50.5 51t-67.5 16q-47 0 -90 -30.5t-71.5 -101.5t-28.5 -186q0 -32 1 -49q19 63 66.5 96t118.5 33q64 0 112 -27t74.5 -75t26.5 -108q0 -65 -28.5 -115.5
t-79 -78.5t-114.5 -28q-118 0 -182.5 91zM159 109.5q20 -44.5 56.5 -70.5t83.5 -26q44 0 79.5 23.5t55 66t19.5 95.5q0 82 -44.5 130.5t-116.5 48.5q-71 0 -112 -45t-41 -124q0 -54 20 -98.5z" />
    <glyph glyph-name="seven" unicode="7" horiz-adv-x="483" 
d="M312 402.5q-69 -154.5 -69 -346.5q0 -18 2 -56h-74q-2 38 -2 55q0 167 67 306t174 246h-209q-72 0 -107 -25.5t-53 -95.5h-14l28 193q53 -11 149 -11h266v-14q-89 -97 -158 -251.5z" />
    <glyph glyph-name="eight" unicode="8" horiz-adv-x="561" 
d="M163.5 6.5q-51.5 21.5 -81 60.5t-29.5 90q0 56 37.5 102.5t111.5 77.5q-63 29 -98.5 69t-35.5 108q0 49 27.5 87.5t76 60t108.5 21.5t109 -21t76.5 -58.5t27.5 -83.5q0 -105 -143 -164q74 -31 115.5 -73.5t41.5 -119.5q0 -52 -28.5 -92.5t-80.5 -63t-119 -22.5
q-64 0 -115.5 21.5zM158.5 55q47.5 -42 122.5 -42q47 0 85 17t59 47t21 67q0 46 -23.5 76.5t-58.5 49t-94 40.5l-41 16q-118 -60 -118 -158q0 -71 47.5 -113zM152 460q23 -29 56.5 -46t91.5 -39l21 -8q68 32 91 67.5t23 75.5q0 67 -43 107t-112 40q-44 0 -78 -16.5
t-53.5 -45t-19.5 -62.5q0 -44 23 -73z" />
    <glyph glyph-name="nine" unicode="9" horiz-adv-x="585" 
d="M467.5 592q64.5 -91 64.5 -255q0 -135 -44 -213.5t-105 -108.5t-121 -30q-47 0 -91 18t-74.5 59t-33.5 105h75q-3 -52 16 -87t50.5 -51t67.5 -16q47 0 90 30.5t71.5 101.5t28.5 186q0 32 -1 49q-19 -63 -66.5 -96t-118.5 -33q-64 0 -112 27t-74.5 75t-26.5 108
q0 65 28.5 115.5t79 78.5t114.5 28q118 0 182.5 -91zM176.5 339.5q44.5 -48.5 116.5 -48.5q71 0 112 45t41 124q0 54 -20 98.5t-56.5 70.5t-83.5 26q-44 0 -79.5 -23.5t-55 -66t-19.5 -95.5q0 -82 44.5 -130.5z" />
    <glyph glyph-name="colon" unicode=":" horiz-adv-x="236" 
d="M81 372.5q-15 14.5 -15 36.5t14.5 36.5t37.5 14.5t37 -14t14 -37q0 -22 -14.5 -36.5t-36.5 -14.5t-37 14.5zM81 -0.5q-15 14.5 -15 36.5t14.5 36.5t37.5 14.5t37 -14t14 -37q0 -22 -14.5 -36.5t-36.5 -14.5t-37 14.5z" />
    <glyph glyph-name="semicolon" unicode=";" horiz-adv-x="249" 
d="M126.5 -69q23.5 26 24.5 61q-13 -7 -27 -7q-22 0 -36.5 14.5t-14.5 36.5q0 23 15 37.5t37 14.5q27 0 42.5 -19t15.5 -50q0 -52 -27.5 -86.5t-76.5 -49.5l-4 9q28 13 51.5 39zM81 373.5q-15 14.5 -15 36.5t14.5 36.5t37.5 14.5t37 -14t14 -37q0 -22 -14.5 -36.5
t-36.5 -14.5t-37 14.5z" />
    <glyph glyph-name="less" unicode="&#x3c;" horiz-adv-x="519" 
d="M52 350l402 192l13 -29l-375 -178l375 -179l-13 -28l-402 192v30z" />
    <glyph glyph-name="equal" unicode="=" horiz-adv-x="519" 
d="M51 451h416v-31h-416v31zM51 250h416v-31h-416v31z" />
    <glyph glyph-name="greater" unicode="&#x3e;" horiz-adv-x="519" 
d="M427 335l-375 178l13 29l402 -192v-30l-402 -192l-13 28z" />
    <glyph glyph-name="question" unicode="?" horiz-adv-x="440" 
d="M356.5 643q50.5 -39 50.5 -104q0 -41 -15 -73t-35.5 -53.5t-57.5 -52.5q-48 -40 -71.5 -71t-23.5 -77q0 -6 2 -22h-14q-9 33 -9 59q0 42 18.5 71.5t55.5 66.5q40 41 60 74t20 83t-31.5 80.5t-85.5 30.5t-86 -35t-32 -96q0 -26 8 -61h-73q-3 23 -3 42q0 82 50 129.5
t135 47.5q87 0 137.5 -39zM165.5 72.5q14.5 14.5 37.5 14.5t37 -14t14 -37q0 -22 -14.5 -36.5t-36.5 -14.5t-37 14.5t-15 36.5t14.5 36.5z" />
    <glyph glyph-name="at" unicode="@" horiz-adv-x="904" 
d="M249 -109.5q-93 47.5 -144.5 134t-51.5 200.5q0 117 59 215.5t160 155.5t221 57q105 0 186.5 -39t126.5 -108t45 -157q0 -80 -28.5 -145.5t-78.5 -103.5t-113 -38q-48 0 -73.5 27.5t-23.5 70.5q-23 -44 -60 -71t-78 -27q-57 0 -91 41.5t-34 107.5q0 22 5 50q11 60 43 106
t75 70.5t85 24.5q69 0 102 -37l63 37l-56 -265q-6 -27 -6 -48q0 -65 58 -65q43 0 77 35t53.5 95.5t19.5 132.5q0 81 -37 145t-104.5 100t-155.5 36q-103 0 -190 -54.5t-137.5 -147.5t-50.5 -201q0 -104 45 -184t127 -124.5t190 -44.5q61 0 130 21t117 54l7 -9
q-43 -41 -118 -68t-151 -27q-120 0 -213 47.5zM328 214q0 -52 23 -83t64 -31q43 0 80 33t52 101l17 80q4 22 4 33q0 41 -22.5 67t-64.5 26q-56 0 -95.5 -51t-52.5 -123q-5 -22 -5 -52z" />
    <glyph glyph-name="A" unicode="A" horiz-adv-x="705" 
d="M636.5 36q23.5 -20 65.5 -22v-14h-235v14q70 2 70 47q0 13 -10 40l-52 131h-276l-51 -129q-11 -27 -11 -44q0 -22 19 -33t59 -12v-14h-212v14q48 1 72 21t44 69l230 579h14l230 -578q20 -49 43.5 -69zM464 260l-127 322l-127 -322h254z" />
    <glyph glyph-name="B" unicode="B" horiz-adv-x="641" 
d="M95 21q19 6 29 22.5t10 49.5v483q0 46 -21 61t-70 17v14h266q110 0 172 -41.5t62 -115.5q0 -66 -46.5 -109.5t-126.5 -52.5q103 -5 160.5 -50t57.5 -120q0 -84 -62 -131.5t-172 -47.5h-311v14q33 1 52 7zM218 43.5q21 -15.5 71 -15.5h55q81 0 127.5 40.5t46.5 110.5
q0 72 -53.5 113t-145.5 41h-122v-241q0 -33 21 -48.5zM315 361q74 0 115.5 39.5t41.5 110.5q0 60 -47 94.5t-131 34.5h-97v-279h118z" />
    <glyph glyph-name="C" unicode="C" horiz-adv-x="665" 
d="M497 613q-52 42 -133 42q-74 0 -128 -37.5t-83 -108.5t-29 -170q0 -87 34 -155.5t93 -107t133 -38.5q79 0 138.5 43t86.5 122l13 -3q-25 -102 -96 -158.5t-164 -56.5q-91 0 -161.5 44.5t-109 124.5t-38.5 182t40.5 181t111 122.5t157.5 43.5q63 0 119.5 -15t97.5 -44
l-6 -127h-14q-10 74 -62 116z" />
    <glyph glyph-name="D" unicode="D" horiz-adv-x="719" 
d="M95 21q19 6 29 22.5t10 49.5v483q0 46 -21 61t-70 17v14h275q103 0 182 -42t122.5 -117.5t43.5 -174.5t-41.5 -175t-117 -117.5t-174.5 -41.5h-290v14q33 1 52 7zM215 41.5q18 -13.5 69 -13.5h49q78 0 137.5 38.5t92 107.5t32.5 160t-36.5 160t-103 107.5t-154.5 38.5
h-104v-548q0 -37 18 -50.5z" />
    <glyph glyph-name="E" unicode="E" horiz-adv-x="661" 
d="M587 169l-28 -176q-49 7 -91 7h-425v14q48 2 69.5 18t21.5 63v479q0 46 -21.5 62t-69.5 18v14h412q43 0 92 7l28 -176h-14q-19 75 -52 108t-100 33h-212v-283h172q51 0 70.5 21.5t21.5 72.5h14v-215h-14q-2 50 -21.5 71.5t-70.5 21.5h-172v-234q0 -37 13 -52t43 -15h169
q67 0 99.5 33t51.5 108h14z" />
    <glyph glyph-name="F" unicode="F" horiz-adv-x="633" 
d="M574 499h-14q-19 75 -52 108t-100 33h-211v-285h172q51 0 70.5 22t21.5 73h14v-214h-14q-2 50 -21.5 72t-70.5 22h-172v-236q0 -34 11.5 -50.5t36 -22.5t73.5 -7v-14h-275v14q33 1 52 7t29 22.5t10 49.5v483q0 46 -21 61t-70 17v14h411q43 0 92 7z" />
    <glyph glyph-name="G" unicode="G" horiz-adv-x="713" 
d="M206 29.5q-74 43.5 -113.5 122t-39.5 180.5t43.5 182t118.5 124.5t168 44.5q62 0 121 -15.5t100 -43.5l-5 -127h-14q-10 73 -64 115.5t-136 42.5q-79 0 -138 -38.5t-91 -110.5t-32 -170q0 -99 32 -171.5t91.5 -111.5t138.5 -39q54 0 99 15t74 45v167q0 43 -21 61.5
t-75 19.5v14h232v-14q-35 -2 -53.5 -22t-18.5 -59v-142q-35 -49 -99 -81t-145 -32q-99 0 -173 43.5z" />
    <glyph glyph-name="H" unicode="H" horiz-adv-x="768" 
d="M550 31.5q21 15.5 21 63.5v234h-374v-234q0 -48 21 -63.5t70 -17.5v-14h-245v14q49 2 70 17.5t21 63.5v479q0 47 -21 62.5t-70 17.5v14h245v-14q-49 -2 -70 -17.5t-21 -62.5v-217h374v217q0 47 -21 62.5t-70 17.5v14h245v-14q-49 -2 -70 -17.5t-21 -62.5v-479
q0 -48 21 -63.5t70 -17.5v-14h-245v14q49 2 70 17.5z" />
    <glyph glyph-name="I" unicode="I" horiz-adv-x="341" 
d="M118 31.5q21 15.5 21 63.5v479q0 47 -21 62.5t-70 17.5v14h245v-14q-49 -2 -70 -17.5t-21 -62.5v-479q0 -48 21 -63.5t70 -17.5v-14h-245v14q49 2 70 17.5z" />
    <glyph glyph-name="J" unicode="J" horiz-adv-x="504" 
d="M403 635.5q-21 -16.5 -21 -60.5v-391q0 -99 -47.5 -149t-132.5 -50t-134 50.5t-44 134.5h69q-4 -20 -4 -41q0 -57 31 -86.5t83 -29.5q55 0 85.5 37t30.5 114v411q0 44 -21.5 60.5t-70.5 18.5v14h244v-14q-47 -2 -68 -18.5z" />
    <glyph glyph-name="K" unicode="K" horiz-adv-x="694" 
d="M612.5 35q36.5 -19 67.5 -21v-14h-157q-4 15 -18.5 34.5t-45.5 49.5l-262 246v-235q0 -48 21 -63.5t70 -17.5v-14h-245v14q49 2 70 17.5t21 63.5v479q0 47 -21 62.5t-70 17.5v14h245v-14q-49 -2 -70 -17.5t-21 -62.5v-233l282 255q25 22 25 36q0 21 -64 22v14h205v-14
q-35 -1 -65 -15.5t-63 -44.5l-260 -236l291 -278q28 -26 64.5 -45z" />
    <glyph glyph-name="L" unicode="L" horiz-adv-x="610" 
d="M577 169l-29 -176q-49 7 -91 7h-414v14q50 2 70.5 17t20.5 62v483q0 46 -20.5 61t-70.5 17v14h245v-14q-49 -2 -70 -17.5t-21 -60.5v-483q0 -36 12.5 -50.5t42.5 -14.5h159q67 0 100 33t52 108h14z" />
    <glyph glyph-name="M" unicode="M" horiz-adv-x="914" 
d="M802.5 637q-21.5 -16 -21.5 -56v-497q0 -38 20 -52t70 -18v-14h-242v14q48 4 68.5 18.5t20.5 51.5v491l-277 -590h-14l-266 590v-491q0 -38 20 -52t69 -18v-14h-207v14q49 4 69.5 18.5t20.5 51.5v497q0 40 -21 55.5t-69 17.5v14h144l266 -591l278 591h140v-14
q-47 -1 -68.5 -17z" />
    <glyph glyph-name="N" unicode="N" horiz-adv-x="723" 
d="M685 668v-14q-38 -2 -56.5 -14.5t-18.5 -55.5v-599h-14l-430 590v-489q0 -32 12.5 -47t33 -19t59.5 -5v-15h-209v14q27 1 42 5.5t24.5 19.5t9.5 47v502q0 35 -25 49t-70 17v14h133l406 -558v474q0 30 -13 45t-35 19.5t-59 5.5v14h210z" />
    <glyph glyph-name="O" unicode="O" horiz-adv-x="756" 
d="M209 29q-74 44 -115 123.5t-41 181.5t41 181.5t115 123.5t169 44q96 0 169.5 -44t114.5 -123.5t41 -181.5t-41 -181.5t-114.5 -123.5t-169.5 -44q-95 0 -169 44zM155 165.5q32 -72.5 89.5 -112.5t133.5 -40t133.5 40t89.5 112.5t32 168.5t-32 168.5t-89.5 112.5
t-133.5 40t-133.5 -40t-89.5 -112.5t-32 -168.5t32 -168.5z" />
    <glyph glyph-name="P" unicode="P" horiz-adv-x="606" 
d="M113 31.5q21 15.5 21 63.5v479q0 47 -21 62.5t-70 17.5v14h267q117 0 185 -45.5t68 -139.5t-68 -141t-185 -47h-113v-200q0 -34 11 -50.5t34 -23t66 -7.5v-14h-265v14q49 2 70 17.5zM304 323q91 0 140 43.5t49 116.5q0 71 -49 114t-140 43h-107v-317h107z" />
    <glyph glyph-name="Q" unicode="Q" horiz-adv-x="756" 
d="M374 -15q26 -61 81 -98.5t114 -44.5l-19 -58q-69 6 -122.5 59.5t-73.5 142.5q-89 5 -157.5 50.5t-106 122.5t-37.5 175q0 102 41 181.5t115 123.5t169 44q96 0 169.5 -44t114.5 -123.5t41 -181.5t-41 -181.5t-114.5 -123.5t-169.5 -44h-4zM155 165.5
q32 -72.5 89.5 -112.5t133.5 -40t133.5 40t89.5 112.5t32 168.5t-32 168.5t-89.5 112.5t-133.5 40t-133.5 -40t-89.5 -112.5t-32 -168.5t32 -168.5z" />
    <glyph glyph-name="R" unicode="R" horiz-adv-x="669" 
d="M424 82l-227 250v-239q0 -33 10 -49.5t29 -22.5t52 -7v-14h-245v14q33 1 52 7t29 22.5t10 49.5v483q0 46 -21 61t-70 17v14h265q255 0 255 -175q0 -93 -68 -136t-187 -41h-16l193 -213q41 -44 78 -64.5t83 -24.5v-14h-162q-3 18 -60 82zM305 344q92 0 140 39.5t48 109.5
q0 69 -48 108t-140 39h-108v-296h108z" />
    <glyph glyph-name="S" unicode="S" horiz-adv-x="593" 
d="M177 64q54 -50 128 -50q69 0 111.5 36.5t42.5 95.5q0 48 -24 79.5t-59 50t-96 41.5q-63 24 -102 44.5t-65.5 57.5t-26.5 93q0 76 53 123t141 47q55 0 110.5 -15t93.5 -42l-5 -128h-14q-13 77 -60.5 117t-125.5 40q-36 0 -68.5 -15t-52 -42.5t-19.5 -61.5q0 -41 23 -69
t57.5 -46t92.5 -40q67 -25 108.5 -47.5t70.5 -61.5t29 -98q0 -55 -27.5 -97.5t-76.5 -66t-112 -23.5q-67 0 -125.5 20t-95.5 56l6 140h14q20 -88 74 -138z" />
    <glyph glyph-name="T" unicode="T" horiz-adv-x="662" 
d="M371.5 49.5q9.5 -20.5 28.5 -27.5t53 -8v-14h-245v14q34 1 53 8t29 27.5t10 60.5v530h-101q-67 0 -100 -33t-52 -108h-14l29 176q49 -7 91 -7h356q42 0 91 7l28 -176h-14q-19 75 -51.5 108t-99.5 33h-101v-530q0 -40 9.5 -60.5z" />
    <glyph glyph-name="U" unicode="U" horiz-adv-x="743" 
d="M710 668v-14q-49 -2 -70 -17t-21 -61v-322q0 -133 -62 -200.5t-177 -67.5q-122 0 -189 67t-67 195v328q0 46 -21 61t-70 17v14h245v-14q-49 -2 -70 -17t-21 -61v-319q0 -115 56.5 -175t155.5 -60q92 0 142 58.5t50 174.5v321q0 46 -21 61t-71 17v14h211z" />
    <glyph glyph-name="V" unicode="V" horiz-adv-x="685" 
d="M58.5 632q-23.5 20 -65.5 22v14h235v-14q-70 -2 -70 -47q0 -13 10 -40l190 -481l189 479q11 27 11 44q0 22 -19 33t-59 12v14h212v-14q-48 -1 -72 -21t-44 -69l-230 -579h-14l-230 578q-20 49 -43.5 69z" />
    <glyph glyph-name="W" unicode="W" horiz-adv-x="1008" 
d="M426 630.5q-21 21.5 -58 23.5v14h231v-14q-40 -1 -58.5 -14t-18.5 -37q0 -18 7 -36l165 -472l167 470q9 23 9 41q0 47 -76 48v14h211v-14q-49 -2 -73.5 -22.5t-41.5 -67.5l-206 -579h-14l-176 492l-175 -492h-14l-207 578q-17 46 -37.5 67.5t-57.5 23.5v14h231v-14
q-77 -1 -77 -50q0 -15 8 -37l165 -472l149 424l-16 44q-16 46 -37 67.5z" />
    <glyph glyph-name="X" unicode="X" horiz-adv-x="724" 
d="M532 45q0 18 -23 50l-161 226l-161 -224q-23 -34 -23 -51q0 -16 17 -23.5t52 -8.5v-14h-215v14q43 2 74.5 21t62.5 64l176 246l-172 243q-25 35 -49.5 50t-61.5 16v14h234v-14q-33 -1 -48 -7.5t-15 -20.5q0 -15 17 -38l142 -201l131 183q24 33 24 52q0 31 -69 32v14h206
v-14q-38 -2 -67.5 -21t-60.5 -63l-148 -206l190 -269q31 -43 59 -61t63 -20v-14h-234v14q60 2 60 31z" />
    <glyph glyph-name="Y" unicode="Y" horiz-adv-x="606" 
d="M219 21q19 6 28.5 22.5t9.5 49.5v191l-172 286q-26 44 -49.5 63.5t-52.5 20.5v14h234v-14q-39 -1 -57.5 -10t-18.5 -28q0 -17 17 -46l151 -251l156 251q19 31 19 50q0 17 -16 25t-51 9v14h206v-14q-40 -2 -69 -21.5t-56 -62.5l-178 -285v-192q0 -47 20.5 -62t69.5 -17
v-14h-243v14q33 1 52 7z" />
    <glyph glyph-name="Z" unicode="Z" horiz-adv-x="610" 
d="M436 0h-390v14l420 626h-232q-67 0 -99.5 -33t-52.5 -108h-14l29 176q49 -7 91 -7h363v-14l-421 -626h260q67 0 99.5 33t51.5 108h14l-28 -176q-49 7 -91 7z" />
    <glyph glyph-name="bracketleft" unicode="[" horiz-adv-x="279" 
d="M97 757h157v-18h-101v-890h101v-18h-157v926z" />
    <glyph glyph-name="backslash" unicode="\" horiz-adv-x="392" 
d="M319 -45l-276 731h30l276 -731h-30z" />
    <glyph glyph-name="bracketright" unicode="]" horiz-adv-x="279" 
d="M25 -169v18h101v890h-101v18h157v-926h-157z" />
    <glyph glyph-name="asciicircum" unicode="^" horiz-adv-x="460" 
d="M371 443l-141 214l-141 -214h-38l171 254h18l168 -254h-37z" />
    <glyph glyph-name="underscore" unicode="_" horiz-adv-x="422" 
d="M375 -47h-329v32h329v-32z" />
    <glyph glyph-name="grave" unicode="`" horiz-adv-x="351" 
d="M99 693h84l68 -152h-14z" />
    <glyph glyph-name="a" unicode="a" horiz-adv-x="456" 
d="M84 18q-36 33 -36 86q0 46 21.5 73t52 40t81.5 27q41 11 64 20t38.5 25.5t15.5 43.5q0 46 -29.5 75t-76.5 29q-48 0 -75.5 -28.5t-27.5 -72.5q0 -18 4 -34h-68q1 43 21 79.5t57.5 58.5t89.5 22q72 0 114.5 -41.5t42.5 -110.5v-235q0 -23 10.5 -34.5t35.5 -13.5l16 -1v-14
l-113 -28v123q-20 -61 -56.5 -91.5t-87.5 -30.5q-58 0 -94 33zM133 46.5q25 -24.5 64 -24.5q30 0 58.5 18t47 51t18.5 75v112q-10 -19 -31 -29.5t-61 -22.5q-39 -11 -63.5 -22.5t-41 -34t-16.5 -60.5t25 -62.5z" />
    <glyph glyph-name="b" unicode="b" horiz-adv-x="502" 
d="M374 432.5q42 -29.5 65.5 -83.5t23.5 -124q0 -77 -27.5 -131t-73.5 -81.5t-100 -27.5q-33 0 -65 11t-52 29l-66 -40v618q0 23 -11 34t-35 13l-16 1v14l114 28v-351q14 56 52.5 88t93.5 32t97 -29.5zM166.5 51.5q35.5 -41.5 94.5 -41.5q69 0 105.5 58t36.5 148
q0 61 -18.5 107t-50 71t-71.5 25q-57 0 -94.5 -39.5t-37.5 -118.5v-106q0 -62 35.5 -103.5z" />
    <glyph glyph-name="c" unicode="c" horiz-adv-x="446" 
d="M329.5 407q-31.5 30 -79.5 30q-43 0 -78 -26.5t-54.5 -73.5t-19.5 -104t21.5 -103.5t59.5 -73.5t84 -27q49 0 85 28.5t53 74.5l12 -3q-15 -67 -60 -104.5t-112 -37.5q-57 0 -103.5 30.5t-73 85t-26.5 123.5q0 67 27.5 121t76 84.5t108.5 30.5q37 0 73 -8.5t61 -24.5
l-3 -110h-14q-6 58 -37.5 88z" />
    <glyph glyph-name="d" unicode="d" horiz-adv-x="511" 
d="M128 14.5q-42 29.5 -65.5 83.5t-23.5 124q0 77 27.5 131t73.5 81.5t100 27.5q38 0 72.5 -13.5t58.5 -44.5v199q0 23 -11 34t-35 13l-16 1v14l114 28v-618q0 -23 10.5 -34t35.5 -13l16 -1v-14l-113 -28v123q-14 -57 -53 -90t-94 -33t-97 29.5zM117.5 124
q18.5 -46 50 -70.5t71.5 -24.5q56 0 93.5 39t38.5 119v105q0 62 -35.5 103.5t-94.5 41.5q-69 0 -105.5 -58t-36.5 -148q0 -61 18.5 -107z" />
    <glyph glyph-name="e" unicode="e" horiz-adv-x="458" 
d="M137.5 90q44.5 -59 125.5 -59q51 0 87 29t52 72l12 -3q-14 -66 -61 -104t-115 -38q-59 0 -104.5 29.5t-70.5 81.5t-25 119q0 75 26.5 130.5t74 85t109.5 29.5q74 0 119.5 -44.5t45.5 -121.5q0 -10 -2 -30h-315q-1 -7 -1 -21q-2 -96 42.5 -155zM352 291q1 9 1 25
q0 57 -31.5 89t-83.5 32q-54 0 -91 -39.5t-48 -106.5h253z" />
    <glyph glyph-name="f" unicode="f" horiz-adv-x="289" 
d="M281 422h-126v-356q0 -25 21.5 -37.5t71.5 -14.5v-14h-211v14q36 5 51 16.5t15 35.5v356h-76v25h76v79q0 77 39 117t107 40q20 0 42 -4t36 -12l-5 -97h-12q-6 43 -26 65.5t-52 22.5q-35 0 -56 -29.5t-21 -80.5v-101h126v-25z" />
    <glyph glyph-name="g" unicode="g" horiz-adv-x="480" 
d="M85 -178q-58 34 -58 92q0 34 22 61t62 45q-44 24 -44 77q0 26 13 48.5t35 38.5q-29 21 -45 52.5t-16 70.5q0 70 48.5 112.5t128.5 42.5q59 0 100 -23l35 9q4 1 27.5 6.5t52.5 5.5v-37h-91q53 -42 53 -116q0 -70 -49 -113t-128 -43q-61 0 -104 26q-24 -27 -24 -57
q0 -53 81 -59l116 -6q156 -9 156 -119q0 -68 -58 -108t-159 -40q-96 0 -154 34zM124.5 -158.5q42.5 -28.5 119.5 -28.5q75 0 118.5 29.5t43.5 77.5q0 69 -113 75l-109 6q-35 2 -59 12q-19 -12 -31 -36.5t-12 -53.5q0 -53 42.5 -81.5zM145 212.5q33 -35.5 86 -35.5
q54 0 87 35.5t33 94.5t-33 94.5t-87 35.5q-53 0 -86 -35.5t-33 -94.5t33 -94.5z" />
    <glyph glyph-name="h" unicode="h" horiz-adv-x="522" 
d="M449 30.5q15 -11.5 50 -16.5v-14h-184v14q36 5 51 16.5t15 35.5v241q0 59 -27 87t-71 28q-34 0 -65 -17t-51 -54t-20 -94v-191q0 -24 15 -35.5t51 -16.5v-14h-184v14q36 5 51 16.5t15 35.5v537q0 23 -10.5 34.5t-35.5 12.5l-16 1v14l114 28v-352q21 60 61.5 90.5
t93.5 30.5q61 0 96.5 -38t35.5 -112v-246q0 -24 15 -35.5z" />
    <glyph glyph-name="i" unicode="i" horiz-adv-x="250" 
d="M167 30.5q15 -11.5 50 -16.5v-14h-183v14q35 5 50 16.5t15 35.5v306q0 23 -10.5 34.5t-35.5 12.5l-16 1v14l115 28v-396q0 -24 15 -35.5zM90.5 671q14.5 14 35.5 14q20 0 33.5 -14t13.5 -34q0 -19 -13.5 -33t-33.5 -14q-21 0 -35.5 13.5t-14.5 33.5t14.5 34z" />
    <glyph glyph-name="j" unicode="j" horiz-adv-x="208" 
d="M23 434l114 28v-386q0 -113 -33.5 -179.5t-115.5 -108.5l-7 10q54 44 78.5 102t24.5 154v318q0 23 -10.5 34.5t-35.5 12.5l-15 1v14zM75.5 671q14.5 14 35.5 14q20 0 33.5 -14t13.5 -34q0 -19 -13.5 -33t-33.5 -14q-21 0 -35.5 13.5t-14.5 33.5t14.5 34z" />
    <glyph glyph-name="k" unicode="k" horiz-adv-x="501" 
d="M354.5 28.5q-12.5 16.5 -39.5 44.5l-168 166v-173q0 -24 15 -35.5t51 -16.5v-14h-184v14q36 5 51 16.5t15 35.5v537q0 23 -10.5 34.5t-35.5 12.5l-16 1v14l114 28v-449l171 135q32 25 32 38q0 7 -9 10.5t-28 5.5v14h158v-14q-24 -1 -52 -14.5t-66 -43.5l-150 -119
l186 -187q28 -29 53 -41.5t56 -14.5v-13h-130q-1 12 -13.5 28.5z" />
    <glyph glyph-name="l" unicode="l" horiz-adv-x="241" 
d="M162 30.5q15 -11.5 51 -16.5v-14h-184v14q36 5 51 16.5t15 35.5v537q0 23 -10.5 34.5t-35.5 12.5l-16 1v14l114 28v-627q0 -24 15 -35.5z" />
    <glyph glyph-name="m" unicode="m" horiz-adv-x="813" 
d="M739 30.5q15 -11.5 50 -16.5v-14h-183v14q35 5 50 16.5t15 35.5v241q0 59 -26.5 87t-70.5 28q-34 0 -65 -17t-51 -54t-20 -94v-191q0 -24 15 -35.5t50 -16.5v-14h-183v14q35 5 50 16.5t15 35.5v241q0 59 -26.5 87t-70.5 28q-34 0 -65 -17t-51 -54t-20 -94v-191
q0 -24 15 -35.5t50 -16.5v-14h-183v14q35 5 50 16.5t15 35.5v306q0 23 -10.5 34.5t-35.5 12.5l-16 1v14l115 28v-121q21 60 61 90.5t93 30.5q55 0 89.5 -31.5t41.5 -93.5q20 62 60.5 93.5t94.5 31.5q61 0 96.5 -38t35.5 -112v-246q0 -24 15 -35.5z" />
    <glyph glyph-name="n" unicode="n" horiz-adv-x="526" 
d="M453 30.5q15 -11.5 50 -16.5v-14h-183v14q35 5 50 16.5t15 35.5v241q0 59 -26.5 87t-70.5 28q-34 0 -65 -17t-51 -54t-20 -94v-191q0 -24 15 -35.5t50 -16.5v-14h-183v14q35 5 50 16.5t15 35.5v306q0 23 -10.5 34.5t-35.5 12.5l-16 1v14l115 28v-121q21 60 61 90.5
t93 30.5q61 0 96.5 -38t35.5 -112v-246q0 -24 15 -35.5z" />
    <glyph glyph-name="o" unicode="o" horiz-adv-x="479" 
d="M134 16q-46 30 -71 84t-25 124t25 124t71 84t106 30q59 0 105 -30t71 -84t25 -124t-25 -124t-71 -84t-105 -30q-60 0 -106 30zM136 67.5q38 -56.5 104 -56.5t103.5 56.5t37.5 156.5q0 101 -37.5 157t-103.5 56t-104 -56t-38 -157q0 -100 38 -156.5z" />
    <glyph glyph-name="p" unicode="p" horiz-adv-x="522" 
d="M394.5 434.5q42.5 -29.5 66 -83.5t23.5 -124q0 -77 -28 -131t-74 -81.5t-100 -27.5q-37 0 -71.5 13.5t-58.5 44.5v-176q0 -26 21.5 -38t70.5 -14v-14h-210v14q35 5 50 16.5t15 35.5v503q0 23 -10.5 34.5t-35.5 12.5l-16 1v14l115 28v-118q14 56 52.5 88t93.5 32
q54 0 96.5 -29.5zM187.5 53.5q35.5 -41.5 94.5 -41.5q69 0 105 58t36 148q0 61 -18 107t-49.5 70.5t-71.5 24.5q-57 0 -94.5 -39t-37.5 -119v-105q0 -62 35.5 -103.5z" />
    <glyph glyph-name="q" unicode="q" horiz-adv-x="497" 
d="M438 -166.5q15 -11.5 50 -16.5v-14h-210v14q49 2 70.5 14t21.5 38v236q-14 -56 -52.5 -88t-93.5 -32t-97 29.5t-65.5 83.5t-23.5 124q0 77 28 131t73.5 81.5t99.5 27.5q71 0 117 -39l67 39v-593q0 -24 15 -35.5zM116.5 124q18.5 -46 50 -70.5t71.5 -24.5q57 0 94.5 39
t37.5 119v105q0 62 -35.5 103.5t-94.5 41.5q-69 0 -105.5 -58t-36.5 -148q0 -61 18.5 -107z" />
    <glyph glyph-name="r" unicode="r" horiz-adv-x="332" 
d="M200 427.5q33 34.5 73 34.5q20 0 44 -11l-8 -56q-24 15 -50 15q-44 0 -75 -43t-32 -119v-182q0 -26 21.5 -38t70.5 -14v-14h-210v14q35 5 50 16.5t15 35.5v306q0 23 -10.5 34.5t-35.5 12.5l-16 1v14l115 28v-130q15 61 48 95.5z" />
    <glyph glyph-name="s" unicode="s" horiz-adv-x="404" 
d="M120.5 46q36.5 -36 87.5 -36q48 0 77.5 25.5t29.5 67.5q0 30 -15.5 49t-38.5 29t-63 23q-47 16 -74.5 29.5t-47.5 40.5t-20 71q0 53 39 85t103 32q78 0 129 -32l-2 -110h-14q-8 55 -38.5 86t-76.5 31q-43 0 -70 -22.5t-27 -59.5q0 -26 14.5 -43t36.5 -26.5t60 -22.5
q47 -15 76.5 -29.5t50.5 -43.5t21 -76q0 -58 -41 -93.5t-110 -35.5q-48 0 -88 14t-64 37l3 110h14q12 -64 48.5 -100z" />
    <glyph glyph-name="t" unicode="t" horiz-adv-x="297" 
d="M234.5 3.5q-23.5 -16.5 -51.5 -16.5q-103 0 -103 131v304h-59v14q31 31 53.5 59t44.5 70h14v-118h132v-25h-132v-310q0 -88 75 -88q17 0 30 7.5t20 21.5l12 -5q-12 -28 -35.5 -44.5z" />
    <glyph glyph-name="u" unicode="u" horiz-adv-x="509" 
d="M483 26v-14l-113 -28v125q-20 -61 -60.5 -92.5t-94.5 -31.5q-61 0 -96.5 38.5t-35.5 112.5v236q0 23 -10.5 34.5t-35.5 12.5l-16 1v14l115 28v-322q0 -58 27 -86.5t70 -28.5q34 0 65 17.5t51 54.5t20 93v182q0 23 -10.5 34.5t-35.5 12.5l-16 1v14l115 28v-387
q0 -23 10.5 -34.5t35.5 -13.5z" />
    <glyph glyph-name="v" unicode="v" horiz-adv-x="451" 
d="M36 418.5q-16 12.5 -42 14.5v14h174v-14q-52 -1 -52 -31q0 -9 5 -24l119 -308l122 306q6 14 6 24q0 16 -15.5 23.5t-47.5 9.5v14h152v-14q-25 -2 -41 -15.5t-27 -42.5l-157 -389h-14l-156 393q-10 27 -26 39.5z" />
    <glyph glyph-name="w" unicode="w" horiz-adv-x="692" 
d="M285.5 420q-13.5 12 -36.5 14v13h173v-13q-31 -1 -45 -8t-14 -22q0 -12 5 -23l117 -308l119 302q6 14 6 25q0 31 -63 34v13h151v-13q-24 -1 -40 -15t-29 -45l-153 -388h-12l-121 309l-122 -309h-13l-151 393q-10 28 -25 40.5t-38 14.5v13h173v-13q-31 -1 -45 -8t-14 -22
q0 -13 5 -24l116 -307l101 256l-20 52q-11 27 -24.5 39z" />
    <glyph glyph-name="x" unicode="x" horiz-adv-x="497" 
d="M354 36q0 13 -15 32l-103 138l-106 -134q-17 -22 -17 -34q0 -22 54 -25v-13h-153v13q20 1 40.5 16t44.5 45l121 153l-115 153q-20 27 -39 40t-42 14v13h175v-13q-44 -1 -44 -21q0 -13 16 -33l90 -119l92 115q16 20 16 34q0 11 -12 16.5t-39 7.5v13h153v-13
q-23 -2 -44.5 -16t-44.5 -44l-106 -134l130 -172q21 -28 39.5 -40.5t38.5 -14.5v-13h-176v13q46 3 46 23z" />
    <glyph glyph-name="y" unicode="y" horiz-adv-x="441" 
d="M74 -161q34 0 61 29t52 92l17 43l-148 371q-12 29 -27 43.5t-36 15.5v14h173v-14q-30 -2 -44.5 -9.5t-14.5 -23.5q0 -11 5 -22l120 -305l119 297q7 15 7 29q0 17 -15.5 25t-48.5 9v14h154v-14q-24 -1 -40 -16t-30 -48l-167 -415q-36 -88 -77 -127t-101 -39q-28 0 -66 18
l28 62q37 -29 79 -29z" />
    <glyph glyph-name="z" unicode="z" horiz-adv-x="451" 
d="M47 14l282 408h-159q-40 0 -64 -27.5t-41 -91.5h-14l24 144h325v-14l-282 -408h167q41 0 65 28.5t40 92.5h14l-24 -146h-333v14z" />
    <glyph glyph-name="braceleft" unicode="{" horiz-adv-x="291" 
d="M104 324q22 20 22 58q0 15 -3 33l-28 204q-2 20 -2 30q0 56 37 85t118 29v-17q-55 0 -77 -22.5t-22 -62.5q0 -10 2 -30l28 -204q3 -22 3 -41q0 -44 -24 -64t-84 -28q62 -8 85.5 -27t23.5 -62q0 -10 -4 -42l-28 -208q-2 -20 -2 -30q0 -39 22 -60.5t77 -22.5v-17
q-82 0 -118.5 29.5t-36.5 86.5q0 8 2 30l28 204q2 22 2 32q0 38 -21.5 58t-77.5 20v19q56 0 78 20z" />
    <glyph glyph-name="bar" unicode="|" horiz-adv-x="172" 
d="M73 768h26v-960h-26v960z" />
    <glyph glyph-name="braceright" unicode="}" horiz-adv-x="291" 
d="M187.5 265q-21.5 -20 -21.5 -58q0 -10 2 -32l28 -204q2 -22 2 -30q0 -57 -36.5 -86.5t-118.5 -29.5v17q55 1 77 22.5t22 60.5q0 10 -2 30l-28 208q-4 32 -4 42q0 43 23.5 62t85.5 27q-60 8 -84 28t-24 64q0 19 3 41l28 204q2 20 2 30q0 40 -22 62.5t-77 22.5v17
q81 0 118 -29t37 -85q0 -10 -2 -30l-28 -204q-3 -18 -3 -33q0 -38 22 -58t78 -20v-19q-56 0 -77.5 -20z" />
    <glyph glyph-name="asciitilde" unicode="~" horiz-adv-x="532" 
d="M458.5 298.5q-24.5 -38.5 -72.5 -38.5q-27 0 -55 14.5t-77 50.5q-45 32 -67 44.5t-43 12.5q-66 0 -61 -118h-32q-3 72 21 110t73 38q28 0 54.5 -14t77.5 -51q42 -31 65 -44t43 -13q36 0 51 31t13 84h32q2 -68 -22.5 -106.5z" />
    <glyph glyph-name="uni00A0" unicode="&#xa0;" horiz-adv-x="166" 
 />
    <glyph glyph-name="exclamdown" unicode="&#xa1;" horiz-adv-x="229" 
d="M134 125q11 -101 17 -177t6 -168h-85q0 91 6.5 169t17.5 168q2 22 6.5 64t5.5 68h14q3 -54 12 -124zM78 448.5q15 14.5 37 14.5t36.5 -14.5t14.5 -36.5t-14 -36.5t-37 -14.5t-37.5 14.5t-14.5 36.5t15 36.5z" />
    <glyph glyph-name="cent" unicode="&#xa2;" horiz-adv-x="446" 
d="M330.5 406q-30.5 30 -77.5 31v-408h10q49 0 85 28.5t53 74.5l12 -3q-14 -64 -56 -101t-104 -41v-136h-27v137q-54 4 -96.5 35.5t-67 84t-24.5 118.5q0 63 24 114t66.5 83t97.5 38v138h27v-137q37 -1 72 -9.5t59 -23.5l-3 -110h-14q-6 57 -36.5 87zM133.5 104
q35.5 -55 92.5 -70v401q-56 -11 -92 -67.5t-36 -134.5q0 -74 35.5 -129z" />
    <glyph glyph-name="sterling" unicode="&#xa3;" horiz-adv-x="616" 
d="M245 328q8 -26 8 -50q0 -100 -136 -215q34 20 62 29t55 9q32 0 59 -8t66 -25q36 -15 57 -21.5t43 -6.5q45 0 75.5 29t36.5 72l12 -3q-13 -81 -55.5 -116.5t-103.5 -35.5q-34 0 -63 9t-70 26q-37 16 -60.5 23.5t-49.5 7.5q-58 0 -124 -52l-11 14q77 76 111.5 131t34.5 100
q0 37 -22 83h-117v26h103q-26 46 -37.5 73.5t-11.5 63.5q0 55 27.5 98.5t76 68t108.5 24.5q58 0 105 -22.5t73.5 -62t26.5 -87.5q0 -10 -4 -40h-71q11 38 11 63q0 33 -19 61t-51 44t-71 16q-42 0 -76.5 -17t-54.5 -47t-20 -67q0 -29 10.5 -55t31.5 -66q18 -32 25 -48h242
v-26h-232z" />
    <glyph glyph-name="currency" unicode="&#xa4;" horiz-adv-x="648" 
d="M240 40.5q-41 17.5 -71 48.5l-97 -97l-19 19l98 98q-48 61 -48 141q0 73 41 131l-91 91l19 19l88 -88q31 35 74 54.5t91 19.5t90.5 -19.5t72.5 -54.5l88 88l19 -19l-90 -90q40 -59 40 -132q0 -80 -48 -141l98 -98l-19 -19l-96 96q-31 -31 -71.5 -48t-83.5 -17
q-44 0 -85 17.5zM155.5 149q26.5 -46 71.5 -72.5t98 -26.5q52 0 96.5 26.5t71 72.5t26.5 101t-26.5 101t-71 72.5t-96.5 26.5q-53 0 -98 -26.5t-71.5 -72.5t-26.5 -101t26.5 -101z" />
    <glyph glyph-name="yen" unicode="&#xa5;" horiz-adv-x="588" 
d="M460 125h-149v-32q0 -47 20.5 -62t69.5 -17v-14h-242v14q49 2 69.5 17t20.5 62v32h-148v25h148v118h-148v25h148v39l-189 266q-23 34 -38 45t-39 11v14h241v-14q-51 0 -73.5 -8t-22.5 -25q0 -18 20 -44l151 -212l181 243q7 8 7 17q0 14 -21 21.5t-62 7.5v14h201v-14
q-37 0 -57.5 -14.5t-44.5 -46.5l-192 -257v-43h149v-25h-149v-118h149v-25z" />
    <glyph glyph-name="brokenbar" unicode="&#xa6;" horiz-adv-x="172" 
d="M99 367h-26v401h26v-401zM73 209h26v-401h-26v401z" />
    <glyph glyph-name="section" unicode="&#xa7;" horiz-adv-x="689" 
d="M476.5 667.5q47.5 -15.5 92.5 -52.5l-7 -149h-16q-13 91 -54.5 140t-106.5 49q-51 0 -89.5 -29t-38.5 -84q0 -33 15.5 -59.5t37 -46.5t61.5 -51l117 -90q37 -29 63 -54.5t45.5 -68.5t19.5 -101q0 -111 -75.5 -175.5t-220.5 -64.5q-76 0 -129 18t-109 57l7 153h15
q35 -200 198 -200q62 0 100.5 27.5t38.5 81.5q0 36 -17 65t-40 49t-61 47l-103 75q-37 27 -64.5 54.5t-49.5 74.5t-22 112q0 114 72.5 176t209.5 62q63 0 110.5 -15.5zM156.5 366q18.5 -39 43.5 -62t69 -55l97 -70q39 -28 63.5 -49.5t45 -56t20.5 -78.5q0 -48 -24.5 -82
t-64.5 -53q75 18 115.5 70t40.5 124q0 52 -18 89t-41.5 60t-59.5 49l-113 82q-40 29 -65 52t-42.5 56t-17.5 76q0 49 23.5 82.5t61.5 51.5q-152 -36 -152 -191q0 -56 18.5 -95z" />
    <glyph glyph-name="dieresis" unicode="&#xa8;" horiz-adv-x="452" 
d="M114.5 573.5q-14.5 13.5 -14.5 33.5q0 21 14.5 35t36.5 14q20 0 33.5 -14t13.5 -35q0 -19 -13.5 -33t-33.5 -14q-22 0 -36.5 13.5zM271.5 642q14.5 14 35.5 14q20 0 34 -14t14 -35q0 -19 -14 -33t-34 -14q-21 0 -35.5 13.5t-14.5 33.5q0 21 14.5 35z" />
    <glyph glyph-name="copyright" unicode="&#xa9;" 
d="M223.5 33q-79.5 47 -126.5 127t-47 174t47 174t126.5 127t173.5 47t174.5 -47t127.5 -127t47 -174t-47 -174t-127.5 -127t-174.5 -47t-173.5 47zM116.5 170.5q43.5 -74.5 117.5 -118t162 -43.5t163 43.5t119.5 118t44.5 162.5t-44.5 163t-119.5 119t-163 44t-162 -44
t-117.5 -118.5t-43.5 -163.5q0 -88 43.5 -162.5zM250.5 434.5q22.5 43.5 62 67.5t89.5 24q34 0 65.5 -8.5t55.5 -23.5l-5 -73h-8q-6 42 -35 65.5t-71 23.5q-58 0 -93 -44.5t-35 -122.5q0 -73 39.5 -119.5t101.5 -46.5q42 0 74.5 23t46.5 65l7 -2q-13 -57 -52.5 -89
t-92.5 -32q-50 0 -89.5 24.5t-61 68.5t-21.5 100t22.5 99.5z" />
    <glyph glyph-name="ordfeminine" unicode="&#xaa;" horiz-adv-x="329" 
d="M200 646.5q-16 16.5 -42 16.5t-41.5 -16.5t-15.5 -42.5q0 -13 4 -25h-57q2 44 32 73.5t81 29.5q49 0 77.5 -27.5t28.5 -72.5v-138q0 -14 6 -20.5t21 -8.5l14 -2v-11l-91 -24v68v4q-22 -71 -91 -71q-34 0 -56 18.5t-22 54.5q0 41 24.5 59t70.5 32q37 11 55 23t18 37
q0 27 -16 43.5zM114.5 425q12.5 -13 32.5 -13q28 0 48.5 20.5t20.5 57.5v73q-5 -11 -15 -16t-33 -15q-38 -14 -52 -29t-14 -39q0 -26 12.5 -39z" />
    <glyph glyph-name="guillemotleft" unicode="&#xab;" horiz-adv-x="502" 
d="M240 267l202 185l8 -8l-143 -183l143 -183l-8 -8l-202 185v12zM51 267l202 185l8 -8l-143 -183l143 -183l-8 -8l-202 185v12z" />
    <glyph glyph-name="logicalnot" unicode="&#xac;" horiz-adv-x="586" 
d="M456 125h-32v190h-384v31h416v-221z" />
    <glyph glyph-name="registered" unicode="&#xae;" horiz-adv-x="518" 
d="M154 294q-48 28 -76 76t-28 104q0 57 28 105t76 76t104 28q57 0 105 -28t76.5 -76t28.5 -105q0 -56 -28.5 -104t-76.5 -76t-105 -28q-56 0 -104 28zM91 377q26 -44 70 -70t97 -26t97.5 26t71 70t26.5 97t-26.5 97.5t-71 71t-97.5 26.5t-97 -26.5t-70 -71t-26 -97.5
t26 -97zM157 369q16 1 23 6t7 18v163q0 13 -7 18t-23 6v4h97q90 0 90 -58q0 -54 -78 -59l59 -69q23 -27 50 -29v-5h-65l-88 107v-78q0 -12 5.5 -17.5t23.5 -6.5v-5h-94v5zM251 477q27 0 42 13.5t15 35.5q0 23 -15 36t-42 13h-29v-98h29z" />
    <glyph glyph-name="macron" unicode="&#xaf;" horiz-adv-x="452" 
d="M100 604h252v-24h-252v24z" />
    <glyph glyph-name="degree" unicode="&#xb0;" horiz-adv-x="370" 
d="M112.5 409q-33.5 20 -54 53.5t-20.5 72.5q0 41 20.5 74.5t55 53t74.5 19.5q39 0 72 -19.5t52.5 -53.5t19.5 -74q0 -39 -20 -72.5t-54 -53.5t-74 -20q-38 0 -71.5 20zM103 452q32 -33 81 -33q50 0 83.5 33t33.5 83t-33.5 84t-83.5 34q-49 0 -81 -33.5t-32 -84.5
q0 -50 32 -83z" />
    <glyph glyph-name="plusminus" unicode="&#xb1;" horiz-adv-x="521" 
d="M277 543v-193h191v-31h-191v-192h-32v192h-193v31h193v193h32zM41 31h416v-31h-416v31z" />
    <glyph glyph-name="uni00B2" unicode="&#xb2;" horiz-adv-x="326" 
d="M24 365l29 30l21 22q52 54 80.5 87t46.5 67.5t18 69.5q0 34 -17.5 55.5t-47.5 21.5q-28 0 -45 -20t-17 -53q0 -22 7 -44h-65q-1 6 -1 17q0 57 36 86t86 29q55 0 90.5 -30.5t35.5 -77.5q0 -38 -23.5 -71.5t-59 -62t-97.5 -69.5l-17 -12h124q37 0 53.5 12t25.5 47h8
l-16 -112h-255v8z" />
    <glyph glyph-name="uni00B3" unicode="&#xb3;" horiz-adv-x="320" 
d="M62 378.5q-38 29.5 -34 81.5h59q-3 -10 -3 -22q0 -31 20 -52t52 -21q34 0 55.5 23t21.5 62q0 40 -23 64.5t-64 24.5q-13 0 -30 -3l-3 9l113 125h-75q-45 0 -68.5 -14t-33.5 -54h-7l15 129q38 -7 92 -7h148v-7l-151 -163q24 6 44 6q47 0 76 -29.5t29 -69.5
q0 -48 -39.5 -80t-99.5 -32q-56 0 -94 29.5z" />
    <glyph glyph-name="acute" unicode="&#xb4;" horiz-adv-x="351" 
d="M100 541l68 152h84l-138 -152h-14z" />
    <glyph glyph-name="uni00B5" unicode="&#xb5;" horiz-adv-x="509" 
d="M483 26v-14l-113 -28v125q-20 -61 -60.5 -92.5t-94.5 -31.5q-42 0 -73 19t-46 56q2 -84 15 -140.5t40 -116.5h-70q0 72 1 115l1 206v12v236q0 23 -10.5 34.5t-35.5 12.5l-16 1v14l115 28v-322q0 -58 27 -86.5t70 -28.5q34 0 65 17.5t51 54.5t20 93v182q0 23 -10.5 34.5
t-35.5 12.5l-16 1v14l115 28v-387q0 -23 10.5 -34.5t35.5 -13.5z" />
    <glyph glyph-name="paragraph" unicode="&#xb6;" horiz-adv-x="608" 
d="M150 276q-51 26 -79 73.5t-28 110.5q0 62 28 109t79 73t117 26h298v-14q-49 -2 -70.5 -17.5t-21.5 -62.5v-743h-36v809h-93v-809h-37v419h-40q-66 0 -117 26z" />
    <glyph glyph-name="periodcentered" unicode="&#xb7;" horiz-adv-x="236" 
d="M81 294.5q-15 14.5 -15 36.5t14.5 36.5t37.5 14.5t37 -14t14 -37q0 -22 -14.5 -36.5t-36.5 -14.5t-37 14.5z" />
    <glyph glyph-name="cedilla" unicode="&#xb8;" horiz-adv-x="364" 
d="M160 -189q23 0 37.5 11.5t14.5 31.5q0 19 -15.5 31.5t-51.5 19.5l35 96h17l-21 -61q88 -18 88 -79q0 -33 -23 -53t-61 -20q-45 0 -80 31l6 8q28 -16 54 -16z" />
    <glyph glyph-name="uni00B9" unicode="&#xb9;" horiz-adv-x="197" 
d="M69.5 376q11.5 9 11.5 29l1 262h-61v8q38 10 64 22t47 31h7v-323q0 -22 10.5 -30t37.5 -10v-8h-166v8q37 2 48.5 11z" />
    <glyph glyph-name="ordmasculine" unicode="&#xba;" horiz-adv-x="339" 
d="M74 421q-36 42 -36 109q0 68 36.5 110t94.5 42q59 0 95.5 -42.5t36.5 -109.5q0 -68 -36.5 -109.5t-95.5 -41.5t-95 42zM113 432.5q20 -34.5 56 -34.5t56.5 34.5t20.5 97.5t-20.5 98t-56.5 35t-56 -35t-20 -98t20 -97.5z" />
    <glyph glyph-name="guillemotright" unicode="&#xbb;" horiz-adv-x="502" 
d="M60 70l-8 8l143 183l-143 183l8 8l202 -185v-12zM249 70l-8 8l143 183l-143 183l8 8l202 -185v-12z" />
    <glyph glyph-name="onequarter" unicode="&#xbc;" horiz-adv-x="649" 
d="M69.5 276q11.5 9 11.5 29l1 262h-61v8q38 10 64 22t47 31h7v-323q0 -22 10.5 -30t37.5 -10v-8h-166v8q37 2 48.5 11zM111 0l383 668h28l-384 -668h-27zM630 96h-65v-37q0 -26 10 -37.5t39 -13.5v-8h-170v8q34 2 48.5 13.5t14.5 37.5v37h-169v7l179 264h48v-243h65v-28z
M507 124v202l-138 -202h138z" />
    <glyph glyph-name="onehalf" unicode="&#xbd;" horiz-adv-x="722" 
d="M69.5 276q11.5 9 11.5 29l1 262h-61v8q38 10 64 22t47 31h7v-323q0 -22 10.5 -30t37.5 -10v-8h-166v8q37 2 48.5 11zM111 0l383 668h28l-384 -668h-27zM421 8l29 30l21 22q52 54 80.5 87t46.5 67.5t18 69.5q0 34 -17.5 55.5t-47.5 21.5q-28 0 -45 -20t-17 -53
q0 -22 7 -44h-65q-1 6 -1 17q0 57 36 86t86 29q55 0 90.5 -30.5t35.5 -77.5q0 -38 -23.5 -71.5t-59 -62t-97.5 -69.5l-17 -12h124q37 0 53.5 12t25.5 47h8l-16 -112h-255v8z" />
    <glyph glyph-name="threequarters" unicode="&#xbe;" horiz-adv-x="732" 
d="M62 278.5q-38 29.5 -34 81.5h59q-3 -10 -3 -22q0 -31 20 -52t52 -21q34 0 55.5 23t21.5 62q0 40 -23 64.5t-64 24.5q-13 0 -30 -3l-3 9l113 125h-75q-45 0 -68.5 -14t-33.5 -54h-7l15 129q38 -7 92 -7h148v-7l-151 -163q24 6 44 6q47 0 76 -29.5t29 -69.5
q0 -48 -39.5 -80t-99.5 -32q-56 0 -94 29.5zM194 0l383 668h28l-384 -668h-27zM713 96h-65v-37q0 -26 10 -37.5t39 -13.5v-8h-170v8q34 2 48.5 13.5t14.5 37.5v37h-169v7l179 264h48v-243h65v-28zM590 124v202l-138 -202h138z" />
    <glyph glyph-name="questiondown" unicode="&#xbf;" horiz-adv-x="440" 
d="M83.5 -195q-50.5 39 -50.5 104q0 41 15 73t35.5 53.5t57.5 52.5q48 40 71.5 71t23.5 77q0 6 -2 22h14q9 -33 9 -59q0 -42 -18.5 -71.5t-55.5 -66.5q-40 -41 -60 -74t-20 -83t31.5 -80.5t85.5 -30.5t86 35t32 96q0 26 -8 61h73q3 -23 3 -42q0 -82 -50 -129.5t-135 -47.5
q-87 0 -137.5 39zM200.5 448.5q14.5 14.5 36.5 14.5t37 -14.5t15 -36.5t-14.5 -36.5t-37.5 -14.5q-22 0 -36.5 14.5t-14.5 36.5t14.5 36.5z" />
    <glyph glyph-name="Agrave" unicode="&#xc0;" horiz-adv-x="705" 
d="M636.5 36q23.5 -20 65.5 -22v-14h-235v14q70 2 70 47q0 13 -10 40l-52 131h-276l-51 -129q-11 -27 -11 -44q0 -22 19 -33t59 -12v-14h-212v14q48 1 72 21t44 69l230 579h14l230 -578q20 -49 43.5 -69zM287 866l105 -124h-14l-185 124h94zM464 260l-127 322l-127 -322h254
z" />
    <glyph glyph-name="Aacute" unicode="&#xc1;" horiz-adv-x="705" 
d="M636.5 36q23.5 -20 65.5 -22v-14h-235v14q70 2 70 47q0 13 -10 40l-52 131h-276l-51 -129q-11 -27 -11 -44q0 -22 19 -33t59 -12v-14h-212v14q48 1 72 21t44 69l230 579h14l230 -578q20 -49 43.5 -69zM464 260l-127 322l-127 -322h254zM444 867h94l-185 -124h-14z" />
    <glyph glyph-name="Acircumflex" unicode="&#xc2;" horiz-adv-x="705" 
d="M636.5 36q23.5 -20 65.5 -22v-14h-235v14q70 2 70 47q0 13 -10 40l-52 131h-276l-51 -129q-11 -27 -11 -44q0 -22 19 -33t59 -12v-14h-212v14q48 1 72 21t44 69l230 579h14l230 -578q20 -49 43.5 -69zM464 260l-127 322l-127 -322h254zM328 867h68l107 -113h-14l-128 70
l-129 -70h-14z" />
    <glyph glyph-name="Atilde" unicode="&#xc3;" horiz-adv-x="705" 
d="M636.5 36q23.5 -20 65.5 -22v-14h-235v14q70 2 70 47q0 13 -10 40l-52 131h-276l-51 -129q-11 -27 -11 -44q0 -22 19 -33t59 -12v-14h-212v14q48 1 72 21t44 69l230 579h14l230 -578q20 -49 43.5 -69zM464 260l-127 322l-127 -322h254zM232 814q0 74 59 74q16 0 32.5 -7
t44.5 -22q22 -13 38.5 -20t30.5 -7q18 0 27.5 11t12.5 41l10 1v-20q0 -74 -58 -74q-17 0 -34 7t-44 22q-24 13 -39.5 19.5t-28.5 6.5q-19 0 -28.5 -11t-12.5 -41h-10v20z" />
    <glyph glyph-name="Adieresis" unicode="&#xc4;" horiz-adv-x="705" 
d="M636.5 36q23.5 -20 65.5 -22v-14h-235v14q70 2 70 47q0 13 -10 40l-52 131h-276l-51 -129q-11 -27 -11 -44q0 -22 19 -33t59 -12v-14h-212v14q48 1 72 21t44 69l230 579h14l230 -578q20 -49 43.5 -69zM464 260l-127 322l-127 -322h254zM249.5 845q14.5 14 35.5 14
q20 0 33.5 -14t13.5 -34q0 -19 -13.5 -33t-33.5 -14q-21 0 -35.5 13.5t-14.5 33.5t14.5 34zM405.5 845q14.5 14 35.5 14q20 0 33.5 -14t13.5 -34q0 -19 -13.5 -33t-33.5 -14q-21 0 -35.5 13.5t-14.5 33.5t14.5 34z" />
    <glyph glyph-name="Aring" unicode="&#xc5;" horiz-adv-x="705" 
d="M636.5 36q23.5 -20 65.5 -22v-14h-235v14q70 2 70 47q0 13 -10 40l-52 131h-276l-51 -129q-11 -27 -11 -44q0 -22 19 -33t59 -12v-14h-212v14q48 1 72 21t44 69l230 579h14l230 -578q20 -49 43.5 -69zM464 260l-127 322l-127 -322h254zM294.5 890q25.5 24 64.5 24
t64.5 -24t25.5 -60q0 -37 -25.5 -61t-64.5 -24t-64.5 24t-25.5 61q0 36 25.5 60zM312 783.5q19 -18.5 47 -18.5q29 0 47.5 18.5t18.5 46.5t-18.5 46.5t-47.5 18.5q-28 0 -47 -18.5t-19 -46.5t19 -46.5z" />
    <glyph glyph-name="AE" unicode="&#xc6;" horiz-adv-x="1003" 
d="M67.5 40.5q27.5 20.5 54.5 63.5l288 467q26 40 26 57q0 13 -15.5 18.5t-50.5 7.5v14h428q42 0 91 7l28 -176h-14q-19 75 -51.5 108t-99.5 33h-213v-283h177q49 0 67 21.5t20 72.5h14v-215h-14q-2 50 -20 71.5t-67 21.5h-177v-234q0 -36 13.5 -51.5t43.5 -15.5h169
q67 0 99.5 33t51.5 108h14l-28 -176q-49 7 -91 7h-425v14q48 2 69.5 18t21.5 63v137h-244l-80 -129q-11 -19 -16.5 -30.5t-5.5 -20.5q0 -16 19 -25t63 -13v-14h-210v14q37 6 64.5 26.5zM477 260v367l-227 -367h227z" />
    <glyph glyph-name="Ccedilla" unicode="&#xc7;" horiz-adv-x="665" 
d="M497 613q-52 42 -133 42q-74 0 -128 -37.5t-83 -108.5t-29 -170q0 -87 34 -155.5t93 -107t133 -38.5q79 0 138.5 43t86.5 122l13 -3q-23 -97 -88.5 -153t-152.5 -61l-16 -46q88 -18 88 -79q0 -33 -23 -53t-61 -20q-45 0 -80 31l6 8q28 -16 54 -16q23 0 37.5 11.5
t14.5 31.5q0 19 -15.5 31.5t-51.5 19.5l29 80h-1q-91 0 -161.5 44.5t-109 124.5t-38.5 182t40.5 181t111 122.5t157.5 43.5q63 0 119.5 -15t97.5 -44l-6 -127h-14q-10 74 -62 116z" />
    <glyph glyph-name="Egrave" unicode="&#xc8;" horiz-adv-x="661" 
d="M587 169l-28 -176q-49 7 -91 7h-425v14q48 2 69.5 18t21.5 63v479q0 46 -21.5 62t-69.5 18v14h412q43 0 92 7l28 -176h-14q-19 75 -52 108t-100 33h-212v-283h172q51 0 70.5 21.5t21.5 72.5h14v-215h-14q-2 50 -21.5 71.5t-70.5 21.5h-172v-234q0 -37 13 -52t43 -15h169
q67 0 99.5 33t51.5 108h14zM261 866l105 -124h-14l-185 124h94z" />
    <glyph glyph-name="Eacute" unicode="&#xc9;" horiz-adv-x="661" 
d="M587 169l-28 -176q-49 7 -91 7h-425v14q48 2 69.5 18t21.5 63v479q0 46 -21.5 62t-69.5 18v14h412q43 0 92 7l28 -176h-14q-19 75 -52 108t-100 33h-212v-283h172q51 0 70.5 21.5t21.5 72.5h14v-215h-14q-2 50 -21.5 71.5t-70.5 21.5h-172v-234q0 -37 13 -52t43 -15h169
q67 0 99.5 33t51.5 108h14zM417 867h94l-185 -124h-14z" />
    <glyph glyph-name="Ecircumflex" unicode="&#xca;" horiz-adv-x="661" 
d="M587 169l-28 -176q-49 7 -91 7h-425v14q48 2 69.5 18t21.5 63v479q0 46 -21.5 62t-69.5 18v14h412q43 0 92 7l28 -176h-14q-19 75 -52 108t-100 33h-212v-283h172q51 0 70.5 21.5t21.5 72.5h14v-215h-14q-2 50 -21.5 71.5t-70.5 21.5h-172v-234q0 -37 13 -52t43 -15h169
q67 0 99.5 33t51.5 108h14zM301 867h68l107 -113h-14l-128 70l-129 -70h-14z" />
    <glyph glyph-name="Edieresis" unicode="&#xcb;" horiz-adv-x="661" 
d="M587 169l-28 -176q-49 7 -91 7h-425v14q48 2 69.5 18t21.5 63v479q0 46 -21.5 62t-69.5 18v14h412q43 0 92 7l28 -176h-14q-19 75 -52 108t-100 33h-212v-283h172q51 0 70.5 21.5t21.5 72.5h14v-215h-14q-2 50 -21.5 71.5t-70.5 21.5h-172v-234q0 -37 13 -52t43 -15h169
q67 0 99.5 33t51.5 108h14zM222.5 845q14.5 14 35.5 14q20 0 33.5 -14t13.5 -34q0 -19 -13.5 -33t-33.5 -14q-21 0 -35.5 13.5t-14.5 33.5t14.5 34zM378.5 845q14.5 14 35.5 14q20 0 33.5 -14t13.5 -34q0 -19 -13.5 -33t-33.5 -14q-21 0 -35.5 13.5t-14.5 33.5t14.5 34z" />
    <glyph glyph-name="Igrave" unicode="&#xcc;" horiz-adv-x="341" 
d="M118 31.5q21 15.5 21 63.5v479q0 47 -21 62.5t-70 17.5v14h245v-14q-49 -2 -70 -17.5t-21 -62.5v-479q0 -48 21 -63.5t70 -17.5v-14h-245v14q49 2 70 17.5zM99 866l105 -124h-14l-185 124h94z" />
    <glyph glyph-name="Iacute" unicode="&#xcd;" horiz-adv-x="341" 
d="M118 31.5q21 15.5 21 63.5v479q0 47 -21 62.5t-70 17.5v14h245v-14q-49 -2 -70 -17.5t-21 -62.5v-479q0 -48 21 -63.5t70 -17.5v-14h-245v14q49 2 70 17.5zM256 867h94l-185 -124h-14z" />
    <glyph glyph-name="Icircumflex" unicode="&#xce;" horiz-adv-x="341" 
d="M118 31.5q21 15.5 21 63.5v479q0 47 -21 62.5t-70 17.5v14h245v-14q-49 -2 -70 -17.5t-21 -62.5v-479q0 -48 21 -63.5t70 -17.5v-14h-245v14q49 2 70 17.5zM140 867h68l107 -113h-14l-128 70l-129 -70h-14z" />
    <glyph glyph-name="Idieresis" unicode="&#xcf;" horiz-adv-x="341" 
d="M118 31.5q21 15.5 21 63.5v479q0 47 -21 62.5t-70 17.5v14h245v-14q-49 -2 -70 -17.5t-21 -62.5v-479q0 -48 21 -63.5t70 -17.5v-14h-245v14q49 2 70 17.5zM61.5 845q14.5 14 35.5 14q20 0 33.5 -14t13.5 -34q0 -19 -13.5 -33t-33.5 -14q-21 0 -35.5 13.5t-14.5 33.5
t14.5 34zM217.5 845q14.5 14 35.5 14q20 0 33.5 -14t13.5 -34q0 -19 -13.5 -33t-33.5 -14q-21 0 -35.5 13.5t-14.5 33.5t14.5 34z" />
    <glyph glyph-name="Eth" unicode="&#xd0;" horiz-adv-x="719" 
d="M95 21q19 6 29 22.5t10 49.5v229h-112v24h112v230q0 46 -21 61t-70 17v14h275q103 0 182 -42t122.5 -117.5t43.5 -174.5t-41.5 -175t-117 -117.5t-174.5 -41.5h-290v14q33 1 52 7zM215 41.5q18 -13.5 69 -13.5h49q78 0 137.5 38.5t92 107.5t32.5 160t-36.5 160
t-103 107.5t-154.5 38.5h-104v-294h112v-24h-112v-230q0 -37 18 -50.5z" />
    <glyph glyph-name="Ntilde" unicode="&#xd1;" horiz-adv-x="723" 
d="M685 668v-14q-38 -2 -56.5 -14.5t-18.5 -55.5v-599h-14l-430 590v-489q0 -32 12.5 -47t33 -19t59.5 -5v-15h-209v14q27 1 42 5.5t24.5 19.5t9.5 47v502q0 35 -25 49t-70 17v14h133l406 -558v474q0 30 -13 45t-35 19.5t-59 5.5v14h210zM249 814q0 74 59 74q16 0 32.5 -7
t44.5 -22q22 -13 38.5 -20t30.5 -7q18 0 27.5 11t12.5 41l10 1v-20q0 -74 -58 -74q-17 0 -34 7t-44 22q-24 13 -39.5 19.5t-28.5 6.5q-19 0 -28.5 -11t-12.5 -41h-10v20z" />
    <glyph glyph-name="Ograve" unicode="&#xd2;" horiz-adv-x="756" 
d="M209 29q-74 44 -115 123.5t-41 181.5t41 181.5t115 123.5t169 44q96 0 169.5 -44t114.5 -123.5t41 -181.5t-41 -181.5t-114.5 -123.5t-169.5 -44q-95 0 -169 44zM155 165.5q32 -72.5 89.5 -112.5t133.5 -40t133.5 40t89.5 112.5t32 168.5t-32 168.5t-89.5 112.5
t-133.5 40t-133.5 -40t-89.5 -112.5t-32 -168.5t32 -168.5zM306 866l105 -124h-14l-185 124h94z" />
    <glyph glyph-name="Oacute" unicode="&#xd3;" horiz-adv-x="756" 
d="M209 29q-74 44 -115 123.5t-41 181.5t41 181.5t115 123.5t169 44q96 0 169.5 -44t114.5 -123.5t41 -181.5t-41 -181.5t-114.5 -123.5t-169.5 -44q-95 0 -169 44zM155 165.5q32 -72.5 89.5 -112.5t133.5 -40t133.5 40t89.5 112.5t32 168.5t-32 168.5t-89.5 112.5
t-133.5 40t-133.5 -40t-89.5 -112.5t-32 -168.5t32 -168.5zM463 867h94l-185 -124h-14z" />
    <glyph glyph-name="Ocircumflex" unicode="&#xd4;" horiz-adv-x="756" 
d="M209 29q-74 44 -115 123.5t-41 181.5t41 181.5t115 123.5t169 44q96 0 169.5 -44t114.5 -123.5t41 -181.5t-41 -181.5t-114.5 -123.5t-169.5 -44q-95 0 -169 44zM155 165.5q32 -72.5 89.5 -112.5t133.5 -40t133.5 40t89.5 112.5t32 168.5t-32 168.5t-89.5 112.5
t-133.5 40t-133.5 -40t-89.5 -112.5t-32 -168.5t32 -168.5zM347 867h68l107 -113h-14l-128 70l-129 -70h-14z" />
    <glyph glyph-name="Otilde" unicode="&#xd5;" horiz-adv-x="756" 
d="M209 29q-74 44 -115 123.5t-41 181.5t41 181.5t115 123.5t169 44q96 0 169.5 -44t114.5 -123.5t41 -181.5t-41 -181.5t-114.5 -123.5t-169.5 -44q-95 0 -169 44zM155 165.5q32 -72.5 89.5 -112.5t133.5 -40t133.5 40t89.5 112.5t32 168.5t-32 168.5t-89.5 112.5
t-133.5 40t-133.5 -40t-89.5 -112.5t-32 -168.5t32 -168.5zM251 814q0 74 59 74q16 0 32.5 -7t44.5 -22q22 -13 38.5 -20t30.5 -7q18 0 27.5 11t12.5 41l10 1v-20q0 -74 -58 -74q-17 0 -34 7t-44 22q-24 13 -39.5 19.5t-28.5 6.5q-19 0 -28.5 -11t-12.5 -41h-10v20z" />
    <glyph glyph-name="Odieresis" unicode="&#xd6;" horiz-adv-x="756" 
d="M209 29q-74 44 -115 123.5t-41 181.5t41 181.5t115 123.5t169 44q96 0 169.5 -44t114.5 -123.5t41 -181.5t-41 -181.5t-114.5 -123.5t-169.5 -44q-95 0 -169 44zM155 165.5q32 -72.5 89.5 -112.5t133.5 -40t133.5 40t89.5 112.5t32 168.5t-32 168.5t-89.5 112.5
t-133.5 40t-133.5 -40t-89.5 -112.5t-32 -168.5t32 -168.5zM268.5 845q14.5 14 35.5 14q20 0 33.5 -14t13.5 -34q0 -19 -13.5 -33t-33.5 -14q-21 0 -35.5 13.5t-14.5 33.5t14.5 34zM424.5 845q14.5 14 35.5 14q20 0 33.5 -14t13.5 -34q0 -19 -13.5 -33t-33.5 -14
q-21 0 -35.5 13.5t-14.5 33.5t14.5 34z" />
    <glyph glyph-name="multiply" unicode="&#xd7;" horiz-adv-x="478" 
d="M72 522l166 -166l166 166l22 -21l-166 -166l165 -166l-21 -22l-166 166l-165 -165l-22 21l166 166l-166 165z" />
    <glyph glyph-name="Oslash" unicode="&#xd8;" horiz-adv-x="725" 
d="M245 11l-30 -67l-20 9l30 67q-80 41 -126 123.5t-46 190.5q0 102 41 181.5t115 123.5t169 44q73 0 134 -26l30 67l21 -8l-31 -68q80 -42 125.5 -124t45.5 -190q0 -102 -41 -181.5t-114.5 -123.5t-169.5 -44q-72 0 -133 26zM154 167q31 -72 87 -112l256 569
q-53 31 -119 31q-76 0 -133.5 -40t-89.5 -112.5t-32 -168.5q0 -95 31 -167zM378 13q76 0 133.5 40t89.5 112.5t32 168.5q0 94 -31 166t-86 112l-256 -569q54 -30 118 -30z" />
    <glyph glyph-name="Ugrave" unicode="&#xd9;" horiz-adv-x="743" 
d="M710 668v-14q-49 -2 -70 -17t-21 -61v-322q0 -133 -62 -200.5t-177 -67.5q-122 0 -189 67t-67 195v328q0 46 -21 61t-70 17v14h245v-14q-49 -2 -70 -17t-21 -61v-319q0 -115 56.5 -175t155.5 -60q92 0 142 58.5t50 174.5v321q0 46 -21 61t-71 17v14h211zM316 866
l105 -124h-14l-185 124h94z" />
    <glyph glyph-name="Uacute" unicode="&#xda;" horiz-adv-x="743" 
d="M710 668v-14q-49 -2 -70 -17t-21 -61v-322q0 -133 -62 -200.5t-177 -67.5q-122 0 -189 67t-67 195v328q0 46 -21 61t-70 17v14h245v-14q-49 -2 -70 -17t-21 -61v-319q0 -115 56.5 -175t155.5 -60q92 0 142 58.5t50 174.5v321q0 46 -21 61t-71 17v14h211zM472 867h94
l-185 -124h-14z" />
    <glyph glyph-name="Ucircumflex" unicode="&#xdb;" horiz-adv-x="743" 
d="M710 668v-14q-49 -2 -70 -17t-21 -61v-322q0 -133 -62 -200.5t-177 -67.5q-122 0 -189 67t-67 195v328q0 46 -21 61t-70 17v14h245v-14q-49 -2 -70 -17t-21 -61v-319q0 -115 56.5 -175t155.5 -60q92 0 142 58.5t50 174.5v321q0 46 -21 61t-71 17v14h211zM357 867h68
l107 -113h-14l-128 70l-129 -70h-14z" />
    <glyph glyph-name="Udieresis" unicode="&#xdc;" horiz-adv-x="743" 
d="M710 668v-14q-49 -2 -70 -17t-21 -61v-322q0 -133 -62 -200.5t-177 -67.5q-122 0 -189 67t-67 195v328q0 46 -21 61t-70 17v14h245v-14q-49 -2 -70 -17t-21 -61v-319q0 -115 56.5 -175t155.5 -60q92 0 142 58.5t50 174.5v321q0 46 -21 61t-71 17v14h211zM278.5 845
q14.5 14 35.5 14q20 0 33.5 -14t13.5 -34q0 -19 -13.5 -33t-33.5 -14q-21 0 -35.5 13.5t-14.5 33.5t14.5 34zM434.5 845q14.5 14 35.5 14q20 0 33.5 -14t13.5 -34q0 -19 -13.5 -33t-33.5 -14q-21 0 -35.5 13.5t-14.5 33.5t14.5 34z" />
    <glyph glyph-name="Yacute" unicode="&#xdd;" horiz-adv-x="606" 
d="M219 21q19 6 28.5 22.5t9.5 49.5v191l-172 286q-26 44 -49.5 63.5t-52.5 20.5v14h234v-14q-39 -1 -57.5 -10t-18.5 -28q0 -17 17 -46l151 -251l156 251q19 31 19 50q0 17 -16 25t-51 9v14h206v-14q-40 -2 -69 -21.5t-56 -62.5l-178 -285v-192q0 -47 20.5 -62t69.5 -17
v-14h-243v14q33 1 52 7zM383 867h94l-185 -124h-14z" />
    <glyph glyph-name="Thorn" unicode="&#xde;" horiz-adv-x="616" 
d="M495 478.5q68 -45.5 68 -139.5t-68 -141t-185 -47h-113v-56q0 -34 11 -50.5t34 -23t66 -7.5v-14h-265v14q49 2 70 17.5t21 63.5v479q0 47 -21 62.5t-70 17.5v14h245v-14q-49 -2 -70 -17.5t-21 -62.5v-50h113q117 0 185 -45.5zM304 179q91 0 140 43.5t49 116.5
q0 71 -49 114t-140 43h-107v-317h107z" />
    <glyph glyph-name="germandbls" unicode="&#xdf;" horiz-adv-x="550" 
d="M172.5 29q17.5 -11 55.5 -16v-13h-193v13q32 5 50 16t18 38v355h-76v25h76v44q0 192 172 192q91 0 133.5 -51.5t42.5 -158.5v-38q-72 0 -102.5 -20.5t-30.5 -61.5q0 -31 20.5 -51t63.5 -44q36 -21 58.5 -38t38 -44t15.5 -66q0 -60 -36 -92.5t-96 -32.5q-41 0 -76 14
t-51 35l3 112h14q12 -65 39.5 -100.5t70.5 -35.5q40 0 64.5 20.5t24.5 66.5q0 26 -12 44.5t-29.5 30.5t-48.5 29q-35 19 -56 34.5t-36 40.5t-15 61q0 50 31.5 80.5t94.5 39.5q-1 106 -31 153.5t-95 47.5q-57 0 -88 -32.5t-31 -112.5v-446q0 -27 17.5 -38z" />
    <glyph glyph-name="agrave" unicode="&#xe0;" horiz-adv-x="456" 
d="M84 18q-36 33 -36 86q0 46 21.5 73t52 40t81.5 27q41 11 64 20t38.5 25.5t15.5 43.5q0 46 -29.5 75t-76.5 29q-48 0 -75.5 -28.5t-27.5 -72.5q0 -18 4 -34h-68q1 43 21 79.5t57.5 58.5t89.5 22q72 0 114.5 -41.5t42.5 -110.5v-235q0 -23 10.5 -34.5t35.5 -13.5l16 -1v-14
l-113 -28v123q-20 -61 -56.5 -91.5t-87.5 -30.5q-58 0 -94 33zM181 693l68 -152h-14l-138 152h84zM133 46.5q25 -24.5 64 -24.5q30 0 58.5 18t47 51t18.5 75v112q-10 -19 -31 -29.5t-61 -22.5q-39 -11 -63.5 -22.5t-41 -34t-16.5 -60.5t25 -62.5z" />
    <glyph glyph-name="aacute" unicode="&#xe1;" horiz-adv-x="456" 
d="M84 18q-36 33 -36 86q0 46 21.5 73t52 40t81.5 27q41 11 64 20t38.5 25.5t15.5 43.5q0 46 -29.5 75t-76.5 29q-48 0 -75.5 -28.5t-27.5 -72.5q0 -18 4 -34h-68q1 43 21 79.5t57.5 58.5t89.5 22q72 0 114.5 -41.5t42.5 -110.5v-235q0 -23 10.5 -34.5t35.5 -13.5l16 -1v-14
l-113 -28v123q-20 -61 -56.5 -91.5t-87.5 -30.5q-58 0 -94 33zM133 46.5q25 -24.5 64 -24.5q30 0 58.5 18t47 51t18.5 75v112q-10 -19 -31 -29.5t-61 -22.5q-39 -11 -63.5 -22.5t-41 -34t-16.5 -60.5t25 -62.5zM268 693h84l-138 -152h-14z" />
    <glyph glyph-name="acircumflex" unicode="&#xe2;" horiz-adv-x="456" 
d="M84 18q-36 33 -36 86q0 46 21.5 73t52 40t81.5 27q41 11 64 20t38.5 25.5t15.5 43.5q0 46 -29.5 75t-76.5 29q-48 0 -75.5 -28.5t-27.5 -72.5q0 -18 4 -34h-68q1 43 21 79.5t57.5 58.5t89.5 22q72 0 114.5 -41.5t42.5 -110.5v-235q0 -23 10.5 -34.5t35.5 -13.5l16 -1v-14
l-113 -28v123q-20 -61 -56.5 -91.5t-87.5 -30.5q-58 0 -94 33zM183 673h68l100 -132h-13l-121 89l-123 -89h-13zM133 46.5q25 -24.5 64 -24.5q30 0 58.5 18t47 51t18.5 75v112q-10 -19 -31 -29.5t-61 -22.5q-39 -11 -63.5 -22.5t-41 -34t-16.5 -60.5t25 -62.5z" />
    <glyph glyph-name="atilde" unicode="&#xe3;" horiz-adv-x="456" 
d="M84 18q-36 33 -36 86q0 46 21.5 73t52 40t81.5 27q41 11 64 20t38.5 25.5t15.5 43.5q0 46 -29.5 75t-76.5 29q-48 0 -75.5 -28.5t-27.5 -72.5q0 -18 4 -34h-68q1 43 21 79.5t57.5 58.5t89.5 22q72 0 114.5 -41.5t42.5 -110.5v-235q0 -23 10.5 -34.5t35.5 -13.5l16 -1v-14
l-113 -28v123q-20 -61 -56.5 -91.5t-87.5 -30.5q-58 0 -94 33zM89 593q0 74 59 74q17 0 33.5 -7t42.5 -22q25 -14 39.5 -20t28.5 -6q18 0 27.5 11t12.5 41h10v-20q0 -37 -14 -55.5t-44 -18.5q-17 0 -33.5 7t-42.5 22q-27 14 -41 20t-28 6q-18 0 -27.5 -11t-12.5 -41h-10v20z
M133 46.5q25 -24.5 64 -24.5q30 0 58.5 18t47 51t18.5 75v112q-10 -19 -31 -29.5t-61 -22.5q-39 -11 -63.5 -22.5t-41 -34t-16.5 -60.5t25 -62.5z" />
    <glyph glyph-name="adieresis" unicode="&#xe4;" horiz-adv-x="456" 
d="M84 18q-36 33 -36 86q0 46 21.5 73t52 40t81.5 27q41 11 64 20t38.5 25.5t15.5 43.5q0 46 -29.5 75t-76.5 29q-48 0 -75.5 -28.5t-27.5 -72.5q0 -18 4 -34h-68q1 43 21 79.5t57.5 58.5t89.5 22q72 0 114.5 -41.5t42.5 -110.5v-235q0 -23 10.5 -34.5t35.5 -13.5l16 -1v-14
l-113 -28v123q-20 -61 -56.5 -91.5t-87.5 -30.5q-58 0 -94 33zM104.5 642q14.5 14 36.5 14q20 0 33.5 -14t13.5 -35q0 -19 -13.5 -33t-33.5 -14q-22 0 -36.5 13.5t-14.5 33.5q0 21 14.5 35zM133 46.5q25 -24.5 64 -24.5q30 0 58.5 18t47 51t18.5 75v112q-10 -19 -31 -29.5
t-61 -22.5q-39 -11 -63.5 -22.5t-41 -34t-16.5 -60.5t25 -62.5zM261.5 642q14.5 14 35.5 14q20 0 34 -14t14 -35q0 -19 -14 -33t-34 -14q-21 0 -35.5 13.5t-14.5 33.5q0 21 14.5 35z" />
    <glyph glyph-name="aring" unicode="&#xe5;" horiz-adv-x="456" 
d="M84 18q-36 33 -36 86q0 46 21.5 73t52 40t81.5 27q41 11 64 20t38.5 25.5t15.5 43.5q0 46 -29.5 75t-76.5 29q-48 0 -75.5 -28.5t-27.5 -72.5q0 -18 4 -34h-68q1 43 21 79.5t57.5 58.5t89.5 22q72 0 114.5 -41.5t42.5 -110.5v-235q0 -23 10.5 -34.5t35.5 -13.5l16 -1v-14
l-113 -28v123q-20 -61 -56.5 -91.5t-87.5 -30.5q-58 0 -94 33zM133 46.5q25 -24.5 64 -24.5q30 0 58.5 18t47 51t18.5 75v112q-10 -19 -31 -29.5t-61 -22.5q-39 -11 -63.5 -22.5t-41 -34t-16.5 -60.5t25 -62.5zM151.5 687q25.5 24 64.5 24t64.5 -24t25.5 -60
q0 -37 -25.5 -61t-64.5 -24t-64.5 24t-25.5 61q0 36 25.5 60zM169 580.5q19 -18.5 47 -18.5q29 0 47.5 18.5t18.5 46.5t-18.5 46.5t-47.5 18.5q-28 0 -47 -18.5t-19 -46.5t19 -46.5z" />
    <glyph glyph-name="ae" unicode="&#xe6;" horiz-adv-x="740" 
d="M291.5 408q-29.5 29 -76.5 29q-48 0 -75.5 -28.5t-27.5 -72.5q0 -18 4 -34h-68q1 43 21 79.5t57.5 58.5t89.5 22q54 0 91.5 -24t53.5 -67q28 44 71.5 67.5t98.5 23.5q74 0 119.5 -44.5t45.5 -121.5q0 -10 -2 -30h-315l-1 -21q-2 -96 42.5 -155t125.5 -59q51 0 87 29
t52 72l12 -3q-14 -66 -61 -104t-115 -38t-118 39.5t-70 106.5q-11 -73 -56 -110.5t-99 -37.5q-58 0 -94 33t-36 86q0 46 21.5 73t52 40t81.5 27q41 11 64 20t38.5 25.5t15.5 43.5q0 46 -29.5 75zM132.5 49q24.5 -22 64.5 -22q30 0 58.5 17t47 50.5t18.5 80.5v102
q-10 -19 -32 -29.5t-60 -21.5q-39 -11 -63 -22.5t-41 -34t-17 -60.5t24.5 -60zM635 291q1 9 1 25q0 57 -31.5 89t-83.5 32q-54 0 -91 -39.5t-48 -106.5h253z" />
    <glyph glyph-name="ccedilla" unicode="&#xe7;" horiz-adv-x="446" 
d="M329.5 407q-31.5 30 -79.5 30q-43 0 -78 -26.5t-54.5 -73.5t-19.5 -104t21.5 -103.5t59.5 -73.5t84 -27q49 0 85 28.5t53 74.5l12 -3q-15 -67 -60 -104.5t-112 -37.5h-8l-16 -47q88 -18 88 -79q0 -33 -23 -53t-61 -20q-45 0 -80 31l6 8q28 -16 54 -16q23 0 37.5 11.5
t14.5 31.5q0 19 -15.5 31.5t-51.5 19.5l30 84q-51 6 -91.5 37.5t-63.5 83.5t-23 116q0 67 27.5 121t76 84.5t108.5 30.5q37 0 73 -8.5t61 -24.5l-3 -110h-14q-6 58 -37.5 88z" />
    <glyph glyph-name="egrave" unicode="&#xe8;" horiz-adv-x="458" 
d="M137.5 90q44.5 -59 125.5 -59q51 0 87 29t52 72l12 -3q-14 -66 -61 -104t-115 -38q-59 0 -104.5 29.5t-70.5 81.5t-25 119q0 75 26.5 130.5t74 85t109.5 29.5q74 0 119.5 -44.5t45.5 -121.5q0 -10 -2 -30h-315q-1 -7 -1 -21q-2 -96 42.5 -155zM352 291q1 9 1 25
q0 57 -31.5 89t-83.5 32q-54 0 -91 -39.5t-48 -106.5h253zM202 693l68 -152h-14l-138 152h84z" />
    <glyph glyph-name="eacute" unicode="&#xe9;" horiz-adv-x="458" 
d="M137.5 90q44.5 -59 125.5 -59q51 0 87 29t52 72l12 -3q-14 -66 -61 -104t-115 -38q-59 0 -104.5 29.5t-70.5 81.5t-25 119q0 75 26.5 130.5t74 85t109.5 29.5q74 0 119.5 -44.5t45.5 -121.5q0 -10 -2 -30h-315q-1 -7 -1 -21q-2 -96 42.5 -155zM352 291q1 9 1 25
q0 57 -31.5 89t-83.5 32q-54 0 -91 -39.5t-48 -106.5h253zM289 693h84l-138 -152h-14z" />
    <glyph glyph-name="ecircumflex" unicode="&#xea;" horiz-adv-x="458" 
d="M137.5 90q44.5 -59 125.5 -59q51 0 87 29t52 72l12 -3q-14 -66 -61 -104t-115 -38q-59 0 -104.5 29.5t-70.5 81.5t-25 119q0 75 26.5 130.5t74 85t109.5 29.5q74 0 119.5 -44.5t45.5 -121.5q0 -10 -2 -30h-315q-1 -7 -1 -21q-2 -96 42.5 -155zM352 291q1 9 1 25
q0 57 -31.5 89t-83.5 32q-54 0 -91 -39.5t-48 -106.5h253zM204 673h68l100 -132h-13l-121 89l-123 -89h-13z" />
    <glyph glyph-name="edieresis" unicode="&#xeb;" horiz-adv-x="458" 
d="M137.5 90q44.5 -59 125.5 -59q51 0 87 29t52 72l12 -3q-14 -66 -61 -104t-115 -38q-59 0 -104.5 29.5t-70.5 81.5t-25 119q0 75 26.5 130.5t74 85t109.5 29.5q74 0 119.5 -44.5t45.5 -121.5q0 -10 -2 -30h-315q-1 -7 -1 -21q-2 -96 42.5 -155zM352 291q1 9 1 25
q0 57 -31.5 89t-83.5 32q-54 0 -91 -39.5t-48 -106.5h253zM125.5 642q14.5 14 36.5 14q20 0 33.5 -14t13.5 -35q0 -19 -13.5 -33t-33.5 -14q-22 0 -36.5 13.5t-14.5 33.5q0 21 14.5 35zM282.5 642q14.5 14 35.5 14q20 0 34 -14t14 -35q0 -19 -14 -33t-34 -14
q-21 0 -35.5 13.5t-14.5 33.5q0 21 14.5 35z" />
    <glyph glyph-name="igrave" unicode="&#xec;" horiz-adv-x="250" 
d="M167 30.5q15 -11.5 50 -16.5v-14h-183v14q35 5 50 16.5t15 35.5v306q0 23 -10.5 34.5t-35.5 12.5l-16 1v14l115 28v-396q0 -24 15 -35.5zM90 693l68 -152h-14l-138 152h84z" />
    <glyph glyph-name="iacute" unicode="&#xed;" horiz-adv-x="250" 
d="M167 30.5q15 -11.5 50 -16.5v-14h-183v14q35 5 50 16.5t15 35.5v306q0 23 -10.5 34.5t-35.5 12.5l-16 1v14l115 28v-396q0 -24 15 -35.5zM177 693h84l-138 -152h-14z" />
    <glyph glyph-name="icircumflex" unicode="&#xee;" horiz-adv-x="250" 
d="M167 30.5q15 -11.5 50 -16.5v-14h-183v14q35 5 50 16.5t15 35.5v306q0 23 -10.5 34.5t-35.5 12.5l-16 1v14l115 28v-396q0 -24 15 -35.5zM92 673h68l100 -132h-13l-121 89l-123 -89h-13z" />
    <glyph glyph-name="idieresis" unicode="&#xef;" horiz-adv-x="250" 
d="M167 30.5q15 -11.5 50 -16.5v-14h-183v14q35 5 50 16.5t15 35.5v306q0 23 -10.5 34.5t-35.5 12.5l-16 1v14l115 28v-396q0 -24 15 -35.5zM13.5 642q14.5 14 36.5 14q20 0 33.5 -14t13.5 -35q0 -19 -13.5 -33t-33.5 -14q-22 0 -36.5 13.5t-14.5 33.5q0 21 14.5 35z
M170.5 642q14.5 14 35.5 14q20 0 34 -14t14 -35q0 -19 -14 -33t-34 -14q-21 0 -35.5 13.5t-14.5 33.5q0 21 14.5 35z" />
    <glyph glyph-name="eth" unicode="&#xf0;" horiz-adv-x="499" 
d="M347 69q34 58 34 154t-35.5 155t-108.5 59q-66 0 -102.5 -54t-36.5 -159q0 -102 37.5 -157.5t104.5 -55.5q73 0 107 58zM89 395q51 67 145 67q53 0 89.5 -21.5t56.5 -60.5q-5 77 -23.5 129t-54.5 85l-84 -57l-13 20l78 52q-62 44 -189 49v25q70 -3 123 -14.5t96 -37.5
l82 54l11 -19l-73 -49q113 -86 113 -318q0 -137 -46 -225.5t-160 -88.5q-59 0 -105 29t-71.5 82.5t-25.5 125.5q0 106 51 173z" />
    <glyph glyph-name="ntilde" unicode="&#xf1;" horiz-adv-x="526" 
d="M453 30.5q15 -11.5 50 -16.5v-14h-183v14q35 5 50 16.5t15 35.5v241q0 59 -26.5 87t-70.5 28q-34 0 -65 -17t-51 -54t-20 -94v-191q0 -24 15 -35.5t50 -16.5v-14h-183v14q35 5 50 16.5t15 35.5v306q0 23 -10.5 34.5t-35.5 12.5l-16 1v14l115 28v-121q21 60 61 90.5
t93 30.5q61 0 96.5 -38t35.5 -112v-246q0 -24 15 -35.5zM140 593q0 74 59 74q17 0 33.5 -7t42.5 -22q25 -14 39.5 -20t28.5 -6q18 0 27.5 11t12.5 41h10v-20q0 -37 -14 -55.5t-44 -18.5q-17 0 -33.5 7t-42.5 22q-27 14 -41 20t-28 6q-18 0 -27.5 -11t-12.5 -41h-10v20z" />
    <glyph glyph-name="ograve" unicode="&#xf2;" horiz-adv-x="479" 
d="M134 16q-46 30 -71 84t-25 124t25 124t71 84t106 30q59 0 105 -30t71 -84t25 -124t-25 -124t-71 -84t-105 -30q-60 0 -106 30zM136 67.5q38 -56.5 104 -56.5t103.5 56.5t37.5 156.5q0 101 -37.5 157t-103.5 56t-104 -56t-38 -157q0 -100 38 -156.5zM205 693l68 -152h-14
l-138 152h84z" />
    <glyph glyph-name="oacute" unicode="&#xf3;" horiz-adv-x="479" 
d="M134 16q-46 30 -71 84t-25 124t25 124t71 84t106 30q59 0 105 -30t71 -84t25 -124t-25 -124t-71 -84t-105 -30q-60 0 -106 30zM136 67.5q38 -56.5 104 -56.5t103.5 56.5t37.5 156.5q0 101 -37.5 157t-103.5 56t-104 -56t-38 -157q0 -100 38 -156.5zM293 693h84l-138 -152
h-14z" />
    <glyph glyph-name="ocircumflex" unicode="&#xf4;" horiz-adv-x="479" 
d="M134 16q-46 30 -71 84t-25 124t25 124t71 84t106 30q59 0 105 -30t71 -84t25 -124t-25 -124t-71 -84t-105 -30q-60 0 -106 30zM136 67.5q38 -56.5 104 -56.5t103.5 56.5t37.5 156.5q0 101 -37.5 157t-103.5 56t-104 -56t-38 -157q0 -100 38 -156.5zM207 673h68l100 -132
h-13l-121 89l-123 -89h-13z" />
    <glyph glyph-name="otilde" unicode="&#xf5;" horiz-adv-x="479" 
d="M134 16q-46 30 -71 84t-25 124t25 124t71 84t106 30q59 0 105 -30t71 -84t25 -124t-25 -124t-71 -84t-105 -30q-60 0 -106 30zM136 67.5q38 -56.5 104 -56.5t103.5 56.5t37.5 156.5q0 101 -37.5 157t-103.5 56t-104 -56t-38 -157q0 -100 38 -156.5zM113 593q0 74 59 74
q17 0 33.5 -7t42.5 -22q25 -14 39.5 -20t28.5 -6q18 0 27.5 11t12.5 41h10v-20q0 -37 -14 -55.5t-44 -18.5q-17 0 -33.5 7t-42.5 22q-27 14 -41 20t-28 6q-18 0 -27.5 -11t-12.5 -41h-10v20z" />
    <glyph glyph-name="odieresis" unicode="&#xf6;" horiz-adv-x="479" 
d="M134 16q-46 30 -71 84t-25 124t25 124t71 84t106 30q59 0 105 -30t71 -84t25 -124t-25 -124t-71 -84t-105 -30q-60 0 -106 30zM136 67.5q38 -56.5 104 -56.5t103.5 56.5t37.5 156.5q0 101 -37.5 157t-103.5 56t-104 -56t-38 -157q0 -100 38 -156.5zM128.5 642
q14.5 14 36.5 14q20 0 33.5 -14t13.5 -35q0 -19 -13.5 -33t-33.5 -14q-22 0 -36.5 13.5t-14.5 33.5q0 21 14.5 35zM285.5 642q14.5 14 35.5 14q20 0 34 -14t14 -35q0 -19 -14 -33t-34 -14q-21 0 -35.5 13.5t-14.5 33.5q0 21 14.5 35z" />
    <glyph glyph-name="divide" unicode="&#xf7;" horiz-adv-x="519" 
d="M229 163q-14 13 -14 32t14 32.5t34 13.5q19 0 32 -13.5t13 -32.5t-13 -32t-32 -13q-20 0 -34 13zM51 350h416v-31h-416v31zM229 508.5q14 13.5 34 13.5q19 0 32 -13.5t13 -32.5t-13 -32t-32 -13q-20 0 -34 13t-14 32t14 32.5z" />
    <glyph glyph-name="oslash" unicode="&#xf8;" horiz-adv-x="479" 
d="M153 5l-25 -54l-19 8l25 57q-45 30 -70.5 83.5t-25.5 124.5q0 70 25 124t71 84t106 30q46 0 86 -19l27 60l21 -8l-29 -63q45 -30 70.5 -83.5t25.5 -124.5q0 -70 -25 -124t-71 -84t-105 -30q-46 0 -87 19zM151 49l161 365q-31 23 -72 23q-66 0 -104 -56t-38 -157
q0 -119 53 -175zM240 11q66 0 103.5 56.5t37.5 156.5q0 59 -13.5 103.5t-38.5 71.5l-162 -365q31 -23 73 -23z" />
    <glyph glyph-name="ugrave" unicode="&#xf9;" horiz-adv-x="509" 
d="M483 26v-14l-113 -28v125q-20 -61 -60.5 -92.5t-94.5 -31.5q-61 0 -96.5 38.5t-35.5 112.5v236q0 23 -10.5 34.5t-35.5 12.5l-16 1v14l115 28v-322q0 -58 27 -86.5t70 -28.5q34 0 65 17.5t51 54.5t20 93v182q0 23 -10.5 34.5t-35.5 12.5l-16 1v14l115 28v-387
q0 -23 10.5 -34.5t35.5 -13.5zM214 693l68 -152h-14l-138 152h84z" />
    <glyph glyph-name="uacute" unicode="&#xfa;" horiz-adv-x="509" 
d="M483 26v-14l-113 -28v125q-20 -61 -60.5 -92.5t-94.5 -31.5q-61 0 -96.5 38.5t-35.5 112.5v236q0 23 -10.5 34.5t-35.5 12.5l-16 1v14l115 28v-322q0 -58 27 -86.5t70 -28.5q34 0 65 17.5t51 54.5t20 93v182q0 23 -10.5 34.5t-35.5 12.5l-16 1v14l115 28v-387
q0 -23 10.5 -34.5t35.5 -13.5zM302 693h84l-138 -152h-14z" />
    <glyph glyph-name="ucircumflex" unicode="&#xfb;" horiz-adv-x="509" 
d="M483 26v-14l-113 -28v125q-20 -61 -60.5 -92.5t-94.5 -31.5q-61 0 -96.5 38.5t-35.5 112.5v236q0 23 -10.5 34.5t-35.5 12.5l-16 1v14l115 28v-322q0 -58 27 -86.5t70 -28.5q34 0 65 17.5t51 54.5t20 93v182q0 23 -10.5 34.5t-35.5 12.5l-16 1v14l115 28v-387
q0 -23 10.5 -34.5t35.5 -13.5zM216 673h68l100 -132h-13l-121 89l-123 -89h-13z" />
    <glyph glyph-name="udieresis" unicode="&#xfc;" horiz-adv-x="509" 
d="M483 26v-14l-113 -28v125q-20 -61 -60.5 -92.5t-94.5 -31.5q-61 0 -96.5 38.5t-35.5 112.5v236q0 23 -10.5 34.5t-35.5 12.5l-16 1v14l115 28v-322q0 -58 27 -86.5t70 -28.5q34 0 65 17.5t51 54.5t20 93v182q0 23 -10.5 34.5t-35.5 12.5l-16 1v14l115 28v-387
q0 -23 10.5 -34.5t35.5 -13.5zM137.5 642q14.5 14 36.5 14q20 0 33.5 -14t13.5 -35q0 -19 -13.5 -33t-33.5 -14q-22 0 -36.5 13.5t-14.5 33.5q0 21 14.5 35zM294.5 642q14.5 14 35.5 14q20 0 34 -14t14 -35q0 -19 -14 -33t-34 -14q-21 0 -35.5 13.5t-14.5 33.5q0 21 14.5 35
z" />
    <glyph glyph-name="yacute" unicode="&#xfd;" horiz-adv-x="441" 
d="M74 -161q34 0 61 29t52 92l17 43l-148 371q-12 29 -27 43.5t-36 15.5v14h173v-14q-30 -2 -44.5 -9.5t-14.5 -23.5q0 -11 5 -22l120 -305l119 297q7 15 7 29q0 17 -15.5 25t-48.5 9v14h154v-14q-24 -1 -40 -16t-30 -48l-167 -415q-36 -88 -77 -127t-101 -39q-28 0 -66 18
l28 62q37 -29 79 -29zM270 693h84l-138 -152h-14z" />
    <glyph glyph-name="thorn" unicode="&#xfe;" horiz-adv-x="532" 
d="M180.5 -169q21.5 -12 70.5 -14v-14h-210v14q35 5 50 16.5t15 35.5v734q0 23 -10.5 34.5t-35.5 12.5l-16 1v14l115 28v-351q14 56 52.5 88t93.5 32t97 -29.5t65.5 -83.5t23.5 -124q0 -77 -27.5 -131t-73.5 -81.5t-100 -27.5q-37 0 -71.5 12.5t-59.5 40.5v-169
q0 -26 21.5 -38zM194.5 51.5q35.5 -41.5 94.5 -41.5q69 0 105.5 58t36.5 148q0 61 -18.5 107t-50 70.5t-71.5 24.5q-57 0 -94.5 -39t-37.5 -119v-105q0 -62 35.5 -103.5z" />
    <glyph glyph-name="ydieresis" unicode="&#xff;" horiz-adv-x="441" 
d="M74 -161q34 0 61 29t52 92l17 43l-148 371q-12 29 -27 43.5t-36 15.5v14h173v-14q-30 -2 -44.5 -9.5t-14.5 -23.5q0 -11 5 -22l120 -305l119 297q7 15 7 29q0 17 -15.5 25t-48.5 9v14h154v-14q-24 -1 -40 -16t-30 -48l-167 -415q-36 -88 -77 -127t-101 -39q-28 0 -66 18
l28 62q37 -29 79 -29zM106.5 642q14.5 14 36.5 14q20 0 33.5 -14t13.5 -35q0 -19 -13.5 -33t-33.5 -14q-22 0 -36.5 13.5t-14.5 33.5q0 21 14.5 35zM263.5 642q14.5 14 35.5 14q20 0 34 -14t14 -35q0 -19 -14 -33t-34 -14q-21 0 -35.5 13.5t-14.5 33.5q0 21 14.5 35z" />
    <glyph glyph-name="Amacron" unicode="&#x100;" horiz-adv-x="705" 
d="M636.5 36q23.5 -20 65.5 -22v-14h-235v14q70 2 70 47q0 13 -10 40l-52 131h-276l-51 -129q-11 -27 -11 -44q0 -22 19 -33t59 -12v-14h-212v14q48 1 72 21t44 69l230 579h14l230 -578q20 -49 43.5 -69zM464 260l-127 322l-127 -322h254zM233 807h252v-24h-252v24z" />
    <glyph glyph-name="amacron" unicode="&#x101;" horiz-adv-x="456" 
d="M84 18q-36 33 -36 86q0 46 21.5 73t52 40t81.5 27q41 11 64 20t38.5 25.5t15.5 43.5q0 46 -29.5 75t-76.5 29q-48 0 -75.5 -28.5t-27.5 -72.5q0 -18 4 -34h-68q1 43 21 79.5t57.5 58.5t89.5 22q72 0 114.5 -41.5t42.5 -110.5v-235q0 -23 10.5 -34.5t35.5 -13.5l16 -1v-14
l-113 -28v123q-20 -61 -56.5 -91.5t-87.5 -30.5q-58 0 -94 33zM91 604h252v-24h-252v24zM133 46.5q25 -24.5 64 -24.5q30 0 58.5 18t47 51t18.5 75v112q-10 -19 -31 -29.5t-61 -22.5q-39 -11 -63.5 -22.5t-41 -34t-16.5 -60.5t25 -62.5z" />
    <glyph glyph-name="Abreve" unicode="&#x102;" horiz-adv-x="705" 
d="M636.5 36q23.5 -20 65.5 -22v-14h-235v14q70 2 70 47q0 13 -10 40l-52 131h-276l-51 -129q-11 -27 -11 -44q0 -22 19 -33t59 -12v-14h-212v14q48 1 72 21t44 69l230 579h14l230 -578q20 -49 43.5 -69zM464 260l-127 322l-127 -322h254zM252 868q4 -38 32.5 -58t75.5 -20
q48 0 76.5 20t32.5 58h11q-1 -57 -31.5 -89t-88.5 -32t-88.5 32t-31.5 89h12z" />
    <glyph glyph-name="abreve" unicode="&#x103;" horiz-adv-x="456" 
d="M84 18q-36 33 -36 86q0 46 21.5 73t52 40t81.5 27q41 11 64 20t38.5 25.5t15.5 43.5q0 46 -29.5 75t-76.5 29q-48 0 -75.5 -28.5t-27.5 -72.5q0 -18 4 -34h-68q1 43 21 79.5t57.5 58.5t89.5 22q72 0 114.5 -41.5t42.5 -110.5v-235q0 -23 10.5 -34.5t35.5 -13.5l16 -1v-14
l-113 -28v123q-20 -61 -56.5 -91.5t-87.5 -30.5q-58 0 -94 33zM119 684q4 -94 98 -94q95 0 99 94h11q1 -69 -27.5 -104t-82.5 -35t-82.5 35t-27.5 104h12zM133 46.5q25 -24.5 64 -24.5q30 0 58.5 18t47 51t18.5 75v112q-10 -19 -31 -29.5t-61 -22.5q-39 -11 -63.5 -22.5
t-41 -34t-16.5 -60.5t25 -62.5z" />
    <glyph glyph-name="Aogonek" unicode="&#x104;" horiz-adv-x="705" 
d="M636.5 36q23.5 -20 65.5 -22v-14h-120q-40 -28 -62.5 -60t-22.5 -65q0 -25 15.5 -40.5t39.5 -15.5q18 0 37.5 12t35.5 33l8 -4q-13 -32 -39 -52t-54 -20q-41 0 -65 21t-24 55q0 39 28.5 74.5t79.5 61.5h-92v14q70 2 70 47q0 13 -10 40l-52 131h-276l-51 -129
q-11 -27 -11 -44q0 -22 19 -33t59 -12v-14h-212v14q48 1 72 21t44 69l230 579h14l230 -578q20 -49 43.5 -69zM464 260l-127 322l-127 -322h254z" />
    <glyph glyph-name="aogonek" unicode="&#x105;" horiz-adv-x="456" 
d="M84 18q-36 33 -36 86q0 46 21.5 73t52 40t81.5 27q41 11 64 20t38.5 25.5t15.5 43.5q0 46 -29.5 75t-76.5 29q-48 0 -75.5 -28.5t-27.5 -72.5q0 -18 4 -34h-68q1 43 21 79.5t57.5 58.5t89.5 22q72 0 114.5 -41.5t42.5 -110.5v-235q0 -23 10.5 -34.5t35.5 -13.5l16 -1v-14
l-82 -20q-33 -22 -53.5 -53.5t-20.5 -63.5q0 -25 15.5 -40.5t39.5 -15.5q18 0 37.5 12t35.5 33l8 -4q-13 -32 -39 -52t-54 -20q-41 0 -65 21t-24 55q0 36 24 68.5t65 53.5v121q-20 -61 -56.5 -91.5t-87.5 -30.5q-58 0 -94 33zM133 46.5q25 -24.5 64 -24.5q30 0 58.5 18
t47 51t18.5 75v112q-10 -19 -31 -29.5t-61 -22.5q-39 -11 -63.5 -22.5t-41 -34t-16.5 -60.5t25 -62.5z" />
    <glyph glyph-name="Cacute" unicode="&#x106;" horiz-adv-x="665" 
d="M497 613q-52 42 -133 42q-74 0 -128 -37.5t-83 -108.5t-29 -170q0 -87 34 -155.5t93 -107t133 -38.5q79 0 138.5 43t86.5 122l13 -3q-25 -102 -96 -158.5t-164 -56.5q-91 0 -161.5 44.5t-109 124.5t-38.5 182t40.5 181t111 122.5t157.5 43.5q63 0 119.5 -15t97.5 -44
l-6 -127h-14q-10 74 -62 116zM454 867h94l-185 -124h-14z" />
    <glyph glyph-name="cacute" unicode="&#x107;" horiz-adv-x="446" 
d="M329.5 407q-31.5 30 -79.5 30q-43 0 -78 -26.5t-54.5 -73.5t-19.5 -104t21.5 -103.5t59.5 -73.5t84 -27q49 0 85 28.5t53 74.5l12 -3q-15 -67 -60 -104.5t-112 -37.5q-57 0 -103.5 30.5t-73 85t-26.5 123.5q0 67 27.5 121t76 84.5t108.5 30.5q37 0 73 -8.5t61 -24.5
l-3 -110h-14q-6 58 -37.5 88zM293 693h84l-138 -152h-14z" />
    <glyph glyph-name="Ccircumflex" unicode="&#x108;" horiz-adv-x="665" 
d="M497 613q-52 42 -133 42q-74 0 -128 -37.5t-83 -108.5t-29 -170q0 -87 34 -155.5t93 -107t133 -38.5q79 0 138.5 43t86.5 122l13 -3q-25 -102 -96 -158.5t-164 -56.5q-91 0 -161.5 44.5t-109 124.5t-38.5 182t40.5 181t111 122.5t157.5 43.5q63 0 119.5 -15t97.5 -44
l-6 -127h-14q-10 74 -62 116zM339 867h68l107 -113h-14l-128 70l-129 -70h-14z" />
    <glyph glyph-name="ccircumflex" unicode="&#x109;" horiz-adv-x="446" 
d="M329.5 407q-31.5 30 -79.5 30q-43 0 -78 -26.5t-54.5 -73.5t-19.5 -104t21.5 -103.5t59.5 -73.5t84 -27q49 0 85 28.5t53 74.5l12 -3q-15 -67 -60 -104.5t-112 -37.5q-57 0 -103.5 30.5t-73 85t-26.5 123.5q0 67 27.5 121t76 84.5t108.5 30.5q37 0 73 -8.5t61 -24.5
l-3 -110h-14q-6 58 -37.5 88zM208 673h68l100 -132h-13l-121 89l-123 -89h-13z" />
    <glyph glyph-name="Cdotaccent" unicode="&#x10a;" horiz-adv-x="665" 
d="M497 613q-52 42 -133 42q-74 0 -128 -37.5t-83 -108.5t-29 -170q0 -87 34 -155.5t93 -107t133 -38.5q79 0 138.5 43t86.5 122l13 -3q-25 -102 -96 -158.5t-164 -56.5q-91 0 -161.5 44.5t-109 124.5t-38.5 182t40.5 181t111 122.5t157.5 43.5q63 0 119.5 -15t97.5 -44
l-6 -127h-14q-10 74 -62 116zM336.5 862q14.5 14 35.5 14q19 0 32.5 -14t13.5 -34t-13.5 -33.5t-32.5 -13.5q-21 0 -35.5 13.5t-14.5 33.5t14.5 34z" />
    <glyph glyph-name="cdotaccent" unicode="&#x10b;" horiz-adv-x="446" 
d="M329.5 407q-31.5 30 -79.5 30q-43 0 -78 -26.5t-54.5 -73.5t-19.5 -104t21.5 -103.5t59.5 -73.5t84 -27q49 0 85 28.5t53 74.5l12 -3q-15 -67 -60 -104.5t-112 -37.5q-57 0 -103.5 30.5t-73 85t-26.5 123.5q0 67 27.5 121t76 84.5t108.5 30.5q37 0 73 -8.5t61 -24.5
l-3 -110h-14q-6 58 -37.5 88zM206.5 671q14.5 14 35.5 14q20 0 33.5 -14t13.5 -34q0 -19 -13.5 -33t-33.5 -14q-21 0 -35.5 13.5t-14.5 33.5t14.5 34z" />
    <glyph glyph-name="Ccaron" unicode="&#x10c;" horiz-adv-x="665" 
d="M497 613q-52 42 -133 42q-74 0 -128 -37.5t-83 -108.5t-29 -170q0 -87 34 -155.5t93 -107t133 -38.5q79 0 138.5 43t86.5 122l13 -3q-25 -102 -96 -158.5t-164 -56.5q-91 0 -161.5 44.5t-109 124.5t-38.5 182t40.5 181t111 122.5t157.5 43.5q63 0 119.5 -15t97.5 -44
l-6 -127h-14q-10 74 -62 116zM242 867l129 -70l128 70h14l-107 -113h-68l-110 113h14z" />
    <glyph glyph-name="ccaron" unicode="&#x10d;" horiz-adv-x="446" 
d="M329.5 407q-31.5 30 -79.5 30q-43 0 -78 -26.5t-54.5 -73.5t-19.5 -104t21.5 -103.5t59.5 -73.5t84 -27q49 0 85 28.5t53 74.5l12 -3q-15 -67 -60 -104.5t-112 -37.5q-57 0 -103.5 30.5t-73 85t-26.5 123.5q0 67 27.5 121t76 84.5t108.5 30.5q37 0 73 -8.5t61 -24.5
l-3 -110h-14q-6 58 -37.5 88zM118 683l123 -89l121 89h13l-100 -132h-68l-102 132h13z" />
    <glyph glyph-name="Dcaron" unicode="&#x10e;" horiz-adv-x="719" 
d="M95 21q19 6 29 22.5t10 49.5v483q0 46 -21 61t-70 17v14h275q103 0 182 -42t122.5 -117.5t43.5 -174.5t-41.5 -175t-117 -117.5t-174.5 -41.5h-290v14q33 1 52 7zM178 867l129 -70l128 70h14l-107 -113h-68l-110 113h14zM215 41.5q18 -13.5 69 -13.5h49q78 0 137.5 38.5
t92 107.5t32.5 160t-36.5 160t-103 107.5t-154.5 38.5h-104v-548q0 -37 18 -50.5z" />
    <glyph glyph-name="dcaron" unicode="&#x10f;" horiz-adv-x="511" 
d="M128 14.5q-42 29.5 -65.5 83.5t-23.5 124q0 77 27.5 131t73.5 81.5t100 27.5q38 0 72.5 -13.5t58.5 -44.5v199q0 23 -11 34t-35 13l-16 1v14l114 28v-618q0 -23 10.5 -34t35.5 -13l16 -1v-14l-113 -28v123q-14 -57 -53 -90t-94 -33t-97 29.5zM117.5 124
q18.5 -46 50 -70.5t71.5 -24.5q56 0 93.5 39t38.5 119v105q0 62 -35.5 103.5t-94.5 41.5q-69 0 -105.5 -58t-36.5 -148q0 -61 18.5 -107zM498 684h59l-65 -178h-11z" />
    <glyph glyph-name="Dcroat" unicode="&#x110;" horiz-adv-x="719" 
d="M95 21q19 6 29 22.5t10 49.5v229h-112v24h112v230q0 46 -21 61t-70 17v14h275q103 0 182 -42t122.5 -117.5t43.5 -174.5t-41.5 -175t-117 -117.5t-174.5 -41.5h-290v14q33 1 52 7zM215 41.5q18 -13.5 69 -13.5h49q78 0 137.5 38.5t92 107.5t32.5 160t-36.5 160
t-103 107.5t-154.5 38.5h-104v-294h112v-24h-112v-230q0 -37 18 -50.5z" />
    <glyph glyph-name="dcroat" unicode="&#x111;" horiz-adv-x="511" 
d="M128 14.5q-42 29.5 -65.5 83.5t-23.5 124q0 77 27.5 131t73.5 81.5t100 27.5q38 0 72.5 -13.5t58.5 -44.5v138h-138v24h138v37q0 23 -11 34t-35 13l-16 1v14l114 28v-127h97v-24h-97v-467q0 -23 10.5 -34t35.5 -13l16 -1v-14l-113 -28v123q-14 -57 -53 -90t-94 -33
t-97 29.5zM117.5 124q18.5 -46 50 -70.5t71.5 -24.5q56 0 93.5 39t38.5 119v105q0 62 -35.5 103.5t-94.5 41.5q-69 0 -105.5 -58t-36.5 -148q0 -61 18.5 -107z" />
    <glyph glyph-name="Emacron" unicode="&#x112;" horiz-adv-x="661" 
d="M587 169l-28 -176q-49 7 -91 7h-425v14q48 2 69.5 18t21.5 63v479q0 46 -21.5 62t-69.5 18v14h412q43 0 92 7l28 -176h-14q-19 75 -52 108t-100 33h-212v-283h172q51 0 70.5 21.5t21.5 72.5h14v-215h-14q-2 50 -21.5 71.5t-70.5 21.5h-172v-234q0 -37 13 -52t43 -15h169
q67 0 99.5 33t51.5 108h14zM207 807h252v-24h-252v24z" />
    <glyph glyph-name="emacron" unicode="&#x113;" horiz-adv-x="458" 
d="M137.5 90q44.5 -59 125.5 -59q51 0 87 29t52 72l12 -3q-14 -66 -61 -104t-115 -38q-59 0 -104.5 29.5t-70.5 81.5t-25 119q0 75 26.5 130.5t74 85t109.5 29.5q74 0 119.5 -44.5t45.5 -121.5q0 -10 -2 -30h-315q-1 -7 -1 -21q-2 -96 42.5 -155zM352 291q1 9 1 25
q0 57 -31.5 89t-83.5 32q-54 0 -91 -39.5t-48 -106.5h253zM111 604h252v-24h-252v24z" />
    <glyph glyph-name="Ebreve" unicode="&#x114;" horiz-adv-x="661" 
d="M587 169l-28 -176q-49 7 -91 7h-425v14q48 2 69.5 18t21.5 63v479q0 46 -21.5 62t-69.5 18v14h412q43 0 92 7l28 -176h-14q-19 75 -52 108t-100 33h-212v-283h172q51 0 70.5 21.5t21.5 72.5h14v-215h-14q-2 50 -21.5 71.5t-70.5 21.5h-172v-234q0 -37 13 -52t43 -15h169
q67 0 99.5 33t51.5 108h14zM225 868q4 -38 32.5 -58t75.5 -20q48 0 76.5 20t32.5 58h11q-1 -57 -31.5 -89t-88.5 -32t-88.5 32t-31.5 89h12z" />
    <glyph glyph-name="ebreve" unicode="&#x115;" horiz-adv-x="458" 
d="M137.5 90q44.5 -59 125.5 -59q51 0 87 29t52 72l12 -3q-14 -66 -61 -104t-115 -38q-59 0 -104.5 29.5t-70.5 81.5t-25 119q0 75 26.5 130.5t74 85t109.5 29.5q74 0 119.5 -44.5t45.5 -121.5q0 -10 -2 -30h-315q-1 -7 -1 -21q-2 -96 42.5 -155zM352 291q1 9 1 25
q0 57 -31.5 89t-83.5 32q-54 0 -91 -39.5t-48 -106.5h253zM139 684q4 -94 98 -94q95 0 99 94h11q1 -69 -27.5 -104t-82.5 -35t-82.5 35t-27.5 104h12z" />
    <glyph glyph-name="Edotaccent" unicode="&#x116;" horiz-adv-x="661" 
d="M587 169l-28 -176q-49 7 -91 7h-425v14q48 2 69.5 18t21.5 63v479q0 46 -21.5 62t-69.5 18v14h412q43 0 92 7l28 -176h-14q-19 75 -52 108t-100 33h-212v-283h172q51 0 70.5 21.5t21.5 72.5h14v-215h-14q-2 50 -21.5 71.5t-70.5 21.5h-172v-234q0 -37 13 -52t43 -15h169
q67 0 99.5 33t51.5 108h14zM299.5 862q14.5 14 35.5 14q19 0 32.5 -14t13.5 -34t-13.5 -33.5t-32.5 -13.5q-21 0 -35.5 13.5t-14.5 33.5t14.5 34z" />
    <glyph glyph-name="edotaccent" unicode="&#x117;" horiz-adv-x="458" 
d="M137.5 90q44.5 -59 125.5 -59q51 0 87 29t52 72l12 -3q-14 -66 -61 -104t-115 -38q-59 0 -104.5 29.5t-70.5 81.5t-25 119q0 75 26.5 130.5t74 85t109.5 29.5q74 0 119.5 -44.5t45.5 -121.5q0 -10 -2 -30h-315q-1 -7 -1 -21q-2 -96 42.5 -155zM352 291q1 9 1 25
q0 57 -31.5 89t-83.5 32q-54 0 -91 -39.5t-48 -106.5h253zM202.5 671q14.5 14 35.5 14q20 0 33.5 -14t13.5 -34q0 -19 -13.5 -33t-33.5 -14q-21 0 -35.5 13.5t-14.5 33.5t14.5 34z" />
    <glyph glyph-name="Eogonek" unicode="&#x118;" horiz-adv-x="661" 
d="M587 169l-28 -176q-49 7 -91 7h-41q-40 -28 -62.5 -60t-22.5 -65q0 -25 15.5 -40.5t39.5 -15.5q18 0 37.5 12t35.5 33l8 -4q-13 -32 -39 -52t-54 -20q-41 0 -65 21t-24 55q0 39 28.5 74.5t79.5 61.5h-361v14q48 2 69.5 18t21.5 63v479q0 46 -21.5 62t-69.5 18v14h412
q43 0 92 7l28 -176h-14q-19 75 -52 108t-100 33h-212v-283h172q51 0 70.5 21.5t21.5 72.5h14v-215h-14q-2 50 -21.5 71.5t-70.5 21.5h-172v-234q0 -37 13 -52t43 -15h169q67 0 99.5 33t51.5 108h14z" />
    <glyph glyph-name="eogonek" unicode="&#x119;" horiz-adv-x="458" 
d="M137.5 90q44.5 -59 125.5 -59q51 0 87 29t52 72l12 -3q-10 -47 -37 -80t-67 -49q-38 -22 -62.5 -56.5t-24.5 -68.5q0 -25 15.5 -40.5t39.5 -15.5q18 0 37.5 12t35.5 33l8 -4q-13 -32 -39 -52t-54 -20q-41 0 -65 21t-24 55q0 38 26.5 71.5t70.5 54.5q-18 -3 -36 -3
q-59 0 -104.5 29.5t-70.5 81.5t-25 119q0 75 26.5 130.5t74 85t109.5 29.5q74 0 119.5 -44.5t45.5 -121.5q0 -10 -2 -30h-315q-1 -7 -1 -21q-2 -96 42.5 -155zM352 291q1 9 1 25q0 57 -31.5 89t-83.5 32q-54 0 -91 -39.5t-48 -106.5h253z" />
    <glyph glyph-name="Ecaron" unicode="&#x11a;" horiz-adv-x="661" 
d="M587 169l-28 -176q-49 7 -91 7h-425v14q48 2 69.5 18t21.5 63v479q0 46 -21.5 62t-69.5 18v14h412q43 0 92 7l28 -176h-14q-19 75 -52 108t-100 33h-212v-283h172q51 0 70.5 21.5t21.5 72.5h14v-215h-14q-2 50 -21.5 71.5t-70.5 21.5h-172v-234q0 -37 13 -52t43 -15h169
q67 0 99.5 33t51.5 108h14zM204 867l129 -70l128 70h14l-107 -113h-68l-110 113h14z" />
    <glyph glyph-name="ecaron" unicode="&#x11b;" horiz-adv-x="458" 
d="M137.5 90q44.5 -59 125.5 -59q51 0 87 29t52 72l12 -3q-14 -66 -61 -104t-115 -38q-59 0 -104.5 29.5t-70.5 81.5t-25 119q0 75 26.5 130.5t74 85t109.5 29.5q74 0 119.5 -44.5t45.5 -121.5q0 -10 -2 -30h-315q-1 -7 -1 -21q-2 -96 42.5 -155zM352 291q1 9 1 25
q0 57 -31.5 89t-83.5 32q-54 0 -91 -39.5t-48 -106.5h253zM114 683l123 -89l121 89h13l-100 -132h-68l-102 132h13z" />
    <glyph glyph-name="Gcircumflex" unicode="&#x11c;" horiz-adv-x="713" 
d="M206 29.5q-74 43.5 -113.5 122t-39.5 180.5t43.5 182t118.5 124.5t168 44.5q62 0 121 -15.5t100 -43.5l-5 -127h-14q-10 73 -64 115.5t-136 42.5q-79 0 -138 -38.5t-91 -110.5t-32 -170q0 -99 32 -171.5t91.5 -111.5t138.5 -39q54 0 99 15t74 45v167q0 43 -21 61.5
t-75 19.5v14h232v-14q-35 -2 -53.5 -22t-18.5 -59v-142q-35 -49 -99 -81t-145 -32q-99 0 -173 43.5zM352 867h68l107 -113h-14l-128 70l-129 -70h-14z" />
    <glyph glyph-name="gcircumflex" unicode="&#x11d;" horiz-adv-x="480" 
d="M85 -178q-58 34 -58 92q0 34 22 61t62 45q-44 24 -44 77q0 26 13 48.5t35 38.5q-29 21 -45 52.5t-16 70.5q0 70 48.5 112.5t128.5 42.5q59 0 100 -23l35 9q4 1 27.5 6.5t52.5 5.5v-37h-91q53 -42 53 -116q0 -70 -49 -113t-128 -43q-61 0 -104 26q-24 -27 -24 -57
q0 -53 81 -59l116 -6q156 -9 156 -119q0 -68 -58 -108t-159 -40q-96 0 -154 34zM124.5 -158.5q42.5 -28.5 119.5 -28.5q75 0 118.5 29.5t43.5 77.5q0 69 -113 75l-109 6q-35 2 -59 12q-19 -12 -31 -36.5t-12 -53.5q0 -53 42.5 -81.5zM200 673h68l100 -132h-13l-121 89
l-123 -89h-13zM145 212.5q33 -35.5 86 -35.5q54 0 87 35.5t33 94.5t-33 94.5t-87 35.5q-53 0 -86 -35.5t-33 -94.5t33 -94.5z" />
    <glyph glyph-name="Gbreve" unicode="&#x11e;" horiz-adv-x="713" 
d="M206 29.5q-74 43.5 -113.5 122t-39.5 180.5t43.5 182t118.5 124.5t168 44.5q62 0 121 -15.5t100 -43.5l-5 -127h-14q-10 73 -64 115.5t-136 42.5q-79 0 -138 -38.5t-91 -110.5t-32 -170q0 -99 32 -171.5t91.5 -111.5t138.5 -39q54 0 99 15t74 45v167q0 43 -21 61.5
t-75 19.5v14h232v-14q-35 -2 -53.5 -22t-18.5 -59v-142q-35 -49 -99 -81t-145 -32q-99 0 -173 43.5zM276 868q4 -38 32.5 -58t75.5 -20q48 0 76.5 20t32.5 58h11q-1 -57 -31.5 -89t-88.5 -32t-88.5 32t-31.5 89h12z" />
    <glyph glyph-name="gbreve" unicode="&#x11f;" horiz-adv-x="480" 
d="M85 -178q-58 34 -58 92q0 34 22 61t62 45q-44 24 -44 77q0 26 13 48.5t35 38.5q-29 21 -45 52.5t-16 70.5q0 70 48.5 112.5t128.5 42.5q59 0 100 -23l35 9q4 1 27.5 6.5t52.5 5.5v-37h-91q53 -42 53 -116q0 -70 -49 -113t-128 -43q-61 0 -104 26q-24 -27 -24 -57
q0 -53 81 -59l116 -6q156 -9 156 -119q0 -68 -58 -108t-159 -40q-96 0 -154 34zM124.5 -158.5q42.5 -28.5 119.5 -28.5q75 0 118.5 29.5t43.5 77.5q0 69 -113 75l-109 6q-35 2 -59 12q-19 -12 -31 -36.5t-12 -53.5q0 -53 42.5 -81.5zM145 212.5q33 -35.5 86 -35.5
q54 0 87 35.5t33 94.5t-33 94.5t-87 35.5q-53 0 -86 -35.5t-33 -94.5t33 -94.5zM136 684q4 -94 98 -94q95 0 99 94h11q1 -69 -27.5 -104t-82.5 -35t-82.5 35t-27.5 104h12z" />
    <glyph glyph-name="Gdotaccent" unicode="&#x120;" horiz-adv-x="713" 
d="M206 29.5q-74 43.5 -113.5 122t-39.5 180.5t43.5 182t118.5 124.5t168 44.5q62 0 121 -15.5t100 -43.5l-5 -127h-14q-10 73 -64 115.5t-136 42.5q-79 0 -138 -38.5t-91 -110.5t-32 -170q0 -99 32 -171.5t91.5 -111.5t138.5 -39q54 0 99 15t74 45v167q0 43 -21 61.5
t-75 19.5v14h232v-14q-35 -2 -53.5 -22t-18.5 -59v-142q-35 -49 -99 -81t-145 -32q-99 0 -173 43.5zM349.5 862q14.5 14 35.5 14q19 0 32.5 -14t13.5 -34t-13.5 -33.5t-32.5 -13.5q-21 0 -35.5 13.5t-14.5 33.5t14.5 34z" />
    <glyph glyph-name="gdotaccent" unicode="&#x121;" horiz-adv-x="480" 
d="M85 -178q-58 34 -58 92q0 34 22 61t62 45q-44 24 -44 77q0 26 13 48.5t35 38.5q-29 21 -45 52.5t-16 70.5q0 70 48.5 112.5t128.5 42.5q59 0 100 -23l35 9q4 1 27.5 6.5t52.5 5.5v-37h-91q53 -42 53 -116q0 -70 -49 -113t-128 -43q-61 0 -104 26q-24 -27 -24 -57
q0 -53 81 -59l116 -6q156 -9 156 -119q0 -68 -58 -108t-159 -40q-96 0 -154 34zM124.5 -158.5q42.5 -28.5 119.5 -28.5q75 0 118.5 29.5t43.5 77.5q0 69 -113 75l-109 6q-35 2 -59 12q-19 -12 -31 -36.5t-12 -53.5q0 -53 42.5 -81.5zM145 212.5q33 -35.5 86 -35.5
q54 0 87 35.5t33 94.5t-33 94.5t-87 35.5q-53 0 -86 -35.5t-33 -94.5t33 -94.5zM198.5 671q14.5 14 35.5 14q20 0 33.5 -14t13.5 -34q0 -19 -13.5 -33t-33.5 -14q-21 0 -35.5 13.5t-14.5 33.5t14.5 34z" />
    <glyph glyph-name="uni0122" unicode="&#x122;" horiz-adv-x="713" 
d="M206 29.5q-74 43.5 -113.5 122t-39.5 180.5t43.5 182t118.5 124.5t168 44.5q62 0 121 -15.5t100 -43.5l-5 -127h-14q-10 73 -64 115.5t-136 42.5q-79 0 -138 -38.5t-91 -110.5t-32 -170q0 -99 32 -171.5t91.5 -111.5t138.5 -39q54 0 99 15t74 45v167q0 43 -21 61.5
t-75 19.5v14h232v-14q-35 -2 -53.5 -22t-18.5 -59v-142q-35 -49 -99 -81t-145 -32q-99 0 -173 43.5zM345 -94.5q13 12.5 33 12.5q24 0 36.5 -17.5t12.5 -48.5q0 -40 -25 -68.5t-64 -33.5v13q25 5 41 22t18 47q-12 -5 -21 -5q-18 0 -31 13.5t-13 31.5q0 21 13 33.5z" />
    <glyph glyph-name="uni0123" unicode="&#x123;" horiz-adv-x="480" 
d="M85 -178q-58 34 -58 92q0 34 22 61t62 45q-44 24 -44 77q0 26 13 48.5t35 38.5q-29 21 -45 52.5t-16 70.5q0 70 48.5 112.5t128.5 42.5q59 0 100 -23l35 9q4 1 27.5 6.5t52.5 5.5v-37h-91q53 -42 53 -116q0 -70 -49 -113t-128 -43q-61 0 -104 26q-24 -27 -24 -57
q0 -53 81 -59l116 -6q156 -9 156 -119q0 -68 -58 -108t-159 -40q-96 0 -154 34zM124.5 -158.5q42.5 -28.5 119.5 -28.5q75 0 118.5 29.5t43.5 77.5q0 69 -113 75l-109 6q-35 2 -59 12q-19 -12 -31 -36.5t-12 -53.5q0 -53 42.5 -81.5zM145 212.5q33 -35.5 86 -35.5
q54 0 87 35.5t33 94.5t-33 94.5t-87 35.5q-53 0 -86 -35.5t-33 -94.5t33 -94.5zM211 704.5q25 28.5 64 33.5v-13q-25 -5 -41 -22t-18 -47q12 5 21 5q18 0 31 -13.5t13 -31.5q0 -21 -13 -33.5t-33 -12.5q-24 0 -36.5 17.5t-12.5 48.5q0 40 25 68.5z" />
    <glyph glyph-name="Hcircumflex" unicode="&#x124;" horiz-adv-x="768" 
d="M550 31.5q21 15.5 21 63.5v234h-374v-234q0 -48 21 -63.5t70 -17.5v-14h-245v14q49 2 70 17.5t21 63.5v479q0 47 -21 62.5t-70 17.5v14h245v-14q-49 -2 -70 -17.5t-21 -62.5v-217h374v217q0 47 -21 62.5t-70 17.5v14h245v-14q-49 -2 -70 -17.5t-21 -62.5v-479
q0 -48 21 -63.5t70 -17.5v-14h-245v14q49 2 70 17.5zM361 867h68l107 -113h-14l-128 70l-129 -70h-14z" />
    <glyph glyph-name="hcircumflex" unicode="&#x125;" horiz-adv-x="522" 
d="M449 30.5q15 -11.5 50 -16.5v-14h-184v14q36 5 51 16.5t15 35.5v241q0 59 -27 87t-71 28q-34 0 -65 -17t-51 -54t-20 -94v-191q0 -24 15 -35.5t51 -16.5v-14h-184v14q36 5 51 16.5t15 35.5v537q0 23 -10.5 34.5t-35.5 12.5l-16 1v14l114 28v-352q21 60 61.5 90.5
t93.5 30.5q61 0 96.5 -38t35.5 -112v-246q0 -24 15 -35.5zM89 867h68l107 -113h-14l-128 70l-129 -70h-14z" />
    <glyph glyph-name="Hbar" unicode="&#x126;" horiz-adv-x="768" 
d="M550 31.5q21 15.5 21 63.5v234h-374v-234q0 -48 21 -63.5t70 -17.5v-14h-245v14q49 2 70 17.5t21 63.5v393h-49v24h49v62q0 47 -21 62.5t-70 17.5v14h245v-14q-49 -2 -70 -17.5t-21 -62.5v-62h374v62q0 47 -21 62.5t-70 17.5v14h245v-14q-49 -2 -70 -17.5t-21 -62.5v-62
h65v-24h-65v-393q0 -48 21 -63.5t70 -17.5v-14h-245v14q49 2 70 17.5zM571 357v131h-374v-131h374z" />
    <glyph glyph-name="hbar" unicode="&#x127;" horiz-adv-x="522" 
d="M449 30.5q15 -11.5 50 -16.5v-14h-184v14q36 5 51 16.5t15 35.5v241q0 59 -27 87t-71 28q-34 0 -65 -17t-51 -54t-20 -94v-191q0 -24 15 -35.5t51 -16.5v-14h-184v14q36 5 51 16.5t15 35.5v476h-82v24h82v37q0 23 -10.5 34.5t-35.5 12.5l-16 1v14l114 28v-127h153v-24
h-153v-201q21 60 61.5 90.5t93.5 30.5q61 0 96.5 -38t35.5 -112v-246q0 -24 15 -35.5z" />
    <glyph glyph-name="Itilde" unicode="&#x128;" horiz-adv-x="341" 
d="M118 31.5q21 15.5 21 63.5v479q0 47 -21 62.5t-70 17.5v14h245v-14q-49 -2 -70 -17.5t-21 -62.5v-479q0 -48 21 -63.5t70 -17.5v-14h-245v14q49 2 70 17.5zM44 814q0 74 59 74q16 0 32.5 -7t44.5 -22q22 -13 38.5 -20t30.5 -7q18 0 27.5 11t12.5 41l10 1v-20
q0 -74 -58 -74q-17 0 -34 7t-44 22q-24 13 -39.5 19.5t-28.5 6.5q-19 0 -28.5 -11t-12.5 -41h-10v20z" />
    <glyph glyph-name="itilde" unicode="&#x129;" horiz-adv-x="250" 
d="M167 30.5q15 -11.5 50 -16.5v-14h-183v14q35 5 50 16.5t15 35.5v306q0 23 -10.5 34.5t-35.5 12.5l-16 1v14l115 28v-396q0 -24 15 -35.5zM-2 593q0 74 59 74q17 0 33.5 -7t42.5 -22q25 -14 39.5 -20t28.5 -6q18 0 27.5 11t12.5 41h10v-20q0 -37 -14 -55.5t-44 -18.5
q-17 0 -33.5 7t-42.5 22q-27 14 -41 20t-28 6q-18 0 -27.5 -11t-12.5 -41h-10v20z" />
    <glyph glyph-name="Imacron" unicode="&#x12a;" horiz-adv-x="341" 
d="M118 31.5q21 15.5 21 63.5v479q0 47 -21 62.5t-70 17.5v14h245v-14q-49 -2 -70 -17.5t-21 -62.5v-479q0 -48 21 -63.5t70 -17.5v-14h-245v14q49 2 70 17.5zM45 807h252v-24h-252v24z" />
    <glyph glyph-name="imacron" unicode="&#x12b;" horiz-adv-x="250" 
d="M167 30.5q15 -11.5 50 -16.5v-14h-183v14q35 5 50 16.5t15 35.5v306q0 23 -10.5 34.5t-35.5 12.5l-16 1v14l115 28v-396q0 -24 15 -35.5zM0 604h252v-24h-252v24z" />
    <glyph glyph-name="Ibreve" unicode="&#x12c;" horiz-adv-x="341" 
d="M118 31.5q21 15.5 21 63.5v479q0 47 -21 62.5t-70 17.5v14h245v-14q-49 -2 -70 -17.5t-21 -62.5v-479q0 -48 21 -63.5t70 -17.5v-14h-245v14q49 2 70 17.5zM64 868q4 -38 32.5 -58t75.5 -20q48 0 76.5 20t32.5 58h11q-1 -57 -31.5 -89t-88.5 -32t-88.5 32t-31.5 89h12z
" />
    <glyph glyph-name="ibreve" unicode="&#x12d;" horiz-adv-x="250" 
d="M167 30.5q15 -11.5 50 -16.5v-14h-183v14q35 5 50 16.5t15 35.5v306q0 23 -10.5 34.5t-35.5 12.5l-16 1v14l115 28v-396q0 -24 15 -35.5zM28 684q4 -94 98 -94q95 0 99 94h11q1 -69 -27.5 -104t-82.5 -35t-82.5 35t-27.5 104h12z" />
    <glyph glyph-name="Iogonek" unicode="&#x12e;" horiz-adv-x="341" 
d="M118 31.5q21 15.5 21 63.5v479q0 47 -21 62.5t-70 17.5v14h245v-14q-49 -2 -70 -17.5t-21 -62.5v-479q0 -48 21 -63.5t70 -17.5v-14h-64q-40 -28 -62.5 -60t-22.5 -65q0 -25 15.5 -40.5t39.5 -15.5q18 0 37.5 12t35.5 33l8 -4q-13 -32 -39 -52t-54 -20q-41 0 -65 21
t-24 55q0 39 28.5 74.5t79.5 61.5h-158v14q49 2 70 17.5z" />
    <glyph glyph-name="iogonek" unicode="&#x12f;" horiz-adv-x="250" 
d="M167 30.5q15 -11.5 50 -16.5v-14h-53q-40 -28 -62.5 -60t-22.5 -65q0 -25 15.5 -40.5t39.5 -15.5q18 0 37.5 12t35.5 33l8 -4q-13 -32 -39 -52t-54 -20q-41 0 -65 21t-24 55q0 39 28.5 74.5t79.5 61.5h-107v14q35 5 50 16.5t15 35.5v306q0 23 -10.5 34.5t-35.5 12.5
l-16 1v14l115 28v-396q0 -24 15 -35.5zM90.5 671q14.5 14 35.5 14q20 0 33.5 -14t13.5 -34q0 -19 -13.5 -33t-33.5 -14q-21 0 -35.5 13.5t-14.5 33.5t14.5 34z" />
    <glyph glyph-name="Idotaccent" unicode="&#x130;" horiz-adv-x="341" 
d="M118 31.5q21 15.5 21 63.5v479q0 47 -21 62.5t-70 17.5v14h245v-14q-49 -2 -70 -17.5t-21 -62.5v-479q0 -48 21 -63.5t70 -17.5v-14h-245v14q49 2 70 17.5zM137.5 862q14.5 14 35.5 14q19 0 32.5 -14t13.5 -34t-13.5 -33.5t-32.5 -13.5q-21 0 -35.5 13.5t-14.5 33.5
t14.5 34z" />
    <glyph glyph-name="dotlessi" unicode="&#x131;" horiz-adv-x="250" 
d="M167 30.5q15 -11.5 50 -16.5v-14h-183v14q35 5 50 16.5t15 35.5v306q0 23 -10.5 34.5t-35.5 12.5l-16 1v14l115 28v-396q0 -24 15 -35.5z" />
    <glyph glyph-name="IJ" unicode="&#x132;" horiz-adv-x="845" 
d="M118 31.5q21 15.5 21 63.5v479q0 47 -21 62.5t-70 17.5v14h245v-14q-49 -2 -70 -17.5t-21 -62.5v-479q0 -48 21 -63.5t70 -17.5v-14h-245v14q49 2 70 17.5zM744 635.5q-21 -16.5 -21 -60.5v-391q0 -99 -47.5 -149t-132.5 -50t-134 50.5t-44 134.5h69q-4 -20 -4 -41
q0 -57 31 -86.5t83 -29.5q55 0 85.5 37t30.5 114v411q0 44 -21.5 60.5t-70.5 18.5v14h244v-14q-47 -2 -68 -18.5z" />
    <glyph glyph-name="ij" unicode="&#x133;" horiz-adv-x="496" 
d="M167 30.5q15 -11.5 50 -16.5v-14h-183v14q35 5 50 16.5t15 35.5v306q0 23 -10.5 34.5t-35.5 12.5l-16 1v14l115 28v-396q0 -24 15 -35.5zM90.5 671q14.5 14 35.5 14q20 0 33.5 -14t13.5 -34q0 -19 -13.5 -33t-33.5 -14q-21 0 -35.5 13.5t-14.5 33.5t14.5 34zM292 434
l114 28v-386q0 -113 -33.5 -179.5t-115.5 -108.5l-7 10q54 44 78.5 102t24.5 154v318q0 23 -10.5 34.5t-35.5 12.5l-15 1v14zM344.5 671q14.5 14 35.5 14q20 0 33.5 -14t13.5 -34q0 -19 -13.5 -33t-33.5 -14q-21 0 -35.5 13.5t-14.5 33.5t14.5 34z" />
    <glyph glyph-name="Jcircumflex" unicode="&#x134;" horiz-adv-x="504" 
d="M403 635.5q-21 -16.5 -21 -60.5v-391q0 -99 -47.5 -149t-132.5 -50t-134 50.5t-44 134.5h69q-4 -20 -4 -41q0 -57 31 -86.5t83 -29.5q55 0 85.5 37t30.5 114v411q0 44 -21.5 60.5t-70.5 18.5v14h244v-14q-47 -2 -68 -18.5zM319 867h68l107 -113h-14l-128 70l-129 -70h-14
z" />
    <glyph glyph-name="jcircumflex" unicode="&#x135;" horiz-adv-x="208" 
d="M23 434l114 28v-386q0 -113 -33.5 -179.5t-115.5 -108.5l-7 10q54 44 78.5 102t24.5 154v318q0 23 -10.5 34.5t-35.5 12.5l-15 1v14zM76 673h68l100 -132h-13l-121 89l-123 -89h-13z" />
    <glyph glyph-name="uni0136" unicode="&#x136;" horiz-adv-x="694" 
d="M612.5 35q36.5 -19 67.5 -21v-14h-157q-4 15 -18.5 34.5t-45.5 49.5l-262 246v-235q0 -48 21 -63.5t70 -17.5v-14h-245v14q49 2 70 17.5t21 63.5v479q0 47 -21 62.5t-70 17.5v14h245v-14q-49 -2 -70 -17.5t-21 -62.5v-233l282 255q25 22 25 36q0 21 -64 22v14h205v-14
q-35 -1 -65 -15.5t-63 -44.5l-260 -236l291 -278q28 -26 64.5 -45zM338 -94.5q13 12.5 33 12.5q24 0 36.5 -17.5t12.5 -48.5q0 -40 -25 -68.5t-64 -33.5v13q25 5 41 22t18 47q-12 -5 -21 -5q-18 0 -31 13.5t-13 31.5q0 21 13 33.5z" />
    <glyph glyph-name="uni0137" unicode="&#x137;" horiz-adv-x="501" 
d="M354.5 28.5q-12.5 16.5 -39.5 44.5l-168 166v-173q0 -24 15 -35.5t51 -16.5v-14h-184v14q36 5 51 16.5t15 35.5v537q0 23 -10.5 34.5t-35.5 12.5l-16 1v14l114 28v-449l171 135q32 25 32 38q0 7 -9 10.5t-28 5.5v14h158v-14q-24 -1 -52 -14.5t-66 -43.5l-150 -119
l186 -187q28 -29 53 -41.5t56 -14.5v-13h-130q-1 12 -13.5 28.5zM220 -109.5q13 12.5 33 12.5q24 0 36.5 -17.5t12.5 -48.5q0 -40 -25 -68.5t-64 -33.5v13q25 5 41 22t18 47q-12 -5 -21 -5q-18 0 -31 13.5t-13 31.5q0 21 13 33.5z" />
    <glyph glyph-name="kgreenlandic" unicode="&#x138;" horiz-adv-x="518" 
d="M161 242l186 147q17 13 17 26q0 8 -6.5 12.5t-18.5 5.5v14h149v-14q-25 -1 -53.5 -15t-64.5 -43l-150 -119l196 -198q21 -21 44 -32.5t55 -12.5v-13h-111zM34 14q35 5 50 16.5t15 35.5v306q0 23 -10.5 34.5t-35.5 12.5l-16 1v14l115 28v-396q0 -24 15 -35.5t50 -16.5v-14
h-183v14z" />
    <glyph glyph-name="Lacute" unicode="&#x139;" horiz-adv-x="610" 
d="M577 169l-29 -176q-49 7 -91 7h-414v14q50 2 70.5 17t20.5 62v483q0 46 -20.5 61t-70.5 17v14h245v-14q-49 -2 -70 -17.5t-21 -60.5v-483q0 -36 12.5 -50.5t42.5 -14.5h159q67 0 100 33t52 108h14zM249 867h94l-185 -124h-14z" />
    <glyph glyph-name="lacute" unicode="&#x13a;" horiz-adv-x="241" 
d="M162 30.5q15 -11.5 51 -16.5v-14h-184v14q36 5 51 16.5t15 35.5v537q0 23 -10.5 34.5t-35.5 12.5l-16 1v14l114 28v-627q0 -24 15 -35.5zM204 867h94l-185 -124h-14z" />
    <glyph glyph-name="uni013B" unicode="&#x13b;" horiz-adv-x="610" 
d="M577 169l-29 -176q-49 7 -91 7h-414v14q50 2 70.5 17t20.5 62v483q0 46 -20.5 61t-70.5 17v14h245v-14q-49 -2 -70 -17.5t-21 -60.5v-483q0 -36 12.5 -50.5t42.5 -14.5h159q67 0 100 33t52 108h14zM302 -94.5q13 12.5 33 12.5q24 0 36.5 -17.5t12.5 -48.5
q0 -40 -25 -68.5t-64 -33.5v13q25 5 41 22t18 47q-12 -5 -21 -5q-18 0 -31 13.5t-13 31.5q0 21 13 33.5z" />
    <glyph glyph-name="uni013C" unicode="&#x13c;" horiz-adv-x="241" 
d="M162 30.5q15 -11.5 51 -16.5v-14h-184v14q36 5 51 16.5t15 35.5v537q0 23 -10.5 34.5t-35.5 12.5l-16 1v14l114 28v-627q0 -24 15 -35.5zM88 -109.5q13 12.5 33 12.5q24 0 36.5 -17.5t12.5 -48.5q0 -40 -25 -68.5t-64 -33.5v13q25 5 41 22t18 47q-12 -5 -21 -5
q-18 0 -31 13.5t-13 31.5q0 21 13 33.5z" />
    <glyph glyph-name="Lcaron" unicode="&#x13d;" horiz-adv-x="610" 
d="M577 169l-29 -176q-49 7 -91 7h-414v14q50 2 70.5 17t20.5 62v483q0 46 -20.5 61t-70.5 17v14h245v-14q-49 -2 -70 -17.5t-21 -60.5v-483q0 -36 12.5 -50.5t42.5 -14.5h159q67 0 100 33t52 108h14zM464 668h59l-65 -178h-11z" />
    <glyph glyph-name="lcaron" unicode="&#x13e;" horiz-adv-x="241" 
d="M162 30.5q15 -11.5 51 -16.5v-14h-184v14q36 5 51 16.5t15 35.5v537q0 23 -10.5 34.5t-35.5 12.5l-16 1v14l114 28v-627q0 -24 15 -35.5zM207 684h59l-65 -178h-11z" />
    <glyph glyph-name="Ldot" unicode="&#x13f;" horiz-adv-x="610" 
d="M577 169l-29 -176q-49 7 -91 7h-414v14q50 2 70.5 17t20.5 62v483q0 46 -20.5 61t-70.5 17v14h245v-14q-49 -2 -70 -17.5t-21 -60.5v-483q0 -36 12.5 -50.5t42.5 -14.5h159q67 0 100 33t52 108h14zM343.5 370q14.5 14 36.5 14q23 0 37 -14t14 -37q0 -22 -14.5 -36.5
t-36.5 -14.5t-36.5 14.5t-14.5 36.5q0 23 14.5 37z" />
    <glyph glyph-name="ldot" unicode="&#x140;" horiz-adv-x="292" 
d="M162 30.5q15 -11.5 51 -16.5v-14h-184v14q36 5 51 16.5t15 35.5v537q0 23 -10.5 34.5t-35.5 12.5l-16 1v14l114 28v-627q0 -24 15 -35.5zM222 313.5q-15 14.5 -15 36.5t14.5 36.5t37.5 14.5t37 -14t14 -37q0 -22 -14.5 -36.5t-36.5 -14.5t-37 14.5z" />
    <glyph glyph-name="Lslash" unicode="&#x141;" horiz-adv-x="610" 
d="M577 169l-29 -176q-49 7 -91 7h-414v14q50 2 70.5 17t20.5 62v222l-85 -33v24l85 32v238q0 46 -20.5 61t-70.5 17v14h245v-14q-49 -2 -70 -17.5t-21 -60.5v-216l191 73v-23l-191 -73v-244q0 -36 12.5 -50.5t42.5 -14.5h159q67 0 100 33t52 108h14z" />
    <glyph glyph-name="lslash" unicode="&#x142;" horiz-adv-x="281" 
d="M182 30.5q15 -11.5 51 -16.5v-14h-184v14q36 5 51 16.5t15 35.5v308l-73 -34v24l73 34v205q0 23 -10.5 34.5t-35.5 12.5l-16 1v14l114 28v-275l82 38v-24l-82 -38v-328q0 -24 15 -35.5z" />
    <glyph glyph-name="Nacute" unicode="&#x143;" horiz-adv-x="723" 
d="M685 668v-14q-38 -2 -56.5 -14.5t-18.5 -55.5v-599h-14l-430 590v-489q0 -32 12.5 -47t33 -19t59.5 -5v-15h-209v14q27 1 42 5.5t24.5 19.5t9.5 47v502q0 35 -25 49t-70 17v14h133l406 -558v474q0 30 -13 45t-35 19.5t-59 5.5v14h210zM460 867h94l-185 -124h-14z" />
    <glyph glyph-name="nacute" unicode="&#x144;" horiz-adv-x="526" 
d="M453 30.5q15 -11.5 50 -16.5v-14h-183v14q35 5 50 16.5t15 35.5v241q0 59 -26.5 87t-70.5 28q-34 0 -65 -17t-51 -54t-20 -94v-191q0 -24 15 -35.5t50 -16.5v-14h-183v14q35 5 50 16.5t15 35.5v306q0 23 -10.5 34.5t-35.5 12.5l-16 1v14l115 28v-121q21 60 61 90.5
t93 30.5q61 0 96.5 -38t35.5 -112v-246q0 -24 15 -35.5zM320 693h84l-138 -152h-14z" />
    <glyph glyph-name="uni0145" unicode="&#x145;" horiz-adv-x="723" 
d="M685 668v-14q-38 -2 -56.5 -14.5t-18.5 -55.5v-599h-14l-430 590v-489q0 -32 12.5 -47t33 -19t59.5 -5v-15h-209v14q27 1 42 5.5t24.5 19.5t9.5 47v502q0 35 -25 49t-70 17v14h133l406 -558v474q0 30 -13 45t-35 19.5t-59 5.5v14h210zM332 -94.5q13 12.5 33 12.5
q24 0 36.5 -17.5t12.5 -48.5q0 -40 -25 -68.5t-64 -33.5v13q25 5 41 22t18 47q-12 -5 -21 -5q-18 0 -31 13.5t-13 31.5q0 21 13 33.5z" />
    <glyph glyph-name="uni0146" unicode="&#x146;" horiz-adv-x="526" 
d="M453 30.5q15 -11.5 50 -16.5v-14h-183v14q35 5 50 16.5t15 35.5v241q0 59 -26.5 87t-70.5 28q-34 0 -65 -17t-51 -54t-20 -94v-191q0 -24 15 -35.5t50 -16.5v-14h-183v14q35 5 50 16.5t15 35.5v306q0 23 -10.5 34.5t-35.5 12.5l-16 1v14l115 28v-121q21 60 61 90.5
t93 30.5q61 0 96.5 -38t35.5 -112v-246q0 -24 15 -35.5zM236 -109.5q13 12.5 33 12.5q24 0 36.5 -17.5t12.5 -48.5q0 -40 -25 -68.5t-64 -33.5v13q25 5 41 22t18 47q-12 -5 -21 -5q-18 0 -31 13.5t-13 31.5q0 21 13 33.5z" />
    <glyph glyph-name="Ncaron" unicode="&#x147;" horiz-adv-x="723" 
d="M685 668v-14q-38 -2 -56.5 -14.5t-18.5 -55.5v-599h-14l-430 590v-489q0 -32 12.5 -47t33 -19t59.5 -5v-15h-209v14q27 1 42 5.5t24.5 19.5t9.5 47v502q0 35 -25 49t-70 17v14h133l406 -558v474q0 30 -13 45t-35 19.5t-59 5.5v14h210zM248 867l129 -70l128 70h14
l-107 -113h-68l-110 113h14z" />
    <glyph glyph-name="ncaron" unicode="&#x148;" horiz-adv-x="526" 
d="M453 30.5q15 -11.5 50 -16.5v-14h-183v14q35 5 50 16.5t15 35.5v241q0 59 -26.5 87t-70.5 28q-34 0 -65 -17t-51 -54t-20 -94v-191q0 -24 15 -35.5t50 -16.5v-14h-183v14q35 5 50 16.5t15 35.5v306q0 23 -10.5 34.5t-35.5 12.5l-16 1v14l115 28v-121q21 60 61 90.5
t93 30.5q61 0 96.5 -38t35.5 -112v-246q0 -24 15 -35.5zM144 683l123 -89l121 89h13l-100 -132h-68l-102 132h13z" />
    <glyph glyph-name="napostrophe" unicode="&#x149;" horiz-adv-x="576" 
d="M453 30.5q15 -11.5 50 -16.5v-14h-183v14q35 5 50 16.5t15 35.5v241q0 59 -26.5 87t-70.5 28q-34 0 -65 -17t-51 -54t-20 -94v-191q0 -24 15 -35.5t50 -16.5v-14h-183v14q35 5 50 16.5t15 35.5v306q0 23 -10.5 34.5t-35.5 12.5l-16 1v14l115 28v-121q21 60 61 90.5
t93 30.5q61 0 96.5 -38t35.5 -112v-246q0 -24 15 -35.5zM69 719.5q13 11.5 33 11.5q24 0 36.5 -16t12.5 -44q0 -35 -25 -61t-64 -31v12q25 5 41 20t18 42q-9 -4 -21 -4q-18 0 -31 12t-13 28q0 19 13 30.5z" />
    <glyph glyph-name="Eng" unicode="&#x14a;" horiz-adv-x="723" 
d="M685 668v-14q-38 -2 -56.5 -14.5t-18.5 -55.5v-642q0 -72 -33.5 -113t-97.5 -41q-71 0 -106 48.5t-29 130.5h65q-5 -30 -5 -49q0 -50 22.5 -76t63.5 -26q48 0 71.5 34t23.5 88q0 45 -12 71t-44 68l-13 17l-350 481v-489q0 -32 12.5 -47t33 -19t59.5 -5v-15h-209v14
q27 1 42 5.5t24.5 19.5t9.5 47v502q0 35 -25 49t-70 17v14h133l410 -564v480q0 30 -13 45t-34.5 19.5t-58.5 5.5v14h205z" />
    <glyph glyph-name="eng" unicode="&#x14b;" horiz-adv-x="508" 
d="M358 395q-26 27 -71 27q-33 0 -64.5 -17t-52 -54.5t-20.5 -93.5v-191q0 -27 16.5 -37t48.5 -16v-13h-182v13q32 6 48 16t16 37v306q0 22 -10 33.5t-35 12.5h-25v13l111 31h12v-124q20 60 61.5 92t92.5 32q62 0 97 -37.5t35 -102.5v-246q0 -113 -33.5 -179.5
t-115.5 -108.5l-6 10q54 44 78.5 102t24.5 154v267q0 47 -26 74z" />
    <glyph glyph-name="Omacron" unicode="&#x14c;" horiz-adv-x="756" 
d="M209 29q-74 44 -115 123.5t-41 181.5t41 181.5t115 123.5t169 44q96 0 169.5 -44t114.5 -123.5t41 -181.5t-41 -181.5t-114.5 -123.5t-169.5 -44q-95 0 -169 44zM155 165.5q32 -72.5 89.5 -112.5t133.5 -40t133.5 40t89.5 112.5t32 168.5t-32 168.5t-89.5 112.5
t-133.5 40t-133.5 -40t-89.5 -112.5t-32 -168.5t32 -168.5zM252 807h252v-24h-252v24z" />
    <glyph glyph-name="omacron" unicode="&#x14d;" horiz-adv-x="479" 
d="M134 16q-46 30 -71 84t-25 124t25 124t71 84t106 30q59 0 105 -30t71 -84t25 -124t-25 -124t-71 -84t-105 -30q-60 0 -106 30zM136 67.5q38 -56.5 104 -56.5t103.5 56.5t37.5 156.5q0 101 -37.5 157t-103.5 56t-104 -56t-38 -157q0 -100 38 -156.5zM115 604h252v-24h-252
v24z" />
    <glyph glyph-name="Obreve" unicode="&#x14e;" horiz-adv-x="756" 
d="M209 29q-74 44 -115 123.5t-41 181.5t41 181.5t115 123.5t169 44q96 0 169.5 -44t114.5 -123.5t41 -181.5t-41 -181.5t-114.5 -123.5t-169.5 -44q-95 0 -169 44zM155 165.5q32 -72.5 89.5 -112.5t133.5 -40t133.5 40t89.5 112.5t32 168.5t-32 168.5t-89.5 112.5
t-133.5 40t-133.5 -40t-89.5 -112.5t-32 -168.5t32 -168.5zM271 868q4 -38 32.5 -58t75.5 -20q48 0 76.5 20t32.5 58h11q-1 -57 -31.5 -89t-88.5 -32t-88.5 32t-31.5 89h12z" />
    <glyph glyph-name="obreve" unicode="&#x14f;" horiz-adv-x="479" 
d="M134 16q-46 30 -71 84t-25 124t25 124t71 84t106 30q59 0 105 -30t71 -84t25 -124t-25 -124t-71 -84t-105 -30q-60 0 -106 30zM136 67.5q38 -56.5 104 -56.5t103.5 56.5t37.5 156.5q0 101 -37.5 157t-103.5 56t-104 -56t-38 -157q0 -100 38 -156.5zM143 684q4 -94 98 -94
q95 0 99 94h11q1 -69 -27.5 -104t-82.5 -35t-82.5 35t-27.5 104h12z" />
    <glyph glyph-name="Ohungarumlaut" unicode="&#x150;" horiz-adv-x="756" 
d="M209 29q-74 44 -115 123.5t-41 181.5t41 181.5t115 123.5t169 44q96 0 169.5 -44t114.5 -123.5t41 -181.5t-41 -181.5t-114.5 -123.5t-169.5 -44q-95 0 -169 44zM155 165.5q32 -72.5 89.5 -112.5t133.5 -40t133.5 40t89.5 112.5t32 168.5t-32 168.5t-89.5 112.5
t-133.5 40t-133.5 -40t-89.5 -112.5t-32 -168.5t32 -168.5zM366 877h69l-129 -134h-13zM481 876l72 1l-130 -134h-15z" />
    <glyph glyph-name="ohungarumlaut" unicode="&#x151;" horiz-adv-x="479" 
d="M134 16q-46 30 -71 84t-25 124t25 124t71 84t106 30q59 0 105 -30t71 -84t25 -124t-25 -124t-71 -84t-105 -30q-60 0 -106 30zM136 67.5q38 -56.5 104 -56.5t103.5 56.5t37.5 156.5q0 101 -37.5 157t-103.5 56t-104 -56t-38 -157q0 -100 38 -156.5zM219 693h64l-112 -152
h-13zM333 693h65l-113 -152h-14z" />
    <glyph glyph-name="OE" unicode="&#x152;" horiz-adv-x="1048" 
d="M219 42q-79 42 -122.5 117.5t-43.5 174.5t41.5 175t117 117.5t173.5 41.5h458q42 0 91 7l28 -176h-14q-19 75 -51.5 108t-99.5 33h-213v-283h173q51 0 70 21.5t21 71.5h14v-214h-14q-2 50 -21 71.5t-70 21.5h-173v-234q0 -36 13.5 -51.5t43.5 -15.5h169q67 0 99.5 33
t51.5 108h14l-28 -176q-49 7 -91 7h-455q-103 0 -182 42zM160 174q37 -69 103.5 -107.5t154.5 -38.5h104v548q0 37 -18.5 50.5t-69.5 13.5h-49q-78 0 -137.5 -38.5t-92 -107.5t-32.5 -160t37 -160z" />
    <glyph glyph-name="oe" unicode="&#x153;" horiz-adv-x="805" 
d="M134 16q-46 30 -71 84t-25 124t25 124t71 84t106 30q59 0 104 -29t70 -81q26 53 73 81.5t108 28.5q74 0 119.5 -44.5t45.5 -121.5q0 -10 -2 -30h-315l-1 -21q-2 -96 42.5 -155t125.5 -59q51 0 87 29t52 72l12 -3q-14 -66 -61 -104t-115 -38q-58 0 -102.5 28t-69.5 78
q-26 -51 -70.5 -79t-102.5 -28q-60 0 -106 30zM136 67.5q38 -56.5 104 -56.5t103.5 56.5t37.5 156.5q0 101 -37.5 157t-103.5 56t-104 -56t-38 -157q0 -100 38 -156.5zM699 291q1 9 1 25q0 57 -31.5 89t-83.5 32q-54 0 -91 -39.5t-48 -106.5h253z" />
    <glyph glyph-name="Racute" unicode="&#x154;" horiz-adv-x="669" 
d="M424 82l-227 250v-239q0 -33 10 -49.5t29 -22.5t52 -7v-14h-245v14q33 1 52 7t29 22.5t10 49.5v483q0 46 -21 61t-70 17v14h265q255 0 255 -175q0 -93 -68 -136t-187 -41h-16l193 -213q41 -44 78 -64.5t83 -24.5v-14h-162q-3 18 -60 82zM305 344q92 0 140 39.5t48 109.5
q0 69 -48 108t-140 39h-108v-296h108zM389 867h94l-185 -124h-14z" />
    <glyph glyph-name="racute" unicode="&#x155;" horiz-adv-x="332" 
d="M200 427.5q33 34.5 73 34.5q20 0 44 -11l-8 -56q-24 15 -50 15q-44 0 -75 -43t-32 -119v-182q0 -26 21.5 -38t70.5 -14v-14h-210v14q35 5 50 16.5t15 35.5v306q0 23 -10.5 34.5t-35.5 12.5l-16 1v14l115 28v-130q15 61 48 95.5zM244 693h84l-138 -152h-14z" />
    <glyph glyph-name="uni0156" unicode="&#x156;" horiz-adv-x="669" 
d="M424 82l-227 250v-239q0 -33 10 -49.5t29 -22.5t52 -7v-14h-245v14q33 1 52 7t29 22.5t10 49.5v483q0 46 -21 61t-70 17v14h265q255 0 255 -175q0 -93 -68 -136t-187 -41h-16l193 -213q41 -44 78 -64.5t83 -24.5v-14h-162q-3 18 -60 82zM305 344q92 0 140 39.5t48 109.5
q0 69 -48 108t-140 39h-108v-296h108zM305 -94.5q13 12.5 33 12.5q24 0 36.5 -17.5t12.5 -48.5q0 -40 -25 -68.5t-64 -33.5v13q25 5 41 22t18 47q-12 -5 -21 -5q-18 0 -31 13.5t-13 31.5q0 21 13 33.5z" />
    <glyph glyph-name="uni0157" unicode="&#x157;" horiz-adv-x="332" 
d="M200 427.5q33 34.5 73 34.5q20 0 44 -11l-8 -56q-24 15 -50 15q-44 0 -75 -43t-32 -119v-182q0 -26 21.5 -38t70.5 -14v-14h-210v14q35 5 50 16.5t15 35.5v306q0 23 -10.5 34.5t-35.5 12.5l-16 1v14l115 28v-130q15 61 48 95.5zM98 -109.5q13 12.5 33 12.5
q24 0 36.5 -17.5t12.5 -48.5q0 -40 -25 -68.5t-64 -33.5v13q25 5 41 22t18 47q-12 -5 -21 -5q-18 0 -31 13.5t-13 31.5q0 21 13 33.5z" />
    <glyph glyph-name="Rcaron" unicode="&#x158;" horiz-adv-x="669" 
d="M424 82l-227 250v-239q0 -33 10 -49.5t29 -22.5t52 -7v-14h-245v14q33 1 52 7t29 22.5t10 49.5v483q0 46 -21 61t-70 17v14h265q255 0 255 -175q0 -93 -68 -136t-187 -41h-16l193 -213q41 -44 78 -64.5t83 -24.5v-14h-162q-3 18 -60 82zM177 867l129 -70l128 70h14
l-107 -113h-68l-110 113h14zM305 344q92 0 140 39.5t48 109.5q0 69 -48 108t-140 39h-108v-296h108z" />
    <glyph glyph-name="rcaron" unicode="&#x159;" horiz-adv-x="332" 
d="M200 427.5q33 34.5 73 34.5q20 0 44 -11l-8 -56q-24 15 -50 15q-44 0 -75 -43t-32 -119v-182q0 -26 21.5 -38t70.5 -14v-14h-210v14q35 5 50 16.5t15 35.5v306q0 23 -10.5 34.5t-35.5 12.5l-16 1v14l115 28v-130q15 61 48 95.5zM69 683l123 -89l121 89h13l-100 -132h-68
l-102 132h13z" />
    <glyph glyph-name="Sacute" unicode="&#x15a;" horiz-adv-x="593" 
d="M177 64q54 -50 128 -50q69 0 111.5 36.5t42.5 95.5q0 48 -24 79.5t-59 50t-96 41.5q-63 24 -102 44.5t-65.5 57.5t-26.5 93q0 76 53 123t141 47q55 0 110.5 -15t93.5 -42l-5 -128h-14q-13 77 -60.5 117t-125.5 40q-36 0 -68.5 -15t-52 -42.5t-19.5 -61.5q0 -41 23 -69
t57.5 -46t92.5 -40q67 -25 108.5 -47.5t70.5 -61.5t29 -98q0 -55 -27.5 -97.5t-76.5 -66t-112 -23.5q-67 0 -125.5 20t-95.5 56l6 140h14q20 -88 74 -138zM382 867h94l-185 -124h-14z" />
    <glyph glyph-name="sacute" unicode="&#x15b;" horiz-adv-x="404" 
d="M120.5 46q36.5 -36 87.5 -36q48 0 77.5 25.5t29.5 67.5q0 30 -15.5 49t-38.5 29t-63 23q-47 16 -74.5 29.5t-47.5 40.5t-20 71q0 53 39 85t103 32q78 0 129 -32l-2 -110h-14q-8 55 -38.5 86t-76.5 31q-43 0 -70 -22.5t-27 -59.5q0 -26 14.5 -43t36.5 -26.5t60 -22.5
q47 -15 76.5 -29.5t50.5 -43.5t21 -76q0 -58 -41 -93.5t-110 -35.5q-48 0 -88 14t-64 37l3 110h14q12 -64 48.5 -100zM256 693h84l-138 -152h-14z" />
    <glyph glyph-name="Scircumflex" unicode="&#x15c;" horiz-adv-x="593" 
d="M177 64q54 -50 128 -50q69 0 111.5 36.5t42.5 95.5q0 48 -24 79.5t-59 50t-96 41.5q-63 24 -102 44.5t-65.5 57.5t-26.5 93q0 76 53 123t141 47q55 0 110.5 -15t93.5 -42l-5 -128h-14q-13 77 -60.5 117t-125.5 40q-36 0 -68.5 -15t-52 -42.5t-19.5 -61.5q0 -41 23 -69
t57.5 -46t92.5 -40q67 -25 108.5 -47.5t70.5 -61.5t29 -98q0 -55 -27.5 -97.5t-76.5 -66t-112 -23.5q-67 0 -125.5 20t-95.5 56l6 140h14q20 -88 74 -138zM267 867h68l107 -113h-14l-128 70l-129 -70h-14z" />
    <glyph glyph-name="scircumflex" unicode="&#x15d;" horiz-adv-x="404" 
d="M120.5 46q36.5 -36 87.5 -36q48 0 77.5 25.5t29.5 67.5q0 30 -15.5 49t-38.5 29t-63 23q-47 16 -74.5 29.5t-47.5 40.5t-20 71q0 53 39 85t103 32q78 0 129 -32l-2 -110h-14q-8 55 -38.5 86t-76.5 31q-43 0 -70 -22.5t-27 -59.5q0 -26 14.5 -43t36.5 -26.5t60 -22.5
q47 -15 76.5 -29.5t50.5 -43.5t21 -76q0 -58 -41 -93.5t-110 -35.5q-48 0 -88 14t-64 37l3 110h14q12 -64 48.5 -100zM170 673h68l100 -132h-13l-121 89l-123 -89h-13z" />
    <glyph glyph-name="Scedilla" unicode="&#x15e;" horiz-adv-x="593" 
d="M177 64q54 -50 128 -50q69 0 111.5 36.5t42.5 95.5q0 48 -24 79.5t-59 50t-96 41.5q-63 24 -102 44.5t-65.5 57.5t-26.5 93q0 76 53 123t141 47q55 0 110.5 -15t93.5 -42l-5 -128h-14q-13 77 -60.5 117t-125.5 40q-36 0 -68.5 -15t-52 -42.5t-19.5 -61.5q0 -41 23 -69
t57.5 -46t92.5 -40q67 -25 108.5 -47.5t70.5 -61.5t29 -98q0 -80 -55.5 -131t-145.5 -56l-16 -46q88 -18 88 -79q0 -33 -23 -53t-61 -20q-45 0 -80 31l6 8q28 -16 54 -16q23 0 37.5 11.5t14.5 31.5q0 19 -15.5 31.5t-51.5 19.5l30 81q-67 1 -124.5 20.5t-94.5 55.5l6 140h14
q20 -88 74 -138z" />
    <glyph glyph-name="scedilla" unicode="&#x15f;" horiz-adv-x="404" 
d="M120.5 46q36.5 -36 87.5 -36q48 0 77.5 25.5t29.5 67.5q0 30 -15.5 49t-38.5 29t-63 23q-47 16 -74.5 29.5t-47.5 40.5t-20 71q0 53 39 85t103 32q78 0 129 -32l-2 -110h-14q-8 55 -38.5 86t-76.5 31q-43 0 -70 -22.5t-27 -59.5q0 -26 14.5 -43t36.5 -26.5t60 -22.5
q47 -15 76.5 -29.5t50.5 -43.5t21 -76q0 -58 -41 -93.5t-110 -35.5h-2l-16 -45q88 -18 88 -79q0 -33 -23 -53t-61 -20q-45 0 -80 31l6 8q28 -16 54 -16q23 0 37.5 11.5t14.5 31.5q0 19 -15.5 31.5t-51.5 19.5l29 81q-42 2 -76.5 15.5t-55.5 34.5l3 110h14q12 -64 48.5 -100z
" />
    <glyph glyph-name="Scaron" unicode="&#x160;" horiz-adv-x="593" 
d="M177 64q54 -50 128 -50q69 0 111.5 36.5t42.5 95.5q0 48 -24 79.5t-59 50t-96 41.5q-63 24 -102 44.5t-65.5 57.5t-26.5 93q0 76 53 123t141 47q55 0 110.5 -15t93.5 -42l-5 -128h-14q-13 77 -60.5 117t-125.5 40q-36 0 -68.5 -15t-52 -42.5t-19.5 -61.5q0 -41 23 -69
t57.5 -46t92.5 -40q67 -25 108.5 -47.5t70.5 -61.5t29 -98q0 -55 -27.5 -97.5t-76.5 -66t-112 -23.5q-67 0 -125.5 20t-95.5 56l6 140h14q20 -88 74 -138zM170 867l129 -70l128 70h14l-107 -113h-68l-110 113h14z" />
    <glyph glyph-name="scaron" unicode="&#x161;" horiz-adv-x="404" 
d="M120.5 46q36.5 -36 87.5 -36q48 0 77.5 25.5t29.5 67.5q0 30 -15.5 49t-38.5 29t-63 23q-47 16 -74.5 29.5t-47.5 40.5t-20 71q0 53 39 85t103 32q78 0 129 -32l-2 -110h-14q-8 55 -38.5 86t-76.5 31q-43 0 -70 -22.5t-27 -59.5q0 -26 14.5 -43t36.5 -26.5t60 -22.5
q47 -15 76.5 -29.5t50.5 -43.5t21 -76q0 -58 -41 -93.5t-110 -35.5q-48 0 -88 14t-64 37l3 110h14q12 -64 48.5 -100zM80 683l123 -89l121 89h13l-100 -132h-68l-102 132h13z" />
    <glyph glyph-name="uni0162" unicode="&#x162;" horiz-adv-x="662" 
d="M371.5 49.5q9.5 -20.5 28.5 -27.5t53 -8v-14h-107l-21 -60q88 -18 88 -79q0 -33 -23 -53t-61 -20q-45 0 -80 31l6 8q28 -16 54 -16q23 0 37.5 11.5t14.5 31.5q0 19 -15.5 31.5t-51.5 19.5l35 95h-121v14q34 1 53 8t29 27.5t10 60.5v530h-101q-67 0 -100 -33t-52 -108h-14
l29 176q49 -7 91 -7h356q42 0 91 7l28 -176h-14q-19 75 -51.5 108t-99.5 33h-101v-530q0 -40 9.5 -60.5z" />
    <glyph glyph-name="uni0163" unicode="&#x163;" horiz-adv-x="297" 
d="M234.5 3.5q-23.5 -16.5 -51.5 -16.5q-13 0 -19 1l-17 -48q88 -18 88 -79q0 -33 -23 -53t-61 -20q-45 0 -80 31l6 8q28 -16 54 -16q23 0 37.5 11.5t14.5 31.5q0 19 -15.5 31.5t-51.5 19.5l32 87q-68 20 -68 126v304h-59v14q31 31 53.5 59t44.5 70h14v-118h132v-25h-132
v-310q0 -88 75 -88q17 0 30 7.5t20 21.5l12 -5q-12 -28 -35.5 -44.5z" />
    <glyph glyph-name="Tcaron" unicode="&#x164;" horiz-adv-x="662" 
d="M371.5 49.5q9.5 -20.5 28.5 -27.5t53 -8v-14h-245v14q34 1 53 8t29 27.5t10 60.5v530h-101q-67 0 -100 -33t-52 -108h-14l29 176q49 -7 91 -7h356q42 0 91 7l28 -176h-14q-19 75 -51.5 108t-99.5 33h-101v-530q0 -40 9.5 -60.5zM202 867l129 -70l128 70h14l-107 -113h-68
l-110 113h14z" />
    <glyph glyph-name="tcaron" unicode="&#x165;" horiz-adv-x="297" 
d="M234.5 3.5q-23.5 -16.5 -51.5 -16.5q-103 0 -103 131v304h-59v14q31 31 53.5 59t44.5 70h14v-118h132v-25h-132v-310q0 -88 75 -88q17 0 30 7.5t20 21.5l12 -5q-12 -28 -35.5 -44.5zM215 684h59l-65 -178h-11z" />
    <glyph glyph-name="Tbar" unicode="&#x166;" horiz-adv-x="662" 
d="M371.5 49.5q9.5 -20.5 28.5 -27.5t53 -8v-14h-245v14q34 1 53 8t29 27.5t10 60.5v212h-113v24h113v294h-101q-67 0 -100 -33t-52 -108h-14l29 176q49 -7 91 -7h356q42 0 91 7l28 -176h-14q-19 75 -51.5 108t-99.5 33h-101v-294h112v-24h-112v-212q0 -40 9.5 -60.5z" />
    <glyph glyph-name="tbar" unicode="&#x167;" horiz-adv-x="297" 
d="M234.5 3.5q-23.5 -16.5 -51.5 -16.5q-103 0 -103 131v166h-56v24h56v114h-59v14q31 31 53.5 59t44.5 70h14v-118h132v-25h-132v-114h132v-24h-132v-172q0 -88 75 -88q17 0 30 7.5t20 21.5l12 -5q-12 -28 -35.5 -44.5z" />
    <glyph glyph-name="Utilde" unicode="&#x168;" horiz-adv-x="743" 
d="M710 668v-14q-49 -2 -70 -17t-21 -61v-322q0 -133 -62 -200.5t-177 -67.5q-122 0 -189 67t-67 195v328q0 46 -21 61t-70 17v14h245v-14q-49 -2 -70 -17t-21 -61v-319q0 -115 56.5 -175t155.5 -60q92 0 142 58.5t50 174.5v321q0 46 -21 61t-71 17v14h211zM261 814
q0 74 59 74q16 0 32.5 -7t44.5 -22q22 -13 38.5 -20t30.5 -7q18 0 27.5 11t12.5 41l10 1v-20q0 -74 -58 -74q-17 0 -34 7t-44 22q-24 13 -39.5 19.5t-28.5 6.5q-19 0 -28.5 -11t-12.5 -41h-10v20z" />
    <glyph glyph-name="utilde" unicode="&#x169;" horiz-adv-x="509" 
d="M483 26v-14l-113 -28v125q-20 -61 -60.5 -92.5t-94.5 -31.5q-61 0 -96.5 38.5t-35.5 112.5v236q0 23 -10.5 34.5t-35.5 12.5l-16 1v14l115 28v-322q0 -58 27 -86.5t70 -28.5q34 0 65 17.5t51 54.5t20 93v182q0 23 -10.5 34.5t-35.5 12.5l-16 1v14l115 28v-387
q0 -23 10.5 -34.5t35.5 -13.5zM122 593q0 74 59 74q17 0 33.5 -7t42.5 -22q25 -14 39.5 -20t28.5 -6q18 0 27.5 11t12.5 41h10v-20q0 -37 -14 -55.5t-44 -18.5q-17 0 -33.5 7t-42.5 22q-27 14 -41 20t-28 6q-18 0 -27.5 -11t-12.5 -41h-10v20z" />
    <glyph glyph-name="Umacron" unicode="&#x16a;" horiz-adv-x="743" 
d="M710 668v-14q-49 -2 -70 -17t-21 -61v-322q0 -133 -62 -200.5t-177 -67.5q-122 0 -189 67t-67 195v328q0 46 -21 61t-70 17v14h245v-14q-49 -2 -70 -17t-21 -61v-319q0 -115 56.5 -175t155.5 -60q92 0 142 58.5t50 174.5v321q0 46 -21 61t-71 17v14h211zM262 807h252v-24
h-252v24z" />
    <glyph glyph-name="umacron" unicode="&#x16b;" horiz-adv-x="509" 
d="M483 26v-14l-113 -28v125q-20 -61 -60.5 -92.5t-94.5 -31.5q-61 0 -96.5 38.5t-35.5 112.5v236q0 23 -10.5 34.5t-35.5 12.5l-16 1v14l115 28v-322q0 -58 27 -86.5t70 -28.5q34 0 65 17.5t51 54.5t20 93v182q0 23 -10.5 34.5t-35.5 12.5l-16 1v14l115 28v-387
q0 -23 10.5 -34.5t35.5 -13.5zM124 604h252v-24h-252v24z" />
    <glyph glyph-name="Ubreve" unicode="&#x16c;" horiz-adv-x="743" 
d="M710 668v-14q-49 -2 -70 -17t-21 -61v-322q0 -133 -62 -200.5t-177 -67.5q-122 0 -189 67t-67 195v328q0 46 -21 61t-70 17v14h245v-14q-49 -2 -70 -17t-21 -61v-319q0 -115 56.5 -175t155.5 -60q92 0 142 58.5t50 174.5v321q0 46 -21 61t-71 17v14h211zM281 868
q4 -38 32.5 -58t75.5 -20q48 0 76.5 20t32.5 58h11q-1 -57 -31.5 -89t-88.5 -32t-88.5 32t-31.5 89h12z" />
    <glyph glyph-name="ubreve" unicode="&#x16d;" horiz-adv-x="509" 
d="M483 26v-14l-113 -28v125q-20 -61 -60.5 -92.5t-94.5 -31.5q-61 0 -96.5 38.5t-35.5 112.5v236q0 23 -10.5 34.5t-35.5 12.5l-16 1v14l115 28v-322q0 -58 27 -86.5t70 -28.5q34 0 65 17.5t51 54.5t20 93v182q0 23 -10.5 34.5t-35.5 12.5l-16 1v14l115 28v-387
q0 -23 10.5 -34.5t35.5 -13.5zM152 684q4 -94 98 -94q95 0 99 94h11q1 -69 -27.5 -104t-82.5 -35t-82.5 35t-27.5 104h12z" />
    <glyph glyph-name="Uring" unicode="&#x16e;" horiz-adv-x="743" 
d="M710 668v-14q-49 -2 -70 -17t-21 -61v-322q0 -133 -62 -200.5t-177 -67.5q-122 0 -189 67t-67 195v328q0 46 -21 61t-70 17v14h245v-14q-49 -2 -70 -17t-21 -61v-319q0 -115 56.5 -175t155.5 -60q92 0 142 58.5t50 174.5v321q0 46 -21 61t-71 17v14h211zM323.5 890
q25.5 24 64.5 24t64.5 -24t25.5 -60q0 -37 -25.5 -61t-64.5 -24t-64.5 24t-25.5 61q0 36 25.5 60zM341 783.5q19 -18.5 47 -18.5q29 0 47.5 18.5t18.5 46.5t-18.5 46.5t-47.5 18.5q-28 0 -47 -18.5t-19 -46.5t19 -46.5z" />
    <glyph glyph-name="uring" unicode="&#x16f;" horiz-adv-x="509" 
d="M483 26v-14l-113 -28v125q-20 -61 -60.5 -92.5t-94.5 -31.5q-61 0 -96.5 38.5t-35.5 112.5v236q0 23 -10.5 34.5t-35.5 12.5l-16 1v14l115 28v-322q0 -58 27 -86.5t70 -28.5q34 0 65 17.5t51 54.5t20 93v182q0 23 -10.5 34.5t-35.5 12.5l-16 1v14l115 28v-387
q0 -23 10.5 -34.5t35.5 -13.5zM184.5 687q25.5 24 64.5 24t64.5 -24t25.5 -60q0 -37 -25.5 -61t-64.5 -24t-64.5 24t-25.5 61q0 36 25.5 60zM202 580.5q19 -18.5 47 -18.5q29 0 47.5 18.5t18.5 46.5t-18.5 46.5t-47.5 18.5q-28 0 -47 -18.5t-19 -46.5t19 -46.5z" />
    <glyph glyph-name="Uhungarumlaut" unicode="&#x170;" horiz-adv-x="743" 
d="M710 668v-14q-49 -2 -70 -17t-21 -61v-322q0 -133 -62 -200.5t-177 -67.5q-122 0 -189 67t-67 195v328q0 46 -21 61t-70 17v14h245v-14q-49 -2 -70 -17t-21 -61v-319q0 -115 56.5 -175t155.5 -60q92 0 142 58.5t50 174.5v321q0 46 -21 61t-71 17v14h211zM376 877h69
l-129 -134h-13zM491 876l72 1l-130 -134h-15z" />
    <glyph glyph-name="uhungarumlaut" unicode="&#x171;" horiz-adv-x="509" 
d="M483 26v-14l-113 -28v125q-20 -61 -60.5 -92.5t-94.5 -31.5q-61 0 -96.5 38.5t-35.5 112.5v236q0 23 -10.5 34.5t-35.5 12.5l-16 1v14l115 28v-322q0 -58 27 -86.5t70 -28.5q34 0 65 17.5t51 54.5t20 93v182q0 23 -10.5 34.5t-35.5 12.5l-16 1v14l115 28v-387
q0 -23 10.5 -34.5t35.5 -13.5zM228 693h64l-112 -152h-13zM342 693h65l-113 -152h-14z" />
    <glyph glyph-name="Uogonek" unicode="&#x172;" horiz-adv-x="743" 
d="M710 668v-14q-49 -2 -70 -17t-21 -61v-322q0 -109 -42 -174t-122 -86q-34 -21 -56 -54t-22 -65q0 -25 15.5 -40.5t39.5 -15.5q18 0 37.5 12t35.5 33l8 -4q-13 -32 -39 -52t-54 -20q-41 0 -65 21t-24 55q0 37 26 71t69 54q-22 -3 -46 -3q-122 0 -189 67t-67 195v328
q0 46 -21 61t-70 17v14h245v-14q-49 -2 -70 -17t-21 -61v-319q0 -115 56.5 -175t155.5 -60q92 0 142 58.5t50 174.5v321q0 46 -21 61t-71 17v14h211z" />
    <glyph glyph-name="uogonek" unicode="&#x173;" horiz-adv-x="509" 
d="M483 26v-14l-81 -20q-33 -22 -53.5 -53.5t-20.5 -63.5q0 -25 15.5 -40.5t39.5 -15.5q18 0 37.5 12t35.5 33l8 -4q-13 -32 -39 -52t-54 -20q-41 0 -65 21t-24 55q0 36 24 68.5t64 53.5v123q-20 -61 -60.5 -92.5t-94.5 -31.5q-61 0 -96.5 38.5t-35.5 112.5v236
q0 23 -10.5 34.5t-35.5 12.5l-16 1v14l115 28v-322q0 -58 27 -86.5t70 -28.5q34 0 65 17.5t51 54.5t20 93v182q0 23 -10.5 34.5t-35.5 12.5l-16 1v14l115 28v-387q0 -23 10.5 -34.5t35.5 -13.5z" />
    <glyph glyph-name="Wcircumflex" unicode="&#x174;" horiz-adv-x="1008" 
d="M426 630.5q-21 21.5 -58 23.5v14h231v-14q-40 -1 -58.5 -14t-18.5 -37q0 -18 7 -36l165 -472l167 470q9 23 9 41q0 47 -76 48v14h211v-14q-49 -2 -73.5 -22.5t-41.5 -67.5l-206 -579h-14l-176 492l-175 -492h-14l-207 578q-17 46 -37.5 67.5t-57.5 23.5v14h231v-14
q-77 -1 -77 -50q0 -15 8 -37l165 -472l149 424l-16 44q-16 46 -37 67.5zM453 867h68l107 -113h-14l-128 70l-129 -70h-14z" />
    <glyph glyph-name="wcircumflex" unicode="&#x175;" horiz-adv-x="692" 
d="M285.5 420q-13.5 12 -36.5 14v13h173v-13q-31 -1 -45 -8t-14 -22q0 -12 5 -23l117 -308l119 302q6 14 6 25q0 31 -63 34v13h151v-13q-24 -1 -40 -15t-29 -45l-153 -388h-12l-121 309l-122 -309h-13l-151 393q-10 28 -25 40.5t-38 14.5v13h173v-13q-31 -1 -45 -8t-14 -22
q0 -13 5 -24l116 -307l101 256l-20 52q-11 27 -24.5 39zM311 673h68l100 -132h-13l-121 89l-123 -89h-13z" />
    <glyph glyph-name="Ycircumflex" unicode="&#x176;" horiz-adv-x="606" 
d="M219 21q19 6 28.5 22.5t9.5 49.5v191l-172 286q-26 44 -49.5 63.5t-52.5 20.5v14h234v-14q-39 -1 -57.5 -10t-18.5 -28q0 -17 17 -46l151 -251l156 251q19 31 19 50q0 17 -16 25t-51 9v14h206v-14q-40 -2 -69 -21.5t-56 -62.5l-178 -285v-192q0 -47 20.5 -62t69.5 -17
v-14h-243v14q33 1 52 7zM267 867h68l107 -113h-14l-128 70l-129 -70h-14z" />
    <glyph glyph-name="ycircumflex" unicode="&#x177;" horiz-adv-x="441" 
d="M74 -161q34 0 61 29t52 92l17 43l-148 371q-12 29 -27 43.5t-36 15.5v14h173v-14q-30 -2 -44.5 -9.5t-14.5 -23.5q0 -11 5 -22l120 -305l119 297q7 15 7 29q0 17 -15.5 25t-48.5 9v14h154v-14q-24 -1 -40 -16t-30 -48l-167 -415q-36 -88 -77 -127t-101 -39q-28 0 -66 18
l28 62q37 -29 79 -29zM185 673h68l100 -132h-13l-121 89l-123 -89h-13z" />
    <glyph glyph-name="Ydieresis" unicode="&#x178;" horiz-adv-x="606" 
d="M219 21q19 6 28.5 22.5t9.5 49.5v191l-172 286q-26 44 -49.5 63.5t-52.5 20.5v14h234v-14q-39 -1 -57.5 -10t-18.5 -28q0 -17 17 -46l151 -251l156 251q19 31 19 50q0 17 -16 25t-51 9v14h206v-14q-40 -2 -69 -21.5t-56 -62.5l-178 -285v-192q0 -47 20.5 -62t69.5 -17
v-14h-243v14q33 1 52 7zM188.5 845q14.5 14 35.5 14q20 0 33.5 -14t13.5 -34q0 -19 -13.5 -33t-33.5 -14q-21 0 -35.5 13.5t-14.5 33.5t14.5 34zM344.5 845q14.5 14 35.5 14q20 0 33.5 -14t13.5 -34q0 -19 -13.5 -33t-33.5 -14q-21 0 -35.5 13.5t-14.5 33.5t14.5 34z" />
    <glyph glyph-name="Zacute" unicode="&#x179;" horiz-adv-x="610" 
d="M436 0h-390v14l420 626h-232q-67 0 -99.5 -33t-52.5 -108h-14l29 176q49 -7 91 -7h363v-14l-421 -626h260q67 0 99.5 33t51.5 108h14l-28 -176q-49 7 -91 7zM374 867h94l-185 -124h-14z" />
    <glyph glyph-name="zacute" unicode="&#x17a;" horiz-adv-x="451" 
d="M47 14l282 408h-159q-40 0 -64 -27.5t-41 -91.5h-14l24 144h325v-14l-282 -408h167q41 0 65 28.5t40 92.5h14l-24 -146h-333v14zM291 693h84l-138 -152h-14z" />
    <glyph glyph-name="Zdotaccent" unicode="&#x17b;" horiz-adv-x="610" 
d="M436 0h-390v14l420 626h-232q-67 0 -99.5 -33t-52.5 -108h-14l29 176q49 -7 91 -7h363v-14l-421 -626h260q67 0 99.5 33t51.5 108h14l-28 -176q-49 7 -91 7zM256.5 862q14.5 14 35.5 14q19 0 32.5 -14t13.5 -34t-13.5 -33.5t-32.5 -13.5q-21 0 -35.5 13.5t-14.5 33.5
t14.5 34z" />
    <glyph glyph-name="zdotaccent" unicode="&#x17c;" horiz-adv-x="451" 
d="M47 14l282 408h-159q-40 0 -64 -27.5t-41 -91.5h-14l24 144h325v-14l-282 -408h167q41 0 65 28.5t40 92.5h14l-24 -146h-333v14zM204.5 671q14.5 14 35.5 14q20 0 33.5 -14t13.5 -34q0 -19 -13.5 -33t-33.5 -14q-21 0 -35.5 13.5t-14.5 33.5t14.5 34z" />
    <glyph glyph-name="Zcaron" unicode="&#x17d;" horiz-adv-x="610" 
d="M436 0h-390v14l420 626h-232q-67 0 -99.5 -33t-52.5 -108h-14l29 176q49 -7 91 -7h363v-14l-421 -626h260q67 0 99.5 33t51.5 108h14l-28 -176q-49 7 -91 7zM162 867l129 -70l128 70h14l-107 -113h-68l-110 113h14z" />
    <glyph glyph-name="zcaron" unicode="&#x17e;" horiz-adv-x="451" 
d="M47 14l282 408h-159q-40 0 -64 -27.5t-41 -91.5h-14l24 144h325v-14l-282 -408h167q41 0 65 28.5t40 92.5h14l-24 -146h-333v14zM116 683l123 -89l121 89h13l-100 -132h-68l-102 132h13z" />
    <glyph glyph-name="longs" unicode="&#x17f;" horiz-adv-x="289" 
d="M279 640.5q-21 17.5 -42 17.5q-40 0 -61 -29t-21 -81v-481q0 -28 20.5 -38.5t72.5 -15.5v-13h-213v13q32 5 50 16t18 38v355h-76v25h76v79q0 76 39 116.5t104 40.5q48 0 81 -11l-5 -84h-12q-10 35 -31 52.5z" />
    <glyph glyph-name="florin" unicode="&#x192;" horiz-adv-x="450" 
d="M374.5 640.5q-21.5 17.5 -42.5 17.5q-39 0 -60 -29t-21 -81v-101h125v-25h-125v-477q0 -76 -39 -116.5t-104 -40.5q-48 0 -81 11l5 84h12q10 -35 31 -52.5t42 -17.5q40 0 60.5 28.5t20.5 81.5v499h-125v25h125v79q0 77 39 117t105 40q48 0 81 -11l-6 -84h-11
q-10 35 -31.5 52.5z" />
    <glyph glyph-name="Aringacute" unicode="&#x1fa;" horiz-adv-x="705" 
d="M636.5 36q23.5 -20 65.5 -22v-14h-235v14q70 2 70 47q0 13 -10 40l-52 131h-276l-51 -129q-11 -27 -11 -44q0 -22 19 -33t59 -12v-14h-212v14q48 1 72 21t44 69l230 579h14l230 -578q20 -49 43.5 -69zM464 260l-127 322l-127 -322h254zM292.5 888q23.5 24 59.5 26
l102 120h94l-180 -120q36 -3 58.5 -26.5t22.5 -57.5q0 -37 -25.5 -61t-64.5 -24t-64.5 24t-25.5 61q0 34 23.5 58zM312 783.5q19 -18.5 47 -18.5q29 0 47.5 18.5t18.5 46.5t-18.5 46.5t-47.5 18.5q-28 0 -47 -18.5t-19 -46.5t19 -46.5z" />
    <glyph glyph-name="aringacute" unicode="&#x1fb;" horiz-adv-x="456" 
d="M84 18q-36 33 -36 86q0 46 21.5 73t52 40t81.5 27q41 11 64 20t38.5 25.5t15.5 43.5q0 46 -29.5 75t-76.5 29q-48 0 -75.5 -28.5t-27.5 -72.5q0 -18 4 -34h-68q1 43 21 79.5t57.5 58.5t89.5 22q72 0 114.5 -41.5t42.5 -110.5v-235q0 -23 10.5 -34.5t35.5 -13.5l16 -1v-14
l-113 -28v123q-20 -61 -56.5 -91.5t-87.5 -30.5q-58 0 -94 33zM133 46.5q25 -24.5 64 -24.5q30 0 58.5 18t47 51t18.5 75v112q-10 -19 -31 -29.5t-61 -22.5q-39 -11 -63.5 -22.5t-41 -34t-16.5 -60.5t25 -62.5zM151.5 687q25.5 24 64.5 24t64.5 -24t25.5 -60
q0 -37 -25.5 -61t-64.5 -24t-64.5 24t-25.5 61q0 36 25.5 60zM169 580.5q19 -18.5 47 -18.5q29 0 47.5 18.5t18.5 46.5t-18.5 46.5t-47.5 18.5q-28 0 -47 -18.5t-19 -46.5t19 -46.5zM278 879h84l-138 -152h-14z" />
    <glyph glyph-name="AEacute" unicode="&#x1fc;" horiz-adv-x="1003" 
d="M67.5 40.5q27.5 20.5 54.5 63.5l288 467q26 40 26 57q0 13 -15.5 18.5t-50.5 7.5v14h428q42 0 91 7l28 -176h-14q-19 75 -51.5 108t-99.5 33h-213v-283h177q49 0 67 21.5t20 72.5h14v-215h-14q-2 50 -20 71.5t-67 21.5h-177v-234q0 -36 13.5 -51.5t43.5 -15.5h169
q67 0 99.5 33t51.5 108h14l-28 -176q-49 7 -91 7h-425v14q48 2 69.5 18t21.5 63v137h-244l-80 -129q-11 -19 -16.5 -30.5t-5.5 -20.5q0 -16 19 -25t63 -13v-14h-210v14q37 6 64.5 26.5zM477 260v367l-227 -367h227zM727 867h94l-185 -124h-14z" />
    <glyph glyph-name="aeacute" unicode="&#x1fd;" horiz-adv-x="740" 
d="M291.5 408q-29.5 29 -76.5 29q-48 0 -75.5 -28.5t-27.5 -72.5q0 -18 4 -34h-68q1 43 21 79.5t57.5 58.5t89.5 22q54 0 91.5 -24t53.5 -67q28 44 71.5 67.5t98.5 23.5q74 0 119.5 -44.5t45.5 -121.5q0 -10 -2 -30h-315l-1 -21q-2 -96 42.5 -155t125.5 -59q51 0 87 29
t52 72l12 -3q-14 -66 -61 -104t-115 -38t-118 39.5t-70 106.5q-11 -73 -56 -110.5t-99 -37.5q-58 0 -94 33t-36 86q0 46 21.5 73t52 40t81.5 27q41 11 64 20t38.5 25.5t15.5 43.5q0 46 -29.5 75zM132.5 49q24.5 -22 64.5 -22q30 0 58.5 17t47 50.5t18.5 80.5v102
q-10 -19 -32 -29.5t-60 -21.5q-39 -11 -63 -22.5t-41 -34t-17 -60.5t24.5 -60zM421 693h84l-138 -152h-14zM635 291q1 9 1 25q0 57 -31.5 89t-83.5 32q-54 0 -91 -39.5t-48 -106.5h253z" />
    <glyph glyph-name="Oslashacute" unicode="&#x1fe;" horiz-adv-x="725" 
d="M245 11l-30 -67l-20 9l30 67q-80 41 -126 123.5t-46 190.5q0 102 41 181.5t115 123.5t169 44q73 0 134 -26l30 67l21 -8l-31 -68q80 -42 125.5 -124t45.5 -190q0 -102 -41 -181.5t-114.5 -123.5t-169.5 -44q-72 0 -133 26zM154 167q31 -72 87 -112l256 569
q-53 31 -119 31q-76 0 -133.5 -40t-89.5 -112.5t-32 -168.5q0 -95 31 -167zM378 13q76 0 133.5 40t89.5 112.5t32 168.5q0 94 -31 166t-86 112l-256 -569q54 -30 118 -30zM463 867h94l-185 -124h-14z" />
    <glyph glyph-name="oslashacute" unicode="&#x1ff;" horiz-adv-x="479" 
d="M153 5l-25 -54l-19 8l25 57q-45 30 -70.5 83.5t-25.5 124.5q0 70 25 124t71 84t106 30q46 0 86 -19l27 60l21 -8l-29 -63q45 -30 70.5 -83.5t25.5 -124.5q0 -70 -25 -124t-71 -84t-105 -30q-46 0 -87 19zM151 49l161 365q-31 23 -72 23q-66 0 -104 -56t-38 -157
q0 -119 53 -175zM240 11q66 0 103.5 56.5t37.5 156.5q0 59 -13.5 103.5t-38.5 71.5l-162 -365q31 -23 73 -23zM293 693h84l-138 -152h-14z" />
    <glyph glyph-name="uni0218" unicode="&#x218;" horiz-adv-x="593" 
d="M177 64q54 -50 128 -50q69 0 111.5 36.5t42.5 95.5q0 48 -24 79.5t-59 50t-96 41.5q-63 24 -102 44.5t-65.5 57.5t-26.5 93q0 76 53 123t141 47q55 0 110.5 -15t93.5 -42l-5 -128h-14q-13 77 -60.5 117t-125.5 40q-36 0 -68.5 -15t-52 -42.5t-19.5 -61.5q0 -41 23 -69
t57.5 -46t92.5 -40q67 -25 108.5 -47.5t70.5 -61.5t29 -98q0 -55 -27.5 -97.5t-76.5 -66t-112 -23.5q-67 0 -125.5 20t-95.5 56l6 140h14q20 -88 74 -138zM274 -94.5q13 12.5 33 12.5q24 0 36.5 -17.5t12.5 -48.5q0 -40 -25 -68.5t-64 -33.5v13q25 5 41 22t18 47
q-12 -5 -21 -5q-18 0 -31 13.5t-13 31.5q0 21 13 33.5z" />
    <glyph glyph-name="uni0219" unicode="&#x219;" horiz-adv-x="404" 
d="M120.5 46q36.5 -36 87.5 -36q48 0 77.5 25.5t29.5 67.5q0 30 -15.5 49t-38.5 29t-63 23q-47 16 -74.5 29.5t-47.5 40.5t-20 71q0 53 39 85t103 32q78 0 129 -32l-2 -110h-14q-8 55 -38.5 86t-76.5 31q-43 0 -70 -22.5t-27 -59.5q0 -26 14.5 -43t36.5 -26.5t60 -22.5
q47 -15 76.5 -29.5t50.5 -43.5t21 -76q0 -58 -41 -93.5t-110 -35.5q-48 0 -88 14t-64 37l3 110h14q12 -64 48.5 -100zM172 -109.5q13 12.5 33 12.5q24 0 36.5 -17.5t12.5 -48.5q0 -40 -25 -68.5t-64 -33.5v13q25 5 41 22t18 47q-12 -5 -21 -5q-18 0 -31 13.5t-13 31.5
q0 21 13 33.5z" />
    <glyph glyph-name="uni021A" unicode="&#x21a;" horiz-adv-x="662" 
d="M371.5 49.5q9.5 -20.5 28.5 -27.5t53 -8v-14h-245v14q34 1 53 8t29 27.5t10 60.5v530h-101q-67 0 -100 -33t-52 -108h-14l29 176q49 -7 91 -7h356q42 0 91 7l28 -176h-14q-19 75 -51.5 108t-99.5 33h-101v-530q0 -40 9.5 -60.5zM296 -94.5q13 12.5 33 12.5
q24 0 36.5 -17.5t12.5 -48.5q0 -40 -25 -68.5t-64 -33.5v13q25 5 41 22t18 47q-12 -5 -21 -5q-18 0 -31 13.5t-13 31.5q0 21 13 33.5z" />
    <glyph glyph-name="uni021B" unicode="&#x21b;" horiz-adv-x="297" 
d="M234.5 3.5q-23.5 -16.5 -51.5 -16.5q-103 0 -103 131v304h-59v14q31 31 53.5 59t44.5 70h14v-118h132v-25h-132v-310q0 -88 75 -88q17 0 30 7.5t20 21.5l12 -5q-12 -28 -35.5 -44.5zM130 -109.5q13 12.5 33 12.5q24 0 36.5 -17.5t12.5 -48.5q0 -40 -25 -68.5t-64 -33.5
v13q25 5 41 22t18 47q-12 -5 -21 -5q-18 0 -31 13.5t-13 31.5q0 21 13 33.5z" />
    <glyph glyph-name="uni0237" unicode="&#x237;" horiz-adv-x="208" 
d="M23 434l114 28v-386q0 -113 -33.5 -179.5t-115.5 -108.5l-7 10q54 44 78.5 102t24.5 154v318q0 23 -10.5 34.5t-35.5 12.5l-15 1v14z" />
    <glyph glyph-name="circumflex" unicode="&#x2c6;" horiz-adv-x="470" 
d="M270 673l100 -132h-13l-121 89l-123 -89h-13l102 132h68z" />
    <glyph glyph-name="caron" unicode="&#x2c7;" horiz-adv-x="470" 
d="M100 683h13l123 -89l121 89h13l-100 -132h-68z" />
    <glyph glyph-name="breve" unicode="&#x2d8;" horiz-adv-x="422" 
d="M128.5 580q-28.5 35 -27.5 104h12q4 -94 98 -94q95 0 99 94h11q1 -69 -27.5 -104t-82.5 -35t-82.5 35z" />
    <glyph glyph-name="dotaccent" unicode="&#x2d9;" horiz-adv-x="297" 
d="M114.5 603.5q-14.5 13.5 -14.5 33.5t14.5 34t35.5 14q20 0 33.5 -14t13.5 -34q0 -19 -13.5 -33t-33.5 -14q-21 0 -35.5 13.5z" />
    <glyph glyph-name="ring" unicode="&#x2da;" horiz-adv-x="380" 
d="M125.5 566q-25.5 24 -25.5 61q0 36 25.5 60t64.5 24t64.5 -24t25.5 -60q0 -37 -25.5 -61t-64.5 -24t-64.5 24zM143 580.5q19 -18.5 47 -18.5q29 0 47.5 18.5t18.5 46.5t-18.5 46.5t-47.5 18.5q-28 0 -47 -18.5t-19 -46.5t19 -46.5z" />
    <glyph glyph-name="ogonek" unicode="&#x2db;" horiz-adv-x="382" 
d="M124 -191q-24 21 -24 55q0 43 34 80.5t88 55.5h11q-38 -22 -62.5 -56.5t-24.5 -68.5q0 -25 15.5 -40.5t39.5 -15.5q18 0 37.5 12t35.5 33l8 -4q-13 -32 -39 -52t-54 -20q-41 0 -65 21z" />
    <glyph glyph-name="tilde" unicode="&#x2dc;" horiz-adv-x="453" 
d="M159 667q17 0 33.5 -7t42.5 -22q25 -14 39.5 -20t28.5 -6q18 0 27.5 11t12.5 41h10v-20q0 -37 -14 -55.5t-44 -18.5q-17 0 -33.5 7t-42.5 22q-27 14 -41 20t-28 6q-18 0 -27.5 -11t-12.5 -41h-10v20q0 74 59 74z" />
    <glyph glyph-name="hungarumlaut" unicode="&#x2dd;" horiz-adv-x="438" 
d="M100 541l61 152h64l-112 -152h-13zM275 693h65l-113 -152h-14z" />
    <glyph glyph-name="uni0394" unicode="&#x394;" horiz-adv-x="633" 
d="M43 16l266 667h14l267 -667v-16h-547v16zM517 28l-220 554l-219 -554h439z" />
    <glyph glyph-name="uni03A9" unicode="&#x3a9;" horiz-adv-x="753" 
d="M242 0q-95 0 -148 -11l-27 170h13q18 -62 53.5 -88t103.5 -26h67v61q-68 7 -125 47.5t-91 106t-34 143.5q0 85 40.5 148.5t113.5 97.5t169 34t168.5 -34t113 -97.5t40.5 -148.5q0 -77 -33 -142.5t-90 -106.5t-126 -48v-62h66q68 0 104 26t54 88h12l-26 -170
q-53 11 -149 11h-87v136q52 0 99 35.5t76.5 97t29.5 136.5q0 77 -31 133.5t-88 86.5t-133 30t-133.5 -30t-88.5 -86.5t-31 -133.5q0 -75 29.5 -136.5t77 -97t99.5 -35.5v-135h-88z" />
    <glyph glyph-name="uni03BC" unicode="&#x3bc;" horiz-adv-x="509" 
d="M483 26v-14l-113 -28v125q-20 -61 -60.5 -92.5t-94.5 -31.5q-42 0 -73 19t-46 56q2 -84 15 -140.5t40 -116.5h-70q0 72 1 115l1 206v12v236q0 23 -10.5 34.5t-35.5 12.5l-16 1v14l115 28v-322q0 -58 27 -86.5t70 -28.5q34 0 65 17.5t51 54.5t20 93v182q0 23 -10.5 34.5
t-35.5 12.5l-16 1v14l115 28v-387q0 -23 10.5 -34.5t35.5 -13.5z" />
    <glyph glyph-name="pi" unicode="&#x3c0;" horiz-adv-x="548" 
d="M91.5 30.5q15.5 11.5 15.5 35.5v356h-86v25h514v-25h-100v-325q0 -41 15.5 -59.5t62.5 -23.5v-14q-12 -2 -32 -2q-52 0 -75 27.5t-23 79.5v317h-224v-356q0 -44 65 -52v-14h-184v14q36 5 51.5 16.5z" />
    <glyph glyph-name="Wgrave" unicode="&#x1e80;" horiz-adv-x="1008" 
d="M426 630.5q-21 21.5 -58 23.5v14h231v-14q-40 -1 -58.5 -14t-18.5 -37q0 -18 7 -36l165 -472l167 470q9 23 9 41q0 47 -76 48v14h211v-14q-49 -2 -73.5 -22.5t-41.5 -67.5l-206 -579h-14l-176 492l-175 -492h-14l-207 578q-17 46 -37.5 67.5t-57.5 23.5v14h231v-14
q-77 -1 -77 -50q0 -15 8 -37l165 -472l149 424l-16 44q-16 46 -37 67.5zM412 866l105 -124h-14l-185 124h94z" />
    <glyph glyph-name="wgrave" unicode="&#x1e81;" horiz-adv-x="692" 
d="M285.5 420q-13.5 12 -36.5 14v13h173v-13q-31 -1 -45 -8t-14 -22q0 -12 5 -23l117 -308l119 302q6 14 6 25q0 31 -63 34v13h151v-13q-24 -1 -40 -15t-29 -45l-153 -388h-12l-121 309l-122 -309h-13l-151 393q-10 28 -25 40.5t-38 14.5v13h173v-13q-31 -1 -45 -8t-14 -22
q0 -13 5 -24l116 -307l101 256l-20 52q-11 27 -24.5 39zM309 693l68 -152h-14l-138 152h84z" />
    <glyph glyph-name="Wacute" unicode="&#x1e82;" horiz-adv-x="1008" 
d="M426 630.5q-21 21.5 -58 23.5v14h231v-14q-40 -1 -58.5 -14t-18.5 -37q0 -18 7 -36l165 -472l167 470q9 23 9 41q0 47 -76 48v14h211v-14q-49 -2 -73.5 -22.5t-41.5 -67.5l-206 -579h-14l-176 492l-175 -492h-14l-207 578q-17 46 -37.5 67.5t-57.5 23.5v14h231v-14
q-77 -1 -77 -50q0 -15 8 -37l165 -472l149 424l-16 44q-16 46 -37 67.5zM568 867h94l-185 -124h-14z" />
    <glyph glyph-name="wacute" unicode="&#x1e83;" horiz-adv-x="692" 
d="M285.5 420q-13.5 12 -36.5 14v13h173v-13q-31 -1 -45 -8t-14 -22q0 -12 5 -23l117 -308l119 302q6 14 6 25q0 31 -63 34v13h151v-13q-24 -1 -40 -15t-29 -45l-153 -388h-12l-121 309l-122 -309h-13l-151 393q-10 28 -25 40.5t-38 14.5v13h173v-13q-31 -1 -45 -8t-14 -22
q0 -13 5 -24l116 -307l101 256l-20 52q-11 27 -24.5 39zM396 693h84l-138 -152h-14z" />
    <glyph glyph-name="Wdieresis" unicode="&#x1e84;" horiz-adv-x="1008" 
d="M426 630.5q-21 21.5 -58 23.5v14h231v-14q-40 -1 -58.5 -14t-18.5 -37q0 -18 7 -36l165 -472l167 470q9 23 9 41q0 47 -76 48v14h211v-14q-49 -2 -73.5 -22.5t-41.5 -67.5l-206 -579h-14l-176 492l-175 -492h-14l-207 578q-17 46 -37.5 67.5t-57.5 23.5v14h231v-14
q-77 -1 -77 -50q0 -15 8 -37l165 -472l149 424l-16 44q-16 46 -37 67.5zM374.5 845q14.5 14 35.5 14q20 0 33.5 -14t13.5 -34q0 -19 -13.5 -33t-33.5 -14q-21 0 -35.5 13.5t-14.5 33.5t14.5 34zM530.5 845q14.5 14 35.5 14q20 0 33.5 -14t13.5 -34q0 -19 -13.5 -33
t-33.5 -14q-21 0 -35.5 13.5t-14.5 33.5t14.5 34z" />
    <glyph glyph-name="wdieresis" unicode="&#x1e85;" horiz-adv-x="692" 
d="M285.5 420q-13.5 12 -36.5 14v13h173v-13q-31 -1 -45 -8t-14 -22q0 -12 5 -23l117 -308l119 302q6 14 6 25q0 31 -63 34v13h151v-13q-24 -1 -40 -15t-29 -45l-153 -388h-12l-121 309l-122 -309h-13l-151 393q-10 28 -25 40.5t-38 14.5v13h173v-13q-31 -1 -45 -8t-14 -22
q0 -13 5 -24l116 -307l101 256l-20 52q-11 27 -24.5 39zM232.5 642q14.5 14 36.5 14q20 0 33.5 -14t13.5 -35q0 -19 -13.5 -33t-33.5 -14q-22 0 -36.5 13.5t-14.5 33.5q0 21 14.5 35zM389.5 642q14.5 14 35.5 14q20 0 34 -14t14 -35q0 -19 -14 -33t-34 -14q-21 0 -35.5 13.5
t-14.5 33.5q0 21 14.5 35z" />
    <glyph glyph-name="uni1E9E" unicode="&#x1e9e;" 
d="M421.5 6.5q-50.5 20.5 -86.5 55.5l5 136h14q42 -184 179 -184q61 0 95 33t34 91q0 36 -14.5 60t-40 43t-80.5 53l-20 12q-49 31 -79 56t-47 57t-17 75q0 53 28 90.5t84 55.5h-279v-545q0 -48 21 -63.5t70 -17.5v-14h-245v14q49 2 70 17.5t21 63.5v479q0 47 -21 62.5
t-70 17.5v14h595v-28h-38q-86 0 -134.5 -33t-48.5 -94q0 -32 14.5 -55t40.5 -42.5t83 -55.5q64 -40 99.5 -70.5t52 -62.5t16.5 -73q0 -78 -51.5 -123t-141.5 -45q-58 0 -108.5 20.5z" />
    <glyph glyph-name="Ygrave" unicode="&#x1ef2;" horiz-adv-x="606" 
d="M219 21q19 6 28.5 22.5t9.5 49.5v191l-172 286q-26 44 -49.5 63.5t-52.5 20.5v14h234v-14q-39 -1 -57.5 -10t-18.5 -28q0 -17 17 -46l151 -251l156 251q19 31 19 50q0 17 -16 25t-51 9v14h206v-14q-40 -2 -69 -21.5t-56 -62.5l-178 -285v-192q0 -47 20.5 -62t69.5 -17
v-14h-243v14q33 1 52 7zM226 866l105 -124h-14l-185 124h94z" />
    <glyph glyph-name="ygrave" unicode="&#x1ef3;" horiz-adv-x="441" 
d="M74 -161q34 0 61 29t52 92l17 43l-148 371q-12 29 -27 43.5t-36 15.5v14h173v-14q-30 -2 -44.5 -9.5t-14.5 -23.5q0 -11 5 -22l120 -305l119 297q7 15 7 29q0 17 -15.5 25t-48.5 9v14h154v-14q-24 -1 -40 -16t-30 -48l-167 -415q-36 -88 -77 -127t-101 -39q-28 0 -66 18
l28 62q37 -29 79 -29zM183 693l68 -152h-14l-138 152h84z" />
    <glyph glyph-name="endash" unicode="&#x2013;" horiz-adv-x="422" 
d="M375 246h-329v29h329v-29z" />
    <glyph glyph-name="emdash" unicode="&#x2014;" 
d="M749 246h-703v29h703v-29z" />
    <glyph glyph-name="quoteleft" unicode="&#x2018;" horiz-adv-x="234" 
d="M116.5 701q-22.5 -25 -23.5 -58q12 6 26 6q21 0 35 -14t14 -35q0 -22 -14 -36t-36 -14q-26 0 -41 18t-15 48q0 51 26 84t74 47l4 -9q-27 -12 -49.5 -37z" />
    <glyph glyph-name="quoteright" unicode="&#x2019;" horiz-adv-x="234" 
d="M117.5 597q22.5 25 23.5 58q-10 -6 -26 -6q-21 0 -35 14t-14 35t14 35t36 14q27 0 41.5 -18t14.5 -48q0 -50 -26.5 -83t-73.5 -47l-4 8q27 13 49.5 38z" />
    <glyph glyph-name="quotesinglbase" unicode="&#x201a;" horiz-adv-x="234" 
d="M117.5 -67q22.5 25 23.5 58q-10 -6 -26 -6q-21 0 -35 14t-14 35t14 35t36 14q27 0 41.5 -18t14.5 -48q0 -50 -26.5 -83t-73.5 -47l-4 8q27 13 49.5 38z" />
    <glyph glyph-name="quotedblleft" unicode="&#x201c;" horiz-adv-x="374" 
d="M256.5 701.5q-22.5 -25.5 -23.5 -58.5q11 7 26 7q21 0 35 -14t14 -35q0 -22 -14 -36t-36 -14q-27 0 -41.5 18t-14.5 49q0 50 26.5 83t73.5 47l4 -9q-27 -12 -49.5 -37.5zM88.5 701q26.5 33 73.5 47l4 -9q-27 -12 -49.5 -37.5t-23.5 -58.5q11 7 26 7q21 0 35 -14t14 -35
q0 -22 -14 -36t-36 -14q-27 0 -41.5 18t-14.5 49q0 50 26.5 83z" />
    <glyph glyph-name="quotedblright" unicode="&#x201d;" horiz-adv-x="374" 
d="M117.5 598q22.5 25 23.5 58q-10 -6 -26 -6q-21 0 -35 14t-14 35t14 35t36 14q27 0 41.5 -18t14.5 -48q0 -50 -26.5 -83t-73.5 -47l-4 8q27 13 49.5 38zM257.5 598q22.5 25 23.5 58q-10 -6 -26 -6q-21 0 -35 14t-14 35t14 35t36 14q27 0 41.5 -18t14.5 -48
q0 -50 -26.5 -83t-73.5 -47l-4 8q27 13 49.5 38z" />
    <glyph glyph-name="quotedblbase" unicode="&#x201e;" horiz-adv-x="374" 
d="M117.5 -67q22.5 25 23.5 58q-10 -6 -26 -6q-21 0 -35 14t-14 35t14 35t36 14q27 0 41.5 -18t14.5 -48q0 -50 -26.5 -83t-73.5 -47l-4 8q27 13 49.5 38zM257.5 -67q22.5 25 23.5 58q-10 -6 -26 -6q-21 0 -35 14t-14 35t14 35t36 14q27 0 41.5 -18t14.5 -48
q0 -50 -26.5 -83t-73.5 -47l-4 8q27 13 49.5 38z" />
    <glyph glyph-name="dagger" unicode="&#x2020;" horiz-adv-x="514" 
d="M215.5 32q19.5 16 19.5 63v356h-77q-54 0 -72 -23t-19 -68h-14v208h14q1 -45 19 -68t72 -23h77v98q0 45 -20 61t-61 18v14h207v-14q-42 -2 -61.5 -18t-19.5 -61v-98h76q54 0 72 23t19 68h14v-208h-14q-1 45 -19 68t-72 23h-76v-356q0 -47 19.5 -63t61.5 -18v-14h-207v14
q42 2 61.5 18z" />
    <glyph glyph-name="daggerdbl" unicode="&#x2021;" horiz-adv-x="514" 
d="M215.5 31.5q19.5 15.5 19.5 62.5v77h-78q-54 0 -71.5 -23t-18.5 -68h-14v208h14q1 -45 18.5 -68t71.5 -23h78v274h-78q-54 0 -71.5 -23t-18.5 -68h-14v208h14q1 -45 18.5 -68t71.5 -23h78v78q0 45 -20 61t-61 18v14h207v-14q-42 -2 -61.5 -18t-19.5 -61v-78h77
q54 0 71.5 22.5t18.5 68.5h14v-208h-14q-1 46 -18.5 68.5t-71.5 22.5h-77v-274h77q54 0 71.5 22.5t18.5 68.5h14v-208h-14q-1 46 -18.5 68.5t-71.5 22.5h-77v-77q0 -47 19.5 -62.5t61.5 -17.5v-14h-207v14q42 2 61.5 17.5z" />
    <glyph glyph-name="bullet" unicode="&#x2022;" horiz-adv-x="476" 
d="M138 99q-46 27 -73 72.5t-27 100.5q0 54 27 100t73.5 73t101.5 27q54 0 99.5 -27t72 -73t26.5 -100q0 -55 -26.5 -100.5t-72 -72.5t-99.5 -27q-56 0 -102 27z" />
    <glyph glyph-name="ellipsis" unicode="&#x2026;" horiz-adv-x="716" 
d="M81 -0.5q-15 14.5 -15 36.5t14.5 36.5t37.5 14.5t37 -14t14 -37q0 -22 -14.5 -36.5t-36.5 -14.5t-37 14.5zM321 -0.5q-15 14.5 -15 36.5t14.5 36.5t37.5 14.5t37 -14t14 -37q0 -22 -14.5 -36.5t-36.5 -14.5t-37 14.5zM562 -0.5q-15 14.5 -15 36.5t14.5 36.5t37.5 14.5
t37 -14t14 -37q0 -22 -14.5 -36.5t-36.5 -14.5t-37 14.5z" />
    <glyph glyph-name="perthousand" unicode="&#x2030;" horiz-adv-x="1071" 
d="M160 0l383 668h28l-384 -668h-27zM81.5 633q38.5 50 101.5 50t101.5 -50.5t38.5 -133.5q0 -51 -18 -93t-49.5 -66.5t-72.5 -24.5q-40 0 -72 24t-50 66t-18 94q0 84 38.5 134zM123 379q22 -44 60 -44q39 0 60.5 44t21.5 120q0 81 -21 122.5t-61 41.5q-39 0 -60.5 -41.5
t-21.5 -122.5q0 -76 22 -120zM445.5 304q38.5 50 101.5 50t101.5 -50.5t38.5 -133.5q0 -51 -18 -93t-49.5 -66.5t-72.5 -24.5q-40 0 -72 24t-50 66t-18 94q0 84 38.5 134zM487 50q22 -44 60 -44q39 0 60.5 44t21.5 120q0 81 -21 122.5t-61 41.5q-39 0 -60.5 -41.5
t-21.5 -122.5q0 -76 22 -120zM785.5 304q38.5 50 101.5 50t101.5 -50.5t38.5 -133.5q0 -51 -18 -93t-49.5 -66.5t-72.5 -24.5q-40 0 -72 24t-50 66t-18 94q0 84 38.5 134zM827 50q22 -44 60 -44q39 0 60.5 44t21.5 120q0 81 -21 122.5t-61 41.5q-39 0 -60.5 -41.5
t-21.5 -122.5q0 -76 22 -120z" />
    <glyph glyph-name="guilsinglleft" unicode="&#x2039;" horiz-adv-x="314" 
d="M52 267l202 185l8 -8l-143 -183l143 -183l-8 -8l-202 185v12z" />
    <glyph glyph-name="guilsinglright" unicode="&#x203a;" horiz-adv-x="314" 
d="M60 70l-8 8l143 183l-143 183l8 8l202 -185v-12z" />
    <glyph glyph-name="fraction" unicode="&#x2044;" horiz-adv-x="160" 
d="M-126 0l383 668h28l-384 -668h-27z" />
    <glyph glyph-name="uni2070" unicode="&#x2070;" horiz-adv-x="350" 
d="M69.5 402.5q-40.5 53.5 -40.5 138.5t40.5 138t105.5 53q43 0 76 -24t51.5 -67.5t18.5 -99.5t-18.5 -100t-51.5 -68t-76 -24q-65 0 -105.5 53.5zM112 410q22 -46 63 -46q40 0 62 46t22 131t-22 131t-62 46q-41 0 -63 -46t-22 -131t22 -131z" />
    <glyph glyph-name="uni2074" unicode="&#x2074;" horiz-adv-x="318" 
d="M299 453h-65v-37q0 -26 10 -37.5t39 -13.5v-8h-170v8q34 2 48.5 13.5t14.5 37.5v37h-169v7l179 264h48v-243h65v-28zM176 481v202l-138 -202h138z" />
    <glyph glyph-name="uni2075" unicode="&#x2075;" horiz-adv-x="300" 
d="M74 724h190v-53h-185l-21 -101q41 12 78 12q62 0 101 -31t39 -88q0 -51 -36.5 -82.5t-95.5 -31.5q-58 0 -91.5 29.5t-30.5 81.5h59q-3 -13 -3 -26q0 -33 18 -51t48 -18q33 0 52 22t19 61q0 45 -31 71t-87 26q-24 0 -54 -6l-6 5z" />
    <glyph glyph-name="uni2076" unicode="&#x2076;" horiz-adv-x="337" 
d="M65.5 398.5q-38.5 49.5 -38.5 138.5q0 69 24 113t60 63.5t76 19.5q45 0 80.5 -24.5t37.5 -77.5h-62q3 41 -15.5 64t-46.5 23q-44 0 -69.5 -51t-23.5 -137q21 61 98 61q53 0 86 -33.5t33 -84.5q0 -56 -37.5 -90t-94.5 -34q-69 0 -107.5 49.5zM115.5 394.5
q21.5 -30.5 55.5 -30.5q33 0 53.5 29t20.5 75q0 47 -21 74t-56 27t-54.5 -25.5t-19.5 -71.5q0 -47 21.5 -77.5z" />
    <glyph glyph-name="uni2077" unicode="&#x2077;" horiz-adv-x="284" 
d="M187.5 565q-31.5 -80 -31.5 -176q0 -21 1 -32h-65l-1 23q0 88 36.5 156t102.5 134h-104q-46 0 -69 -14t-32 -54h-8l15 129q41 -7 92 -7h155v-7q-60 -72 -91.5 -152z" />
    <glyph glyph-name="uni2078" unicode="&#x2078;" horiz-adv-x="327" 
d="M65.5 374q-38.5 25 -38.5 68q0 30 21.5 55t62.5 38q-36 16 -55 38.5t-19 61.5q0 44 35.5 71t92.5 27q54 0 89 -25t35 -63q0 -57 -77 -84q42 -16 65 -40t23 -69t-36.5 -74t-100.5 -29q-59 0 -97.5 25zM101.5 387.5q24.5 -23.5 62.5 -23.5q35 0 58 19.5t23 48.5
q0 33 -23.5 50.5t-71.5 36.5l-23 9q-50 -27 -50 -78q0 -39 24.5 -62.5zM107 615q14 -16 32.5 -24.5t55.5 -21.5q47 27 47 71q0 36 -21.5 57t-56.5 21q-31 0 -51 -17.5t-20 -44.5q0 -25 14 -41z" />
    <glyph glyph-name="uni2079" unicode="&#x2079;" horiz-adv-x="337" 
d="M271.5 682.5q38.5 -49.5 38.5 -138.5q0 -69 -24 -113t-60 -63.5t-76 -19.5q-45 0 -80.5 24.5t-37.5 77.5h62q-3 -41 15.5 -64t46.5 -23q44 0 69.5 51t23.5 137q-21 -61 -98 -61q-53 0 -86 33.5t-33 84.5q0 56 37.5 90t94.5 34q69 0 107.5 -49.5zM113 539q21 -27 56 -27
t54.5 25.5t19.5 71.5q0 47 -21.5 77.5t-55.5 30.5q-33 0 -53.5 -29t-20.5 -75q0 -47 21 -74z" />
    <glyph glyph-name="Euro" unicode="&#x20ac;" horiz-adv-x="769" 
d="M168 435q27 114 109 181t194 67q73 0 127.5 -23.5t85 -64.5t30.5 -93h-68q6 68 -42 110.5t-133 42.5q-94 0 -156 -59.5t-80 -160.5h301v-25h-305q-3 -28 -3 -59q0 -30 3 -59h305v-25h-301q20 -110 88.5 -169.5t163.5 -59.5q79 0 139 41.5t87 115.5l13 -3
q-27 -99 -98 -153t-168 -54q-78 0 -141.5 35t-104.5 99t-53 148h-102v25h100q-2 26 -2 41q0 41 6 77h-104v25h109z" />
    <glyph glyph-name="uni20B9" unicode="&#x20b9;" horiz-adv-x="526" 
d="M43 308v16h107q91 0 138.5 38t51.5 110h-297v25h297q-5 70 -53 106.5t-137 36.5h-107v28h433v-25h-174q101 -40 108 -146h66v-25h-66q-4 -93 -69.5 -135.5t-175.5 -40.5h-25l193 -193q84 -84 170 -89v-14h-152z" />
    <glyph glyph-name="uni20BD" unicode="&#x20bd;" horiz-adv-x="606" 
d="M383 154h-186v-59q0 -34 11 -50.5t34 -23t66 -7.5v-14h-265v14q49 2 70 17.5t21 63.5v59h-111v25h111v118h-111v25h111v252q0 47 -21 62.5t-70 17.5v14h267q117 0 185 -45.5t68 -139.5t-68 -141t-185 -47h-113v-116h186v-25zM304 323q91 0 140 43.5t49 116.5
q0 71 -49 114t-140 43h-107v-317h107z" />
    <glyph glyph-name="uni2116" unicode="&#x2116;" horiz-adv-x="1045" 
d="M762 401q-40 43 -40 119t40 119.5t99 43.5q60 0 100.5 -43.5t40.5 -119.5t-40 -119t-100 -43t-100 43zM43 668h133l406 -558v474q0 30 -13 45t-35 19.5t-59 5.5v14h210v-14q-38 -2 -56.5 -14.5t-18.5 -55.5v-599h-14l-430 590v-489q0 -32 12.5 -47t33 -19t59.5 -5v-15
h-209v14q27 1 42 5.5t24.5 19.5t9.5 47v502q0 35 -25 49t-70 17v14zM730 278h263v-30h-263v30zM802 412q22 -34 60 -34t60 34t22 108t-22 108.5t-60 34.5t-60 -34.5t-22 -108.5t22 -108z" />
    <glyph glyph-name="uni2117" unicode="&#x2117;" horiz-adv-x="518" 
d="M154 294q-48 28 -76 76t-28 104q0 57 28 105t76 76t104 28q57 0 105 -28t76.5 -76t28.5 -105q0 -56 -28.5 -104t-76.5 -76t-105 -28q-56 0 -104 28zM91 377q26 -44 70 -70t97 -26t97.5 26t71 70t26.5 97t-26.5 97.5t-71 71t-97.5 26.5t-97 -26.5t-70 -71t-26 -97.5
t26 -97zM168 369q17 1 23 7.5t6 19.5v158q0 12 -6 19t-23 8v4h98q41 0 64 -15.5t23 -45.5q0 -31 -23.5 -47t-63.5 -16h-35v-65q0 -14 6.5 -20t29.5 -7v-4h-99v4zM259 470q28 0 43 14.5t15 39.5q0 23 -15 37.5t-43 14.5h-28v-106h28z" />
    <glyph glyph-name="trademark" unicode="&#x2122;" horiz-adv-x="747" 
d="M191.5 419q7.5 -7 29.5 -9v-10h-119v10q23 2 30.5 9t7.5 27v204h-23q-58 0 -74 -54h-10l12 76q26 -5 70 -5h94q44 0 71 5l11 -76h-10q-9 27 -26.5 40.5t-48.5 13.5h-22v-204q0 -20 7.5 -27zM333 411q21 2 29.5 8t8.5 20v185q0 17 -8.5 25.5t-29.5 9.5v9h83l104 -209
l105 209h79v-9q-20 -1 -29.5 -9.5t-9.5 -25.5v-185q0 -13 8.5 -19.5t30.5 -8.5v-10h-120v10q21 2 29 8.5t8 19.5v184l-113 -228h-6l-113 229v-185q0 -13 8 -19.5t30 -8.5v-10h-94v10z" />
    <glyph glyph-name="uni2126" unicode="&#x2126;" horiz-adv-x="753" 
d="M242 0q-95 0 -148 -11l-27 170h13q18 -62 53.5 -88t103.5 -26h67v61q-68 7 -125 47.5t-91 106t-34 143.5q0 85 40.5 148.5t113.5 97.5t169 34t168.5 -34t113 -97.5t40.5 -148.5q0 -77 -33 -142.5t-90 -106.5t-126 -48v-62h66q68 0 104 26t54 88h12l-26 -170
q-53 11 -149 11h-87v136q52 0 99 35.5t76.5 97t29.5 136.5q0 77 -31 133.5t-88 86.5t-133 30t-133.5 -30t-88.5 -86.5t-31 -133.5q0 -75 29.5 -136.5t77 -97t99.5 -35.5v-135h-88z" />
    <glyph glyph-name="estimated" unicode="&#x212e;" horiz-adv-x="804" 
d="M230 32q-82 46 -129.5 125.5t-47.5 176.5t46 176.5t126 125.5t177 46q98 0 178.5 -46.5t126 -126.5t44.5 -178h-569v-210q39 -43 98.5 -71.5t130.5 -28.5q76 0 139.5 33.5t109.5 98.5l28 -20q-45 -70 -117.5 -108.5t-159.5 -38.5q-99 0 -181 46zM623 372v177
q-35 39 -94 68.5t-127 29.5q-69 0 -128 -29.5t-92 -69.5v-176h441z" />
    <glyph glyph-name="oneeighth" unicode="&#x215b;" horiz-adv-x="724" 
d="M69.5 276q11.5 9 11.5 29l1 262h-61v8q38 10 64 22t47 31h7v-323q0 -22 10.5 -30t37.5 -10v-8h-166v8q37 2 48.5 11zM111 0l383 668h28l-384 -668h-27zM462.5 17q-38.5 25 -38.5 68q0 30 21.5 55t62.5 38q-36 16 -55 38.5t-19 61.5q0 44 35.5 71t92.5 27q54 0 89 -25
t35 -63q0 -57 -77 -84q42 -16 65 -40t23 -69t-36.5 -74t-100.5 -29q-59 0 -97.5 25zM498.5 30.5q24.5 -23.5 62.5 -23.5q35 0 58 19.5t23 48.5q0 33 -23.5 50.5t-71.5 36.5l-23 9q-50 -27 -50 -78q0 -39 24.5 -62.5zM504 258q14 -16 32.5 -24.5t55.5 -21.5q47 27 47 71
q0 36 -21.5 57t-56.5 21q-31 0 -51 -17.5t-20 -44.5q0 -25 14 -41z" />
    <glyph glyph-name="threeeighths" unicode="&#x215c;" horiz-adv-x="807" 
d="M62 278.5q-38 29.5 -34 81.5h59q-3 -10 -3 -22q0 -31 20 -52t52 -21q34 0 55.5 23t21.5 62q0 40 -23 64.5t-64 24.5q-13 0 -30 -3l-3 9l113 125h-75q-45 0 -68.5 -14t-33.5 -54h-7l15 129q38 -7 92 -7h148v-7l-151 -163q24 6 44 6q47 0 76 -29.5t29 -69.5
q0 -48 -39.5 -80t-99.5 -32q-56 0 -94 29.5zM194 0l383 668h28l-384 -668h-27zM545.5 17q-38.5 25 -38.5 68q0 30 21.5 55t62.5 38q-36 16 -55 38.5t-19 61.5q0 44 35.5 71t92.5 27q54 0 89 -25t35 -63q0 -57 -77 -84q42 -16 65 -40t23 -69t-36.5 -74t-100.5 -29
q-59 0 -97.5 25zM581.5 30.5q24.5 -23.5 62.5 -23.5q35 0 58 19.5t23 48.5q0 33 -23.5 50.5t-71.5 36.5l-23 9q-50 -27 -50 -78q0 -39 24.5 -62.5zM587 258q14 -16 32.5 -24.5t55.5 -21.5q47 27 47 71q0 36 -21.5 57t-56.5 21q-31 0 -51 -17.5t-20 -44.5q0 -25 14 -41z" />
    <glyph glyph-name="fiveeighths" unicode="&#x215d;" horiz-adv-x="807" 
d="M74 624h190v-53h-185l-21 -101q41 12 78 12q62 0 101 -31t39 -88q0 -51 -36.5 -82.5t-95.5 -31.5q-58 0 -91.5 29.5t-30.5 81.5h59q-3 -13 -3 -26q0 -33 18 -51t48 -18q33 0 52 22t19 61q0 45 -31 71t-87 26q-24 0 -54 -6l-6 5zM194 0l383 668h28l-384 -668h-27z
M545.5 17q-38.5 25 -38.5 68q0 30 21.5 55t62.5 38q-36 16 -55 38.5t-19 61.5q0 44 35.5 71t92.5 27q54 0 89 -25t35 -63q0 -57 -77 -84q42 -16 65 -40t23 -69t-36.5 -74t-100.5 -29q-59 0 -97.5 25zM581.5 30.5q24.5 -23.5 62.5 -23.5q35 0 58 19.5t23 48.5
q0 33 -23.5 50.5t-71.5 36.5l-23 9q-50 -27 -50 -78q0 -39 24.5 -62.5zM587 258q14 -16 32.5 -24.5t55.5 -21.5q47 27 47 71q0 36 -21.5 57t-56.5 21q-31 0 -51 -17.5t-20 -44.5q0 -25 14 -41z" />
    <glyph glyph-name="seveneighths" unicode="&#x215e;" horiz-adv-x="731" 
d="M187.5 465q-31.5 -80 -31.5 -176q0 -21 1 -32h-65l-1 23q0 88 36.5 156t102.5 134h-104q-46 0 -69 -14t-32 -54h-8l15 129q41 -7 92 -7h155v-7q-60 -72 -91.5 -152zM118 0l383 668h28l-384 -668h-27zM469.5 17q-38.5 25 -38.5 68q0 30 21.5 55t62.5 38q-36 16 -55 38.5
t-19 61.5q0 44 35.5 71t92.5 27q54 0 89 -25t35 -63q0 -57 -77 -84q42 -16 65 -40t23 -69t-36.5 -74t-100.5 -29q-59 0 -97.5 25zM505.5 30.5q24.5 -23.5 62.5 -23.5q35 0 58 19.5t23 48.5q0 33 -23.5 50.5t-71.5 36.5l-23 9q-50 -27 -50 -78q0 -39 24.5 -62.5zM511 258
q14 -16 32.5 -24.5t55.5 -21.5q47 27 47 71q0 36 -21.5 57t-56.5 21q-31 0 -51 -17.5t-20 -44.5q0 -25 14 -41z" />
    <glyph glyph-name="arrowleft" unicode="&#x2190;" horiz-adv-x="660" 
d="M271 467l-182 -180h528v-28h-528l182 -179l-19 -20l-209 206v14l209 207z" />
    <glyph glyph-name="arrowup" unicode="&#x2191;" horiz-adv-x="513" 
d="M250 562h14l206 -209l-20 -19l-179 182v-528h-28v528l-180 -182l-20 19z" />
    <glyph glyph-name="arrowright" unicode="&#x2192;" horiz-adv-x="660" 
d="M617 280v-14l-209 -206l-19 20l182 179h-528v28h528l-182 180l19 20z" />
    <glyph glyph-name="arrowdown" unicode="&#x2193;" horiz-adv-x="513" 
d="M263 -15h-14l-206 209l20 19l179 -182v528h28v-528l180 182l20 -19z" />
    <glyph glyph-name="uni2196" unicode="&#x2196;" horiz-adv-x="537" 
d="M377 641l-256 1l373 -373l-20 -20l-373 373l2 -255l-27 -1l-2 294l9 10l295 -2z" />
    <glyph glyph-name="uni2197" unicode="&#x2197;" horiz-adv-x="537" 
d="M454 652l10 -10l-2 -293l-28 1l2 255l-373 -373l-20 19l373 374l-256 -2v28z" />
    <glyph glyph-name="uni2198" unicode="&#x2198;" horiz-adv-x="537" 
d="M464 10l-10 -9l-294 2l1 27l255 -2l-373 373l20 20l373 -373l-1 256l27 1z" />
    <glyph glyph-name="uni2199" unicode="&#x2199;" horiz-adv-x="537" 
d="M102 301l-1 -256l373 373l20 -20l-373 -373l255 2l1 -27l-294 -2l-10 9l2 295z" />
    <glyph glyph-name="partialdiff" unicode="&#x2202;" horiz-adv-x="499" 
d="M305.5 45.5q39.5 34.5 61 93t21.5 130.5q0 79 -28.5 123.5t-88.5 44.5q-53 0 -92 -35.5t-59.5 -94.5t-20.5 -130q0 -83 30 -124.5t86 -41.5q51 0 90.5 34.5zM102 637.5q54 45.5 136 45.5q96 -1 162 -63t66 -237q0 -115 -30.5 -205.5t-87.5 -141.5t-135 -51q-80 0 -127 53
t-47 150q0 76 29 138.5t82 99t120 36.5q51 0 84 -22t49 -61q1 13 1 42q0 121 -43.5 179t-122.5 58q-61 0 -97 -34.5t-36 -84.5q0 -11 1 -16h-68q10 69 64 114.5z" />
    <glyph glyph-name="uni2206" unicode="&#x2206;" horiz-adv-x="633" 
d="M43 16l266 667h14l267 -667v-16h-547v16zM517 28l-220 554l-219 -554h439z" />
    <glyph glyph-name="product" unicode="&#x220f;" horiz-adv-x="749" 
d="M540.5 31.5q21.5 15.5 21.5 63.5v545h-365v-545q0 -48 21 -63.5t70 -17.5v-14h-245v14q49 2 70.5 17.5t21.5 63.5v479q0 47 -21.5 62.5t-70.5 17.5v14h672v-14q-49 -2 -70 -17.5t-21 -62.5v-479q0 -48 21 -63.5t70 -17.5v-14h-245v14q49 2 70.5 17.5z" />
    <glyph glyph-name="summation" unicode="&#x2211;" horiz-adv-x="607" 
d="M128 -170h259q67 0 99.5 33t51.5 108h14l-28 -176q-49 7 -91 7h-387v14l282 429l-272 409v14h361q42 0 91 7l28 -176h-14q-19 75 -51.5 108t-99.5 33h-232l258 -391v-9z" />
    <glyph glyph-name="minus" unicode="&#x2212;" horiz-adv-x="519" 
d="M51 350h416v-31h-416v31z" />
    <glyph glyph-name="radical" unicode="&#x221a;" horiz-adv-x="470" 
d="M70 333h-76v25h121l95 -266l201 576h26l-231 -668h-15z" />
    <glyph glyph-name="infinity" unicode="&#x221e;" horiz-adv-x="710" 
d="M636.5 444.5q35.5 -40.5 35.5 -108.5t-35.5 -108t-100.5 -40q-39 0 -68 15t-50.5 38t-62.5 72q-54 -68 -95.5 -96.5t-87.5 -28.5q-62 0 -98 40.5t-36 107.5q0 68 36.5 108.5t101.5 40.5q38 0 67 -15.5t50.5 -37.5t62.5 -72q56 71 95.5 98t86.5 27q63 0 98.5 -40.5z
M96.5 249q27.5 -32 76.5 -32q41 0 74.5 25.5t88.5 92.5q-54 68 -86.5 94t-77.5 26q-50 0 -76.5 -30.5t-26.5 -86.5q0 -57 27.5 -89zM461 243q33 -26 77 -26q48 0 75.5 31t27.5 88t-27.5 88t-75.5 31q-43 0 -76.5 -25t-86.5 -92q53 -69 86 -95z" />
    <glyph glyph-name="approxequal" unicode="&#x2248;" horiz-adv-x="532" 
d="M458.5 207.5q-24.5 -38.5 -72.5 -38.5q-27 0 -55 14.5t-77 50.5q-45 32 -67 44.5t-43 12.5q-66 0 -61 -118h-32q-3 72 21 110t73 38q28 0 54.5 -14t77.5 -51q42 -31 65 -44t43 -13q36 0 51 31t13 84h32q2 -68 -22.5 -106.5zM458.5 388.5q-24.5 -38.5 -72.5 -38.5
q-27 0 -55 14.5t-77 50.5q-45 32 -67 44.5t-43 12.5q-66 0 -61 -118h-32q-3 72 21 110t73 38q28 0 54.5 -14t77.5 -51q42 -31 65 -44t43 -13q36 0 51 31t13 84h32q2 -68 -22.5 -106.5z" />
    <glyph glyph-name="notequal" unicode="&#x2260;" horiz-adv-x="544" 
d="M213 219h-161v31h173l65 170h-238v31h250l38 100h30l-38 -100h136v-31h-148l-65 -170h213v-31h-225l-38 -101h-30z" />
    <glyph glyph-name="lessequal" unicode="&#x2264;" horiz-adv-x="519" 
d="M52 0v31h416v-31h-416zM52 350l402 192l13 -29l-375 -178l375 -179l-13 -28l-402 192v30z" />
    <glyph glyph-name="greaterequal" unicode="&#x2265;" horiz-adv-x="519" 
d="M427 335l-375 178l13 29l402 -192v-30l-402 -192l-13 28zM51 31h416v-31h-416v31z" />
    <glyph glyph-name="uni2460" unicode="&#x2460;" 
d="M223.5 33q-79.5 47 -126.5 127t-47 174t47 174t126.5 127t173.5 47t174.5 -47t127.5 -127t47 -174t-47 -174t-127.5 -127t-174.5 -47t-173.5 47zM116.5 170.5q43.5 -74.5 117.5 -118t162 -43.5t163 43.5t119.5 118t44.5 162.5t-44.5 163t-119.5 119t-163 44t-162 -44
t-117.5 -118.5t-43.5 -163.5q0 -88 43.5 -162.5zM356.5 168q11.5 9 11.5 29l1 262h-61v8q38 10 64 22t47 31h7v-323q0 -22 10.5 -30t37.5 -10v-8h-166v8q37 2 48.5 11z" />
    <glyph glyph-name="uni2461" unicode="&#x2461;" 
d="M223.5 33q-79.5 47 -126.5 127t-47 174t47 174t126.5 127t173.5 47t174.5 -47t127.5 -127t47 -174t-47 -174t-127.5 -127t-174.5 -47t-173.5 47zM116.5 170.5q43.5 -74.5 117.5 -118t162 -43.5t163 43.5t119.5 118t44.5 162.5t-44.5 163t-119.5 119t-163 44t-162 -44
t-117.5 -118.5t-43.5 -163.5q0 -88 43.5 -162.5zM257 157l29 30l21 22q52 54 80.5 87t46.5 67.5t18 69.5q0 34 -17.5 55.5t-47.5 21.5q-28 0 -45 -20t-17 -53q0 -22 7 -44h-65q-1 6 -1 17q0 57 36 86t86 29q55 0 90.5 -30.5t35.5 -77.5q0 -38 -23.5 -71.5t-59 -62
t-97.5 -69.5l-17 -12h124q37 0 53.5 12t25.5 47h8l-16 -112h-255v8z" />
    <glyph glyph-name="uni2462" unicode="&#x2462;" 
d="M223.5 33q-79.5 47 -126.5 127t-47 174t47 174t126.5 127t173.5 47t174.5 -47t127.5 -127t47 -174t-47 -174t-127.5 -127t-174.5 -47t-173.5 47zM116.5 170.5q43.5 -74.5 117.5 -118t162 -43.5t163 43.5t119.5 118t44.5 162.5t-44.5 163t-119.5 119t-163 44t-162 -44
t-117.5 -118.5t-43.5 -163.5q0 -88 43.5 -162.5zM294 172.5q-38 29.5 -34 81.5h59q-3 -10 -3 -22q0 -31 20 -52t52 -21q34 0 55.5 23t21.5 62q0 40 -23 64.5t-64 24.5q-13 0 -30 -3l-3 9l113 125h-75q-45 0 -68.5 -14t-33.5 -54h-7l15 129q38 -7 92 -7h148v-7l-151 -163
q24 6 44 6q47 0 76 -29.5t29 -69.5q0 -48 -39.5 -80t-99.5 -32q-56 0 -94 29.5z" />
    <glyph glyph-name="uni2463" unicode="&#x2463;" 
d="M223.5 33q-79.5 47 -126.5 127t-47 174t47 174t126.5 127t173.5 47t174.5 -47t127.5 -127t47 -174t-47 -174t-127.5 -127t-174.5 -47t-173.5 47zM116.5 170.5q43.5 -74.5 117.5 -118t162 -43.5t163 43.5t119.5 118t44.5 162.5t-44.5 163t-119.5 119t-163 44t-162 -44
t-117.5 -118.5t-43.5 -163.5q0 -88 43.5 -162.5zM517 245h-65v-37q0 -26 10 -37.5t39 -13.5v-8h-170v8q34 2 48.5 13.5t14.5 37.5v37h-169v7l179 264h48v-243h65v-28zM394 273v202l-138 -202h138z" />
    <glyph glyph-name="uni2464" unicode="&#x2464;" 
d="M223.5 33q-79.5 47 -126.5 127t-47 174t47 174t126.5 127t173.5 47t174.5 -47t127.5 -127t47 -174t-47 -174t-127.5 -127t-174.5 -47t-173.5 47zM116.5 170.5q43.5 -74.5 117.5 -118t162 -43.5t163 43.5t119.5 118t44.5 162.5t-44.5 163t-119.5 119t-163 44t-162 -44
t-117.5 -118.5t-43.5 -163.5q0 -88 43.5 -162.5zM312 518h190v-53h-185l-21 -101q41 12 78 12q62 0 101 -31t39 -88q0 -51 -36.5 -82.5t-95.5 -31.5q-58 0 -91.5 29.5t-30.5 81.5h59q-3 -13 -3 -26q0 -33 18 -51t48 -18q33 0 52 22t19 61q0 45 -31 71t-87 26q-24 0 -54 -6
l-6 5z" />
    <glyph glyph-name="uni2465" unicode="&#x2465;" 
d="M223.5 33q-79.5 47 -126.5 127t-47 174t47 174t126.5 127t173.5 47t174.5 -47t127.5 -127t47 -174t-47 -174t-127.5 -127t-174.5 -47t-173.5 47zM116.5 170.5q43.5 -74.5 117.5 -118t162 -43.5t163 43.5t119.5 118t44.5 162.5t-44.5 163t-119.5 119t-163 44t-162 -44
t-117.5 -118.5t-43.5 -163.5q0 -88 43.5 -162.5zM291.5 191.5q-38.5 49.5 -38.5 138.5q0 69 24 113t60 63.5t76 19.5q45 0 80.5 -24.5t37.5 -77.5h-62q3 41 -15.5 64t-46.5 23q-44 0 -69.5 -51t-23.5 -137q21 61 98 61q53 0 86 -33.5t33 -84.5q0 -56 -37.5 -90t-94.5 -34
q-69 0 -107.5 49.5zM341.5 187.5q21.5 -30.5 55.5 -30.5q33 0 53.5 29t20.5 75q0 47 -21 74t-56 27t-54.5 -25.5t-19.5 -71.5q0 -47 21.5 -77.5z" />
    <glyph glyph-name="uni2466" unicode="&#x2466;" 
d="M223.5 33q-79.5 47 -126.5 127t-47 174t47 174t126.5 127t173.5 47t174.5 -47t127.5 -127t47 -174t-47 -174t-127.5 -127t-174.5 -47t-173.5 47zM116.5 170.5q43.5 -74.5 117.5 -118t162 -43.5t163 43.5t119.5 118t44.5 162.5t-44.5 163t-119.5 119t-163 44t-162 -44
t-117.5 -118.5t-43.5 -163.5q0 -88 43.5 -162.5zM443.5 357q-31.5 -80 -31.5 -176q0 -21 1 -32h-65l-1 23q0 88 36.5 156t102.5 134h-104q-46 0 -69 -14t-32 -54h-8l15 129q41 -7 92 -7h155v-7q-60 -72 -91.5 -152z" />
    <glyph glyph-name="uni2467" unicode="&#x2467;" 
d="M223.5 33q-79.5 47 -126.5 127t-47 174t47 174t126.5 127t173.5 47t174.5 -47t127.5 -127t47 -174t-47 -174t-127.5 -127t-174.5 -47t-173.5 47zM116.5 170.5q43.5 -74.5 117.5 -118t162 -43.5t163 43.5t119.5 118t44.5 162.5t-44.5 163t-119.5 119t-163 44t-162 -44
t-117.5 -118.5t-43.5 -163.5q0 -88 43.5 -162.5zM300.5 167q-38.5 25 -38.5 68q0 30 21.5 55t62.5 38q-36 16 -55 38.5t-19 61.5q0 44 35.5 71t92.5 27q54 0 89 -25t35 -63q0 -57 -77 -84q42 -16 65 -40t23 -69t-36.5 -74t-100.5 -29q-59 0 -97.5 25zM336.5 180.5
q24.5 -23.5 62.5 -23.5q35 0 58 19.5t23 48.5q0 33 -23.5 50.5t-71.5 36.5l-23 9q-50 -27 -50 -78q0 -39 24.5 -62.5zM342 408q14 -16 32.5 -24.5t55.5 -21.5q47 27 47 71q0 36 -21.5 57t-56.5 21q-31 0 -51 -17.5t-20 -44.5q0 -25 14 -41z" />
    <glyph glyph-name="uni2468" unicode="&#x2468;" 
d="M223.5 33q-79.5 47 -126.5 127t-47 174t47 174t126.5 127t173.5 47t174.5 -47t127.5 -127t47 -174t-47 -174t-127.5 -127t-174.5 -47t-173.5 47zM116.5 170.5q43.5 -74.5 117.5 -118t162 -43.5t163 43.5t119.5 118t44.5 162.5t-44.5 163t-119.5 119t-163 44t-162 -44
t-117.5 -118.5t-43.5 -163.5q0 -88 43.5 -162.5zM503.5 476.5q38.5 -49.5 38.5 -138.5q0 -69 -24 -113t-60 -63.5t-76 -19.5q-45 0 -80.5 24.5t-37.5 77.5h62q-3 -41 15.5 -64t46.5 -23q44 0 69.5 51t23.5 137q-21 -61 -98 -61q-53 0 -86 33.5t-33 84.5q0 56 37.5 90
t94.5 34q69 0 107.5 -49.5zM345 333q21 -27 56 -27t54.5 25.5t19.5 71.5q0 47 -21.5 77.5t-55.5 30.5q-33 0 -53.5 -29t-20.5 -75q0 -47 21 -74z" />
    <glyph glyph-name="uni24EA" unicode="&#x24ea;" 
d="M223.5 33q-79.5 47 -126.5 127t-47 174t47 174t126.5 127t173.5 47t174.5 -47t127.5 -127t47 -174t-47 -174t-127.5 -127t-174.5 -47t-173.5 47zM116.5 170.5q43.5 -74.5 117.5 -118t162 -43.5t163 43.5t119.5 118t44.5 162.5t-44.5 163t-119.5 119t-163 44t-162 -44
t-117.5 -118.5t-43.5 -163.5q0 -88 43.5 -162.5zM291.5 196.5q-40.5 53.5 -40.5 138.5t40.5 138t105.5 53q43 0 76 -24t51.5 -67.5t18.5 -99.5t-18.5 -100t-51.5 -68t-76 -24q-65 0 -105.5 53.5zM334 204q22 -46 63 -46q40 0 62 46t22 131t-22 131t-62 46q-41 0 -63 -46
t-22 -131t22 -131z" />
    <glyph glyph-name="uni24FF" unicode="&#x24ff;" 
d="M571.5 33q80.5 47 127.5 127t47 174t-47 174t-127.5 127t-174.5 47t-173.5 -47t-126.5 -127t-47 -174t47 -174t126.5 -127t173.5 -47t174.5 47zM293.5 196.5q-40.5 53.5 -40.5 138.5t40.5 138t105.5 53q43 0 76 -24t51.5 -67.5t18.5 -99.5t-18.5 -100t-51.5 -68t-76 -24
q-65 0 -105.5 53.5zM336 204q22 -46 63 -46q40 0 62 46t22 131t-22 131t-62 46q-41 0 -63 -46t-22 -131t22 -131z" />
    <glyph glyph-name="lozenge" unicode="&#x25ca;" horiz-adv-x="466" 
d="M23 334l199 349h22l199 -349l-199 -349h-22zM233 17l181 317l-181 317l-181 -317z" />
    <glyph glyph-name="circle" unicode="&#x25cb;" 
d="M223.5 33q-79.5 47 -126.5 127t-47 174t47 174t126.5 127t173.5 47t174.5 -47t127.5 -127t47 -174t-47 -174t-127.5 -127t-174.5 -47t-173.5 47zM116.5 170.5q43.5 -74.5 117.5 -118t162 -43.5t163 43.5t119.5 118t44.5 162.5t-44.5 163t-119.5 119t-163 44t-162 -44
t-117.5 -118.5t-43.5 -163.5q0 -88 43.5 -162.5z" />
    <glyph glyph-name="uni25CF" unicode="&#x25cf;" 
d="M571.5 33q80.5 47 127.5 127t47 174t-47 174t-127.5 127t-174.5 47t-173.5 -47t-126.5 -127t-47 -174t47 -174t126.5 -127t173.5 -47t174.5 47z" />
    <glyph glyph-name="uni2776" unicode="&#x2776;" 
d="M571.5 33q80.5 47 127.5 127t47 174t-47 174t-127.5 127t-174.5 47t-173.5 -47t-126.5 -127t-47 -174t47 -174t126.5 -127t173.5 -47t174.5 47zM365.5 168q11.5 9 11.5 29l1 262h-61v8q38 10 64 22t47 31h7v-323q0 -22 10.5 -30t37.5 -10v-8h-166v8q37 2 48.5 11z" />
    <glyph glyph-name="uni2777" unicode="&#x2777;" 
d="M571.5 33q80.5 47 127.5 127t47 174t-47 174t-127.5 127t-174.5 47t-173.5 -47t-126.5 -127t-47 -174t47 -174t126.5 -127t173.5 -47t174.5 47zM266 157l29 30l21 22q52 54 80.5 87t46.5 67.5t18 69.5q0 34 -17.5 55.5t-47.5 21.5q-28 0 -45 -20t-17 -53q0 -22 7 -44h-65
q-1 6 -1 17q0 57 36 86t86 29q55 0 90.5 -30.5t35.5 -77.5q0 -38 -23.5 -71.5t-59 -62t-97.5 -69.5l-17 -12h124q37 0 53.5 12t25.5 47h8l-16 -112h-255v8z" />
    <glyph glyph-name="uni2778" unicode="&#x2778;" 
d="M571.5 33q80.5 47 127.5 127t47 174t-47 174t-127.5 127t-174.5 47t-173.5 -47t-126.5 -127t-47 -174t47 -174t126.5 -127t173.5 -47t174.5 47zM298 172.5q-38 29.5 -34 81.5h59q-3 -10 -3 -22q0 -31 20 -52t52 -21q34 0 55.5 23t21.5 62q0 40 -23 64.5t-64 24.5
q-13 0 -30 -3l-3 9l113 125h-75q-45 0 -68.5 -14t-33.5 -54h-7l15 129q38 -7 92 -7h148v-7l-151 -163q24 6 44 6q47 0 76 -29.5t29 -69.5q0 -48 -39.5 -80t-99.5 -32q-56 0 -94 29.5z" />
    <glyph glyph-name="uni2779" unicode="&#x2779;" 
d="M571.5 33q80.5 47 127.5 127t47 174t-47 174t-127.5 127t-174.5 47t-173.5 -47t-126.5 -127t-47 -174t47 -174t126.5 -127t173.5 -47t174.5 47zM524 245h-65v-37q0 -26 10 -37.5t39 -13.5v-8h-170v8q34 2 48.5 13.5t14.5 37.5v37h-169v7l179 264h48v-243h65v-28zM401 273
v202l-138 -202h138z" />
    <glyph glyph-name="uni277A" unicode="&#x277a;" 
d="M571.5 33q80.5 47 127.5 127t47 174t-47 174t-127.5 127t-174.5 47t-173.5 -47t-126.5 -127t-47 -174t47 -174t126.5 -127t173.5 -47t174.5 47zM321 518h190v-53h-185l-21 -101q41 12 78 12q62 0 101 -31t39 -88q0 -51 -36.5 -82.5t-95.5 -31.5q-58 0 -91.5 29.5
t-30.5 81.5h59q-3 -13 -3 -26q0 -33 18 -51t48 -18q33 0 52 22t19 61q0 45 -31 71t-87 26q-24 0 -54 -6l-6 5z" />
    <glyph glyph-name="uni277B" unicode="&#x277b;" 
d="M571.5 33q80.5 47 127.5 127t47 174t-47 174t-127.5 127t-174.5 47t-173.5 -47t-126.5 -127t-47 -174t47 -174t126.5 -127t173.5 -47t174.5 47zM291.5 191.5q-38.5 49.5 -38.5 138.5q0 69 24 113t60 63.5t76 19.5q45 0 80.5 -24.5t37.5 -77.5h-62q3 41 -15.5 64t-46.5 23
q-44 0 -69.5 -51t-23.5 -137q21 61 98 61q53 0 86 -33.5t33 -84.5q0 -56 -37.5 -90t-94.5 -34q-69 0 -107.5 49.5zM341.5 187.5q21.5 -30.5 55.5 -30.5q33 0 53.5 29t20.5 75q0 47 -21 74t-56 27t-54.5 -25.5t-19.5 -71.5q0 -47 21.5 -77.5z" />
    <glyph glyph-name="uni277C" unicode="&#x277c;" 
d="M571.5 33q80.5 47 127.5 127t47 174t-47 174t-127.5 127t-174.5 47t-173.5 -47t-126.5 -127t-47 -174t47 -174t126.5 -127t173.5 -47t174.5 47zM443.5 357q-31.5 -80 -31.5 -176q0 -21 1 -32h-65l-1 23q0 88 36.5 156t102.5 134h-104q-46 0 -69 -14t-32 -54h-8l15 129
q41 -7 92 -7h155v-7q-60 -72 -91.5 -152z" />
    <glyph glyph-name="uni277D" unicode="&#x277d;" 
d="M571.5 33q80.5 47 127.5 127t47 174t-47 174t-127.5 127t-174.5 47t-173.5 -47t-126.5 -127t-47 -174t47 -174t126.5 -127t173.5 -47t174.5 47zM300.5 167q-38.5 25 -38.5 68q0 30 21.5 55t62.5 38q-36 16 -55 38.5t-19 61.5q0 44 35.5 71t92.5 27q54 0 89 -25t35 -63
q0 -57 -77 -84q42 -16 65 -40t23 -69t-36.5 -74t-100.5 -29q-59 0 -97.5 25zM336.5 180.5q24.5 -23.5 62.5 -23.5q35 0 58 19.5t23 48.5q0 33 -23.5 50.5t-71.5 36.5l-23 9q-50 -27 -50 -78q0 -39 24.5 -62.5zM342 408q14 -16 32.5 -24.5t55.5 -21.5q47 27 47 71
q0 36 -21.5 57t-56.5 21q-31 0 -51 -17.5t-20 -44.5q0 -25 14 -41z" />
    <glyph glyph-name="uni277E" unicode="&#x277e;" 
d="M571.5 33q80.5 47 127.5 127t47 174t-47 174t-127.5 127t-174.5 47t-173.5 -47t-126.5 -127t-47 -174t47 -174t126.5 -127t173.5 -47t174.5 47zM503.5 476.5q38.5 -49.5 38.5 -138.5q0 -69 -24 -113t-60 -63.5t-76 -19.5q-45 0 -80.5 24.5t-37.5 77.5h62q-3 -41 15.5 -64
t46.5 -23q44 0 69.5 51t23.5 137q-21 -61 -98 -61q-53 0 -86 33.5t-33 84.5q0 56 37.5 90t94.5 34q69 0 107.5 -49.5zM345 333q21 -27 56 -27t54.5 25.5t19.5 71.5q0 47 -21.5 77.5t-55.5 30.5q-33 0 -53.5 -29t-20.5 -75q0 -47 21 -74z" />
    <glyph glyph-name="M.titl" horiz-adv-x="910" 
d="M763.5 635.5q-18.5 -16.5 -15.5 -54.5l47 -497q4 -37 21 -51.5t61 -18.5v-14h-223v14q46 6 65 20t15 50l-47 491l-249 -590h-12l-239 591l-47 -492l-1 -12q0 -31 19 -42.5t61 -15.5v-14h-186v14q46 5 62 19t20 51l47 497q4 38 -16.5 54.5t-65.5 18.5v14h135l236 -587
l247 587h130v-14q-46 -2 -64.5 -18.5z" />
    <glyph glyph-name="F_T" horiz-adv-x="1030" 
d="M197 355h158q34 0 50.5 10t22 29.5t6.5 55.5h14v-214h-14q-1 35 -6.5 54.5t-22 29.5t-50.5 10h-158v-236q0 -34 11.5 -50.5t36 -22.5t73.5 -7v-14h-275v14q33 1 52 7t29 22.5t10 49.5v483q0 46 -21 61t-70 17v14h834q42 0 91 7l28 -176h-14q-19 75 -51.5 108t-99.5 33
h-101v-530q0 -40 9.5 -60.5t28.5 -27.5t53 -8v-14h-245v14q34 1 53 8t28.5 27.5t9.5 60.5v530h-470v-285z" />
    <glyph glyph-name="T_T" horiz-adv-x="1097" 
d="M806.5 49.5q9.5 -20.5 28.5 -27.5t53 -8v-14h-245v14q34 1 53 8t28.5 27.5t9.5 60.5v530h-371v-530q0 -40 9.5 -60.5t28.5 -27.5t53 -8v-14h-245v14q34 1 53 8t28.5 27.5t9.5 60.5v530h-101q-67 0 -99.5 -33t-51.5 -108h-14l28 176q49 -7 91 -7h791q42 0 91 7l28 -176
h-14q-19 75 -51.5 108t-99.5 33h-101v-530q0 -40 9.5 -60.5z" />
    <glyph glyph-name="T_h" horiz-adv-x="1071" 
d="M997 30.5q15 -11.5 50 -16.5v-14h-183v14q35 5 50 16.5t15 35.5v241q0 59 -26.5 87t-70.5 28q-34 0 -65 -17t-51 -54t-20 -94v-191q0 -24 15 -35.5t50 -16.5v-14h-183v14q35 5 50 16.5t15 35.5v529q0 23 -9 34t-36 11h-236v-530q0 -40 9.5 -60.5t28.5 -27.5t53 -8v-14
h-244v14q34 1 53 8t28.5 27.5t9.5 60.5v530h-105q-65 -1 -97 -34t-51 -107h-14l29 176q49 -7 91 -7h427l116 27v-354q21 60 61 90.5t93 30.5q61 0 96.5 -38t35.5 -112v-246q0 -24 15 -35.5z" />
    <glyph glyph-name="T_i" horiz-adv-x="757" 
d="M262 22q19 7 28.5 27.5t9.5 60.5v530h-93q-68 0 -104.5 -34t-55.5 -107h-14l29 180q53 -11 147 -11h331q23 0 53 8q24 6 38 6q21 0 35 -14t14 -34t-14 -34t-34 -14q-21 0 -35.5 14t-14.5 34v4q-73 2 -220 2v-530q0 -40 9.5 -60.5t28.5 -27.5t53 -8v-14h-244v14q34 1 53 8
zM542 14q35 5 50 16.5t15 35.5v306q0 23 -10.5 34.5t-35.5 12.5l-16 1v14l115 28v-396q0 -24 15 -35.5t50 -16.5v-14h-183v14z" />
    <glyph glyph-name="i.loclTRK" horiz-adv-x="250" 
d="M167 30.5q15 -11.5 50 -16.5v-14h-183v14q35 5 50 16.5t15 35.5v306q0 23 -10.5 34.5t-35.5 12.5l-16 1v14l115 28v-396q0 -24 15 -35.5zM90.5 671q14.5 14 35.5 14q20 0 33.5 -14t13.5 -34q0 -19 -13.5 -33t-33.5 -14q-21 0 -35.5 13.5t-14.5 33.5t14.5 34z" />
    <glyph glyph-name="germandbls.calt" 
d="M421.5 6.5q-50.5 20.5 -86.5 55.5l5 136h14q42 -184 179 -184q61 0 95 33t34 91q0 36 -14.5 60t-40 43t-80.5 53l-20 12q-49 31 -79 56t-47 57t-17 75q0 53 28 90.5t84 55.5h-279v-545q0 -48 21 -63.5t70 -17.5v-14h-245v14q49 2 70 17.5t21 63.5v479q0 47 -21 62.5
t-70 17.5v14h595v-28h-38q-86 0 -134.5 -33t-48.5 -94q0 -32 14.5 -55t40.5 -42.5t83 -55.5q64 -40 99.5 -70.5t52 -62.5t16.5 -73q0 -78 -51.5 -123t-141.5 -45q-58 0 -108.5 20.5z" />
    <glyph glyph-name="a.ss01" horiz-adv-x="504" 
d="M478 26v-14l-113 -28v124q-14 -57 -52.5 -90t-94.5 -33q-55 0 -97 29.5t-65.5 83.5t-23.5 124q0 77 27.5 131t73.5 81.5t100 27.5q70 0 117 -39l67 39v-387q0 -23 10.5 -34.5t34.5 -13.5zM110.5 124q18.5 -46 50 -70.5t71.5 -24.5q57 0 94.5 39t37.5 119v105
q0 62 -35.5 103.5t-94.5 41.5q-69 0 -105.5 -58t-36.5 -148q0 -61 18.5 -107z" />
    <glyph glyph-name="aacute.ss01" horiz-adv-x="504" 
d="M478 26v-14l-113 -28v124q-14 -57 -52.5 -90t-94.5 -33q-55 0 -97 29.5t-65.5 83.5t-23.5 124q0 77 27.5 131t73.5 81.5t100 27.5q70 0 117 -39l67 39v-387q0 -23 10.5 -34.5t34.5 -13.5zM110.5 124q18.5 -46 50 -70.5t71.5 -24.5q57 0 94.5 39t37.5 119v105
q0 62 -35.5 103.5t-94.5 41.5q-69 0 -105.5 -58t-36.5 -148q0 -61 18.5 -107zM303 693h84l-138 -152h-14z" />
    <glyph glyph-name="abreve.ss01" horiz-adv-x="504" 
d="M478 26v-14l-113 -28v124q-14 -57 -52.5 -90t-94.5 -33q-55 0 -97 29.5t-65.5 83.5t-23.5 124q0 77 27.5 131t73.5 81.5t100 27.5q70 0 117 -39l67 39v-387q0 -23 10.5 -34.5t34.5 -13.5zM110.5 124q18.5 -46 50 -70.5t71.5 -24.5q57 0 94.5 39t37.5 119v105
q0 62 -35.5 103.5t-94.5 41.5q-69 0 -105.5 -58t-36.5 -148q0 -61 18.5 -107zM153 684q4 -94 98 -94q95 0 99 94h11q1 -69 -27.5 -104t-82.5 -35t-82.5 35t-27.5 104h12z" />
    <glyph glyph-name="acircumflex.ss01" horiz-adv-x="504" 
d="M478 26v-14l-113 -28v124q-14 -57 -52.5 -90t-94.5 -33q-55 0 -97 29.5t-65.5 83.5t-23.5 124q0 77 27.5 131t73.5 81.5t100 27.5q70 0 117 -39l67 39v-387q0 -23 10.5 -34.5t34.5 -13.5zM110.5 124q18.5 -46 50 -70.5t71.5 -24.5q57 0 94.5 39t37.5 119v105
q0 62 -35.5 103.5t-94.5 41.5q-69 0 -105.5 -58t-36.5 -148q0 -61 18.5 -107zM218 673h68l100 -132h-13l-121 89l-123 -89h-13z" />
    <glyph glyph-name="adieresis.ss01" horiz-adv-x="504" 
d="M478 26v-14l-113 -28v124q-14 -57 -52.5 -90t-94.5 -33q-55 0 -97 29.5t-65.5 83.5t-23.5 124q0 77 27.5 131t73.5 81.5t100 27.5q70 0 117 -39l67 39v-387q0 -23 10.5 -34.5t34.5 -13.5zM110.5 124q18.5 -46 50 -70.5t71.5 -24.5q57 0 94.5 39t37.5 119v105
q0 62 -35.5 103.5t-94.5 41.5q-69 0 -105.5 -58t-36.5 -148q0 -61 18.5 -107zM139.5 642q14.5 14 36.5 14q20 0 33.5 -14t13.5 -35q0 -19 -13.5 -33t-33.5 -14q-22 0 -36.5 13.5t-14.5 33.5q0 21 14.5 35zM296.5 642q14.5 14 35.5 14q20 0 34 -14t14 -35q0 -19 -14 -33
t-34 -14q-21 0 -35.5 13.5t-14.5 33.5q0 21 14.5 35z" />
    <glyph glyph-name="agrave.ss01" horiz-adv-x="504" 
d="M478 26v-14l-113 -28v124q-14 -57 -52.5 -90t-94.5 -33q-55 0 -97 29.5t-65.5 83.5t-23.5 124q0 77 27.5 131t73.5 81.5t100 27.5q70 0 117 -39l67 39v-387q0 -23 10.5 -34.5t34.5 -13.5zM110.5 124q18.5 -46 50 -70.5t71.5 -24.5q57 0 94.5 39t37.5 119v105
q0 62 -35.5 103.5t-94.5 41.5q-69 0 -105.5 -58t-36.5 -148q0 -61 18.5 -107zM216 693l68 -152h-14l-138 152h84z" />
    <glyph glyph-name="amacron.ss01" horiz-adv-x="504" 
d="M478 26v-14l-113 -28v124q-14 -57 -52.5 -90t-94.5 -33q-55 0 -97 29.5t-65.5 83.5t-23.5 124q0 77 27.5 131t73.5 81.5t100 27.5q70 0 117 -39l67 39v-387q0 -23 10.5 -34.5t34.5 -13.5zM110.5 124q18.5 -46 50 -70.5t71.5 -24.5q57 0 94.5 39t37.5 119v105
q0 62 -35.5 103.5t-94.5 41.5q-69 0 -105.5 -58t-36.5 -148q0 -61 18.5 -107zM125 604h252v-24h-252v24z" />
    <glyph glyph-name="aogonek.ss01" horiz-adv-x="504" 
d="M478 26v-14l-81 -20q-33 -22 -53.5 -53.5t-20.5 -63.5q0 -25 15.5 -40.5t39.5 -15.5q18 0 37.5 12t35.5 33l8 -4q-13 -32 -39 -52t-54 -20q-41 0 -65 21t-24 55q0 36 24 68.5t64 53.5v122q-14 -57 -52.5 -90t-94.5 -33q-55 0 -97 29.5t-65.5 83.5t-23.5 124
q0 77 27.5 131t73.5 81.5t100 27.5q70 0 117 -39l67 39v-387q0 -23 10.5 -34.5t34.5 -13.5zM110.5 124q18.5 -46 50 -70.5t71.5 -24.5q57 0 94.5 39t37.5 119v105q0 62 -35.5 103.5t-94.5 41.5q-69 0 -105.5 -58t-36.5 -148q0 -61 18.5 -107z" />
    <glyph glyph-name="aring.ss01" horiz-adv-x="504" 
d="M478 26v-14l-113 -28v124q-14 -57 -52.5 -90t-94.5 -33q-55 0 -97 29.5t-65.5 83.5t-23.5 124q0 77 27.5 131t73.5 81.5t100 27.5q70 0 117 -39l67 39v-387q0 -23 10.5 -34.5t34.5 -13.5zM110.5 124q18.5 -46 50 -70.5t71.5 -24.5q57 0 94.5 39t37.5 119v105
q0 62 -35.5 103.5t-94.5 41.5q-69 0 -105.5 -58t-36.5 -148q0 -61 18.5 -107zM186.5 687q25.5 24 64.5 24t64.5 -24t25.5 -60q0 -37 -25.5 -61t-64.5 -24t-64.5 24t-25.5 61q0 36 25.5 60zM204 580.5q19 -18.5 47 -18.5q29 0 47.5 18.5t18.5 46.5t-18.5 46.5t-47.5 18.5
q-28 0 -47 -18.5t-19 -46.5t19 -46.5z" />
    <glyph glyph-name="aringacute.ss01" horiz-adv-x="504" 
d="M478 26v-14l-113 -28v124q-14 -57 -52.5 -90t-94.5 -33q-55 0 -97 29.5t-65.5 83.5t-23.5 124q0 77 27.5 131t73.5 81.5t100 27.5q70 0 117 -39l67 39v-387q0 -23 10.5 -34.5t34.5 -13.5zM110.5 124q18.5 -46 50 -70.5t71.5 -24.5q57 0 94.5 39t37.5 119v105
q0 62 -35.5 103.5t-94.5 41.5q-69 0 -105.5 -58t-36.5 -148q0 -61 18.5 -107zM184 684.5q23 23.5 58 26.5l103 121h94l-181 -121q36 -2 59.5 -26t23.5 -58q0 -37 -25.5 -61t-64.5 -24t-64.5 24t-25.5 61q0 34 23 57.5zM204 580.5q19 -18.5 47 -18.5q29 0 47.5 18.5
t18.5 46.5t-18.5 46.5t-47.5 18.5q-28 0 -47 -18.5t-19 -46.5t19 -46.5z" />
    <glyph glyph-name="atilde.ss01" horiz-adv-x="504" 
d="M478 26v-14l-113 -28v124q-14 -57 -52.5 -90t-94.5 -33q-55 0 -97 29.5t-65.5 83.5t-23.5 124q0 77 27.5 131t73.5 81.5t100 27.5q70 0 117 -39l67 39v-387q0 -23 10.5 -34.5t34.5 -13.5zM110.5 124q18.5 -46 50 -70.5t71.5 -24.5q57 0 94.5 39t37.5 119v105
q0 62 -35.5 103.5t-94.5 41.5q-69 0 -105.5 -58t-36.5 -148q0 -61 18.5 -107zM123 593q0 74 59 74q17 0 33.5 -7t42.5 -22q25 -14 39.5 -20t28.5 -6q18 0 27.5 11t12.5 41h10v-20q0 -37 -14 -55.5t-44 -18.5q-17 0 -33.5 7t-42.5 22q-27 14 -41 20t-28 6q-18 0 -27.5 -11
t-12.5 -41h-10v20z" />
    <glyph glyph-name="ae.ss01" horiz-adv-x="790" 
d="M129 15q-43 30 -67 83.5t-24 121.5q0 76 29 131t75.5 83t99.5 28q29 0 59 -9.5t54 -29.5l58 39v-92q27 44 70 68t97 24q74 0 119.5 -44.5t45.5 -121.5q0 -10 -2 -30h-315q-1 -11 -1 -32q0 -89 44.5 -146t123.5 -57q51 0 87 29t52 72l12 -3q-14 -66 -61 -104t-115 -38
t-118 39t-70 107q-11 -74 -51.5 -111t-102.5 -37q-56 0 -99 30zM117.5 126q19.5 -46 53.5 -71.5t75 -25.5q51 0 87.5 38.5t36.5 115.5v106q0 64 -33 106t-91 42q-46 0 -79.5 -28t-51 -75t-17.5 -103q0 -59 19.5 -105zM684 291q1 9 1 25q0 57 -31.5 89t-83.5 32
q-53 0 -90.5 -39t-48.5 -107h253z" />
    <glyph glyph-name="aeacute.ss01" horiz-adv-x="790" 
d="M129 15q-43 30 -67 83.5t-24 121.5q0 76 29 131t75.5 83t99.5 28q29 0 59 -9.5t54 -29.5l58 39v-92q27 44 70 68t97 24q74 0 119.5 -44.5t45.5 -121.5q0 -10 -2 -30h-315q-1 -11 -1 -32q0 -89 44.5 -146t123.5 -57q51 0 87 29t52 72l12 -3q-14 -66 -61 -104t-115 -38
t-118 39t-70 107q-11 -74 -51.5 -111t-102.5 -37q-56 0 -99 30zM117.5 126q19.5 -46 53.5 -71.5t75 -25.5q51 0 87.5 38.5t36.5 115.5v106q0 64 -33 106t-91 42q-46 0 -79.5 -28t-51 -75t-17.5 -103q0 -59 19.5 -105zM457 693h84l-138 -152h-14zM684 291q1 9 1 25
q0 57 -31.5 89t-83.5 32q-53 0 -90.5 -39t-48.5 -107h253z" />
    <glyph glyph-name="g.ss02" horiz-adv-x="472" 
d="M120 -169q-49 43 -50 113h68q-5 -20 -5 -35q0 -44 30.5 -70t84.5 -26q56 0 89 41t33 109v142q-14 -56 -52.5 -88t-93.5 -32t-97 29.5t-65.5 83.5t-23.5 124q0 77 27.5 131t73.5 81.5t100 27.5q70 0 117 -39l67 39v-475q0 -91 -47.5 -145t-127.5 -54q-79 0 -128 43z
M116.5 124q18.5 -46 50 -70.5t71.5 -24.5q57 0 94.5 39t37.5 119v105q0 62 -35.5 103.5t-94.5 41.5q-69 0 -105.5 -58t-36.5 -148q0 -61 18.5 -107z" />
    <glyph glyph-name="gbreve.ss02" horiz-adv-x="472" 
d="M120 -169q-49 43 -50 113h68q-5 -20 -5 -35q0 -44 30.5 -70t84.5 -26q56 0 89 41t33 109v142q-14 -56 -52.5 -88t-93.5 -32t-97 29.5t-65.5 83.5t-23.5 124q0 77 27.5 131t73.5 81.5t100 27.5q70 0 117 -39l67 39v-475q0 -91 -47.5 -145t-127.5 -54q-79 0 -128 43z
M116.5 124q18.5 -46 50 -70.5t71.5 -24.5q57 0 94.5 39t37.5 119v105q0 62 -35.5 103.5t-94.5 41.5q-69 0 -105.5 -58t-36.5 -148q0 -61 18.5 -107zM151 684q4 -94 98 -94q95 0 99 94h11q1 -69 -27.5 -104t-82.5 -35t-82.5 35t-27.5 104h12z" />
    <glyph glyph-name="gcircumflex.ss02" horiz-adv-x="472" 
d="M120 -169q-49 43 -50 113h68q-5 -20 -5 -35q0 -44 30.5 -70t84.5 -26q56 0 89 41t33 109v142q-14 -56 -52.5 -88t-93.5 -32t-97 29.5t-65.5 83.5t-23.5 124q0 77 27.5 131t73.5 81.5t100 27.5q70 0 117 -39l67 39v-475q0 -91 -47.5 -145t-127.5 -54q-79 0 -128 43z
M116.5 124q18.5 -46 50 -70.5t71.5 -24.5q57 0 94.5 39t37.5 119v105q0 62 -35.5 103.5t-94.5 41.5q-69 0 -105.5 -58t-36.5 -148q0 -61 18.5 -107zM215 673h68l100 -132h-13l-121 89l-123 -89h-13z" />
    <glyph glyph-name="uni0123.ss02" horiz-adv-x="472" 
d="M120 -169q-49 43 -50 113h68q-5 -20 -5 -35q0 -44 30.5 -70t84.5 -26q56 0 89 41t33 109v142q-14 -56 -52.5 -88t-93.5 -32t-97 29.5t-65.5 83.5t-23.5 124q0 77 27.5 131t73.5 81.5t100 27.5q70 0 117 -39l67 39v-475q0 -91 -47.5 -145t-127.5 -54q-79 0 -128 43z
M116.5 124q18.5 -46 50 -70.5t71.5 -24.5q57 0 94.5 39t37.5 119v105q0 62 -35.5 103.5t-94.5 41.5q-69 0 -105.5 -58t-36.5 -148q0 -61 18.5 -107zM226 704.5q25 28.5 64 33.5v-13q-25 -5 -41 -22t-18 -47q12 5 21 5q18 0 31 -13.5t13 -31.5q0 -21 -13 -33.5t-33 -12.5
q-24 0 -36.5 17.5t-12.5 48.5q0 40 25 68.5z" />
    <glyph glyph-name="gdotaccent.ss02" horiz-adv-x="472" 
d="M120 -169q-49 43 -50 113h68q-5 -20 -5 -35q0 -44 30.5 -70t84.5 -26q56 0 89 41t33 109v142q-14 -56 -52.5 -88t-93.5 -32t-97 29.5t-65.5 83.5t-23.5 124q0 77 27.5 131t73.5 81.5t100 27.5q70 0 117 -39l67 39v-475q0 -91 -47.5 -145t-127.5 -54q-79 0 -128 43z
M116.5 124q18.5 -46 50 -70.5t71.5 -24.5q57 0 94.5 39t37.5 119v105q0 62 -35.5 103.5t-94.5 41.5q-69 0 -105.5 -58t-36.5 -148q0 -61 18.5 -107zM213.5 671q14.5 14 35.5 14q20 0 33.5 -14t13.5 -34q0 -19 -13.5 -33t-33.5 -14q-21 0 -35.5 13.5t-14.5 33.5t14.5 34z" />
    <glyph glyph-name="g.ss03" horiz-adv-x="472" 
d="M95 -85h14q11 -43 43.5 -65t74.5 -22h72q32 0 51.5 20.5t19.5 55.5v201q-14 -56 -52.5 -88t-93.5 -32t-97 29.5t-65.5 83.5t-23.5 124q0 77 27.5 131t73.5 81.5t100 27.5q70 0 117 -39l67 39v-540q0 -55 -31 -87t-84 -32h-215zM116.5 124q18.5 -46 50 -70.5t71.5 -24.5
q57 0 94.5 39t37.5 119v105q0 62 -35.5 103.5t-94.5 41.5q-69 0 -105.5 -58t-36.5 -148q0 -61 18.5 -107z" />
    <glyph glyph-name="gbreve.ss03" horiz-adv-x="472" 
d="M95 -85h14q11 -43 43.5 -65t74.5 -22h72q32 0 51.5 20.5t19.5 55.5v201q-14 -56 -52.5 -88t-93.5 -32t-97 29.5t-65.5 83.5t-23.5 124q0 77 27.5 131t73.5 81.5t100 27.5q70 0 117 -39l67 39v-540q0 -55 -31 -87t-84 -32h-215zM116.5 124q18.5 -46 50 -70.5t71.5 -24.5
q57 0 94.5 39t37.5 119v105q0 62 -35.5 103.5t-94.5 41.5q-69 0 -105.5 -58t-36.5 -148q0 -61 18.5 -107zM151 684q4 -94 98 -94q95 0 99 94h11q1 -69 -27.5 -104t-82.5 -35t-82.5 35t-27.5 104h12z" />
    <glyph glyph-name="gcircumflex.ss03" horiz-adv-x="472" 
d="M95 -85h14q11 -43 43.5 -65t74.5 -22h72q32 0 51.5 20.5t19.5 55.5v201q-14 -56 -52.5 -88t-93.5 -32t-97 29.5t-65.5 83.5t-23.5 124q0 77 27.5 131t73.5 81.5t100 27.5q70 0 117 -39l67 39v-540q0 -55 -31 -87t-84 -32h-215zM116.5 124q18.5 -46 50 -70.5t71.5 -24.5
q57 0 94.5 39t37.5 119v105q0 62 -35.5 103.5t-94.5 41.5q-69 0 -105.5 -58t-36.5 -148q0 -61 18.5 -107zM215 673h68l100 -132h-13l-121 89l-123 -89h-13z" />
    <glyph glyph-name="uni0123.ss03" horiz-adv-x="472" 
d="M95 -85h14q11 -43 43.5 -65t74.5 -22h72q32 0 51.5 20.5t19.5 55.5v201q-14 -56 -52.5 -88t-93.5 -32t-97 29.5t-65.5 83.5t-23.5 124q0 77 27.5 131t73.5 81.5t100 27.5q70 0 117 -39l67 39v-540q0 -55 -31 -87t-84 -32h-215zM116.5 124q18.5 -46 50 -70.5t71.5 -24.5
q57 0 94.5 39t37.5 119v105q0 62 -35.5 103.5t-94.5 41.5q-69 0 -105.5 -58t-36.5 -148q0 -61 18.5 -107zM226 704.5q25 28.5 64 33.5v-13q-25 -5 -41 -22t-18 -47q12 5 21 5q18 0 31 -13.5t13 -31.5q0 -21 -13 -33.5t-33 -12.5q-24 0 -36.5 17.5t-12.5 48.5q0 40 25 68.5z
" />
    <glyph glyph-name="gdotaccent.ss03" horiz-adv-x="472" 
d="M95 -85h14q11 -43 43.5 -65t74.5 -22h72q32 0 51.5 20.5t19.5 55.5v201q-14 -56 -52.5 -88t-93.5 -32t-97 29.5t-65.5 83.5t-23.5 124q0 77 27.5 131t73.5 81.5t100 27.5q70 0 117 -39l67 39v-540q0 -55 -31 -87t-84 -32h-215zM116.5 124q18.5 -46 50 -70.5t71.5 -24.5
q57 0 94.5 39t37.5 119v105q0 62 -35.5 103.5t-94.5 41.5q-69 0 -105.5 -58t-36.5 -148q0 -61 18.5 -107zM213.5 671q14.5 14 35.5 14q20 0 33.5 -14t13.5 -34q0 -19 -13.5 -33t-33.5 -14q-21 0 -35.5 13.5t-14.5 33.5t14.5 34z" />
    <glyph glyph-name="r.ss04" horiz-adv-x="392" 
d="M252 422h-39q-30 0 -47 -18.5t-17 -53.5v-284q0 -25 21.5 -37.5t71.5 -14.5v-14h-211v14q36 5 51 16.5t15 35.5v272q-1 50 25.5 79.5t74.5 29.5h147l-2 -113h-14q-14 88 -76 88z" />
    <glyph glyph-name="racute.ss04" horiz-adv-x="392" 
d="M252 422h-39q-30 0 -47 -18.5t-17 -53.5v-284q0 -25 21.5 -37.5t71.5 -14.5v-14h-211v14q36 5 51 16.5t15 35.5v272q-1 50 25.5 79.5t74.5 29.5h147l-2 -113h-14q-14 88 -76 88zM275 693h84l-138 -152h-14z" />
    <glyph glyph-name="rcaron.ss04" horiz-adv-x="392" 
d="M252 422h-39q-30 0 -47 -18.5t-17 -53.5v-284q0 -25 21.5 -37.5t71.5 -14.5v-14h-211v14q36 5 51 16.5t15 35.5v272q-1 50 25.5 79.5t74.5 29.5h147l-2 -113h-14q-14 88 -76 88zM100 683l123 -89l121 89h13l-100 -132h-68l-102 132h13z" />
    <glyph glyph-name="uni0157.ss04" horiz-adv-x="392" 
d="M252 422h-39q-30 0 -47 -18.5t-17 -53.5v-284q0 -25 21.5 -37.5t71.5 -14.5v-14h-211v14q36 5 51 16.5t15 35.5v272q-1 50 25.5 79.5t74.5 29.5h147l-2 -113h-14q-14 88 -76 88zM96 -109.5q13 12.5 33 12.5q24 0 36.5 -17.5t12.5 -48.5q0 -40 -25 -68.5t-64 -33.5v13
q25 5 41 22t18 47q-12 -5 -21 -5q-18 0 -31 13.5t-13 31.5q0 21 13 33.5z" />
    <glyph glyph-name="f_b" horiz-adv-x="816" 
d="M347 642q-28 17 -60 17q-61 0 -96.5 -42.5t-35.5 -111.5v-58h119v-25h-119v-356q0 -25 21.5 -37.5t71.5 -14.5v-14h-211v14q36 5 51 16.5t15 35.5v356h-76v25h76v37q0 91 50.5 145t132.5 54q60 0 102 -27l57 30v-344q14 56 52.5 88t92.5 32q55 0 97.5 -29.5t66 -83.5
t23.5 -124q0 -77 -28 -131t-74 -81.5t-100 -27.5q-31 0 -62 10t-55 30l-66 -40v614q-17 26 -45 43zM480.5 51.5q35.5 -41.5 94.5 -41.5q69 0 105 58t36 148q0 61 -18 107t-49.5 71t-71.5 25q-57 0 -94.5 -39.5t-37.5 -118.5v-106q0 -62 35.5 -103.5z" />
    <glyph glyph-name="f_j" horiz-adv-x="495" 
d="M445 462v-386q0 -113 -33.5 -179.5t-115.5 -108.5l-7 10q54 44 78.5 102t24.5 154v323q0 20 -8 30.5t-25 14.5h-204v-174h1v-182q0 -26 21.5 -38t70.5 -14v-14h-210v14q35 5 50 16.5t15 35.5v356h-76v25h76v35q0 61 24 106.5t66 70t95 24.5q41 0 77.5 -9.5t51.5 -23.5
l-6 -94h-11q-6 45 -42 73.5t-86 28.5q-53 0 -85 -43t-32 -111v-57h215z" />
    <glyph glyph-name="ordfeminine.ss01" horiz-adv-x="352" 
d="M326 413v-11l-90 -24v75q-9 -35 -32.5 -54.5t-57.5 -19.5q-51 0 -82.5 41t-31.5 108q0 73 37.5 113.5t91.5 40.5q22 0 44 -8.5t38 -26.5l32 35h10v-238q0 -14 6 -20.5t22 -8.5zM108 446.5q21 -33.5 55 -33.5q29 0 48.5 20t22.5 61l-1 102q-5 30 -23.5 48.5t-45.5 18.5
q-37 0 -57 -35t-20 -90q0 -58 21 -91.5z" />
    <glyph glyph-name="zero.tf" horiz-adv-x="595" 
d="M169.5 29q-55.5 44 -86.5 123.5t-31 181.5t31 181.5t86.5 123.5t127.5 44t128.5 -44t87.5 -123.5t31 -181.5t-31 -181.5t-87.5 -123.5t-128.5 -44t-127.5 44zM168 97.5q46 -84.5 129 -84.5q84 0 130.5 84.5t46.5 236.5q0 153 -46.5 237t-130.5 84q-83 0 -129 -84
t-46 -237q0 -152 46 -236.5z" />
    <glyph glyph-name="one.tf" horiz-adv-x="595" 
d="M211 22q40 6 57.5 22.5t18.5 51.5l3 481h-203v14q98 13 156 31t96 49h11v-575q0 -32 15.5 -49t53.5 -24.5t111 -8.5v-14h-443v14q84 2 124 8z" />
    <glyph glyph-name="two.tf" horiz-adv-x="595" 
d="M65 14l46 47l35 36q106 108 159.5 169t86.5 121t33 119q0 65 -38 107t-102 42q-56 0 -94 -35.5t-38 -99.5q0 -31 10 -65h-76q-2 24 -2 35q0 63 28.5 106.5t74.5 65t99 21.5q61 0 108.5 -24.5t73.5 -67t26 -96.5q0 -68 -42 -133t-105.5 -123t-178.5 -150q-24 -18 -36 -28
h234q47 0 70.5 7t37 28t26.5 67h14l-28 -163h-422v14z" />
    <glyph glyph-name="three.tf" horiz-adv-x="595" 
d="M176 8q-49 22 -76.5 62t-27.5 91q0 14 1 22h70q-3 -16 -3 -33q0 -58 40.5 -97t106.5 -39q71 0 115.5 44.5t44.5 119.5q0 72 -45 119t-131 47q-24 0 -57 -5l1 15l219 253h-175q-72 0 -107.5 -25.5t-53.5 -95.5h-14l29 193q53 -11 148 -11h256v-14l-250 -287q32 6 59 6
q62 0 105.5 -26t64.5 -67.5t21 -89.5q0 -59 -29 -105.5t-81.5 -72.5t-120.5 -26q-61 0 -110 22z" />
    <glyph glyph-name="four.tf" horiz-adv-x="595" 
d="M325.5 33.5q30.5 17.5 30.5 67.5v82h-321v14l350 473h34v-439h124v-48h-124v-82q0 -51 21 -68t71 -19v-14h-278v14q62 2 92.5 19.5zM356 231v353l-261 -353h261z" />
    <glyph glyph-name="five.tf" horiz-adv-x="595" 
d="M173 668h330v-61h-314l-44 -206q60 12 113 12q122 0 192 -59.5t70 -162.5q0 -61 -28 -107.5t-79 -72t-117 -25.5q-96 0 -153 46.5t-57 128.5q0 14 1 22h67q-2 -11 -2 -32q0 -62 38 -99t104 -37q70 0 113 45.5t43 122.5q0 83 -62.5 134t-179.5 51q-44 0 -87 -7l-11 10z
" />
    <glyph glyph-name="six.tf" horiz-adv-x="595" 
d="M126.5 76q-64.5 91 -64.5 255q0 135 44 213.5t105 108.5t121 30q47 0 91 -18t74.5 -59t33.5 -105h-75q3 52 -16 87t-50.5 51t-67.5 16q-47 0 -90 -30.5t-71.5 -101.5t-28.5 -186q0 -32 1 -49q19 63 66.5 96t118.5 33q64 0 112 -27t74.5 -75t26.5 -108q0 -65 -28.5 -115.5
t-79 -78.5t-114.5 -28q-118 0 -182.5 91zM168 109.5q20 -44.5 56.5 -70.5t83.5 -26q44 0 79.5 23.5t55 66t19.5 95.5q0 82 -44.5 130.5t-116.5 48.5q-71 0 -112 -45t-41 -124q0 -54 20 -98.5z" />
    <glyph glyph-name="seven.tf" horiz-adv-x="595" 
d="M363 402.5q-69 -154.5 -69 -346.5q0 -18 2 -56h-74q-2 38 -2 55q0 167 67 306t174 246h-209q-72 0 -107 -25.5t-53 -95.5h-14l28 193q53 -11 149 -11h266v-14q-89 -97 -158 -251.5z" />
    <glyph glyph-name="eight.tf" horiz-adv-x="595" 
d="M181.5 6.5q-51.5 21.5 -81 60.5t-29.5 90q0 56 37.5 102.5t111.5 77.5q-63 29 -98.5 69t-35.5 108q0 49 27.5 87.5t76 60t108.5 21.5t109 -21t76.5 -58.5t27.5 -83.5q0 -105 -143 -164q74 -31 115.5 -73.5t41.5 -119.5q0 -52 -28.5 -92.5t-80.5 -63t-119 -22.5
q-64 0 -115.5 21.5zM176.5 55q47.5 -42 122.5 -42q47 0 85 17t59 47t21 67q0 46 -23.5 76.5t-58.5 49t-94 40.5l-41 16q-118 -60 -118 -158q0 -71 47.5 -113zM170 460q23 -29 56.5 -46t91.5 -39l21 -8q68 32 91 67.5t23 75.5q0 67 -43 107t-112 40q-44 0 -78 -16.5
t-53.5 -45t-19.5 -62.5q0 -44 23 -73z" />
    <glyph glyph-name="nine.tf" horiz-adv-x="595" 
d="M468.5 592q64.5 -91 64.5 -255q0 -135 -44 -213.5t-105 -108.5t-121 -30q-47 0 -91 18t-74.5 59t-33.5 105h75q-3 -52 16 -87t50.5 -51t67.5 -16q47 0 90 30.5t71.5 101.5t28.5 186q0 32 -1 49q-19 -63 -66.5 -96t-118.5 -33q-64 0 -112 27t-74.5 75t-26.5 108
q0 65 28.5 115.5t79 78.5t114.5 28q118 0 182.5 -91zM177.5 339.5q44.5 -48.5 116.5 -48.5q71 0 112 45t41 124q0 54 -20 98.5t-56.5 70.5t-83.5 26q-44 0 -79.5 -23.5t-55 -66t-19.5 -95.5q0 -82 44.5 -130.5z" />
    <glyph glyph-name="zero.sinf" horiz-adv-x="350" 
d="M69.5 -114.5q-40.5 53.5 -40.5 138.5t40.5 138t105.5 53q43 0 76 -24t51.5 -67.5t18.5 -99.5t-18.5 -100t-51.5 -68t-76 -24q-65 0 -105.5 53.5zM112 -107q22 -46 63 -46q40 0 62 46t22 131t-22 131t-62 46q-41 0 -63 -46t-22 -131t22 -131z" />
    <glyph glyph-name="one.sinf" horiz-adv-x="197" 
d="M69.5 -141q11.5 9 11.5 29l1 262h-61v8q38 10 64 22t47 31h7v-323q0 -22 10.5 -30t37.5 -10v-8h-166v8q37 2 48.5 11z" />
    <glyph glyph-name="two.sinf" horiz-adv-x="326" 
d="M24 -152l29 30l21 22q52 54 80.5 87t46.5 67.5t18 69.5q0 34 -17.5 55.5t-47.5 21.5q-28 0 -45 -20t-17 -53q0 -22 7 -44h-65q-1 6 -1 17q0 57 36 86t86 29q55 0 90.5 -30.5t35.5 -77.5q0 -38 -23.5 -71.5t-59 -62t-97.5 -69.5l-17 -12h124q37 0 53.5 12t25.5 47h8
l-16 -112h-255v8z" />
    <glyph glyph-name="three.sinf" horiz-adv-x="320" 
d="M62 -138.5q-38 29.5 -34 81.5h59q-3 -10 -3 -22q0 -31 20 -52t52 -21q34 0 55.5 23t21.5 62q0 40 -23 64.5t-64 24.5q-13 0 -30 -3l-3 9l113 125h-75q-45 0 -68.5 -14t-33.5 -54h-7l15 129q38 -7 92 -7h148v-7l-151 -163q24 6 44 6q47 0 76 -29.5t29 -69.5
q0 -48 -39.5 -80t-99.5 -32q-56 0 -94 29.5z" />
    <glyph glyph-name="four.sinf" horiz-adv-x="318" 
d="M299 -64h-65v-37q0 -26 10 -37.5t39 -13.5v-8h-170v8q34 2 48.5 13.5t14.5 37.5v37h-169v7l179 264h48v-243h65v-28zM176 -36v202l-138 -202h138z" />
    <glyph glyph-name="five.sinf" horiz-adv-x="300" 
d="M74 207h190v-53h-185l-21 -101q41 12 78 12q62 0 101 -31t39 -88q0 -51 -36.5 -82.5t-95.5 -31.5q-58 0 -91.5 29.5t-30.5 81.5h59q-3 -13 -3 -26q0 -33 18 -51t48 -18q33 0 52 22t19 61q0 45 -31 71t-87 26q-24 0 -54 -6l-6 5z" />
    <glyph glyph-name="six.sinf" horiz-adv-x="337" 
d="M65.5 -118.5q-38.5 49.5 -38.5 138.5q0 69 24 113t60 63.5t76 19.5q45 0 80.5 -24.5t37.5 -77.5h-62q3 41 -15.5 64t-46.5 23q-44 0 -69.5 -51t-23.5 -137q21 61 98 61q53 0 86 -33.5t33 -84.5q0 -56 -37.5 -90t-94.5 -34q-69 0 -107.5 49.5zM115.5 -122.5
q21.5 -30.5 55.5 -30.5q33 0 53.5 29t20.5 75q0 47 -21 74t-56 27t-54.5 -25.5t-19.5 -71.5q0 -47 21.5 -77.5z" />
    <glyph glyph-name="seven.sinf" horiz-adv-x="284" 
d="M187.5 48q-31.5 -80 -31.5 -176q0 -21 1 -32h-65l-1 23q0 88 36.5 156t102.5 134h-104q-46 0 -69 -14t-32 -54h-8l15 129q41 -7 92 -7h155v-7q-60 -72 -91.5 -152z" />
    <glyph glyph-name="eight.sinf" horiz-adv-x="327" 
d="M65.5 -143q-38.5 25 -38.5 68q0 30 21.5 55t62.5 38q-36 16 -55 38.5t-19 61.5q0 44 35.5 71t92.5 27q54 0 89 -25t35 -63q0 -57 -77 -84q42 -16 65 -40t23 -69t-36.5 -74t-100.5 -29q-59 0 -97.5 25zM101.5 -129.5q24.5 -23.5 62.5 -23.5q35 0 58 19.5t23 48.5
q0 33 -23.5 50.5t-71.5 36.5l-23 9q-50 -27 -50 -78q0 -39 24.5 -62.5zM107 98q14 -16 32.5 -24.5t55.5 -21.5q47 27 47 71q0 36 -21.5 57t-56.5 21q-31 0 -51 -17.5t-20 -44.5q0 -25 14 -41z" />
    <glyph glyph-name="nine.sinf" horiz-adv-x="337" 
d="M271.5 165.5q38.5 -49.5 38.5 -138.5q0 -69 -24 -113t-60 -63.5t-76 -19.5q-45 0 -80.5 24.5t-37.5 77.5h62q-3 -41 15.5 -64t46.5 -23q44 0 69.5 51t23.5 137q-21 -61 -98 -61q-53 0 -86 33.5t-33 84.5q0 56 37.5 90t94.5 34q69 0 107.5 -49.5zM113 22q21 -27 56 -27
t54.5 25.5t19.5 71.5q0 47 -21.5 77.5t-55.5 30.5q-33 0 -53.5 -29t-20.5 -75q0 -47 21 -74z" />
    <glyph glyph-name="zero.dnom" horiz-adv-x="350" 
d="M69.5 45.5q-40.5 53.5 -40.5 138.5t40.5 138t105.5 53q43 0 76 -24t51.5 -67.5t18.5 -99.5t-18.5 -100t-51.5 -68t-76 -24q-65 0 -105.5 53.5zM112 53q22 -46 63 -46q40 0 62 46t22 131t-22 131t-62 46q-41 0 -63 -46t-22 -131t22 -131z" />
    <glyph glyph-name="one.dnom" horiz-adv-x="197" 
d="M69.5 19q11.5 9 11.5 29l1 262h-61v8q38 10 64 22t47 31h7v-323q0 -22 10.5 -30t37.5 -10v-8h-166v8q37 2 48.5 11z" />
    <glyph glyph-name="two.dnom" horiz-adv-x="326" 
d="M24 8l29 30l21 22q52 54 80.5 87t46.5 67.5t18 69.5q0 34 -17.5 55.5t-47.5 21.5q-28 0 -45 -20t-17 -53q0 -22 7 -44h-65q-1 6 -1 17q0 57 36 86t86 29q55 0 90.5 -30.5t35.5 -77.5q0 -38 -23.5 -71.5t-59 -62t-97.5 -69.5l-17 -12h124q37 0 53.5 12t25.5 47h8l-16 -112
h-255v8z" />
    <glyph glyph-name="three.dnom" horiz-adv-x="320" 
d="M62 21.5q-38 29.5 -34 81.5h59q-3 -10 -3 -22q0 -31 20 -52t52 -21q34 0 55.5 23t21.5 62q0 40 -23 64.5t-64 24.5q-13 0 -30 -3l-3 9l113 125h-75q-45 0 -68.5 -14t-33.5 -54h-7l15 129q38 -7 92 -7h148v-7l-151 -163q24 6 44 6q47 0 76 -29.5t29 -69.5q0 -48 -39.5 -80
t-99.5 -32q-56 0 -94 29.5z" />
    <glyph glyph-name="four.dnom" horiz-adv-x="318" 
d="M299 96h-65v-37q0 -26 10 -37.5t39 -13.5v-8h-170v8q34 2 48.5 13.5t14.5 37.5v37h-169v7l179 264h48v-243h65v-28zM176 124v202l-138 -202h138z" />
    <glyph glyph-name="five.dnom" horiz-adv-x="300" 
d="M74 367h190v-53h-185l-21 -101q41 12 78 12q62 0 101 -31t39 -88q0 -51 -36.5 -82.5t-95.5 -31.5q-58 0 -91.5 29.5t-30.5 81.5h59q-3 -13 -3 -26q0 -33 18 -51t48 -18q33 0 52 22t19 61q0 45 -31 71t-87 26q-24 0 -54 -6l-6 5z" />
    <glyph glyph-name="six.dnom" horiz-adv-x="337" 
d="M65.5 41.5q-38.5 49.5 -38.5 138.5q0 69 24 113t60 63.5t76 19.5q45 0 80.5 -24.5t37.5 -77.5h-62q3 41 -15.5 64t-46.5 23q-44 0 -69.5 -51t-23.5 -137q21 61 98 61q53 0 86 -33.5t33 -84.5q0 -56 -37.5 -90t-94.5 -34q-69 0 -107.5 49.5zM115.5 37.5
q21.5 -30.5 55.5 -30.5q33 0 53.5 29t20.5 75q0 47 -21 74t-56 27t-54.5 -25.5t-19.5 -71.5q0 -47 21.5 -77.5z" />
    <glyph glyph-name="seven.dnom" horiz-adv-x="284" 
d="M187.5 208q-31.5 -80 -31.5 -176q0 -21 1 -32h-65l-1 23q0 88 36.5 156t102.5 134h-104q-46 0 -69 -14t-32 -54h-8l15 129q41 -7 92 -7h155v-7q-60 -72 -91.5 -152z" />
    <glyph glyph-name="eight.dnom" horiz-adv-x="327" 
d="M65.5 17q-38.5 25 -38.5 68q0 30 21.5 55t62.5 38q-36 16 -55 38.5t-19 61.5q0 44 35.5 71t92.5 27q54 0 89 -25t35 -63q0 -57 -77 -84q42 -16 65 -40t23 -69t-36.5 -74t-100.5 -29q-59 0 -97.5 25zM101.5 30.5q24.5 -23.5 62.5 -23.5q35 0 58 19.5t23 48.5
q0 33 -23.5 50.5t-71.5 36.5l-23 9q-50 -27 -50 -78q0 -39 24.5 -62.5zM107 258q14 -16 32.5 -24.5t55.5 -21.5q47 27 47 71q0 36 -21.5 57t-56.5 21q-31 0 -51 -17.5t-20 -44.5q0 -25 14 -41z" />
    <glyph glyph-name="nine.dnom" horiz-adv-x="337" 
d="M271.5 325.5q38.5 -49.5 38.5 -138.5q0 -69 -24 -113t-60 -63.5t-76 -19.5q-45 0 -80.5 24.5t-37.5 77.5h62q-3 -41 15.5 -64t46.5 -23q44 0 69.5 51t23.5 137q-21 -61 -98 -61q-53 0 -86 33.5t-33 84.5q0 56 37.5 90t94.5 34q69 0 107.5 -49.5zM113 182q21 -27 56 -27
t54.5 25.5t19.5 71.5q0 47 -21.5 77.5t-55.5 30.5q-33 0 -53.5 -29t-20.5 -75q0 -47 21 -74z" />
    <glyph glyph-name="zero.numr" horiz-adv-x="350" 
d="M69.5 302.5q-40.5 53.5 -40.5 138.5t40.5 138t105.5 53q43 0 76 -24t51.5 -67.5t18.5 -99.5t-18.5 -100t-51.5 -68t-76 -24q-65 0 -105.5 53.5zM112 310q22 -46 63 -46q40 0 62 46t22 131t-22 131t-62 46q-41 0 -63 -46t-22 -131t22 -131z" />
    <glyph glyph-name="one.numr" horiz-adv-x="197" 
d="M69.5 276q11.5 9 11.5 29l1 262h-61v8q38 10 64 22t47 31h7v-323q0 -22 10.5 -30t37.5 -10v-8h-166v8q37 2 48.5 11z" />
    <glyph glyph-name="two.numr" horiz-adv-x="326" 
d="M24 265l29 30l21 22q52 54 80.5 87t46.5 67.5t18 69.5q0 34 -17.5 55.5t-47.5 21.5q-28 0 -45 -20t-17 -53q0 -22 7 -44h-65q-1 6 -1 17q0 57 36 86t86 29q55 0 90.5 -30.5t35.5 -77.5q0 -38 -23.5 -71.5t-59 -62t-97.5 -69.5l-17 -12h124q37 0 53.5 12t25.5 47h8
l-16 -112h-255v8z" />
    <glyph glyph-name="three.numr" horiz-adv-x="320" 
d="M62 278.5q-38 29.5 -34 81.5h59q-3 -10 -3 -22q0 -31 20 -52t52 -21q34 0 55.5 23t21.5 62q0 40 -23 64.5t-64 24.5q-13 0 -30 -3l-3 9l113 125h-75q-45 0 -68.5 -14t-33.5 -54h-7l15 129q38 -7 92 -7h148v-7l-151 -163q24 6 44 6q47 0 76 -29.5t29 -69.5
q0 -48 -39.5 -80t-99.5 -32q-56 0 -94 29.5z" />
    <glyph glyph-name="four.numr" horiz-adv-x="318" 
d="M299 353h-65v-37q0 -26 10 -37.5t39 -13.5v-8h-170v8q34 2 48.5 13.5t14.5 37.5v37h-169v7l179 264h48v-243h65v-28zM176 381v202l-138 -202h138z" />
    <glyph glyph-name="five.numr" horiz-adv-x="300" 
d="M74 624h190v-53h-185l-21 -101q41 12 78 12q62 0 101 -31t39 -88q0 -51 -36.5 -82.5t-95.5 -31.5q-58 0 -91.5 29.5t-30.5 81.5h59q-3 -13 -3 -26q0 -33 18 -51t48 -18q33 0 52 22t19 61q0 45 -31 71t-87 26q-24 0 -54 -6l-6 5z" />
    <glyph glyph-name="six.numr" horiz-adv-x="337" 
d="M65.5 298.5q-38.5 49.5 -38.5 138.5q0 69 24 113t60 63.5t76 19.5q45 0 80.5 -24.5t37.5 -77.5h-62q3 41 -15.5 64t-46.5 23q-44 0 -69.5 -51t-23.5 -137q21 61 98 61q53 0 86 -33.5t33 -84.5q0 -56 -37.5 -90t-94.5 -34q-69 0 -107.5 49.5zM115.5 294.5
q21.5 -30.5 55.5 -30.5q33 0 53.5 29t20.5 75q0 47 -21 74t-56 27t-54.5 -25.5t-19.5 -71.5q0 -47 21.5 -77.5z" />
    <glyph glyph-name="seven.numr" horiz-adv-x="284" 
d="M187.5 465q-31.5 -80 -31.5 -176q0 -21 1 -32h-65l-1 23q0 88 36.5 156t102.5 134h-104q-46 0 -69 -14t-32 -54h-8l15 129q41 -7 92 -7h155v-7q-60 -72 -91.5 -152z" />
    <glyph glyph-name="eight.numr" horiz-adv-x="327" 
d="M65.5 274q-38.5 25 -38.5 68q0 30 21.5 55t62.5 38q-36 16 -55 38.5t-19 61.5q0 44 35.5 71t92.5 27q54 0 89 -25t35 -63q0 -57 -77 -84q42 -16 65 -40t23 -69t-36.5 -74t-100.5 -29q-59 0 -97.5 25zM101.5 287.5q24.5 -23.5 62.5 -23.5q35 0 58 19.5t23 48.5
q0 33 -23.5 50.5t-71.5 36.5l-23 9q-50 -27 -50 -78q0 -39 24.5 -62.5zM107 515q14 -16 32.5 -24.5t55.5 -21.5q47 27 47 71q0 36 -21.5 57t-56.5 21q-31 0 -51 -17.5t-20 -44.5q0 -25 14 -41z" />
    <glyph glyph-name="nine.numr" horiz-adv-x="337" 
d="M271.5 582.5q38.5 -49.5 38.5 -138.5q0 -69 -24 -113t-60 -63.5t-76 -19.5q-45 0 -80.5 24.5t-37.5 77.5h62q-3 -41 15.5 -64t46.5 -23q44 0 69.5 51t23.5 137q-21 -61 -98 -61q-53 0 -86 33.5t-33 84.5q0 56 37.5 90t94.5 34q69 0 107.5 -49.5zM113 439q21 -27 56 -27
t54.5 25.5t19.5 71.5q0 47 -21.5 77.5t-55.5 30.5q-33 0 -53.5 -29t-20.5 -75q0 -47 21 -74z" />
    <glyph glyph-name="space.tf" horiz-adv-x="595" 
 />
    <glyph glyph-name="colon.case" horiz-adv-x="236" 
d="M81 457.5q-15 14.5 -15 36.5t14.5 36.5t37.5 14.5t37 -14t14 -37q0 -22 -14.5 -36.5t-36.5 -14.5t-37 14.5zM81 84.5q-15 14.5 -15 36.5t14.5 36.5t37.5 14.5t37 -14t14 -37q0 -22 -14.5 -36.5t-36.5 -14.5t-37 14.5z" />
    <glyph glyph-name="bullet.case" horiz-adv-x="506" 
d="M153 169q-46 27 -73 72.5t-27 100.5q0 54 27 100t73.5 73t101.5 27q54 0 99.5 -27t72 -73t26.5 -100q0 -55 -26.5 -100.5t-72 -72.5t-99.5 -27q-56 0 -102 27z" />
    <glyph glyph-name="period.tf" horiz-adv-x="595" 
d="M288 -0.5q-15 14.5 -15 36.5t14.5 36.5t37.5 14.5t37 -14t14 -37q0 -22 -14.5 -36.5t-36.5 -14.5t-37 14.5z" />
    <glyph glyph-name="comma.tf" horiz-adv-x="595" 
d="M318.5 -69q23.5 26 24.5 61q-13 -7 -27 -7q-22 0 -36.5 14.5t-14.5 36.5q0 23 15 37.5t37 14.5q27 0 42.5 -19t15.5 -50q0 -52 -27.5 -86.5t-76.5 -49.5l-4 9q28 13 51.5 39z" />
    <glyph glyph-name="hyphen.case" horiz-adv-x="345" 
d="M299 308h-253v30h253v-30z" />
    <glyph glyph-name="endash.case" horiz-adv-x="422" 
d="M375 307h-329v29h329v-29z" />
    <glyph glyph-name="emdash.case" 
d="M749 307h-703v29h703v-29z" />
    <glyph glyph-name="parenleft.case" horiz-adv-x="300" 
d="M185.5 9q-53.5 67 -83 150.5t-29.5 170.5t29.5 171t82.5 151.5t123 107.5l8 -14q-82 -67 -132.5 -182t-50.5 -234q0 -118 50.5 -232.5t132.5 -181.5l-8 -14q-69 40 -122.5 107z" />
    <glyph glyph-name="parenright.case" horiz-adv-x="300" 
d="M116.5 97.5q50.5 114.5 50.5 232.5q0 119 -50.5 234t-132.5 182l8 14q70 -40 123 -107.5t82.5 -151.5t29.5 -171t-29.5 -170.5t-83 -150.5t-122.5 -107l-8 14q82 67 132.5 181.5z" />
    </font>
</defs>
</svg>
