<?xml version="1.0" standalone="no"?>
<!DOCTYPE svg PUBLIC "-//W3C//DTD SVG 1.1//EN" "http://www.w3.org/Graphics/SVG/1.1/DTD/svg11.dtd" >
<svg xmlns="http://www.w3.org/2000/svg" xmlns:xlink="http://www.w3.org/1999/xlink" version="1.1">
<metadata>
Created by FontForge 20201107 at Tue Jun  8 14:49:18 2021
 By 
Copyright (c) 2019 by Martin Va'cha. All rights reserved.
</metadata>
<defs>
<font id="Teodor-Medium" horiz-adv-x="796" >
  <font-face 
    font-family="Teodor Medium"
    font-weight="500"
    font-stretch="normal"
    units-per-em="1000"
    panose-1="0 0 0 0 0 0 0 0 0 0"
    ascent="800"
    descent="-200"
    x-height="454"
    cap-height="668"
    bbox="-121 -290 1116 1061"
    underline-thickness="50"
    underline-position="-125"
    unicode-range="U+000D-277E"
  />
<missing-glyph horiz-adv-x="1095" 
d="M112.5 554q64.5 113 175.5 182t242 74v-1000q-132 4 -242.5 72.5t-175 181.5t-64.5 245t64.5 245zM566 806q41 -14 75 -84.5t54 -179.5t20 -233t-20 -232.5t-54 -179t-75 -84.5v993zM722.5 23.5q29.5 128.5 29.5 285.5t-29.5 286t-80.5 196q71 -30 127.5 -101.5
t88.5 -171t32 -209.5q0 -111 -31.5 -210t-88 -169.5t-128.5 -100.5q51 66 80.5 194.5zM877.5 45q49.5 122 49.5 264q0 141 -49.5 264t-133.5 196q90 -38 159 -108t107 -161t38 -191t-38 -191t-107 -160.5t-159 -107.5q84 73 133.5 195z" />
    <glyph glyph-name="f_f" unicode="ff" horiz-adv-x="632" 
d="M122 586q29 48 79 72.5t110 24.5q41 0 79 -12.5t65 -34.5q53 47 141 47q27 0 54 -5t45 -16l-22 -111h-12q-5 50 -27 78.5t-54 28.5q-37 0 -55 -38.5t-18 -97.5v-68h126v-25h-126v-361q0 -25 19 -37.5t61 -16.5v-14h-244v14q30 4 42.5 16.5t12.5 37.5v361h-196v-361
q0 -25 19 -37.5t62 -16.5v-14h-244v14q29 5 41.5 17t12.5 37v361h-75v25h75v16q0 68 29 116zM398 454v40q0 44 14 80q-14 37 -42.5 61t-60.5 24q-52 0 -79.5 -46.5t-27.5 -114.5v-44h196z" />
    <glyph glyph-name="f_f_i" unicode="ffi" horiz-adv-x="891" 
d="M654 429h-147v-361q0 -25 19 -37.5t62 -16.5v-14h-244v14q29 5 41.5 17t12.5 37v361h-196v-361q0 -25 19 -37.5t62 -16.5v-14h-244v14q29 5 41.5 17t12.5 37v361h-75v25h75v16q0 68 29 116t79 72.5t110 24.5q46 0 87.5 -15.5t66.5 -41.5q32 28 75 42.5t91 14.5
q45 0 84 -8.5t57 -21.5l-22 -110h-12q-5 51 -38.5 83t-79.5 32q-54 0 -83.5 -47t-29.5 -114v-43h203l102 15v-401q0 -25 12.5 -37t41.5 -17v-14h-218v14q30 4 42.5 16.5t12.5 37.5v308q0 53 -49 53zM398 454v15q0 48 18 91q-11 42 -41.5 70.5t-65.5 28.5q-52 0 -79.5 -46.5
t-27.5 -114.5v-44h196z" />
    <glyph glyph-name="f_f_l" unicode="ffl" horiz-adv-x="889" 
d="M122 586q29 48 79 72.5t110 24.5q45 0 85.5 -14.5t65.5 -39.5q29 26 68 40t83 14q60 0 105 -21l94 35v-629q0 -25 12.5 -37t41.5 -17v-14h-218v14q30 4 42.5 16.5t12.5 37.5v534q-16 26 -40 41.5t-49 15.5q-52 0 -79.5 -46.5t-27.5 -114.5v-44h99v-25h-99v-361
q0 -25 19 -37.5t62 -16.5v-14h-244v14q29 5 41.5 17t12.5 37v361h-196v-361q0 -25 19 -37.5t62 -16.5v-14h-244v14q29 5 41.5 17t12.5 37v361h-75v25h75v16q0 68 29 116zM398 454v16q0 53 18 93q-12 41 -42.5 68.5t-64.5 27.5q-52 0 -79.5 -46.5t-27.5 -114.5v-44h196z" />
    <glyph glyph-name="f_i" unicode="fi" horiz-adv-x="586" 
d="M349 429h-147v-361q0 -25 19 -37.5t62 -16.5v-14h-244v14q29 5 41.5 17t12.5 37v361h-75v25h75v15q0 68 32 116.5t85 73t116 24.5q45 0 84 -8.5t57 -21.5l-22 -110h-12q-5 51 -38.5 83t-79.5 32q-54 0 -83.5 -47t-29.5 -114v-43h203l102 15v-401q0 -25 12.5 -37t41.5 -17
v-14h-218v14q30 4 42.5 16.5t12.5 37.5v308q0 53 -49 53z" />
    <glyph glyph-name="f_l" unicode="fl" horiz-adv-x="584" 
d="M358 643.5q-24 15.5 -49 15.5q-52 0 -79.5 -46.5t-27.5 -114.5v-44h99v-25h-99v-361q0 -25 19 -37.5t62 -16.5v-14h-244v14q29 5 41.5 17t12.5 37v361h-75v25h75v16q0 68 29 116t79 72.5t110 24.5q54 0 102 -21l94 35v-629q0 -25 12.5 -37t41.5 -17v-14h-218v14
q30 4 42.5 16.5t12.5 37.5v534q-16 26 -40 41.5z" />
    <glyph glyph-name=".notdef" horiz-adv-x="1095" 
d="M112.5 554q64.5 113 175.5 182t242 74v-1000q-132 4 -242.5 72.5t-175 181.5t-64.5 245t64.5 245zM566 806q41 -14 75 -84.5t54 -179.5t20 -233t-20 -232.5t-54 -179t-75 -84.5v993zM722.5 23.5q29.5 128.5 29.5 285.5t-29.5 286t-80.5 196q71 -30 127.5 -101.5
t88.5 -171t32 -209.5q0 -111 -31.5 -210t-88 -169.5t-128.5 -100.5q51 66 80.5 194.5zM877.5 45q49.5 122 49.5 264q0 141 -49.5 264t-133.5 196q90 -38 159 -108t107 -161t38 -191t-38 -191t-107 -160.5t-159 -107.5q84 73 133.5 195z" />
    <glyph glyph-name=".null" horiz-adv-x="0" 
 />
    <glyph glyph-name="nonmarkingreturn" unicode="&#xd;" horiz-adv-x="600" 
 />
    <glyph glyph-name="space" unicode=" " horiz-adv-x="155" 
 />
    <glyph glyph-name="exclam" unicode="!" horiz-adv-x="273" 
d="M110 329q-19 97 -29.5 170t-10.5 169h133q0 -95 -10 -169t-29 -167q-17 -87 -20 -117h-14q-3 29 -20 114zM80.5 114.5q22.5 21.5 56.5 21.5t56.5 -21.5t22.5 -53.5q0 -33 -22.5 -54.5t-56.5 -21.5t-56.5 21.5t-22.5 54.5q0 32 22.5 53.5z" />
    <glyph glyph-name="quotedbl" unicode="&#x22;" horiz-adv-x="357" 
d="M71 547q-15 52 -23 95.5t-8 104.5h110q0 -60 -8 -104.5t-24 -95.5q-14 -47 -20 -82h-7q-6 35 -20 82zM239 547q-15 52 -23 95.5t-8 104.5h110q0 -60 -8 -104.5t-24 -95.5q-14 -47 -20 -82h-7q-6 35 -20 82z" />
    <glyph glyph-name="numbersign" unicode="#" horiz-adv-x="750" 
d="M379 728l-71 -251h209l71 251h29l-71 -251h167v-28h-174l-59 -207h163v-28h-170l-71 -251h-29l71 251h-209l-71 -251h-30l71 251h-167v28h174l59 207h-163v28h170l71 251h30zM451 242l59 207h-209l-59 -207h209z" />
    <glyph glyph-name="dollar" unicode="$" horiz-adv-x="644" 
d="M331 810v-128q100 -4 159 -53t60 -130h-118q5 23 5 40q0 48 -28.5 79t-77.5 35v-243l25 -9q71 -25 114.5 -47t74.5 -62.5t31 -104.5q0 -93 -66.5 -146.5t-178.5 -54.5v-135h-27v136q-103 5 -164 56.5t-62 135.5h118q-5 -22 -5 -38q0 -49 30.5 -83.5t82.5 -41.5v270
q-77 28 -117 48t-70.5 58.5t-30.5 101.5q0 84 58 134t160 54v128h27zM218 471.5q30 -28.5 86 -50.5v233q-54 -3 -85 -32.5t-31 -75.5t30 -74.5zM429.5 48.5q36.5 33.5 36.5 86.5q0 55 -35 86t-100 56v-263q62 1 98.5 34.5z" />
    <glyph glyph-name="percent" unicode="%" horiz-adv-x="778" 
d="M188 1l376 668h28l-376 -668h-28zM81.5 632.5q44.5 51.5 116.5 51.5q73 0 117.5 -51.5t44.5 -137.5q0 -55 -20.5 -98.5t-57 -68t-83.5 -24.5t-84 24t-57.5 67.5t-20.5 99.5q0 86 44.5 137.5zM152 368q16 -44 47 -44q30 0 46 44t16 127q0 169 -62 169q-63 0 -63 -169
q0 -83 16 -127zM462.5 314.5q44.5 51.5 116.5 51.5q73 0 117.5 -51.5t44.5 -137.5q0 -55 -20.5 -98.5t-57 -68t-83.5 -24.5t-84 24t-57.5 67.5t-20.5 99.5q0 86 44.5 137.5zM533 50q16 -44 47 -44q30 0 46 44t16 127q0 169 -62 169q-63 0 -63 -169q0 -83 16 -127z" />
    <glyph glyph-name="ampersand" unicode="&#x26;" horiz-adv-x="782" 
d="M225 349q-34 -30 -52 -68.5t-18 -78.5q0 -48 21 -88t60 -63.5t92 -23.5q38 0 74.5 15t64.5 42l-219 240zM90 292q42 49 119 74q-45 48 -66.5 84.5t-21.5 80.5q0 71 50 111.5t137 40.5q82 0 130 -39t48 -103q0 -53 -38 -94t-112 -60l15 -16l188 -202q25 53 25 119
q0 45 -12 87h120q-4 -65 -33 -125.5t-76 -106.5l56 -60q27 -30 55.5 -48.5t69.5 -20.5v-14h-201l-53 58q-85 -73 -221 -73q-69 0 -119 24.5t-76 67t-26 96.5q0 70 42 119zM239.5 503q20.5 -32 79.5 -96q38 20 59.5 56t21.5 79q0 51 -26 82.5t-67 31.5t-64.5 -24t-23.5 -62
q0 -35 20.5 -67z" />
    <glyph glyph-name="quotesingle" unicode="'" horiz-adv-x="190" 
d="M71 547q-15 52 -23 95.5t-8 104.5h110q0 -60 -8 -104.5t-24 -95.5q-14 -47 -20 -82h-7q-6 35 -20 82z" />
    <glyph glyph-name="parenleft" unicode="(" horiz-adv-x="322" 
d="M197 -56.5q-61 66.5 -95 152t-34 176.5q0 90 33.5 175t94.5 152t141 104l8 -15q-74 -61 -119.5 -175.5t-45.5 -240.5q0 -127 45.5 -241.5t119.5 -175.5l-8 -15q-79 37 -140 103.5z" />
    <glyph glyph-name="parenright" unicode=")" horiz-adv-x="322" 
d="M96.5 30.5q45.5 114.5 45.5 241.5q0 126 -45.5 240.5t-119.5 175.5l8 15q80 -37 141 -104t94.5 -152t33.5 -175q0 -91 -34 -176.5t-95 -152t-140 -103.5l-8 15q74 61 119.5 175.5z" />
    <glyph glyph-name="asterisk" unicode="*" horiz-adv-x="392" 
d="M88 614.5q19 -11.5 46 -30.5q5 -3 21 -14t32 -18q-2 24 -13 61q-18 55 -20 103h79q-2 -46 -20 -103q-12 -42 -14 -62q14 6 30.5 17t21.5 15q46 35 93 53l25 -75q-27 -9 -49 -11t-58 -3q-6 0 -25 -1t-34 -4q15 -17 48 -41q25 -19 42.5 -34.5t34.5 -37.5l-64 -46
q-15 23 -24.5 44t-19.5 50q-16 43 -27 61q-11 -18 -27 -61q-12 -33 -20 -52t-23 -42l-64 46q17 22 34.5 37.5t42.5 34.5q33 24 48 41q-15 3 -34 4t-25 1q-36 1 -58.5 3.5t-49.5 10.5l26 75q26 -10 45 -21.5z" />
    <glyph glyph-name="plus" unicode="+" horiz-adv-x="506" 
d="M269 543v-193h192v-31h-192v-192h-32v192h-192v31h192v193h32z" />
    <glyph glyph-name="comma" unicode="," horiz-adv-x="270" 
d="M126.5 -79.5q27.5 31.5 28.5 68.5q-11 -4 -25 -4q-32 0 -53.5 22t-21.5 55q1 32 23 53t56 21q39 0 61 -26.5t22 -70.5q0 -74 -41 -119.5t-112 -59.5l-3 10q38 19 65.5 50.5z" />
    <glyph glyph-name="hyphen" unicode="-" horiz-adv-x="330" 
d="M295 258h-260v30h260v-30z" />
    <glyph glyph-name="period" unicode="." horiz-adv-x="268" 
d="M77.5 6.5q-22.5 21.5 -22.5 54.5q0 32 22.5 53.5t56.5 21.5t56.5 -21.5t22.5 -53.5q0 -33 -22.5 -54.5t-56.5 -21.5t-56.5 21.5z" />
    <glyph glyph-name="slash" unicode="/" horiz-adv-x="381" 
d="M314 686h30l-276 -731h-30z" />
    <glyph glyph-name="zero" unicode="0" horiz-adv-x="644" 
d="M181 29q-62 44 -96.5 123.5t-34.5 181.5t34.5 181.5t96.5 123.5t142 44t141.5 -44t95.5 -123.5t34 -181.5t-34 -181.5t-95.5 -123.5t-141.5 -44t-142 44zM213.5 95q38.5 -83 109.5 -83t108.5 83t37.5 239t-37.5 239t-108.5 83t-109.5 -83t-38.5 -239t38.5 -239z" />
    <glyph glyph-name="one" unicode="1" horiz-adv-x="370" 
d="M122.5 33q22.5 14 23.5 52v475h-107v14q74 20 123 44t89 65h13v-598q0 -37 20 -51.5t69 -19.5v-14h-315v14q62 5 84.5 19z" />
    <glyph glyph-name="two" unicode="2" horiz-adv-x="603" 
d="M43 14l55 58l19 20q99 101 154 164t90.5 130t35.5 133q0 62 -30.5 99.5t-82.5 37.5q-47 0 -76.5 -36t-29.5 -96q0 -36 14 -83h-132q-1 10 -1 29q0 72 31.5 119.5t83 70.5t113.5 23q68 0 121.5 -25t83.5 -70t30 -103q0 -72 -47.5 -135t-115 -112t-189.5 -126h219
q46 0 73.5 9t45.5 31.5t29 65.5h14l-29 -218h-479v14z" />
    <glyph glyph-name="three" unicode="3" horiz-adv-x="590" 
d="M168 8.5q-56 22.5 -89.5 68t-29.5 111.5h118q-5 -22 -5 -39q0 -57 35.5 -96t91.5 -39q58 0 95 41.5t37 112.5t-40 115t-114 44q-28 0 -52 -5l-2 16l200 218h-128q-59 0 -96.5 -10.5t-60.5 -36.5t-35 -75h-14l26 247q68 -13 174 -13h272v-14l-280 -297q43 13 83 13
q58 0 101.5 -25.5t67 -67t23.5 -87.5q0 -58 -33 -104.5t-92 -73t-133 -26.5q-64 0 -120 22.5z" />
    <glyph glyph-name="four" unicode="4" horiz-adv-x="598" 
d="M305 40.5q27 20.5 27 72.5v53h-317v14l343 495h92v-429h116v-80h-116v-53q0 -54 19.5 -74t69.5 -25v-14h-318v14q57 6 84 26.5zM332 246v342l-237 -342h237z" />
    <glyph glyph-name="five" unicode="5" horiz-adv-x="554" 
d="M136 668h350v-112h-344l-36 -172q74 30 153 30q69 0 126.5 -24.5t91.5 -74t34 -121.5q0 -63 -31.5 -110t-87 -72.5t-127.5 -25.5q-104 0 -167 51t-59 151h120q-6 -28 -6 -52q0 -57 30.5 -89.5t81.5 -32.5q56 0 88.5 38.5t32.5 107.5q0 80 -54 126t-153 46q-43 0 -101 -11
l-12 10z" />
    <glyph glyph-name="six" unicode="6" horiz-adv-x="624" 
d="M119.5 75.5q-71.5 90.5 -71.5 249.5q0 123 42.5 203.5t110 117.5t145.5 37q83 0 149 -43.5t71 -142.5h-127q1 9 1 25q0 61 -29.5 97.5t-76.5 36.5q-44 0 -80.5 -36t-58 -105t-21.5 -164v-22q43 100 172 100q66 0 116 -28t77 -77.5t27 -111.5q0 -68 -32.5 -119.5
t-88.5 -79.5t-126 -28q-128 0 -199.5 90.5zM217 67.5q37 -55.5 97 -55.5q58 0 93 52.5t35 138.5q0 87 -35.5 135.5t-96.5 48.5t-95.5 -46.5t-34.5 -131.5q0 -86 37 -141.5z" />
    <glyph glyph-name="seven" unicode="7" horiz-adv-x="526" 
d="M351 376.5q-53 -139.5 -53 -307.5q0 -21 2 -69h-132q-1 15 -1 43q0 109 32.5 198.5t87.5 163.5t136 151h-184q-59 0 -96.5 -10.5t-60.5 -36.5t-35 -75h-14l26 247q68 -13 174 -13h286v-14q-115 -138 -168 -277.5z" />
    <glyph glyph-name="eight" unicode="8" horiz-adv-x="604" 
d="M170.5 5.5q-57.5 20.5 -90 59t-32.5 89.5q0 56 39.5 100t112.5 66q-62 29 -97 71t-35 111q0 54 29.5 95t83.5 63.5t124 22.5q67 0 120 -20.5t82.5 -57t29.5 -81.5q0 -50 -35.5 -87t-103.5 -60q75 -31 117 -75.5t42 -125.5q0 -55 -29.5 -98t-87 -68t-139.5 -25
q-73 0 -130.5 20.5zM192.5 55q43.5 -43 111.5 -43q61 0 100.5 34t39.5 87q0 43 -22.5 71t-55.5 45t-91 40l-47 19q-79 -49 -79 -138q0 -72 43.5 -115zM202.5 477.5q21.5 -27.5 54 -44t88.5 -37.5l25 -9q70 49 70 129q0 66 -37 103.5t-99 37.5q-55 0 -89 -31t-34 -79
q0 -42 21.5 -69.5z" />
    <glyph glyph-name="nine" unicode="9" horiz-adv-x="624" 
d="M504.5 592.5q71.5 -90.5 71.5 -249.5q0 -123 -42.5 -203.5t-110 -117.5t-145.5 -37q-83 0 -149 43.5t-71 142.5h127q-1 -9 -1 -25q0 -61 29.5 -97.5t76.5 -36.5q44 0 80.5 36t58 105t21.5 164v22q-43 -100 -172 -100q-66 0 -116 28t-77 77.5t-27 111.5q0 68 32.5 119.5
t88.5 79.5t126 28q128 0 199.5 -90.5zM217.5 329.5q35.5 -48.5 96.5 -48.5t95.5 46.5t34.5 131.5q0 86 -37 141.5t-97 55.5q-58 0 -93 -52.5t-35 -138.5q0 -87 35.5 -135.5z" />
    <glyph glyph-name="colon" unicode=":" horiz-adv-x="268" 
d="M77.5 338.5q-22.5 21.5 -22.5 54.5q0 32 22.5 53.5t56.5 21.5t56.5 -21.5t22.5 -53.5q0 -33 -22.5 -54.5t-56.5 -21.5t-56.5 21.5zM77.5 6.5q-22.5 21.5 -22.5 54.5q0 32 22.5 53.5t56.5 21.5t56.5 -21.5t22.5 -53.5q0 -33 -22.5 -54.5t-56.5 -21.5t-56.5 21.5z" />
    <glyph glyph-name="semicolon" unicode=";" horiz-adv-x="279" 
d="M133.5 -79.5q27.5 31.5 28.5 68.5q-11 -4 -25 -4q-32 0 -53.5 22t-21.5 55q1 32 23 53t56 21q39 0 61 -26.5t22 -70.5q0 -74 -41 -119.5t-112 -59.5l-3 10q38 19 65.5 50.5zM77.5 339.5q-22.5 21.5 -22.5 54.5q0 32 22.5 53.5t56.5 21.5t56.5 -21.5t22.5 -53.5
q0 -33 -22.5 -54.5t-56.5 -21.5t-56.5 21.5z" />
    <glyph glyph-name="less" unicode="&#x3c;" horiz-adv-x="496" 
d="M40 350l402 191l13 -28l-375 -178l376 -179l-14 -28l-402 192v30z" />
    <glyph glyph-name="equal" unicode="=" horiz-adv-x="496" 
d="M40 451h416v-31h-416v31zM40 250h416v-31h-416v31z" />
    <glyph glyph-name="greater" unicode="&#x3e;" horiz-adv-x="496" 
d="M416 335l-375 178l13 28l402 -191v-30l-402 -192l-14 28z" />
    <glyph glyph-name="question" unicode="?" horiz-adv-x="497" 
d="M409 643.5q60 -38.5 60 -106.5q0 -40 -18 -72t-43.5 -54.5t-67.5 -52.5q-54 -39 -79.5 -66.5t-25.5 -65.5q0 -10 1 -16h-14q-23 49 -23 86q0 36 17.5 62.5t51.5 59.5q38 38 57 68t19 73t-26.5 69.5t-71.5 26.5q-48 0 -74 -31t-26 -83q0 -32 11 -71h-127q-2 22 -2 31
q0 84 56.5 132.5t156.5 48.5q108 0 168 -38.5zM175.5 114.5q22.5 21.5 56.5 21.5t56.5 -21.5t22.5 -53.5q0 -33 -22.5 -54.5t-56.5 -21.5t-56.5 21.5t-22.5 54.5q0 32 22.5 53.5z" />
    <glyph glyph-name="at" unicode="@" horiz-adv-x="978" 
d="M257.5 -132.5q-98.5 48.5 -154 137t-55.5 205.5q0 130 66 233t179.5 161t250.5 58q116 0 203.5 -37.5t135.5 -107t48 -161.5q0 -82 -32 -153t-90 -114t-131 -43q-61 0 -90.5 31.5t-30.5 78.5q-21 -49 -60 -79.5t-87 -30.5q-59 0 -91.5 42.5t-32.5 108.5q0 10 2 32
q6 66 40 121t84 86.5t104 31.5q69 0 107 -38l85 38l-57 -275q-8 -35 -8 -61q0 -61 45 -61q37 0 68 40.5t48.5 105t17.5 133.5q0 85 -33.5 149.5t-96.5 100t-149 35.5q-108 0 -196 -58t-138.5 -156t-50.5 -213q0 -103 42.5 -182.5t122.5 -123.5t188 -44q67 0 134.5 19
t121.5 54l7 -10q-51 -43 -127 -72.5t-165 -29.5q-126 0 -224.5 48.5zM388 199q0 -44 18 -68.5t48 -24.5q33 0 64.5 30t46.5 98l14 63q6 27 6 54q0 41 -15 67.5t-46 26.5q-34 0 -63 -31t-47.5 -80t-23.5 -101q-2 -12 -2 -34z" />
    <glyph glyph-name="A" unicode="A" horiz-adv-x="729" 
d="M659 44.5q27 -26.5 73 -30.5v-14h-295v14q60 1 60 48q0 21 -11 48l-45 108h-254l-43 -101q-15 -35 -15 -57t16 -33.5t54 -12.5v-14h-202v14q45 3 71 28.5t49 80.5l237 560h14l241 -558q23 -54 50 -80.5zM429 246l-115 274l-116 -274h231z" />
    <glyph glyph-name="B" unicode="B" horiz-adv-x="683" 
d="M106 33.5q20 14.5 20 51.5v499q0 37 -20.5 51.5t-67.5 18.5v14h305q118 0 185 -43t67 -118q0 -66 -51.5 -107.5t-141.5 -49.5q112 -5 173 -49.5t61 -120.5q0 -86 -64 -133t-180 -47h-354v14q48 5 68 19.5zM320 28h45q68 0 107 41t39 111q0 71 -43 112t-117 41h-107v-251
q0 -54 76 -54zM334 361q64 0 100 39t36 107q0 62 -39.5 97.5t-108.5 35.5h-78v-279h90z" />
    <glyph glyph-name="C" unicode="C" horiz-adv-x="681" 
d="M509.5 610.5q-50.5 44.5 -122.5 44.5q-64 0 -112 -36.5t-74.5 -103.5t-26.5 -157q0 -82 31.5 -147t87.5 -101.5t127 -36.5q73 0 129 40.5t80 112.5l14 -3q-13 -73 -51.5 -127t-95 -82.5t-123.5 -28.5q-95 0 -169 45.5t-115 125.5t-41 182q0 101 43 179.5t119 122
t171 43.5q61 0 121.5 -14.5t105.5 -40.5l-21 -146h-14q-13 84 -63.5 128.5z" />
    <glyph glyph-name="D" unicode="D" horiz-adv-x="751" 
d="M106 33.5q20 14.5 20 51.5v499q0 37 -20.5 51.5t-67.5 18.5v14h297q109 0 192.5 -41.5t129.5 -117.5t46 -174q0 -100 -44 -175.5t-124 -117.5t-185 -42h-312v14q48 5 68 19.5zM260 40.5q16 -12.5 58 -12.5h32q69 0 120.5 38.5t79.5 108t28 160.5q0 90 -32 159.5
t-91 107.5t-137 38h-74v-558q0 -29 16 -41.5z" />
    <glyph glyph-name="E" unicode="E" horiz-adv-x="665" 
d="M598 181l-27 -192q-63 11 -141 11h-392v14q44 4 66 22.5t22 58.5v479q0 40 -22 58t-66 22v14h381q78 0 141 11l27 -191h-14q-20 75 -63 113.5t-124 38.5h-142v-283h135q51 0 73.5 23.5t24.5 74.5h14v-224h-14q-2 50 -25 74t-73 24h-135v-234q0 -35 13 -51t41 -16h99
q81 0 124 39t63 114h14z" />
    <glyph glyph-name="F" unicode="F" horiz-adv-x="641" 
d="M586 488h-14q-19 74 -62.5 113t-124.5 39h-141v-284h135q50 0 73 24t25 74h14v-223h-14q-2 50 -25 74.5t-73 24.5h-135v-240q0 -29 10.5 -44t35.5 -22t73 -10v-14h-325v14q48 5 68 19.5t20 51.5v499q0 37 -20.5 51.5t-67.5 18.5v14h381q78 0 141 11z" />
    <glyph glyph-name="G" unicode="G" horiz-adv-x="745" 
d="M206 31q-76 45 -117 123.5t-41 176.5q0 101 46.5 181t126.5 125.5t179 45.5q62 0 127.5 -14.5t110.5 -40.5l-21 -146h-14q-12 82 -65.5 127.5t-129.5 45.5q-70 0 -123 -39t-82.5 -110t-29.5 -166q0 -96 30.5 -170t85 -114.5t125.5 -40.5q38 0 69.5 10t50.5 30v180
q0 41 -21.5 63t-73.5 25v14h294v-14q-41 -3 -61 -26t-20 -62v-123q-38 -57 -109 -91.5t-158 -34.5q-103 0 -179 45z" />
    <glyph glyph-name="H" unicode="H" horiz-adv-x="810" 
d="M545.5 36q20.5 17 20.5 59v234h-322v-234q0 -42 20.5 -59t68.5 -22v-14h-295v14q47 5 67.5 22t20.5 59v479q0 42 -20.5 59t-67.5 21v14h295v-14q-47 -4 -68 -21t-21 -59v-217h322v217q0 42 -20.5 59t-67.5 21v14h295v-14q-47 -4 -68 -21t-21 -59v-479q0 -42 20.5 -59
t68.5 -22v-14h-295v14q47 5 67.5 22z" />
    <glyph glyph-name="I" unicode="I" horiz-adv-x="380" 
d="M110.5 36q20.5 17 20.5 59v479q0 42 -20.5 59t-67.5 21v14h295v-14q-47 -4 -68 -21t-21 -59v-479q0 -42 20.5 -59t68.5 -22v-14h-295v14q47 5 67.5 22z" />
    <glyph glyph-name="J" unicode="J" horiz-adv-x="562" 
d="M466.5 636q-19.5 -16 -19.5 -57v-396q0 -95 -57.5 -146.5t-159.5 -51.5q-97 0 -155.5 52t-56.5 144h124q-5 -24 -5 -52q0 -55 26 -85t71 -30t70 34t25 100v431q0 41 -19.5 57t-69.5 18v14h295v-14q-49 -2 -68.5 -18z" />
    <glyph glyph-name="K" unicode="K" horiz-adv-x="743" 
d="M664 40q35 -23 67 -26v-14h-219q-5 24 -21.5 50t-45.5 60l-201 223v-238q0 -42 20.5 -59t68.5 -22v-14h-295v14q47 5 67.5 22t20.5 59v479q0 42 -20.5 59t-67.5 21v14h295v-14q-47 -4 -68 -21t-21 -59v-225l278 246q25 23 25 36q0 23 -65 23v14h206v-14q-62 -3 -135 -68
l-211 -189l260 -302q27 -32 62 -55z" />
    <glyph glyph-name="L" unicode="L" horiz-adv-x="628" 
d="M600 181l-26 -192q-63 11 -141 11h-395v14q49 5 68.5 20.5t19.5 50.5v499q0 34 -19.5 49.5t-68.5 20.5v14h295v-14q-50 -5 -69.5 -20.5t-19.5 -49.5v-499q0 -57 49 -57h106q81 0 124.5 39t62.5 114h14z" />
    <glyph glyph-name="M" unicode="M" horiz-adv-x="947" 
d="M840.5 631.5q-21.5 -20.5 -21.5 -66.5v-485q0 -31 20 -45.5t70 -20.5v-14h-297v14q50 6 69.5 21t19.5 45v471l-264 -566h-14l-267 566v-471q0 -32 20 -46t69 -20v-14h-207v14q49 6 69.5 20t20.5 46v485q0 46 -21.5 66.5t-68.5 22.5v14h193l248 -527l246 527h184v-14
q-47 -2 -68.5 -22.5z" />
    <glyph glyph-name="N" unicode="N" horiz-adv-x="742" 
d="M709 668v-14q-40 -2 -59.5 -17.5t-19.5 -56.5v-595h-14l-451 578v-473q0 -41 25.5 -56t83.5 -19v-15h-217v14q42 5 61 20t19 56v479q0 41 -25 60.5t-74 24.5v14h196l368 -471v383q0 41 -26.5 56.5t-83.5 17.5v14h217z" />
    <glyph glyph-name="O" unicode="O" horiz-adv-x="787" 
d="M214.5 29.5q-78.5 44.5 -122.5 124t-44 181.5q0 101 44 180.5t122.5 123.5t179.5 44q100 0 178.5 -44t122.5 -123.5t44 -180.5q0 -102 -44 -181.5t-122.5 -124t-178.5 -44.5q-101 0 -179.5 44.5zM199.5 162.5q26.5 -72.5 76.5 -111t118 -38.5t117.5 38.5t76 111
t26.5 172.5q0 99 -26.5 171t-76 110.5t-117.5 38.5t-118 -38.5t-76.5 -110.5t-26.5 -171q0 -100 26.5 -172.5z" />
    <glyph glyph-name="P" unicode="P" horiz-adv-x="655" 
d="M105.5 36q20.5 17 20.5 59v479q0 41 -21 58.5t-67 21.5v14h311q127 0 198 -47.5t71 -140.5t-71 -141.5t-198 -48.5h-105v-195q0 -43 23.5 -59.5t85.5 -21.5v-14h-315v14q47 5 67.5 22zM323 318q83 0 126.5 43.5t43.5 118.5q0 74 -44 117t-126 43h-79v-322h79z" />
    <glyph glyph-name="Q" unicode="Q" horiz-adv-x="787" 
d="M387 -15q30 -52 83.5 -80.5t114.5 -28.5q10 0 28 2l-23 -105q-91 1 -148 58.5t-80 154.5q-93 7 -164 53t-110.5 123t-39.5 173q0 101 44 180.5t122.5 123.5t179.5 44q100 0 178.5 -44t122.5 -123.5t44 -180.5q0 -102 -44 -181.5t-122.5 -124t-178.5 -44.5h-7z
M199.5 162.5q26.5 -72.5 76.5 -111t118 -38.5t117.5 38.5t76 111t26.5 172.5q0 99 -26.5 171t-76 110.5t-117.5 38.5t-118 -38.5t-76.5 -110.5t-26.5 -171q0 -100 26.5 -172.5z" />
    <glyph glyph-name="R" unicode="R" horiz-adv-x="726" 
d="M430 96l-185 230l-1 -241q0 -37 20 -51.5t69 -19.5v-14h-295v14q48 5 68 19.5t20 51.5v499q0 37 -20.5 51.5t-67.5 18.5v14h301q134 0 206.5 -43t72.5 -135q0 -159 -223 -175l171 -213q34 -42 66.5 -62.5t75.5 -25.5v-14h-222q-4 28 -56 96zM328 341q79 0 122 40.5
t43 108.5q0 69 -42.5 109.5t-122.5 40.5h-82l-1 -299h83z" />
    <glyph glyph-name="S" unicode="S" horiz-adv-x="637" 
d="M196.5 68q55.5 -54 128.5 -54q60 0 97 32.5t37 85.5q0 46 -23.5 75.5t-58 46.5t-93.5 37q-66 23 -107 44.5t-69.5 61t-28.5 101.5q0 54 27.5 95.5t79 65t120.5 23.5q58 0 116.5 -13.5t108.5 -39.5l-21 -146h-14q-20 88 -72.5 129.5t-121.5 41.5q-51 0 -86 -30t-35 -78
q0 -39 22.5 -65.5t55.5 -42.5t92 -37q70 -25 113.5 -47.5t74 -64t30.5 -106.5q0 -59 -31 -104t-87 -69t-130 -24q-73 0 -137.5 19.5t-105.5 54.5l21 158h14q28 -96 83.5 -150z" />
    <glyph glyph-name="T" unicode="T" horiz-adv-x="666" 
d="M411 36q19 -17 70 -22v-14h-295v14q50 5 69 22t19 59v545h-45q-81 0 -124.5 -39t-62.5 -113h-14l26 191q63 -11 141 -11h276q78 0 141 11l27 -191h-14q-20 75 -63 113.5t-124 38.5h-46v-545q0 -42 19 -59z" />
    <glyph glyph-name="U" unicode="U" horiz-adv-x="754" 
d="M727 668v-14q-48 -4 -68.5 -18.5t-20.5 -51.5v-332q0 -131 -63.5 -198.5t-187.5 -67.5q-130 0 -200.5 67.5t-70.5 195.5v335q0 37 -20.5 51.5t-67.5 18.5v14h295v-14q-48 -4 -68.5 -18.5t-20.5 -51.5v-330q0 -104 52.5 -160t143.5 -56q86 0 133 55.5t47 160.5v330
q0 37 -20.5 51.5t-67.5 18.5v14h205z" />
    <glyph glyph-name="V" unicode="V" horiz-adv-x="709" 
d="M60 623.5q-27 26.5 -73 30.5v14h295v-14q-60 -1 -60 -48q0 -21 11 -48l172 -410l170 403q15 35 15 57t-16 33.5t-54 12.5v14h202v-14q-45 -3 -71 -28.5t-49 -80.5l-237 -560h-14l-241 558q-23 54 -50 80.5z" />
    <glyph glyph-name="W" unicode="W" horiz-adv-x="1037" 
d="M441.5 622q-24.5 28 -67.5 32v14h279v-14q-58 -1 -58 -49q0 -20 10 -47l145 -396l146 389q14 40 14 57q0 45 -68 46v14h198v-14q-47 -3 -72 -29t-45 -80l-212 -560h-14l-182 478l-181 -478h-14l-212 558q-19 51 -43.5 79t-67.5 32v14h280v-14q-58 -1 -58 -49
q0 -20 10 -47l145 -394l126 339l-15 40q-19 51 -43.5 79z" />
    <glyph glyph-name="X" unicode="X" horiz-adv-x="749" 
d="M504 45q0 18 -17 42l-154 220l-156 -214q-21 -28 -21 -47q0 -31 71 -32v-14h-214v14q41 1 70.5 20t64.5 67l168 231l-174 250q-27 40 -50 55.5t-56 16.5v14h290v-14q-60 -2 -60 -29q0 -14 19 -43l121 -175l120 165q23 32 23 50q0 16 -17 23.5t-53 8.5v14h209v-14
q-39 -1 -66.5 -19t-60.5 -63l-138 -189l207 -298q26 -38 51 -54t56 -17v-14h-291v14q58 1 58 31z" />
    <glyph glyph-name="Y" unicode="Y" horiz-adv-x="641" 
d="M227.5 33.5q19.5 14.5 19.5 51.5v203l-173 284q-49 79 -97 82v14h291v-14q-35 -1 -52.5 -11.5t-17.5 -28.5t15 -42l143 -240l148 240q19 31 19 49q0 17 -16.5 24.5t-52.5 8.5v14h210v-14q-40 -1 -70.5 -21t-56.5 -61l-172 -278v-209q0 -37 19 -51.5t65 -19.5v-14h-287v14
q46 5 65.5 19.5z" />
    <glyph glyph-name="Z" unicode="Z" horiz-adv-x="653" 
d="M431 0h-383v14l402 626h-176q-81 0 -124.5 -39t-62.5 -113h-14l26 191q63 -11 141 -11h358v-14l-402 -626h202q81 0 124 39t63 114h14l-27 -192q-63 11 -141 11z" />
    <glyph glyph-name="bracketleft" unicode="[" horiz-adv-x="329" 
d="M103 757h204v-20h-101v-886h101v-20h-204v926z" />
    <glyph glyph-name="backslash" unicode="\" horiz-adv-x="381" 
d="M313 -45l-276 731h30l276 -731h-30z" />
    <glyph glyph-name="bracketright" unicode="]" horiz-adv-x="329" 
d="M22 -169v20h101v886h-101v20h204v-926h-204z" />
    <glyph glyph-name="asciicircum" unicode="^" horiz-adv-x="437" 
d="M360 443l-141 214l-141 -214h-38l171 254h18l168 -254h-37z" />
    <glyph glyph-name="underscore" unicode="_" horiz-adv-x="414" 
d="M379 -47h-344v32h344v-32z" />
    <glyph glyph-name="grave" unicode="`" horiz-adv-x="398" 
d="M97 701h147l54 -167h-14z" />
    <glyph glyph-name="a" unicode="a" horiz-adv-x="499" 
d="M80.5 19q-37.5 34 -37.5 87q0 46 21 73.5t51.5 41t79.5 27.5q42 12 66.5 22t41 29t16.5 49q0 43 -24 69.5t-62 26.5q-39 0 -61.5 -27.5t-22.5 -69.5q0 -19 7 -45h-113q2 74 57 120.5t144 46.5q86 0 135 -43.5t49 -119.5v-212q0 -25 11.5 -38t37.5 -15l12 -1v-14l-166 -43
v119q-34 -117 -146 -117q-59 0 -96.5 34zM175.5 68q20.5 -23 52.5 -23q37 0 64 30t27 83v128q-9 -19 -27 -30t-46 -21q-30 -11 -48 -22t-30.5 -31.5t-12.5 -55.5t20.5 -58z" />
    <glyph glyph-name="b" unicode="b" horiz-adv-x="543" 
d="M457.5 404.5q51.5 -64.5 51.5 -172.5q0 -80 -30 -135.5t-80 -83.5t-110 -28q-34 0 -67 10t-55 29l-99 -39v604q0 25 -11 38t-37 15l-12 1v14l169 44v-343q16 54 53 82.5t89 28.5q87 0 138.5 -64.5zM204.5 50q27.5 -40 75.5 -40q57 0 85 54.5t28 144.5q0 91 -30 143.5
t-81 52.5q-45 0 -75 -34.5t-30 -102.5v-114q0 -64 27.5 -104z" />
    <glyph glyph-name="c" unicode="c" horiz-adv-x="474" 
d="M357.5 410q-33.5 34 -79.5 34q-39 0 -69.5 -25.5t-47 -69t-16.5 -95.5q0 -56 20.5 -100.5t56.5 -69.5t81 -25t80 24.5t54 65.5l11 -3q-13 -74 -63.5 -117t-129.5 -43q-64 0 -115.5 30.5t-81 85.5t-29.5 125t31.5 125t87.5 86t127 31q39 0 78.5 -8.5t68.5 -23.5l-9 -120
h-14q-8 59 -41.5 93z" />
    <glyph glyph-name="d" unicode="d" horiz-adv-x="545" 
d="M121 13.5q-43 29.5 -66.5 83t-23.5 124.5q0 80 30 135.5t80.5 83.5t110.5 28q31 0 60 -9.5t51 -29.5v160q0 25 -11 38t-37 15l-12 1v14l169 44v-606q0 -25 11.5 -38t37.5 -16l12 -1v-14l-166 -43v126q-14 -61 -52 -93t-94 -32q-57 0 -100 29.5zM177.5 100.5
q30.5 -52.5 81.5 -52.5q45 0 74 34t30 103v114q0 65 -27.5 104.5t-75.5 39.5q-56 0 -84.5 -54.5t-28.5 -144.5q0 -91 30.5 -143.5z" />
    <glyph glyph-name="e" unicode="e" horiz-adv-x="487" 
d="M59.5 353q30.5 56 85 85.5t124.5 29.5q84 0 132.5 -43.5t48.5 -121.5q0 -10 -2 -32h-309q-2 -98 41.5 -154.5t119.5 -56.5q48 0 83.5 25.5t53.5 64.5l11 -3q-14 -75 -67 -118t-133 -43q-65 0 -114.5 29.5t-77 83t-27.5 122.5q0 76 30.5 132zM337 296q2 22 2 32
q0 53 -24.5 84t-64.5 31q-46 0 -75 -41t-35 -106h197z" />
    <glyph glyph-name="f" unicode="f" horiz-adv-x="327" 
d="M328 429h-126v-361q0 -25 19 -37.5t61 -16.5v-14h-244v14q30 4 42.5 16.5t12.5 37.5v361h-75v25h75v40q0 94 56 141.5t142 47.5q27 0 54 -5t45 -16l-22 -111h-12q-5 50 -27 78.5t-54 28.5q-37 0 -55 -38.5t-18 -97.5v-68h126v-25z" />
    <glyph glyph-name="g" unicode="g" horiz-adv-x="511" 
d="M81 -183q-65 29 -65 82q0 63 103 92q-30 15 -44 39t-14 53q0 30 16 55t43 41q-37 21 -57 55t-20 76q0 71 55 115t146 44q62 0 107 -21l40 9q53 15 89 15v-43h-95q30 -21 45.5 -51.5t15.5 -67.5q0 -72 -55.5 -116t-146.5 -44q-63 0 -108 21q-14 -19 -14 -37q0 -22 20 -35
t57 -15l121 -9q172 -14 172 -128q0 -72 -64.5 -115.5t-180.5 -43.5q-101 0 -166 29zM151.5 -158.5q41.5 -27.5 115.5 -27.5q68 0 108.5 24.5t40.5 61.5q0 29 -30.5 43.5t-85.5 18.5l-87 5q-43 3 -78 16q-11 -9 -18 -26t-7 -38q0 -50 41.5 -77.5zM177 210q25 -36 67 -36
t66.5 36t24.5 100t-24.5 99t-66.5 35t-67 -35.5t-25 -98.5q0 -64 25 -100z" />
    <glyph glyph-name="h" unicode="h" horiz-adv-x="555" 
d="M495.5 30.5q12.5 -12.5 42.5 -16.5v-14h-218v14q29 5 41.5 17t12.5 37v237q0 47 -21.5 70.5t-59.5 23.5q-42 0 -72 -31t-30 -90v-210q0 -25 12.5 -37t41.5 -17v-14h-218v14q30 4 42.5 16.5t12.5 37.5v521q0 25 -11.5 38t-37.5 15l-12 1v14l170 44v-348q19 54 59.5 85
t95.5 31q64 0 100.5 -40.5t36.5 -114.5v-246q0 -25 12.5 -37.5z" />
    <glyph glyph-name="i" unicode="i" horiz-adv-x="273" 
d="M205.5 30.5q12.5 -12.5 42.5 -16.5v-14h-218v14q29 5 41.5 17t12.5 37v289q0 25 -11 38t-37 15l-12 1v14l169 44v-401q0 -25 12.5 -37.5zM84 696q22 21 55 21q32 0 53.5 -21t21.5 -51q0 -31 -21.5 -52t-53.5 -21q-33 0 -55 21t-22 52q0 30 22 51z" />
    <glyph glyph-name="j" unicode="j" horiz-adv-x="242" 
d="M13 425l169 44v-395q0 -72 -17.5 -124t-62.5 -93t-126 -70l-6 12q35 25 56.5 52t34 71t12.5 112v323q0 25 -11 38t-37 15l-12 1v14zM73 696q22 21 55 21q32 0 53.5 -21t21.5 -51q0 -31 -21.5 -52t-53.5 -21q-33 0 -55 21t-22 52q0 30 22 51z" />
    <glyph glyph-name="k" unicode="k" horiz-adv-x="550" 
d="M317 86l-126 154v-172q0 -25 12.5 -37t41.5 -17v-14h-218v14q30 4 42.5 16.5t12.5 37.5v521q0 25 -11.5 38t-37.5 15l-12 1v14l170 44v-447l170 128q30 23 30 38q0 16 -34 20v14h167v-14q-52 -5 -137 -69l-101 -79l171 -221q23 -29 45 -42t51 -15v-14h-186q-7 34 -50 86z
" />
    <glyph glyph-name="l" unicode="l" horiz-adv-x="268" 
d="M203.5 31q12.5 -12 41.5 -17v-14h-218v14q30 4 42.5 16.5t12.5 37.5v521q0 25 -11.5 38t-37.5 15l-12 1v14l170 44v-633q0 -25 12.5 -37z" />
    <glyph glyph-name="m" unicode="m" horiz-adv-x="850" 
d="M790.5 30.5q12.5 -12.5 42.5 -16.5v-14h-218v14q29 5 41.5 17t12.5 37v237q0 47 -21.5 70.5t-59.5 23.5q-42 0 -72 -31t-30 -90v-210q0 -25 12.5 -37t41.5 -17v-14h-218v14q30 4 42.5 16.5t12.5 37.5v237q0 47 -22 70.5t-60 23.5q-42 0 -72 -31t-30 -90v-210
q0 -25 12.5 -37.5t42.5 -16.5v-14h-218v14q29 5 41.5 17t12.5 37v289q0 25 -11 38t-37 15l-12 1v14l169 44v-116q20 54 60 85t95 31q56 0 92 -31.5t43 -90.5q19 56 60 89t98 33q64 0 100.5 -40.5t36.5 -114.5v-246q0 -25 12.5 -37.5z" />
    <glyph glyph-name="n" unicode="n" horiz-adv-x="558" 
d="M498.5 31q12.5 -12 41.5 -17v-14h-218v14q30 4 42.5 16.5t12.5 37.5v237q0 47 -22 70.5t-60 23.5q-42 0 -72 -31t-30 -90v-210q0 -25 12.5 -37.5t42.5 -16.5v-14h-218v14q29 5 41.5 17t12.5 37v289q0 25 -11 38t-37 15l-12 1v14l169 44v-116q20 54 60 85t95 31
q64 0 101 -40.5t37 -114.5v-246q0 -25 12.5 -37z" />
    <glyph glyph-name="o" unicode="o" horiz-adv-x="512" 
d="M137.5 15.5q-51.5 30.5 -80 85.5t-28.5 126t28.5 126t80 85.5t118.5 30.5t119 -30.5t80.5 -85.5t28.5 -126t-28.5 -126t-80.5 -85.5t-119 -30.5t-118.5 30.5zM174 67q29 -56 82 -56t82.5 56t29.5 160t-29.5 160.5t-82.5 56.5t-82 -56.5t-29 -160.5t29 -160z" />
    <glyph glyph-name="p" unicode="p" horiz-adv-x="554" 
d="M473.5 405.5q51.5 -64.5 51.5 -172.5q0 -80 -30 -135.5t-80 -83.5t-110 -28q-69 0 -112 39v-155q0 -25 19 -37.5t62 -15.5v-14h-244v14q29 4 41.5 16.5t12.5 36.5v487q0 25 -11 38t-37 15l-12 1v14l169 44v-110q16 54 53 82.5t89 28.5q87 0 138.5 -64.5zM220.5 51
q27.5 -40 75.5 -40q57 0 85 54.5t28 144.5q0 91 -30 143.5t-81 52.5q-45 0 -74.5 -34t-30.5 -103v-114q0 -64 27.5 -104z" />
    <glyph glyph-name="q" unicode="q" horiz-adv-x="529" 
d="M482.5 -166.5q12.5 -12.5 41.5 -16.5v-14h-244v14q43 3 62 15.5t19 37.5v226q-16 -54 -53 -82.5t-89 -28.5q-87 0 -138.5 64.5t-51.5 172.5q0 80 30 135.5t80 83.5t110 28q74 0 122 -39l99 39v-599q0 -24 12.5 -36.5zM175 101.5q30 -52.5 81 -52.5q45 0 75 34.5t30 102.5
v114q0 64 -27.5 104t-75.5 40q-57 0 -85 -54.5t-28 -144.5q0 -91 30 -143.5z" />
    <glyph glyph-name="r" unicode="r" horiz-adv-x="387" 
d="M248.5 430q36.5 38 79.5 38q21 0 41 -10l-9 -101q-26 20 -61 20q-43 0 -74 -35t-32 -105v-169q0 -25 19 -37.5t62 -16.5v-14h-244v14q29 5 41.5 17t12.5 37v289q0 25 -11 38t-37 15l-12 1v14l169 44v-142q19 65 55.5 103z" />
    <glyph glyph-name="s" unicode="s" horiz-adv-x="433" 
d="M134.5 48.5q41.5 -36.5 90.5 -36.5q41 0 65.5 21.5t24.5 56.5q0 28 -15 45t-37 26t-62 21q-49 14 -80 28.5t-52.5 44t-21.5 79.5q1 62 48 98t126 36q93 0 146 -30l-9 -116h-14q-14 57 -48.5 89t-82.5 32q-37 0 -59.5 -19t-22.5 -50q0 -36 27.5 -54t84.5 -35
q49 -15 80 -29.5t53 -44t22 -78.5q0 -67 -49 -107t-127 -40q-60 0 -107.5 14t-69.5 33l11 120h14q23 -68 64.5 -104.5z" />
    <glyph glyph-name="t" unicode="t" horiz-adv-x="332" 
d="M267 7q-32 -20 -71 -20q-60 0 -93 36t-33 103v303h-60v14q47 38 83 73t72 82h14v-144h127v-25h-127v-304q0 -42 18 -64.5t54 -22.5q31 0 53 25l10 -6q-15 -30 -47 -50z" />
    <glyph glyph-name="u" unicode="u" horiz-adv-x="545" 
d="M533 40v-14l-166 -43v131q-17 -58 -58.5 -93t-100.5 -35q-64 0 -100.5 40.5t-36.5 114.5v216q0 25 -11.5 38t-37.5 15l-12 1v14l170 44v-319q0 -47 21.5 -70.5t59.5 -23.5q42 0 72 31t30 90v180q0 25 -11 38t-37 15l-12 1v14l169 44v-375q0 -25 11.5 -38t37.5 -15z" />
    <glyph glyph-name="v" unicode="v" horiz-adv-x="467" 
d="M29.5 424.5q-15.5 13.5 -39.5 15.5v14h232v-14q-26 -2 -37.5 -9.5t-11.5 -23.5q0 -13 7 -30l100 -246l100 240q9 20 9 33q0 16 -12.5 24.5t-40.5 11.5v14h141v-14q-22 -3 -38.5 -20t-32.5 -53l-164 -382h-13l-172 398q-12 28 -27.5 41.5z" />
    <glyph glyph-name="w" unicode="w" horiz-adv-x="735" 
d="M306 427q-14 12 -34 14v13h228v-13q-29 -2 -42 -9t-13 -22q0 -8 5 -21l102 -253l97 229q10 21 10 38q0 34 -56 38v13h142v-13q-21 -2 -38.5 -21t-34.5 -59l-157 -376h-13l-135 317l-134 -317h-13l-167 396q-13 30 -28 44t-35 16v13h229v-13q-29 -2 -42.5 -9t-13.5 -22
q0 -9 6 -23l100 -250l85 196l-24 56q-10 26 -24 38z" />
    <glyph glyph-name="x" unicode="x" horiz-adv-x="524" 
d="M315 38q0 13 -12 31l-80 119l-84 -103q-21 -25 -21 -43q0 -23 39 -29v-13h-147v13q40 5 102 79l97 117l-118 175q-34 52 -77 57v13h235v-13q-36 -3 -36 -24q0 -14 13 -31l66 -98l68 83q21 26 21 43q0 22 -38 28v13h147v-13q-21 -2 -48 -22.5t-56 -56.5l-80 -96l134 -200
q34 -51 76 -54l1 -13h-238v13q36 5 36 25z" />
    <glyph glyph-name="y" unicode="y" horiz-adv-x="461" 
d="M103 -120q58 0 96 92l14 31l-157 359q-16 36 -34.5 56t-35.5 22v14h229v-14q-25 -1 -38.5 -10.5t-13.5 -25.5q0 -10 6 -24l102 -243l91 209q16 33 16 54q0 20 -13.5 29t-42.5 11v14h149v-14q-21 -3 -40.5 -25t-43.5 -73l-163 -375q-44 -98 -85.5 -138.5t-101.5 -40.5
q-27 0 -65 18l35 113q43 -39 96 -39z" />
    <glyph glyph-name="z" unicode="z" horiz-adv-x="480" 
d="M38 14l266 415h-111q-92 0 -135 -131h-13l24 156h370v-14l-267 -415h125q42 0 77 34t55 104h13l-24 -163h-380v14z" />
    <glyph glyph-name="braceleft" unicode="{" horiz-adv-x="335" 
d="M106 324q22 20 22 57q0 16 -3 34l-24 179q-3 24 -3 45q0 44 18.5 71t62 40t118.5 13v-17q-54 0 -75 -21t-21 -59q0 -17 3 -35l26 -182q4 -27 4 -52q0 -36 -12.5 -56t-40 -30.5t-78.5 -16.5q51 -6 78.5 -16t40 -30t12.5 -55q0 -26 -4 -53l-26 -186q-3 -18 -3 -33
q0 -37 21 -57.5t75 -21.5v-17q-76 0 -119 13.5t-61.5 40.5t-18.5 72q0 20 3 44l24 180q1 7 2 15t1 18q0 38 -22 57.5t-78 19.5v19q56 0 78 20z" />
    <glyph glyph-name="bar" unicode="|" horiz-adv-x="163" 
d="M68 768h28v-960h-28v960z" />
    <glyph glyph-name="braceright" unicode="}" horiz-adv-x="335" 
d="M229 265.5q-22 -19.5 -22 -57.5q0 -10 1 -18t2 -15l24 -180q3 -24 3 -44q0 -45 -18.5 -72t-61.5 -40.5t-119 -13.5v17q54 1 75 21.5t21 57.5q0 15 -3 33l-26 186q-4 27 -4 53q0 35 12.5 55t40 30t78.5 16q-51 6 -78.5 16.5t-40 30.5t-12.5 56q0 25 4 52l26 182q3 18 3 35
q0 38 -21 59t-75 21v17q75 0 118.5 -13t62 -40t18.5 -71q0 -21 -3 -45l-24 -179q-3 -18 -3 -34q0 -37 22 -57t78 -20v-19q-56 0 -78 -19.5z" />
    <glyph glyph-name="asciitilde" unicode="~" horiz-adv-x="509" 
d="M447 298.5q-24 -38.5 -72 -38.5q-27 0 -55 14.5t-77 50.5q-45 32 -67 44.5t-43 12.5q-66 0 -61 -118h-32q-3 72 21 110t73 38q28 0 54.5 -14t77.5 -51q42 -31 65 -44t43 -13q36 0 51 31t13 84h31q2 -68 -22 -106.5z" />
    <glyph glyph-name="uni00A0" unicode="&#xa0;" horiz-adv-x="155" 
 />
    <glyph glyph-name="exclamdown" unicode="&#xa1;" horiz-adv-x="273" 
d="M164 124q19 -95 29 -169t10 -169h-133q0 96 10.5 169.5t29.5 171.5q17 82 20 113h14q3 -32 20 -116zM80.5 448.5q22.5 21.5 56.5 21.5t56.5 -21.5t22.5 -54.5q0 -32 -22.5 -53.5t-56.5 -21.5t-56.5 21.5t-22.5 53.5q0 33 22.5 54.5z" />
    <glyph glyph-name="cent" unicode="&#xa2;" horiz-adv-x="474" 
d="M361 406.5q-31 33.5 -74 37.5v-384q5 -1 16 -1q45 0 80 24.5t54 65.5l11 -3q-11 -66 -53 -108t-108 -50v-137h-27v135h-5q-64 0 -115.5 30.5t-81 85.5t-29.5 125q0 68 29.5 121.5t82 85.5t119.5 35v132h27v-132q37 -2 72.5 -10t62.5 -22l-9 -120h-14q-7 56 -38 89.5z
M176.5 133q31.5 -51 83.5 -68v377q-52 -8 -83.5 -61.5t-31.5 -126.5q0 -70 31.5 -121z" />
    <glyph glyph-name="sterling" unicode="&#xa3;" horiz-adv-x="635" 
d="M283 332q2 -16 2 -24q0 -50 -38 -109.5t-122 -132.5q55 39 94 55.5t73 16.5q33 0 60.5 -8.5t63.5 -24.5q29 -13 48.5 -19t38.5 -6q36 0 59 22t32 61l13 -3q-14 -86 -57 -130t-115 -44q-35 0 -64.5 9t-71.5 27q-34 16 -60 24t-53 8q-32 0 -61.5 -13t-66.5 -41l-11 14
q72 70 103.5 122.5t31.5 95.5q0 26 -8 49t-24 51h-107v26h92q-20 34 -31 63.5t-11 64.5q0 56 30 100.5t83.5 70t120.5 25.5q64 0 114.5 -22.5t79 -62t28.5 -87.5q0 -16 -3 -36h-114q15 41 15 71q0 45 -34.5 77t-85.5 32q-53 0 -89 -33.5t-36 -81.5q0 -26 10 -49t30 -59
q10 -17 20 -36.5t15 -36.5h209v-26h-203z" />
    <glyph glyph-name="currency" unicode="&#xa4;" horiz-adv-x="637" 
d="M235 40.5q-41 17.5 -71 48.5l-97 -97l-19 19l98 98q-48 61 -48 141q0 73 41 131l-91 91l19 19l88 -88q31 35 74 54.5t91 19.5t90.5 -19.5t72.5 -54.5l88 88l19 -19l-90 -90q40 -59 40 -132q0 -80 -48 -141l98 -98l-19 -19l-96 96q-31 -31 -71.5 -48t-83.5 -17
q-44 0 -85 17.5zM150.5 149q26.5 -46 71.5 -72.5t98 -26.5q52 0 96.5 26.5t71 72.5t26.5 101t-26.5 101t-71 72.5t-96.5 26.5q-53 0 -98 -26.5t-71.5 -72.5t-26.5 -101t26.5 -101z" />
    <glyph glyph-name="yen" unicode="&#xa5;" horiz-adv-x="631" 
d="M499 127h-139v-42q0 -37 19 -51.5t65 -19.5v-14h-287v14q46 5 65.5 19.5t19.5 51.5v42h-140v25h140v121h-140v25h140v31l-182 259q-25 35 -43.5 50.5t-39.5 15.5v14h295v-14q-80 0 -80 -38q0 -17 16 -41l139 -200l165 218q13 17 13 30q0 31 -78 31v14h207v-14
q-37 0 -62.5 -17.5t-51.5 -51.5l-180 -241v-46h139v-25h-139v-121h139v-25z" />
    <glyph glyph-name="brokenbar" unicode="&#xa6;" horiz-adv-x="163" 
d="M96 367h-28v401h28v-401zM68 209h28v-401h-28v401z" />
    <glyph glyph-name="section" unicode="&#xa7;" horiz-adv-x="751" 
d="M532.5 668q54.5 -15 104.5 -49l-26 -167h-16q-15 99 -56.5 151t-104.5 52q-44 0 -75.5 -24.5t-31.5 -72.5q0 -32 16 -58t36.5 -44.5t60.5 -49.5l95 -73q48 -38 76 -65t50 -72t22 -106q0 -125 -88 -192t-248 -67q-86 0 -148 18t-123 58l26 170h14q29 -111 76 -164.5
t125 -53.5q54 0 85 24.5t31 71.5q0 46 -27.5 77.5t-81.5 70.5l-94 68q-42 31 -72.5 60.5t-55 80t-24.5 118.5q0 124 87.5 188.5t235.5 64.5q77 0 131.5 -15zM196 374q20 -39 47 -63t72 -57l91 -66q55 -40 86.5 -80t31.5 -96t-30.5 -95t-86.5 -60q84 12 131 62.5t47 126.5
q0 50 -16.5 86.5t-41 61.5t-61.5 52l-98 72q-46 33 -71.5 56t-42.5 55t-17 75q0 59 34 96.5t83 55.5q-91 -14 -134.5 -61t-43.5 -129q0 -53 20 -92z" />
    <glyph glyph-name="dieresis" unicode="&#xa8;" horiz-adv-x="523" 
d="M120.5 564.5q-20.5 19.5 -20.5 48.5t20.5 48.5t51.5 19.5q30 0 50 -19.5t20 -48.5t-20 -48.5t-50 -19.5q-31 0 -51.5 19.5zM308.5 661.5q20.5 19.5 51.5 19.5q30 0 50 -19.5t20 -48.5t-20 -48.5t-50 -19.5q-31 0 -51.5 19.5t-20.5 48.5t20.5 48.5z" />
    <glyph glyph-name="copyright" unicode="&#xa9;" 
d="M223.5 33q-79.5 47 -126.5 127t-47 174t47 174t126.5 127t173.5 47t174.5 -47t127.5 -127t47 -174t-47 -174t-127.5 -127t-174.5 -47t-173.5 47zM120 172.5q43 -73.5 116 -116.5t160 -43q88 0 162 43t117.5 116.5t43.5 160.5q0 88 -43.5 161.5t-117.5 117t-162 43.5
q-87 0 -160 -43.5t-116 -117t-43 -161.5q0 -87 43 -160.5zM245 434q24 43 67 67.5t97 24.5q33 0 67 -8t60 -22l-15 -83h-7q-8 47 -36 72t-65 25q-50 0 -81 -43.5t-31 -115.5q0 -68 37.5 -111.5t95.5 -43.5q39 0 69 22t43 60l8 -2q-10 -62 -51.5 -98t-99.5 -36
q-53 0 -94.5 25t-64.5 69.5t-23 100.5q0 54 24 97z" />
    <glyph glyph-name="ordfeminine" unicode="&#xaa;" horiz-adv-x="353" 
d="M201.5 653q-12.5 14 -32.5 14t-31 -15t-11 -38q0 -13 5 -31h-89q2 47 38 75t95 28q62 0 95.5 -28.5t33.5 -78.5v-126q0 -14 6 -21t21 -9l11 -1v-12l-126 -33v72q-9 -35 -33.5 -52.5t-58.5 -17.5q-37 0 -59.5 19t-22.5 56q0 28 12.5 45.5t30.5 26.5t49 19q40 13 59.5 26.5
t19.5 42.5q0 25 -12.5 39zM144 438.5q9 -12.5 24 -12.5q19 0 32.5 14.5t13.5 43.5v85q-3 -6 -9 -11t-13 -9.5t-14 -9.5q-24 -12 -33.5 -26.5t-9.5 -35.5q0 -26 9 -38.5z" />
    <glyph glyph-name="guillemotleft" unicode="&#xab;" horiz-adv-x="525" 
d="M255 269l221 183l7 -6l-111 -185l111 -185l-7 -6l-221 183v16zM40 269l221 183l7 -6l-111 -185l111 -185l-7 -6l-221 183v16z" />
    <glyph glyph-name="logicalnot" unicode="&#xac;" horiz-adv-x="543" 
d="M456 125h-32v190h-384v31h416v-221z" />
    <glyph glyph-name="registered" unicode="&#xae;" horiz-adv-x="518" 
d="M154 294q-48 28 -76 76t-28 104q0 57 28 105t76 76t104 28q57 0 105 -28t76.5 -76t28.5 -105q0 -56 -28.5 -104t-76.5 -76t-105 -28q-56 0 -104 28zM93 378q26 -44 69.5 -70t95.5 -26t96.5 26t70.5 70t26 96t-26 96.5t-70.5 70.5t-96.5 26t-95.5 -26t-69.5 -70.5
t-26 -96.5t26 -96zM150 369q16 2 22.5 7t6.5 15v167q0 10 -6.5 15t-22.5 7v4h105q96 0 96 -59q0 -48 -66 -56l54 -71q20 -26 47 -29v-5h-81l-78 106v-79q0 -10 6 -15.5t23 -6.5v-5h-106v5zM250 476q25 0 38.5 13.5t13.5 35.5t-13.5 36t-38.5 14h-22l-1 -99h23z" />
    <glyph glyph-name="macron" unicode="&#xaf;" horiz-adv-x="490" 
d="M100 600h290v-24h-290v24z" />
    <glyph glyph-name="degree" unicode="&#xb0;" horiz-adv-x="351" 
d="M103.5 409q-33.5 20 -54 53.5t-20.5 72.5q0 41 20.5 74.5t55 53t74.5 19.5q39 0 72 -19.5t52.5 -53.5t19.5 -74q0 -39 -20 -72.5t-54 -53.5t-74 -20q-38 0 -71.5 20zM94 452.5q32 -32.5 81 -32.5q50 0 83 32.5t33 82.5t-33 84t-83 34q-49 0 -81 -33.5t-32 -84.5
q0 -50 32 -82.5z" />
    <glyph glyph-name="plusminus" unicode="&#xb1;" horiz-adv-x="506" 
d="M269 543v-193h192v-31h-192v-192h-32v192h-192v31h192v193h32zM30 31h416v-31h-416v31z" />
    <glyph glyph-name="uni00B2" unicode="&#xb2;" horiz-adv-x="352" 
d="M23 365l34 36l18 19q47 49 74.5 81.5t46.5 70.5t19 76q0 33 -13.5 52t-36.5 19t-36 -19t-13 -49q0 -26 11 -57h-96q-5 71 35 105t101 34t100.5 -31.5t39.5 -81.5q0 -40 -26.5 -72t-64.5 -56t-103 -57h119q36 0 57 13.5t30 46.5h8l-17 -138h-287v8z" />
    <glyph glyph-name="uni00B3" unicode="&#xb3;" horiz-adv-x="341" 
d="M65.5 377q-42.5 28 -41.5 86h85q-3 -12 -3 -24q0 -31 17 -52.5t44 -21.5t44.5 21.5t17.5 58.5q0 39 -20.5 62t-56.5 23q-12 0 -26 -3l-6 9l103 106h-48q-52 0 -80.5 -13.5t-38.5 -54.5h-7l13 158q46 -8 106 -8h157v-7l-166 -168q26 11 54 11q46 0 76.5 -29.5t30.5 -69.5
q0 -31 -20 -56.5t-55 -40.5t-78 -15q-59 0 -101.5 28z" />
    <glyph glyph-name="acute" unicode="&#xb4;" horiz-adv-x="398" 
d="M100 534l54 167h147l-187 -167h-14z" />
    <glyph glyph-name="uni00B5" unicode="&#xb5;" horiz-adv-x="545" 
d="M533 40v-14l-166 -43v131q-17 -58 -58.5 -93t-100.5 -35q-44 0 -76 20t-47 58q10 -135 94 -261h-114q0 25 2 115q4 120 4 217v6v216q0 25 -11.5 38t-37.5 15l-12 1v14l170 44v-319q0 -47 21.5 -70.5t59.5 -23.5q42 0 72 31t30 90v180q0 25 -11 38t-37 15l-12 1v14l169 44
v-375q0 -25 11.5 -38t37.5 -15z" />
    <glyph glyph-name="paragraph" unicode="&#xb6;" horiz-adv-x="619" 
d="M102.5 286q-64.5 59 -64.5 163q0 103 64.5 161t178.5 58h300v-14q-47 -4 -67.5 -21t-20.5 -59v-743h-33v809h-112v-809h-33v396h-34q-114 0 -178.5 59z" />
    <glyph glyph-name="periodcentered" unicode="&#xb7;" horiz-adv-x="268" 
d="M77.5 289.5q-22.5 21.5 -22.5 54.5q0 32 22.5 53.5t56.5 21.5t56.5 -21.5t22.5 -53.5q0 -33 -22.5 -54.5t-56.5 -21.5t-56.5 21.5z" />
    <glyph glyph-name="cedilla" unicode="&#xb8;" horiz-adv-x="399" 
d="M168 -189q23 0 36 10t13 27q0 19 -17.5 30.5t-56.5 18.5l43 106h18l-20 -53q115 -21 115 -87q0 -34 -27 -54.5t-74 -20.5q-60 0 -98 34l6 8q31 -19 62 -19z" />
    <glyph glyph-name="uni00B9" unicode="&#xb9;" horiz-adv-x="219" 
d="M65.5 377q11.5 8 11.5 24v258h-58v8q46 12 78.5 27t60.5 37h7v-330q0 -17 11 -25t36 -11v-8h-194v8q36 4 47.5 12z" />
    <glyph glyph-name="ordmasculine" unicode="&#xba;" horiz-adv-x="358" 
d="M70.5 421.5q-41.5 42.5 -41.5 110.5q0 69 41.5 111.5t108.5 42.5t109 -43t42 -111t-42 -110.5t-109 -42.5t-108.5 42.5zM138 430.5q14 -32.5 41 -32.5t41 32.5t14 101.5q0 70 -13.5 102.5t-41.5 32.5t-41.5 -32.5t-13.5 -102.5q0 -69 14 -101.5z" />
    <glyph glyph-name="guillemotright" unicode="&#xbb;" horiz-adv-x="525" 
d="M49 70l-7 6l111 185l-111 185l7 6l221 -183v-16zM264 70l-7 6l111 185l-111 185l7 6l221 -183v-16z" />
    <glyph glyph-name="onequarter" unicode="&#xbc;" horiz-adv-x="686" 
d="M65.5 277q11.5 8 11.5 24v258h-58v8q46 12 78.5 27t60.5 37h7v-330q0 -17 11 -25t36 -11v-8h-194v8q36 4 47.5 12zM138 0l376 668h28l-376 -668h-28zM671 94h-61v-32q0 -27 10.5 -38.5t37.5 -15.5v-8h-192v8q29 4 42.5 16t13.5 38v32h-162v8l170 265h80v-232h61v-41z
M522 135v190l-122 -190h122z" />
    <glyph glyph-name="onehalf" unicode="&#xbd;" horiz-adv-x="761" 
d="M65.5 277q11.5 8 11.5 24v258h-58v8q46 12 78.5 27t60.5 37h7v-330q0 -17 11 -25t36 -11v-8h-194v8q36 4 47.5 12zM138 0l376 668h28l-376 -668h-28zM432 8l34 36l18 19q47 49 74.5 81.5t46.5 70.5t19 76q0 33 -13.5 52t-36.5 19t-36 -19t-13 -49q0 -26 11 -57h-96
q-5 71 35 105t101 34t100.5 -31.5t39.5 -81.5q0 -40 -26.5 -72t-64.5 -56t-103 -57h119q36 0 57 13.5t30 46.5h8l-17 -138h-287v8z" />
    <glyph glyph-name="threequarters" unicode="&#xbe;" horiz-adv-x="768" 
d="M65.5 277q-42.5 28 -41.5 86h85q-3 -12 -3 -24q0 -31 17 -52.5t44 -21.5t44.5 21.5t17.5 58.5q0 39 -20.5 62t-56.5 23q-12 0 -26 -3l-6 9l103 106h-48q-52 0 -80.5 -13.5t-38.5 -54.5h-7l13 158q46 -8 106 -8h157v-7l-166 -168q26 11 54 11q46 0 76.5 -29.5t30.5 -69.5
q0 -31 -20 -56.5t-55 -40.5t-78 -15q-59 0 -101.5 28zM220 0l376 668h28l-376 -668h-28zM753 94h-61v-32q0 -27 10.5 -38.5t37.5 -15.5v-8h-192v8q29 4 42.5 16t13.5 38v32h-162v8l170 265h80v-232h61v-41zM604 135v190l-122 -190h122z" />
    <glyph glyph-name="questiondown" unicode="&#xbf;" horiz-adv-x="497" 
d="M87 -188.5q-60 38.5 -60 106.5q0 41 18 72.5t44 54.5t68 52q54 39 79.5 66.5t25.5 65.5q0 10 -1 16h14q23 -49 23 -85q0 -37 -17.5 -63.5t-52.5 -60.5q-38 -38 -57 -67.5t-19 -72.5t27 -69.5t71 -26.5q48 0 74 31t26 83q0 32 -11 71h127q2 -22 2 -31q0 -84 -56.5 -132.5
t-156.5 -48.5q-108 0 -168 38.5zM208.5 448.5q22.5 21.5 56.5 21.5t56.5 -21.5t22.5 -54.5q0 -32 -22.5 -53.5t-56.5 -21.5t-56.5 21.5t-22.5 53.5q0 33 22.5 54.5z" />
    <glyph glyph-name="Agrave" unicode="&#xc0;" horiz-adv-x="729" 
d="M659 44.5q27 -26.5 73 -30.5v-14h-295v14q60 1 60 48q0 21 -11 48l-45 108h-254l-43 -101q-15 -35 -15 -57t16 -33.5t54 -12.5v-14h-202v14q45 3 71 28.5t49 80.5l237 560h14l241 -558q23 -54 50 -80.5zM310 876l102 -144h-14l-249 144h161zM429 246l-115 274l-116 -274
h231z" />
    <glyph glyph-name="Aacute" unicode="&#xc1;" horiz-adv-x="729" 
d="M659 44.5q27 -26.5 73 -30.5v-14h-295v14q60 1 60 48q0 21 -11 48l-45 108h-254l-43 -101q-15 -35 -15 -57t16 -33.5t54 -12.5v-14h-202v14q45 3 71 28.5t49 80.5l237 560h14l241 -558q23 -54 50 -80.5zM429 246l-115 274l-116 -274h231zM412 877h161l-249 -144h-14z" />
    <glyph glyph-name="Acircumflex" unicode="&#xc2;" horiz-adv-x="729" 
d="M659 44.5q27 -26.5 73 -30.5v-14h-295v14q60 1 60 48q0 21 -11 48l-45 108h-254l-43 -101q-15 -35 -15 -57t16 -33.5t54 -12.5v-14h-202v14q45 3 71 28.5t49 80.5l237 560h14l241 -558q23 -54 50 -80.5zM429 246l-115 274l-116 -274h231zM314 877h104l108 -129h-16
l-144 64l-147 -64h-16z" />
    <glyph glyph-name="Atilde" unicode="&#xc3;" horiz-adv-x="729" 
d="M659 44.5q27 -26.5 73 -30.5v-14h-295v14q60 1 60 48q0 21 -11 48l-45 108h-254l-43 -101q-15 -35 -15 -57t16 -33.5t54 -12.5v-14h-202v14q45 3 71 28.5t49 80.5l237 560h14l241 -558q23 -54 50 -80.5zM429 246l-115 274l-116 -274h231zM216 806q0 41 17.5 63.5
t57.5 22.5q22 0 42.5 -6.5t47.5 -19.5q23 -11 40.5 -17t33.5 -6q23 0 33 10t13 39h12v-36q0 -86 -73 -86q-20 0 -40.5 7t-47.5 19q-28 12 -44.5 18t-33.5 6q-23 0 -33 -10.5t-13 -39.5h-12v36z" />
    <glyph glyph-name="Adieresis" unicode="&#xc4;" horiz-adv-x="729" 
d="M659 44.5q27 -26.5 73 -30.5v-14h-295v14q60 1 60 48q0 21 -11 48l-45 108h-254l-43 -101q-15 -35 -15 -57t16 -33.5t54 -12.5v-14h-202v14q45 3 71 28.5t49 80.5l237 560h14l241 -558q23 -54 50 -80.5zM429 246l-115 274l-116 -274h231zM228 864q20 19 50 19
q29 0 48.5 -19t19.5 -47t-19.5 -47t-48.5 -19q-30 0 -50 19t-20 47t20 47zM411.5 864q20.5 19 50.5 19q29 0 48.5 -19t19.5 -47t-19.5 -47t-48.5 -19q-30 0 -50.5 19t-20.5 47t20.5 47z" />
    <glyph glyph-name="Aring" unicode="&#xc5;" horiz-adv-x="729" 
d="M659 44.5q27 -26.5 73 -30.5v-14h-295v14q60 1 60 48q0 21 -11 48l-45 108h-254l-43 -101q-15 -35 -15 -57t16 -33.5t54 -12.5v-14h-202v14q45 3 71 28.5t49 80.5l237 560h14l241 -558q23 -54 50 -80.5zM429 246l-115 274l-116 -274h231zM292.5 896q28.5 26 71.5 26
t71 -26t28 -65q0 -40 -28 -66t-71 -26t-71.5 26t-28.5 66q0 39 28.5 65zM311 780q21 -20 53 -20t53 20t21 51t-21 51t-53 20t-53 -20t-21 -51t21 -51z" />
    <glyph glyph-name="AE" unicode="&#xc6;" horiz-adv-x="1019" 
d="M62.5 43.5q30.5 25.5 65.5 79.5l280 435q25 39 25 57q0 17 -17.5 25.5t-54.5 13.5v14h412q78 0 141 11l27 -191h-14q-20 75 -63 113.5t-124 38.5h-142v-283h149q43 0 62.5 23.5t21.5 74.5h14v-224h-14q-2 50 -21.5 74t-62.5 24h-149v-234q0 -35 12.5 -51t40.5 -16h100
q81 0 124 38.5t63 113.5h14l-27 -191q-63 11 -141 11h-393v14q44 4 66.5 22.5t22.5 58.5v123h-257l-65 -100q-14 -22 -22 -37.5t-8 -28.5q0 -34 71 -38v-14h-202v14q35 4 65.5 29.5zM480 246v370l-239 -370h239z" />
    <glyph glyph-name="Ccedilla" unicode="&#xc7;" horiz-adv-x="681" 
d="M509.5 610.5q-50.5 44.5 -122.5 44.5q-64 0 -112 -36.5t-74.5 -103.5t-26.5 -157q0 -82 31.5 -147t87.5 -101.5t127 -36.5q73 0 129 40.5t80 112.5l14 -3q-19 -107 -90.5 -170.5t-169.5 -67.5l-13 -35q115 -21 115 -87q0 -34 -27 -54.5t-74 -20.5q-60 0 -98 34l6 8
q31 -19 62 -19q23 0 36 10t13 27q0 19 -17.5 30.5t-56.5 18.5l36 88q-93 2 -165 48t-112 125.5t-40 179.5q0 101 43 179.5t119 122t171 43.5q61 0 121.5 -14.5t105.5 -40.5l-21 -146h-14q-13 84 -63.5 128.5z" />
    <glyph glyph-name="Egrave" unicode="&#xc8;" horiz-adv-x="665" 
d="M598 181l-27 -192q-63 11 -141 11h-392v14q44 4 66 22.5t22 58.5v479q0 40 -22 58t-66 22v14h381q78 0 141 11l27 -191h-14q-20 75 -63 113.5t-124 38.5h-142v-283h135q51 0 73.5 23.5t24.5 74.5h14v-224h-14q-2 50 -25 74t-73 24h-135v-234q0 -35 13 -51t41 -16h99
q81 0 124 39t63 114h14zM282 876l102 -144h-14l-249 144h161z" />
    <glyph glyph-name="Eacute" unicode="&#xc9;" horiz-adv-x="665" 
d="M598 181l-27 -192q-63 11 -141 11h-392v14q44 4 66 22.5t22 58.5v479q0 40 -22 58t-66 22v14h381q78 0 141 11l27 -191h-14q-20 75 -63 113.5t-124 38.5h-142v-283h135q51 0 73.5 23.5t24.5 74.5h14v-224h-14q-2 50 -25 74t-73 24h-135v-234q0 -35 13 -51t41 -16h99
q81 0 124 39t63 114h14zM384 877h161l-249 -144h-14z" />
    <glyph glyph-name="Ecircumflex" unicode="&#xca;" horiz-adv-x="665" 
d="M598 181l-27 -192q-63 11 -141 11h-392v14q44 4 66 22.5t22 58.5v479q0 40 -22 58t-66 22v14h381q78 0 141 11l27 -191h-14q-20 75 -63 113.5t-124 38.5h-142v-283h135q51 0 73.5 23.5t24.5 74.5h14v-224h-14q-2 50 -25 74t-73 24h-135v-234q0 -35 13 -51t41 -16h99
q81 0 124 39t63 114h14zM286 877h104l108 -129h-16l-144 64l-147 -64h-16z" />
    <glyph glyph-name="Edieresis" unicode="&#xcb;" horiz-adv-x="665" 
d="M598 181l-27 -192q-63 11 -141 11h-392v14q44 4 66 22.5t22 58.5v479q0 40 -22 58t-66 22v14h381q78 0 141 11l27 -191h-14q-20 75 -63 113.5t-124 38.5h-142v-283h135q51 0 73.5 23.5t24.5 74.5h14v-224h-14q-2 50 -25 74t-73 24h-135v-234q0 -35 13 -51t41 -16h99
q81 0 124 39t63 114h14zM200 864q20 19 50 19q29 0 48.5 -19t19.5 -47t-19.5 -47t-48.5 -19q-30 0 -50 19t-20 47t20 47zM383.5 864q20.5 19 50.5 19q29 0 48.5 -19t19.5 -47t-19.5 -47t-48.5 -19q-30 0 -50.5 19t-20.5 47t20.5 47z" />
    <glyph glyph-name="Igrave" unicode="&#xcc;" horiz-adv-x="380" 
d="M110.5 36q20.5 17 20.5 59v479q0 42 -20.5 59t-67.5 21v14h295v-14q-47 -4 -68 -21t-21 -59v-479q0 -42 20.5 -59t68.5 -22v-14h-295v14q47 5 67.5 22zM136 876l102 -144h-14l-250 144h162z" />
    <glyph glyph-name="Iacute" unicode="&#xcd;" horiz-adv-x="380" 
d="M110.5 36q20.5 17 20.5 59v479q0 42 -20.5 59t-67.5 21v14h295v-14q-47 -4 -68 -21t-21 -59v-479q0 -42 20.5 -59t68.5 -22v-14h-295v14q47 5 67.5 22zM239 877h161l-249 -144h-14z" />
    <glyph glyph-name="Icircumflex" unicode="&#xce;" horiz-adv-x="380" 
d="M110.5 36q20.5 17 20.5 59v479q0 42 -20.5 59t-67.5 21v14h295v-14q-47 -4 -68 -21t-21 -59v-479q0 -42 20.5 -59t68.5 -22v-14h-295v14q47 5 67.5 22zM141 877h104l108 -129h-16l-144 64l-147 -64h-16z" />
    <glyph glyph-name="Idieresis" unicode="&#xcf;" horiz-adv-x="380" 
d="M110.5 36q20.5 17 20.5 59v479q0 42 -20.5 59t-67.5 21v14h295v-14q-47 -4 -68 -21t-21 -59v-479q0 -42 20.5 -59t68.5 -22v-14h-295v14q47 5 67.5 22zM54 864q20 19 50 19q29 0 48.5 -19t19.5 -47t-19.5 -47t-48.5 -19q-30 0 -50 19t-20 47t20 47zM237.5 864
q20.5 19 50.5 19q29 0 48.5 -19t19.5 -47t-19.5 -47t-48.5 -19q-30 0 -50.5 19t-20.5 47t20.5 47z" />
    <glyph glyph-name="Eth" unicode="&#xd0;" horiz-adv-x="751" 
d="M106 33.5q20 14.5 20 51.5v238h-105v24h105v237q0 37 -20.5 51.5t-67.5 18.5v14h297q109 0 192.5 -41.5t129.5 -117.5t46 -174q0 -100 -44 -175.5t-124 -117.5t-185 -42h-312v14q48 5 68 19.5zM260 40.5q16 -12.5 58 -12.5h32q69 0 120.5 38.5t79.5 108t28 160.5
q0 90 -32 159.5t-91 107.5t-137 38h-74v-293h104v-24h-104v-241q0 -29 16 -41.5z" />
    <glyph glyph-name="Ntilde" unicode="&#xd1;" horiz-adv-x="742" 
d="M709 668v-14q-40 -2 -59.5 -17.5t-19.5 -56.5v-595h-14l-451 578v-473q0 -41 25.5 -56t83.5 -19v-15h-217v14q42 5 61 20t19 56v479q0 41 -25 60.5t-74 24.5v14h196l368 -471v383q0 41 -26.5 56.5t-83.5 17.5v14h217zM241 806q0 41 17.5 63.5t57.5 22.5q22 0 42.5 -6.5
t47.5 -19.5q23 -11 40.5 -17t33.5 -6q23 0 33 10t13 39h12v-36q0 -86 -73 -86q-20 0 -40.5 7t-47.5 19q-28 12 -44.5 18t-33.5 6q-23 0 -33 -10.5t-13 -39.5h-12v36z" />
    <glyph glyph-name="Ograve" unicode="&#xd2;" horiz-adv-x="787" 
d="M214.5 29.5q-78.5 44.5 -122.5 124t-44 181.5q0 101 44 180.5t122.5 123.5t179.5 44q100 0 178.5 -44t122.5 -123.5t44 -180.5q0 -102 -44 -181.5t-122.5 -124t-178.5 -44.5q-101 0 -179.5 44.5zM199.5 162.5q26.5 -72.5 76.5 -111t118 -38.5t117.5 38.5t76 111
t26.5 172.5q0 99 -26.5 171t-76 110.5t-117.5 38.5t-118 -38.5t-76.5 -110.5t-26.5 -171q0 -100 26.5 -172.5zM344 876l102 -144h-14l-249 144h161z" />
    <glyph glyph-name="Oacute" unicode="&#xd3;" horiz-adv-x="787" 
d="M214.5 29.5q-78.5 44.5 -122.5 124t-44 181.5q0 101 44 180.5t122.5 123.5t179.5 44q100 0 178.5 -44t122.5 -123.5t44 -180.5q0 -102 -44 -181.5t-122.5 -124t-178.5 -44.5q-101 0 -179.5 44.5zM199.5 162.5q26.5 -72.5 76.5 -111t118 -38.5t117.5 38.5t76 111
t26.5 172.5q0 99 -26.5 171t-76 110.5t-117.5 38.5t-118 -38.5t-76.5 -110.5t-26.5 -171q0 -100 26.5 -172.5zM446 877h161l-249 -144h-14z" />
    <glyph glyph-name="Ocircumflex" unicode="&#xd4;" horiz-adv-x="787" 
d="M214.5 29.5q-78.5 44.5 -122.5 124t-44 181.5q0 101 44 180.5t122.5 123.5t179.5 44q100 0 178.5 -44t122.5 -123.5t44 -180.5q0 -102 -44 -181.5t-122.5 -124t-178.5 -44.5q-101 0 -179.5 44.5zM199.5 162.5q26.5 -72.5 76.5 -111t118 -38.5t117.5 38.5t76 111
t26.5 172.5q0 99 -26.5 171t-76 110.5t-117.5 38.5t-118 -38.5t-76.5 -110.5t-26.5 -171q0 -100 26.5 -172.5zM348 877h104l108 -129h-16l-144 64l-147 -64h-16z" />
    <glyph glyph-name="Otilde" unicode="&#xd5;" horiz-adv-x="787" 
d="M214.5 29.5q-78.5 44.5 -122.5 124t-44 181.5q0 101 44 180.5t122.5 123.5t179.5 44q100 0 178.5 -44t122.5 -123.5t44 -180.5q0 -102 -44 -181.5t-122.5 -124t-178.5 -44.5q-101 0 -179.5 44.5zM199.5 162.5q26.5 -72.5 76.5 -111t118 -38.5t117.5 38.5t76 111
t26.5 172.5q0 99 -26.5 171t-76 110.5t-117.5 38.5t-118 -38.5t-76.5 -110.5t-26.5 -171q0 -100 26.5 -172.5zM250 806q0 41 17.5 63.5t57.5 22.5q22 0 42.5 -6.5t47.5 -19.5q23 -11 40.5 -17t33.5 -6q23 0 33 10t13 39h12v-36q0 -86 -73 -86q-20 0 -40.5 7t-47.5 19
q-28 12 -44.5 18t-33.5 6q-23 0 -33 -10.5t-13 -39.5h-12v36z" />
    <glyph glyph-name="Odieresis" unicode="&#xd6;" horiz-adv-x="787" 
d="M214.5 29.5q-78.5 44.5 -122.5 124t-44 181.5q0 101 44 180.5t122.5 123.5t179.5 44q100 0 178.5 -44t122.5 -123.5t44 -180.5q0 -102 -44 -181.5t-122.5 -124t-178.5 -44.5q-101 0 -179.5 44.5zM199.5 162.5q26.5 -72.5 76.5 -111t118 -38.5t117.5 38.5t76 111
t26.5 172.5q0 99 -26.5 171t-76 110.5t-117.5 38.5t-118 -38.5t-76.5 -110.5t-26.5 -171q0 -100 26.5 -172.5zM262 864q20 19 50 19q29 0 48.5 -19t19.5 -47t-19.5 -47t-48.5 -19q-30 0 -50 19t-20 47t20 47zM445.5 864q20.5 19 50.5 19q29 0 48.5 -19t19.5 -47t-19.5 -47
t-48.5 -19q-30 0 -50.5 19t-20.5 47t20.5 47z" />
    <glyph glyph-name="multiply" unicode="&#xd7;" horiz-adv-x="455" 
d="M61 522l166 -166l166 166l22 -21l-166 -166l165 -166l-21 -22l-166 166l-165 -165l-22 21l166 166l-166 165z" />
    <glyph glyph-name="Oslash" unicode="&#xd8;" horiz-adv-x="752" 
d="M258 9l-37 -80l-21 9l37 80q-88 41 -138.5 125t-50.5 193q0 101 44 180.5t122.5 123.5t179.5 44q75 0 136 -24l36 79l21 -8l-36 -80q87 -40 137.5 -123t50.5 -192q0 -102 -44 -182t-122.5 -124.5t-178.5 -44.5q-70 0 -136 24zM195 176.5q22 -68.5 64 -109.5l252 551
q-50 38 -117 38q-68 0 -118 -38.5t-76.5 -110.5t-26.5 -171q0 -91 22 -159.5zM394 14q68 0 117.5 38.5t76 111t26.5 172.5q0 90 -22 158t-64 109l-251 -551q50 -38 117 -38z" />
    <glyph glyph-name="Ugrave" unicode="&#xd9;" horiz-adv-x="754" 
d="M727 668v-14q-48 -4 -68.5 -18.5t-20.5 -51.5v-332q0 -131 -63.5 -198.5t-187.5 -67.5q-130 0 -200.5 67.5t-70.5 195.5v335q0 37 -20.5 51.5t-67.5 18.5v14h295v-14q-48 -4 -68.5 -18.5t-20.5 -51.5v-330q0 -104 52.5 -160t143.5 -56q86 0 133 55.5t47 160.5v330
q0 37 -20.5 51.5t-67.5 18.5v14h205zM359 876l102 -144h-14l-249 144h161z" />
    <glyph glyph-name="Uacute" unicode="&#xda;" horiz-adv-x="754" 
d="M727 668v-14q-48 -4 -68.5 -18.5t-20.5 -51.5v-332q0 -131 -63.5 -198.5t-187.5 -67.5q-130 0 -200.5 67.5t-70.5 195.5v335q0 37 -20.5 51.5t-67.5 18.5v14h295v-14q-48 -4 -68.5 -18.5t-20.5 -51.5v-330q0 -104 52.5 -160t143.5 -56q86 0 133 55.5t47 160.5v330
q0 37 -20.5 51.5t-67.5 18.5v14h205zM462 877h161l-249 -144h-14z" />
    <glyph glyph-name="Ucircumflex" unicode="&#xdb;" horiz-adv-x="754" 
d="M727 668v-14q-48 -4 -68.5 -18.5t-20.5 -51.5v-332q0 -131 -63.5 -198.5t-187.5 -67.5q-130 0 -200.5 67.5t-70.5 195.5v335q0 37 -20.5 51.5t-67.5 18.5v14h295v-14q-48 -4 -68.5 -18.5t-20.5 -51.5v-330q0 -104 52.5 -160t143.5 -56q86 0 133 55.5t47 160.5v330
q0 37 -20.5 51.5t-67.5 18.5v14h205zM364 877h104l108 -129h-16l-144 64l-147 -64h-16z" />
    <glyph glyph-name="Udieresis" unicode="&#xdc;" horiz-adv-x="754" 
d="M727 668v-14q-48 -4 -68.5 -18.5t-20.5 -51.5v-332q0 -131 -63.5 -198.5t-187.5 -67.5q-130 0 -200.5 67.5t-70.5 195.5v335q0 37 -20.5 51.5t-67.5 18.5v14h295v-14q-48 -4 -68.5 -18.5t-20.5 -51.5v-330q0 -104 52.5 -160t143.5 -56q86 0 133 55.5t47 160.5v330
q0 37 -20.5 51.5t-67.5 18.5v14h205zM277 864q20 19 50 19q29 0 48.5 -19t19.5 -47t-19.5 -47t-48.5 -19q-30 0 -50 19t-20 47t20 47zM460.5 864q20.5 19 50.5 19q29 0 48.5 -19t19.5 -47t-19.5 -47t-48.5 -19q-30 0 -50.5 19t-20.5 47t20.5 47z" />
    <glyph glyph-name="Yacute" unicode="&#xdd;" horiz-adv-x="641" 
d="M227.5 33.5q19.5 14.5 19.5 51.5v203l-173 284q-49 79 -97 82v14h291v-14q-35 -1 -52.5 -11.5t-17.5 -28.5t15 -42l143 -240l148 240q19 31 19 49q0 17 -16.5 24.5t-52.5 8.5v14h210v-14q-40 -1 -70.5 -21t-56.5 -61l-172 -278v-209q0 -37 19 -51.5t65 -19.5v-14h-287v14
q46 5 65.5 19.5zM375 877h161l-249 -144h-14z" />
    <glyph glyph-name="Thorn" unicode="&#xde;" horiz-adv-x="665" 
d="M547 479q71 -48 71 -141t-71 -141.5t-198 -48.5h-105v-53q0 -43 23.5 -59.5t85.5 -21.5v-14h-315v14q47 5 67.5 22t20.5 59v479q0 41 -21 58.5t-67 21.5v14h295v-14q-47 -4 -68 -21t-21 -59v-47h105q127 0 198 -48zM323 176q83 0 126.5 43.5t43.5 118.5q0 74 -44 117.5
t-126 43.5h-79v-323h79z" />
    <glyph glyph-name="germandbls" unicode="&#xdf;" horiz-adv-x="608" 
d="M215 31q13 -12 48 -18v-13h-230v13q33 6 46.5 18t13.5 38v360h-75v25h75v20q0 112 57.5 160.5t162.5 48.5q104 0 157.5 -49t53.5 -159v-33q-75 0 -107 -17.5t-32 -56.5q0 -28 20.5 -47t62.5 -44q38 -23 60.5 -40.5t39 -44.5t16.5 -65q0 -67 -42.5 -104t-114.5 -37
q-48 0 -86.5 14t-56.5 32l12 121h14q20 -71 48 -106t70 -35q32 0 51.5 17t19.5 53q0 33 -21 52t-64 43q-37 21 -59 37t-37.5 43.5t-15.5 66.5q0 51 31 85t92 48q-1 75 -12.5 118.5t-36 63t-66.5 19.5q-53 0 -80.5 -36.5t-27.5 -119.5v-433q0 -26 13 -38z" />
    <glyph glyph-name="agrave" unicode="&#xe0;" horiz-adv-x="499" 
d="M80.5 19q-37.5 34 -37.5 87q0 46 21 73.5t51.5 41t79.5 27.5q42 12 66.5 22t41 29t16.5 49q0 43 -24 69.5t-62 26.5q-39 0 -61.5 -27.5t-22.5 -69.5q0 -19 7 -45h-113q2 74 57 120.5t144 46.5q86 0 135 -43.5t49 -119.5v-212q0 -25 11.5 -38t37.5 -15l12 -1v-14l-166 -43
v119q-34 -117 -146 -117q-59 0 -96.5 34zM238 701l54 -167h-14l-187 167h147zM175.5 68q20.5 -23 52.5 -23q37 0 64 30t27 83v128q-9 -19 -27 -30t-46 -21q-30 -11 -48 -22t-30.5 -31.5t-12.5 -55.5t20.5 -58z" />
    <glyph glyph-name="aacute" unicode="&#xe1;" horiz-adv-x="499" 
d="M80.5 19q-37.5 34 -37.5 87q0 46 21 73.5t51.5 41t79.5 27.5q42 12 66.5 22t41 29t16.5 49q0 43 -24 69.5t-62 26.5q-39 0 -61.5 -27.5t-22.5 -69.5q0 -19 7 -45h-113q2 74 57 120.5t144 46.5q86 0 135 -43.5t49 -119.5v-212q0 -25 11.5 -38t37.5 -15l12 -1v-14l-166 -43
v119q-34 -117 -146 -117q-59 0 -96.5 34zM175.5 68q20.5 -23 52.5 -23q37 0 64 30t27 83v128q-9 -19 -27 -30t-46 -21q-30 -11 -48 -22t-30.5 -31.5t-12.5 -55.5t20.5 -58zM264 701h147l-187 -167h-14z" />
    <glyph glyph-name="acircumflex" unicode="&#xe2;" horiz-adv-x="499" 
d="M80.5 19q-37.5 34 -37.5 87q0 46 21 73.5t51.5 41t79.5 27.5q42 12 66.5 22t41 29t16.5 49q0 43 -24 69.5t-62 26.5q-39 0 -61.5 -27.5t-22.5 -69.5q0 -19 7 -45h-113q2 74 57 120.5t144 46.5q86 0 135 -43.5t49 -119.5v-212q0 -25 11.5 -38t37.5 -15l12 -1v-14l-166 -43
v119q-34 -117 -146 -117q-59 0 -96.5 34zM188 682h107l98 -149h-13l-137 84l-136 -84h-15zM175.5 68q20.5 -23 52.5 -23q37 0 64 30t27 83v128q-9 -19 -27 -30t-46 -21q-30 -11 -48 -22t-30.5 -31.5t-12.5 -55.5t20.5 -58z" />
    <glyph glyph-name="atilde" unicode="&#xe3;" horiz-adv-x="499" 
d="M80.5 19q-37.5 34 -37.5 87q0 46 21 73.5t51.5 41t79.5 27.5q42 12 66.5 22t41 29t16.5 49q0 43 -24 69.5t-62 26.5q-39 0 -61.5 -27.5t-22.5 -69.5q0 -19 7 -45h-113q2 74 57 120.5t144 46.5q86 0 135 -43.5t49 -119.5v-212q0 -25 11.5 -38t37.5 -15l12 -1v-14l-166 -43
v119q-34 -117 -146 -117q-59 0 -96.5 34zM94 592q0 41 17.5 63.5t57.5 22.5q20 0 39.5 -6.5t45.5 -19.5q23 -11 40.5 -17t34.5 -6q21 0 30.5 10.5t12.5 38.5h12v-36q0 -86 -73 -86q-19 0 -36 6t-47 19q-29 13 -45 18.5t-33 5.5q-21 0 -31 -10.5t-13 -39.5l-12 1v36z
M175.5 68q20.5 -23 52.5 -23q37 0 64 30t27 83v128q-9 -19 -27 -30t-46 -21q-30 -11 -48 -22t-30.5 -31.5t-12.5 -55.5t20.5 -58z" />
    <glyph glyph-name="adieresis" unicode="&#xe4;" horiz-adv-x="499" 
d="M80.5 19q-37.5 34 -37.5 87q0 46 21 73.5t51.5 41t79.5 27.5q42 12 66.5 22t41 29t16.5 49q0 43 -24 69.5t-62 26.5q-39 0 -61.5 -27.5t-22.5 -69.5q0 -19 7 -45h-113q2 74 57 120.5t144 46.5q86 0 135 -43.5t49 -119.5v-212q0 -25 11.5 -38t37.5 -15l12 -1v-14l-166 -43
v119q-34 -117 -146 -117q-59 0 -96.5 34zM102.5 661.5q20.5 19.5 51.5 19.5q30 0 50 -19.5t20 -48.5t-20 -48.5t-50 -19.5q-31 0 -51.5 19.5t-20.5 48.5t20.5 48.5zM175.5 68q20.5 -23 52.5 -23q37 0 64 30t27 83v128q-9 -19 -27 -30t-46 -21q-30 -11 -48 -22t-30.5 -31.5
t-12.5 -55.5t20.5 -58zM290.5 661.5q20.5 19.5 51.5 19.5q30 0 50 -19.5t20 -48.5t-20 -48.5t-50 -19.5q-31 0 -51.5 19.5t-20.5 48.5t20.5 48.5z" />
    <glyph glyph-name="aring" unicode="&#xe5;" horiz-adv-x="499" 
d="M80.5 19q-37.5 34 -37.5 87q0 46 21 73.5t51.5 41t79.5 27.5q42 12 66.5 22t41 29t16.5 49q0 43 -24 69.5t-62 26.5q-39 0 -61.5 -27.5t-22.5 -69.5q0 -19 7 -45h-113q2 74 57 120.5t144 46.5q86 0 135 -43.5t49 -119.5v-212q0 -25 11.5 -38t37.5 -15l12 -1v-14l-166 -43
v119q-34 -117 -146 -117q-59 0 -96.5 34zM172.5 691q28.5 26 71.5 26t71 -26t28 -65q0 -40 -28 -66t-71 -26t-71.5 26t-28.5 66q0 39 28.5 65zM175.5 68q20.5 -23 52.5 -23q37 0 64 30t27 83v128q-9 -19 -27 -30t-46 -21q-30 -11 -48 -22t-30.5 -31.5t-12.5 -55.5t20.5 -58z
M191 575q21 -20 53 -20t53 20t21 51t-21 51t-53 20t-53 -20t-21 -51t21 -51z" />
    <glyph glyph-name="ae" unicode="&#xe6;" horiz-adv-x="778" 
d="M295.5 417q-23.5 27 -62.5 27t-61.5 -28t-22.5 -69q0 -19 7 -45h-113q1 49 27 87t70.5 59t102.5 21q52 0 89.5 -16.5t58.5 -46.5q67 62 169 62q84 0 132.5 -43.5t48.5 -121.5q0 -10 -2 -32h-309q-2 -98 41.5 -154.5t119.5 -56.5q48 0 83.5 25.5t53.5 64.5l11 -3
q-14 -75 -67 -118t-133 -43q-74 0 -127.5 38t-76.5 105q-10 -74 -54.5 -109t-103.5 -35t-96.5 34t-37.5 87q0 46 21 73.5t51.5 41t79.5 27.5q42 12 66.5 22t41 29t16.5 49v1q0 41 -23.5 68zM175.5 69q20.5 -22 52.5 -22q37 0 63.5 33.5t28.5 106.5h-1v98q-9 -19 -26 -29
t-47 -22q-30 -11 -48 -21.5t-30.5 -31.5t-12.5 -55q0 -35 20.5 -57zM628 296q2 22 2 32q0 53 -24.5 84t-64.5 31q-46 0 -75 -41t-35 -106h197z" />
    <glyph glyph-name="ccedilla" unicode="&#xe7;" horiz-adv-x="474" 
d="M357.5 410q-33.5 34 -79.5 34q-39 0 -69.5 -25.5t-47 -69t-16.5 -95.5q0 -56 20.5 -100.5t56.5 -69.5t81 -25t80 24.5t54 65.5l11 -3q-13 -74 -63.5 -117t-129.5 -43h-8l-14 -36q115 -21 115 -87q0 -34 -27 -54.5t-74 -20.5q-60 0 -98 34l6 8q31 -19 62 -19q23 0 36 10
t13 27q0 19 -17.5 30.5t-56.5 18.5l37 90q-57 6 -102.5 38.5t-71.5 84.5t-26 117q0 70 31.5 125t87.5 86t127 31q39 0 78.5 -8.5t68.5 -23.5l-9 -120h-14q-8 59 -41.5 93z" />
    <glyph glyph-name="egrave" unicode="&#xe8;" horiz-adv-x="487" 
d="M103 701h147l54 -167h-14zM59.5 353q30.5 56 85 85.5t124.5 29.5q84 0 132.5 -43.5t48.5 -121.5q0 -10 -2 -32h-309q-2 -98 41.5 -154.5t119.5 -56.5q48 0 83.5 25.5t53.5 64.5l11 -3q-14 -75 -67 -118t-133 -43q-65 0 -114.5 29.5t-77 83t-27.5 122.5q0 76 30.5 132z
M337 296q2 22 2 32q0 53 -24.5 84t-64.5 31q-46 0 -75 -41t-35 -106h197z" />
    <glyph glyph-name="eacute" unicode="&#xe9;" horiz-adv-x="487" 
d="M221 534l54 167h147l-187 -167h-14zM59.5 353q30.5 56 85 85.5t124.5 29.5q84 0 132.5 -43.5t48.5 -121.5q0 -10 -2 -32h-309q-2 -98 41.5 -154.5t119.5 -56.5q48 0 83.5 25.5t53.5 64.5l11 -3q-14 -75 -67 -118t-133 -43q-65 0 -114.5 29.5t-77 83t-27.5 122.5
q0 76 30.5 132zM337 296q2 22 2 32q0 53 -24.5 84t-64.5 31q-46 0 -75 -41t-35 -106h197z" />
    <glyph glyph-name="ecircumflex" unicode="&#xea;" horiz-adv-x="487" 
d="M307 682l98 -149h-13l-137 84l-136 -84h-15l96 149h107zM59.5 353q30.5 56 85 85.5t124.5 29.5q84 0 132.5 -43.5t48.5 -121.5q0 -10 -2 -32h-309q-2 -98 41.5 -154.5t119.5 -56.5q48 0 83.5 25.5t53.5 64.5l11 -3q-14 -75 -67 -118t-133 -43q-65 0 -114.5 29.5t-77 83
t-27.5 122.5q0 76 30.5 132zM337 296q2 22 2 32q0 53 -24.5 84t-64.5 31q-46 0 -75 -41t-35 -106h197z" />
    <glyph glyph-name="edieresis" unicode="&#xeb;" horiz-adv-x="487" 
d="M113.5 564.5q-20.5 19.5 -20.5 48.5t20.5 48.5t51.5 19.5q30 0 50 -19.5t20 -48.5t-20 -48.5t-50 -19.5q-31 0 -51.5 19.5zM59.5 353q30.5 56 85 85.5t124.5 29.5q84 0 132.5 -43.5t48.5 -121.5q0 -10 -2 -32h-309q-2 -98 41.5 -154.5t119.5 -56.5q48 0 83.5 25.5
t53.5 64.5l11 -3q-14 -75 -67 -118t-133 -43q-65 0 -114.5 29.5t-77 83t-27.5 122.5q0 76 30.5 132zM337 296q2 22 2 32q0 53 -24.5 84t-64.5 31q-46 0 -75 -41t-35 -106h197zM301.5 661.5q20.5 19.5 51.5 19.5q30 0 50 -19.5t20 -48.5t-20 -48.5t-50 -19.5
q-31 0 -51.5 19.5t-20.5 48.5t20.5 48.5z" />
    <glyph glyph-name="igrave" unicode="&#xec;" horiz-adv-x="273" 
d="M205.5 30.5q12.5 -12.5 42.5 -16.5v-14h-218v14q29 5 41.5 17t12.5 37v289q0 25 -11 38t-37 15l-12 1v14l169 44v-401q0 -25 12.5 -37.5zM132 701l54 -167h-14l-188 167h148z" />
    <glyph glyph-name="iacute" unicode="&#xed;" horiz-adv-x="273" 
d="M205.5 30.5q12.5 -12.5 42.5 -16.5v-14h-218v14q29 5 41.5 17t12.5 37v289q0 25 -11 38t-37 15l-12 1v14l169 44v-401q0 -25 12.5 -37.5zM158 701h147l-187 -167h-14z" />
    <glyph glyph-name="icircumflex" unicode="&#xee;" horiz-adv-x="273" 
d="M205.5 30.5q12.5 -12.5 42.5 -16.5v-14h-218v14q29 5 41.5 17t12.5 37v289q0 25 -11 38t-37 15l-12 1v14l169 44v-401q0 -25 12.5 -37.5zM82 682h107l98 -149h-13l-137 84l-136 -84h-15z" />
    <glyph glyph-name="idieresis" unicode="&#xef;" horiz-adv-x="273" 
d="M205.5 30.5q12.5 -12.5 42.5 -16.5v-14h-218v14q29 5 41.5 17t12.5 37v289q0 25 -11 38t-37 15l-12 1v14l169 44v-401q0 -25 12.5 -37.5zM-3.5 661.5q20.5 19.5 51.5 19.5q30 0 50 -19.5t20 -48.5t-20 -48.5t-50 -19.5q-31 0 -51.5 19.5t-20.5 48.5t20.5 48.5z
M184.5 661.5q20.5 19.5 51.5 19.5q30 0 50 -19.5t20 -48.5t-20 -48.5t-50 -19.5q-31 0 -51.5 19.5t-20.5 48.5t20.5 48.5z" />
    <glyph glyph-name="eth" unicode="&#xf0;" horiz-adv-x="534" 
d="M368 228q0 216 -113 216q-55 0 -82.5 -55t-27.5 -157q0 -109 29 -165t83 -56q111 0 111 217zM54 351q25 55 73.5 86.5t114.5 31.5q87 0 125 -59q-13 118 -69 176l-79 -54l-13 19l75 50q-65 53 -193 57v25q149 -7 235 -51l78 52l11 -19l-67 -45q68 -43 105 -121t37 -202
q0 -138 -54 -225t-176 -87q-67 0 -119 30t-80.5 84.5t-28.5 126.5q0 70 25 125z" />
    <glyph glyph-name="ntilde" unicode="&#xf1;" horiz-adv-x="558" 
d="M498.5 31q12.5 -12 41.5 -17v-14h-218v14q30 4 42.5 16.5t12.5 37.5v237q0 47 -22 70.5t-60 23.5q-42 0 -72 -31t-30 -90v-210q0 -25 12.5 -37.5t42.5 -16.5v-14h-218v14q29 5 41.5 17t12.5 37v289q0 25 -11 38t-37 15l-12 1v14l169 44v-116q20 54 60 85t95 31
q64 0 101 -40.5t37 -114.5v-246q0 -25 12.5 -37zM131 592q0 41 17.5 63.5t57.5 22.5q20 0 39.5 -6.5t45.5 -19.5q23 -11 40.5 -17t34.5 -6q21 0 30.5 10.5t12.5 38.5h12v-36q0 -86 -73 -86q-19 0 -36 6t-47 19q-29 13 -45 18.5t-33 5.5q-21 0 -31 -10.5t-13 -39.5l-12 1v36z
" />
    <glyph glyph-name="ograve" unicode="&#xf2;" horiz-adv-x="512" 
d="M137.5 15.5q-51.5 30.5 -80 85.5t-28.5 126t28.5 126t80 85.5t118.5 30.5t119 -30.5t80.5 -85.5t28.5 -126t-28.5 -126t-80.5 -85.5t-119 -30.5t-118.5 30.5zM252 701l54 -167h-14l-187 167h147zM174 67q29 -56 82 -56t82.5 56t29.5 160t-29.5 160.5t-82.5 56.5
t-82 -56.5t-29 -160.5t29 -160z" />
    <glyph glyph-name="oacute" unicode="&#xf3;" horiz-adv-x="512" 
d="M137.5 15.5q-51.5 30.5 -80 85.5t-28.5 126t28.5 126t80 85.5t118.5 30.5t119 -30.5t80.5 -85.5t28.5 -126t-28.5 -126t-80.5 -85.5t-119 -30.5t-118.5 30.5zM174 67q29 -56 82 -56t82.5 56t29.5 160t-29.5 160.5t-82.5 56.5t-82 -56.5t-29 -160.5t29 -160zM277 701h147
l-187 -167h-14z" />
    <glyph glyph-name="ocircumflex" unicode="&#xf4;" horiz-adv-x="512" 
d="M137.5 15.5q-51.5 30.5 -80 85.5t-28.5 126t28.5 126t80 85.5t118.5 30.5t119 -30.5t80.5 -85.5t28.5 -126t-28.5 -126t-80.5 -85.5t-119 -30.5t-118.5 30.5zM202 682h107l98 -149h-13l-137 84l-136 -84h-15zM174 67q29 -56 82 -56t82.5 56t29.5 160t-29.5 160.5
t-82.5 56.5t-82 -56.5t-29 -160.5t29 -160z" />
    <glyph glyph-name="otilde" unicode="&#xf5;" horiz-adv-x="512" 
d="M137.5 15.5q-51.5 30.5 -80 85.5t-28.5 126t28.5 126t80 85.5t118.5 30.5t119 -30.5t80.5 -85.5t28.5 -126t-28.5 -126t-80.5 -85.5t-119 -30.5t-118.5 30.5zM107 592q0 41 17.5 63.5t57.5 22.5q20 0 39.5 -6.5t45.5 -19.5q23 -11 40.5 -17t34.5 -6q21 0 30.5 10.5
t12.5 38.5h12v-36q0 -86 -73 -86q-19 0 -36 6t-47 19q-29 13 -45 18.5t-33 5.5q-21 0 -31 -10.5t-13 -39.5l-12 1v36zM174 67q29 -56 82 -56t82.5 56t29.5 160t-29.5 160.5t-82.5 56.5t-82 -56.5t-29 -160.5t29 -160z" />
    <glyph glyph-name="odieresis" unicode="&#xf6;" horiz-adv-x="512" 
d="M137.5 15.5q-51.5 30.5 -80 85.5t-28.5 126t28.5 126t80 85.5t118.5 30.5t119 -30.5t80.5 -85.5t28.5 -126t-28.5 -126t-80.5 -85.5t-119 -30.5t-118.5 30.5zM115.5 661.5q20.5 19.5 51.5 19.5q30 0 50 -19.5t20 -48.5t-20 -48.5t-50 -19.5q-31 0 -51.5 19.5t-20.5 48.5
t20.5 48.5zM174 67q29 -56 82 -56t82.5 56t29.5 160t-29.5 160.5t-82.5 56.5t-82 -56.5t-29 -160.5t29 -160zM303.5 661.5q20.5 19.5 51.5 19.5q30 0 50 -19.5t20 -48.5t-20 -48.5t-50 -19.5q-31 0 -51.5 19.5t-20.5 48.5t20.5 48.5z" />
    <glyph glyph-name="divide" unicode="&#xf7;" horiz-adv-x="496" 
d="M208 150.5q-18 17.5 -18 44.5q0 25 18.5 42.5t45.5 17.5t45.5 -17.5t18.5 -42.5q0 -27 -18 -44.5t-46 -17.5t-46 17.5zM40 350h416v-31h-416v31zM208.5 523.5q18.5 17.5 45.5 17.5t45.5 -17.5t18.5 -42.5q0 -27 -18 -44.5t-46 -17.5t-46 17.5t-18 44.5q0 25 18.5 42.5z
" />
    <glyph glyph-name="oslash" unicode="&#xf8;" horiz-adv-x="512" 
d="M166 2l-26 -58l-21 9l26 58q-55 30 -85.5 86t-30.5 130q0 71 28.5 126t80 85.5t118.5 30.5q49 0 92 -17l28 64l21 -8l-29 -65q55 -30 85.5 -86t30.5 -130q0 -71 -28.5 -126t-80.5 -85.5t-119 -30.5q-48 0 -90 17zM174 67l151 342q-27 35 -69 35q-53 0 -82 -56.5
t-29 -160.5t29 -160zM256 11q53 0 82.5 56t29.5 160q0 101 -28 159l-152 -341q28 -34 68 -34z" />
    <glyph glyph-name="ugrave" unicode="&#xf9;" horiz-adv-x="545" 
d="M533 40v-14l-166 -43v131q-17 -58 -58.5 -93t-100.5 -35q-64 0 -100.5 40.5t-36.5 114.5v216q0 25 -11.5 38t-37.5 15l-12 1v14l170 44v-319q0 -47 21.5 -70.5t59.5 -23.5q42 0 72 31t30 90v180q0 25 -11 38t-37 15l-12 1v14l169 44v-375q0 -25 11.5 -38t37.5 -15z
M267 701l54 -167h-14l-187 167h147z" />
    <glyph glyph-name="uacute" unicode="&#xfa;" horiz-adv-x="545" 
d="M533 40v-14l-166 -43v131q-17 -58 -58.5 -93t-100.5 -35q-64 0 -100.5 40.5t-36.5 114.5v216q0 25 -11.5 38t-37.5 15l-12 1v14l170 44v-319q0 -47 21.5 -70.5t59.5 -23.5q42 0 72 31t30 90v180q0 25 -11 38t-37 15l-12 1v14l169 44v-375q0 -25 11.5 -38t37.5 -15z
M292 701h147l-187 -167h-14z" />
    <glyph glyph-name="ucircumflex" unicode="&#xfb;" horiz-adv-x="545" 
d="M533 40v-14l-166 -43v131q-17 -58 -58.5 -93t-100.5 -35q-64 0 -100.5 40.5t-36.5 114.5v216q0 25 -11.5 38t-37.5 15l-12 1v14l170 44v-319q0 -47 21.5 -70.5t59.5 -23.5q42 0 72 31t30 90v180q0 25 -11 38t-37 15l-12 1v14l169 44v-375q0 -25 11.5 -38t37.5 -15z
M217 682h107l98 -149h-13l-137 84l-136 -84h-15z" />
    <glyph glyph-name="udieresis" unicode="&#xfc;" horiz-adv-x="545" 
d="M533 40v-14l-166 -43v131q-17 -58 -58.5 -93t-100.5 -35q-64 0 -100.5 40.5t-36.5 114.5v216q0 25 -11.5 38t-37.5 15l-12 1v14l170 44v-319q0 -47 21.5 -70.5t59.5 -23.5q42 0 72 31t30 90v180q0 25 -11 38t-37 15l-12 1v14l169 44v-375q0 -25 11.5 -38t37.5 -15z
M130.5 661.5q20.5 19.5 51.5 19.5q30 0 50 -19.5t20 -48.5t-20 -48.5t-50 -19.5q-31 0 -51.5 19.5t-20.5 48.5t20.5 48.5zM318.5 661.5q20.5 19.5 51.5 19.5q30 0 50 -19.5t20 -48.5t-20 -48.5t-50 -19.5q-31 0 -51.5 19.5t-20.5 48.5t20.5 48.5z" />
    <glyph glyph-name="yacute" unicode="&#xfd;" horiz-adv-x="461" 
d="M103 -120q58 0 96 92l14 31l-157 359q-16 36 -34.5 56t-35.5 22v14h229v-14q-25 -1 -38.5 -10.5t-13.5 -25.5q0 -10 6 -24l102 -243l91 209q16 33 16 54q0 20 -13.5 29t-42.5 11v14h149v-14q-21 -3 -40.5 -25t-43.5 -73l-163 -375q-44 -98 -85.5 -138.5t-101.5 -40.5
q-27 0 -65 18l35 113q43 -39 96 -39zM263 702h147l-187 -167h-14z" />
    <glyph glyph-name="thorn" unicode="&#xfe;" horiz-adv-x="563" 
d="M443 439q43 -29 66.5 -83t23.5 -125q0 -80 -30.5 -135.5t-81 -83.5t-110.5 -28q-64 0 -110 30v-143q0 -25 19 -37.5t62 -16.5v-14h-244v14q29 4 41.5 16.5t12.5 37.5v718q0 25 -11 38t-37 15l-12 1v14l169 44v-344q17 55 53.5 83t88.5 28q57 0 100 -29zM232.5 42
q26.5 -33 70.5 -33q56 0 84.5 54.5t29.5 144.5q0 92 -30.5 144t-81.5 52q-45 0 -74 -34t-30 -103v-137q5 -55 31.5 -88z" />
    <glyph glyph-name="ydieresis" unicode="&#xff;" horiz-adv-x="461" 
d="M103 -120q58 0 96 92l14 31l-157 359q-16 36 -34.5 56t-35.5 22v14h229v-14q-25 -1 -38.5 -10.5t-13.5 -25.5q0 -10 6 -24l102 -243l91 209q16 33 16 54q0 20 -13.5 29t-42.5 11v14h149v-14q-21 -3 -40.5 -25t-43.5 -73l-163 -375q-44 -98 -85.5 -138.5t-101.5 -40.5
q-27 0 -65 18l35 113q43 -39 96 -39zM101.5 662.5q20.5 19.5 51.5 19.5q30 0 50 -19.5t20 -48.5t-20 -48.5t-50 -19.5q-31 0 -51.5 19.5t-20.5 48.5t20.5 48.5zM289.5 662.5q20.5 19.5 51.5 19.5q30 0 50 -19.5t20 -48.5t-20 -48.5t-50 -19.5q-31 0 -51.5 19.5t-20.5 48.5
t20.5 48.5z" />
    <glyph glyph-name="Amacron" unicode="&#x100;" horiz-adv-x="729" 
d="M659 44.5q27 -26.5 73 -30.5v-14h-295v14q60 1 60 48q0 21 -11 48l-45 108h-254l-43 -101q-15 -35 -15 -57t16 -33.5t54 -12.5v-14h-202v14q45 3 71 28.5t49 80.5l237 560h14l241 -558q23 -54 50 -80.5zM429 246l-115 274l-116 -274h231zM219 805h290v-24h-290v24z" />
    <glyph glyph-name="amacron" unicode="&#x101;" horiz-adv-x="499" 
d="M80.5 19q-37.5 34 -37.5 87q0 46 21 73.5t51.5 41t79.5 27.5q42 12 66.5 22t41 29t16.5 49q0 43 -24 69.5t-62 26.5q-39 0 -61.5 -27.5t-22.5 -69.5q0 -19 7 -45h-113q2 74 57 120.5t144 46.5q86 0 135 -43.5t49 -119.5v-212q0 -25 11.5 -38t37.5 -15l12 -1v-14l-166 -43
v119q-34 -117 -146 -117q-59 0 -96.5 34zM98 600h290v-24h-290v24zM175.5 68q20.5 -23 52.5 -23q37 0 64 30t27 83v128q-9 -19 -27 -30t-46 -21q-30 -11 -48 -22t-30.5 -31.5t-12.5 -55.5t20.5 -58z" />
    <glyph glyph-name="Abreve" unicode="&#x102;" horiz-adv-x="729" 
d="M659 44.5q27 -26.5 73 -30.5v-14h-295v14q60 1 60 48q0 21 -11 48l-45 108h-254l-43 -101q-15 -35 -15 -57t16 -33.5t54 -12.5v-14h-202v14q45 3 71 28.5t49 80.5l237 560h14l241 -558q23 -54 50 -80.5zM429 246l-115 274l-116 -274h231zM237 882q6 -34 38 -52t89 -18
t89.5 18t38.5 52h12q1 -63 -36 -101.5t-104 -38.5t-103.5 38.5t-35.5 101.5h12z" />
    <glyph glyph-name="abreve" unicode="&#x103;" horiz-adv-x="499" 
d="M80.5 19q-37.5 34 -37.5 87q0 46 21 73.5t51.5 41t79.5 27.5q42 12 66.5 22t41 29t16.5 49q0 43 -24 69.5t-62 26.5q-39 0 -61.5 -27.5t-22.5 -69.5q0 -19 7 -45h-113q2 74 57 120.5t144 46.5q86 0 135 -43.5t49 -119.5v-212q0 -25 11.5 -38t37.5 -15l12 -1v-14l-166 -43
v119q-34 -117 -146 -117q-59 0 -96.5 34zM128 695q3 -44 32 -63.5t84 -19.5t84.5 19.5t32.5 63.5h13q2 -73 -32 -114t-98 -41q-63 0 -97 41t-32 114h13zM175.5 68q20.5 -23 52.5 -23q37 0 64 30t27 83v128q-9 -19 -27 -30t-46 -21q-30 -11 -48 -22t-30.5 -31.5t-12.5 -55.5
t20.5 -58z" />
    <glyph glyph-name="Aogonek" unicode="&#x104;" horiz-adv-x="729" 
d="M659 44.5q27 -26.5 73 -30.5v-14h-148q-36 -27 -55 -54.5t-19 -57.5q0 -27 16.5 -43.5t40.5 -16.5q16 0 34.5 10.5t33.5 29.5l7 -4q-14 -35 -43.5 -55.5t-64.5 -20.5q-43 0 -69 21.5t-26 56.5q0 38 30.5 73t88.5 61h-121v14q60 1 60 48q0 21 -11 48l-45 108h-254
l-43 -101q-15 -35 -15 -57t16 -33.5t54 -12.5v-14h-202v14q45 3 71 28.5t49 80.5l237 560h14l241 -558q23 -54 50 -80.5zM429 246l-115 274l-116 -274h231z" />
    <glyph glyph-name="aogonek" unicode="&#x105;" horiz-adv-x="499" 
d="M80.5 19q-37.5 34 -37.5 87q0 46 21 73.5t51.5 41t79.5 27.5q42 12 66.5 22t41 29t16.5 49q0 43 -24 69.5t-62 26.5q-39 0 -61.5 -27.5t-22.5 -69.5q0 -19 7 -45h-113q2 74 57 120.5t144 46.5q86 0 135 -43.5t49 -119.5v-212q0 -25 11.5 -38t37.5 -15l12 -1v-14l-133 -35
q-28 -22 -45 -49.5t-17 -53.5q0 -27 16.5 -43.5t40.5 -16.5q16 0 34.5 10.5t33.5 29.5l7 -4q-14 -35 -43.5 -55.5t-64.5 -20.5q-43 0 -69 21.5t-26 56.5q0 37 26.5 69t73.5 53v114q-34 -117 -146 -117q-59 0 -96.5 34zM175.5 68q20.5 -23 52.5 -23q37 0 64 30t27 83v128
q-9 -19 -27 -30t-46 -21q-30 -11 -48 -22t-30.5 -31.5t-12.5 -55.5t20.5 -58z" />
    <glyph glyph-name="Cacute" unicode="&#x106;" horiz-adv-x="681" 
d="M509.5 610.5q-50.5 44.5 -122.5 44.5q-64 0 -112 -36.5t-74.5 -103.5t-26.5 -157q0 -82 31.5 -147t87.5 -101.5t127 -36.5q73 0 129 40.5t80 112.5l14 -3q-13 -73 -51.5 -127t-95 -82.5t-123.5 -28.5q-95 0 -169 45.5t-115 125.5t-41 182q0 101 43 179.5t119 122
t171 43.5q61 0 121.5 -14.5t105.5 -40.5l-21 -146h-14q-13 84 -63.5 128.5zM429 877h161l-249 -144h-14z" />
    <glyph glyph-name="cacute" unicode="&#x107;" horiz-adv-x="474" 
d="M357.5 410q-33.5 34 -79.5 34q-39 0 -69.5 -25.5t-47 -69t-16.5 -95.5q0 -56 20.5 -100.5t56.5 -69.5t81 -25t80 24.5t54 65.5l11 -3q-13 -74 -63.5 -117t-129.5 -43q-64 0 -115.5 30.5t-81 85.5t-29.5 125t31.5 125t87.5 86t127 31q39 0 78.5 -8.5t68.5 -23.5l-9 -120
h-14q-8 59 -41.5 93zM283 701h147l-187 -167h-14z" />
    <glyph glyph-name="Ccircumflex" unicode="&#x108;" horiz-adv-x="681" 
d="M509.5 610.5q-50.5 44.5 -122.5 44.5q-64 0 -112 -36.5t-74.5 -103.5t-26.5 -157q0 -82 31.5 -147t87.5 -101.5t127 -36.5q73 0 129 40.5t80 112.5l14 -3q-13 -73 -51.5 -127t-95 -82.5t-123.5 -28.5q-95 0 -169 45.5t-115 125.5t-41 182q0 101 43 179.5t119 122
t171 43.5q61 0 121.5 -14.5t105.5 -40.5l-21 -146h-14q-13 84 -63.5 128.5zM331 877h104l108 -129h-16l-144 64l-147 -64h-16z" />
    <glyph glyph-name="ccircumflex" unicode="&#x109;" horiz-adv-x="474" 
d="M357.5 410q-33.5 34 -79.5 34q-39 0 -69.5 -25.5t-47 -69t-16.5 -95.5q0 -56 20.5 -100.5t56.5 -69.5t81 -25t80 24.5t54 65.5l11 -3q-13 -74 -63.5 -117t-129.5 -43q-64 0 -115.5 30.5t-81 85.5t-29.5 125t31.5 125t87.5 86t127 31q39 0 78.5 -8.5t68.5 -23.5l-9 -120
h-14q-8 59 -41.5 93zM208 682h107l98 -149h-13l-137 84l-136 -84h-15z" />
    <glyph glyph-name="Cdotaccent" unicode="&#x10a;" horiz-adv-x="681" 
d="M509.5 610.5q-50.5 44.5 -122.5 44.5q-64 0 -112 -36.5t-74.5 -103.5t-26.5 -157q0 -82 31.5 -147t87.5 -101.5t127 -36.5q73 0 129 40.5t80 112.5l14 -3q-13 -73 -51.5 -127t-95 -82.5t-123.5 -28.5q-95 0 -169 45.5t-115 125.5t-41 182q0 101 43 179.5t119 122
t171 43.5q61 0 121.5 -14.5t105.5 -40.5l-21 -146h-14q-13 84 -63.5 128.5zM328.5 879.5q21.5 20.5 53.5 20.5q31 0 52 -20.5t21 -49.5q0 -31 -21 -51.5t-52 -20.5q-32 0 -53.5 20.5t-21.5 51.5q0 29 21.5 49.5z" />
    <glyph glyph-name="cdotaccent" unicode="&#x10b;" horiz-adv-x="474" 
d="M357.5 410q-33.5 34 -79.5 34q-39 0 -69.5 -25.5t-47 -69t-16.5 -95.5q0 -56 20.5 -100.5t56.5 -69.5t81 -25t80 24.5t54 65.5l11 -3q-13 -74 -63.5 -117t-129.5 -43q-64 0 -115.5 30.5t-81 85.5t-29.5 125t31.5 125t87.5 86t127 31q39 0 78.5 -8.5t68.5 -23.5l-9 -120
h-14q-8 59 -41.5 93zM209 696q22 21 55 21q32 0 53.5 -21t21.5 -51q0 -31 -21.5 -52t-53.5 -21q-33 0 -55 21t-22 52q0 30 22 51z" />
    <glyph glyph-name="Ccaron" unicode="&#x10c;" horiz-adv-x="681" 
d="M509.5 610.5q-50.5 44.5 -122.5 44.5q-64 0 -112 -36.5t-74.5 -103.5t-26.5 -157q0 -82 31.5 -147t87.5 -101.5t127 -36.5q73 0 129 40.5t80 112.5l14 -3q-13 -73 -51.5 -127t-95 -82.5t-123.5 -28.5q-95 0 -169 45.5t-115 125.5t-41 182q0 101 43 179.5t119 122
t171 43.5q61 0 121.5 -14.5t105.5 -40.5l-21 -146h-14q-13 84 -63.5 128.5zM235 877l147 -64l144 64h16l-108 -129h-104l-111 129h16z" />
    <glyph glyph-name="ccaron" unicode="&#x10d;" horiz-adv-x="474" 
d="M357.5 410q-33.5 34 -79.5 34q-39 0 -69.5 -25.5t-47 -69t-16.5 -95.5q0 -56 20.5 -100.5t56.5 -69.5t81 -25t80 24.5t54 65.5l11 -3q-13 -74 -63.5 -117t-129.5 -43q-64 0 -115.5 30.5t-81 85.5t-29.5 125t31.5 125t87.5 86t127 31q39 0 78.5 -8.5t68.5 -23.5l-9 -120
h-14q-8 59 -41.5 93zM127 693l136 -84l137 84h13l-98 -149h-107l-96 149h15z" />
    <glyph glyph-name="Dcaron" unicode="&#x10e;" horiz-adv-x="751" 
d="M106 33.5q20 14.5 20 51.5v499q0 37 -20.5 51.5t-67.5 18.5v14h297q109 0 192.5 -41.5t129.5 -117.5t46 -174q0 -100 -44 -175.5t-124 -117.5t-185 -42h-312v14q48 5 68 19.5zM188 877l147 -64l144 64h16l-108 -129h-104l-111 129h16zM260 40.5q16 -12.5 58 -12.5h32
q69 0 120.5 38.5t79.5 108t28 160.5q0 90 -32 159.5t-91 107.5t-137 38h-74v-558q0 -29 16 -41.5z" />
    <glyph glyph-name="dcaron" unicode="&#x10f;" horiz-adv-x="545" 
d="M121 13.5q-43 29.5 -66.5 83t-23.5 124.5q0 80 30 135.5t80.5 83.5t110.5 28q31 0 60 -9.5t51 -29.5v160q0 25 -11 38t-37 15l-12 1v14l169 44v-606q0 -25 11.5 -38t37.5 -16l12 -1v-14l-166 -43v126q-14 -61 -52 -93t-94 -32q-57 0 -100 29.5zM177.5 100.5
q30.5 -52.5 81.5 -52.5q45 0 74 34t30 103v114q0 65 -27.5 104.5t-75.5 39.5q-56 0 -84.5 -54.5t-28.5 -144.5q0 -91 30.5 -143.5zM539 698h102l-107 -201h-8z" />
    <glyph glyph-name="Dcroat" unicode="&#x110;" horiz-adv-x="751" 
d="M106 33.5q20 14.5 20 51.5v238h-105v24h105v237q0 37 -20.5 51.5t-67.5 18.5v14h297q109 0 192.5 -41.5t129.5 -117.5t46 -174q0 -100 -44 -175.5t-124 -117.5t-185 -42h-312v14q48 5 68 19.5zM260 40.5q16 -12.5 58 -12.5h32q69 0 120.5 38.5t79.5 108t28 160.5
q0 90 -32 159.5t-91 107.5t-137 38h-74v-293h104v-24h-104v-241q0 -29 16 -41.5z" />
    <glyph glyph-name="dcroat" unicode="&#x111;" horiz-adv-x="545" 
d="M121 13.5q-43 29.5 -66.5 83t-23.5 124.5q0 80 30 135.5t80.5 83.5t110.5 28q31 0 60 -9.5t51 -29.5v114h-129v24h129v22q0 25 -11 38t-37 15l-12 1v14l169 44v-134h89v-24h-89v-448q0 -25 11.5 -38t37.5 -16l12 -1v-14l-166 -43v126q-14 -61 -52 -93t-94 -32
q-57 0 -100 29.5zM177.5 100.5q30.5 -52.5 81.5 -52.5q45 0 74 34t30 103v114q0 65 -27.5 104.5t-75.5 39.5q-56 0 -84.5 -54.5t-28.5 -144.5q0 -91 30.5 -143.5z" />
    <glyph glyph-name="Emacron" unicode="&#x112;" horiz-adv-x="665" 
d="M598 181l-27 -192q-63 11 -141 11h-392v14q44 4 66 22.5t22 58.5v479q0 40 -22 58t-66 22v14h381q78 0 141 11l27 -191h-14q-20 75 -63 113.5t-124 38.5h-142v-283h135q51 0 73.5 23.5t24.5 74.5h14v-224h-14q-2 50 -25 74t-73 24h-135v-234q0 -35 13 -51t41 -16h99
q81 0 124 39t63 114h14zM191 805h290v-24h-290v24z" />
    <glyph glyph-name="emacron" unicode="&#x113;" horiz-adv-x="487" 
d="M110 600h290v-24h-290v24zM59.5 353q30.5 56 85 85.5t124.5 29.5q84 0 132.5 -43.5t48.5 -121.5q0 -10 -2 -32h-309q-2 -98 41.5 -154.5t119.5 -56.5q48 0 83.5 25.5t53.5 64.5l11 -3q-14 -75 -67 -118t-133 -43q-65 0 -114.5 29.5t-77 83t-27.5 122.5q0 76 30.5 132z
M337 296q2 22 2 32q0 53 -24.5 84t-64.5 31q-46 0 -75 -41t-35 -106h197z" />
    <glyph glyph-name="Ebreve" unicode="&#x114;" horiz-adv-x="665" 
d="M598 181l-27 -192q-63 11 -141 11h-392v14q44 4 66 22.5t22 58.5v479q0 40 -22 58t-66 22v14h381q78 0 141 11l27 -191h-14q-20 75 -63 113.5t-124 38.5h-142v-283h135q51 0 73.5 23.5t24.5 74.5h14v-224h-14q-2 50 -25 74t-73 24h-135v-234q0 -35 13 -51t41 -16h99
q81 0 124 39t63 114h14zM209 882q6 -34 38 -52t89 -18t89.5 18t38.5 52h12q1 -63 -36 -101.5t-104 -38.5t-103.5 38.5t-35.5 101.5h12z" />
    <glyph glyph-name="ebreve" unicode="&#x115;" horiz-adv-x="487" 
d="M158 581q-34 41 -32 114h13q3 -44 32 -63.5t84 -19.5t84.5 19.5t32.5 63.5h13q2 -73 -32 -114t-98 -41q-63 0 -97 41zM59.5 353q30.5 56 85 85.5t124.5 29.5q84 0 132.5 -43.5t48.5 -121.5q0 -10 -2 -32h-309q-2 -98 41.5 -154.5t119.5 -56.5q48 0 83.5 25.5t53.5 64.5
l11 -3q-14 -75 -67 -118t-133 -43q-65 0 -114.5 29.5t-77 83t-27.5 122.5q0 76 30.5 132zM337 296q2 22 2 32q0 53 -24.5 84t-64.5 31q-46 0 -75 -41t-35 -106h197z" />
    <glyph glyph-name="Edotaccent" unicode="&#x116;" horiz-adv-x="665" 
d="M598 181l-27 -192q-63 11 -141 11h-392v14q44 4 66 22.5t22 58.5v479q0 40 -22 58t-66 22v14h381q78 0 141 11l27 -191h-14q-20 75 -63 113.5t-124 38.5h-142v-283h135q51 0 73.5 23.5t24.5 74.5h14v-224h-14q-2 50 -25 74t-73 24h-135v-234q0 -35 13 -51t41 -16h99
q81 0 124 39t63 114h14zM283.5 879.5q21.5 20.5 53.5 20.5q31 0 52 -20.5t21 -49.5q0 -31 -21 -51.5t-52 -20.5q-32 0 -53.5 20.5t-21.5 51.5q0 29 21.5 49.5z" />
    <glyph glyph-name="edotaccent" unicode="&#x117;" horiz-adv-x="487" 
d="M201 593q-22 21 -22 52q0 30 22 51t55 21q32 0 53.5 -21t21.5 -51q0 -31 -21.5 -52t-53.5 -21q-33 0 -55 21zM59.5 353q30.5 56 85 85.5t124.5 29.5q84 0 132.5 -43.5t48.5 -121.5q0 -10 -2 -32h-309q-2 -98 41.5 -154.5t119.5 -56.5q48 0 83.5 25.5t53.5 64.5l11 -3
q-14 -75 -67 -118t-133 -43q-65 0 -114.5 29.5t-77 83t-27.5 122.5q0 76 30.5 132zM337 296q2 22 2 32q0 53 -24.5 84t-64.5 31q-46 0 -75 -41t-35 -106h197z" />
    <glyph glyph-name="Eogonek" unicode="&#x118;" horiz-adv-x="665" 
d="M598 181l-27 -192q-60 11 -133 11q-36 -27 -55 -54.5t-19 -57.5q0 -27 16.5 -43.5t40.5 -16.5q16 0 34.5 10.5t33.5 29.5l7 -4q-14 -35 -43.5 -55.5t-64.5 -20.5q-43 0 -69 21.5t-26 56.5q0 38 30.5 73t88.5 61h-374v14q44 4 66 22.5t22 58.5v479q0 40 -22 58t-66 22v14
h381q78 0 141 11l27 -191h-14q-20 75 -63 113.5t-124 38.5h-142v-283h135q51 0 73.5 23.5t24.5 74.5h14v-224h-14q-2 50 -25 74t-73 24h-135v-234q0 -35 13 -51t41 -16h99q81 0 124 39t63 114h14z" />
    <glyph glyph-name="eogonek" unicode="&#x119;" horiz-adv-x="487" 
d="M211 -190.5q-26 21.5 -26 56.5q0 37 27.5 69.5t75.5 53.5q-18 -3 -40 -3q-65 0 -114.5 29.5t-77 83t-27.5 122.5q0 76 30.5 132t85 85.5t124.5 29.5q84 0 132.5 -43.5t48.5 -121.5q0 -10 -2 -32h-309q-2 -98 41.5 -154.5t119.5 -56.5q48 0 83.5 25.5t53.5 64.5l11 -3
q-10 -54 -41 -92t-79 -56q-32 -23 -52 -53t-20 -58q0 -27 16.5 -43.5t40.5 -16.5q16 0 34.5 10.5t33.5 29.5l7 -4q-14 -35 -43.5 -55.5t-64.5 -20.5q-43 0 -69 21.5zM337 296q2 22 2 32q0 53 -24.5 84t-64.5 31q-46 0 -75 -41t-35 -106h197z" />
    <glyph glyph-name="Ecaron" unicode="&#x11a;" horiz-adv-x="665" 
d="M598 181l-27 -192q-63 11 -141 11h-392v14q44 4 66 22.5t22 58.5v479q0 40 -22 58t-66 22v14h381q78 0 141 11l27 -191h-14q-20 75 -63 113.5t-124 38.5h-142v-283h135q51 0 73.5 23.5t24.5 74.5h14v-224h-14q-2 50 -25 74t-73 24h-135v-234q0 -35 13 -51t41 -16h99
q81 0 124 39t63 114h14zM190 877l147 -64l144 64h16l-108 -129h-104l-111 129h16z" />
    <glyph glyph-name="ecaron" unicode="&#x11b;" horiz-adv-x="487" 
d="M104 693h15l136 -84l137 84h13l-98 -149h-107zM59.5 353q30.5 56 85 85.5t124.5 29.5q84 0 132.5 -43.5t48.5 -121.5q0 -10 -2 -32h-309q-2 -98 41.5 -154.5t119.5 -56.5q48 0 83.5 25.5t53.5 64.5l11 -3q-14 -75 -67 -118t-133 -43q-65 0 -114.5 29.5t-77 83
t-27.5 122.5q0 76 30.5 132zM337 296q2 22 2 32q0 53 -24.5 84t-64.5 31q-46 0 -75 -41t-35 -106h197z" />
    <glyph glyph-name="Gcircumflex" unicode="&#x11c;" horiz-adv-x="745" 
d="M206 31q-76 45 -117 123.5t-41 176.5q0 101 46.5 181t126.5 125.5t179 45.5q62 0 127.5 -14.5t110.5 -40.5l-21 -146h-14q-12 82 -65.5 127.5t-129.5 45.5q-70 0 -123 -39t-82.5 -110t-29.5 -166q0 -96 30.5 -170t85 -114.5t125.5 -40.5q38 0 69.5 10t50.5 30v180
q0 41 -21.5 63t-73.5 25v14h294v-14q-41 -3 -61 -26t-20 -62v-123q-38 -57 -109 -91.5t-158 -34.5q-103 0 -179 45zM349 877h104l108 -129h-16l-144 64l-147 -64h-16z" />
    <glyph glyph-name="gcircumflex" unicode="&#x11d;" horiz-adv-x="511" 
d="M81 -183q-65 29 -65 82q0 63 103 92q-30 15 -44 39t-14 53q0 30 16 55t43 41q-37 21 -57 55t-20 76q0 71 55 115t146 44q62 0 107 -21l40 9q53 15 89 15v-43h-95q30 -21 45.5 -51.5t15.5 -67.5q0 -72 -55.5 -116t-146.5 -44q-63 0 -108 21q-14 -19 -14 -37q0 -22 20 -35
t57 -15l121 -9q172 -14 172 -128q0 -72 -64.5 -115.5t-180.5 -43.5q-101 0 -166 29zM190 682h107l98 -149h-13l-137 84l-136 -84h-15zM151.5 -158.5q41.5 -27.5 115.5 -27.5q68 0 108.5 24.5t40.5 61.5q0 29 -30.5 43.5t-85.5 18.5l-87 5q-43 3 -78 16q-11 -9 -18 -26
t-7 -38q0 -50 41.5 -77.5zM177 210q25 -36 67 -36t66.5 36t24.5 100t-24.5 99t-66.5 35t-67 -35.5t-25 -98.5q0 -64 25 -100z" />
    <glyph glyph-name="Gbreve" unicode="&#x11e;" horiz-adv-x="745" 
d="M206 31q-76 45 -117 123.5t-41 176.5q0 101 46.5 181t126.5 125.5t179 45.5q62 0 127.5 -14.5t110.5 -40.5l-21 -146h-14q-12 82 -65.5 127.5t-129.5 45.5q-70 0 -123 -39t-82.5 -110t-29.5 -166q0 -96 30.5 -170t85 -114.5t125.5 -40.5q38 0 69.5 10t50.5 30v180
q0 41 -21.5 63t-73.5 25v14h294v-14q-41 -3 -61 -26t-20 -62v-123q-38 -57 -109 -91.5t-158 -34.5q-103 0 -179 45zM272 882q6 -34 38 -52t89 -18t89.5 18t38.5 52h12q1 -63 -36 -101.5t-104 -38.5t-103.5 38.5t-35.5 101.5h12z" />
    <glyph glyph-name="gbreve" unicode="&#x11f;" horiz-adv-x="511" 
d="M81 -183q-65 29 -65 82q0 63 103 92q-30 15 -44 39t-14 53q0 30 16 55t43 41q-37 21 -57 55t-20 76q0 71 55 115t146 44q62 0 107 -21l40 9q53 15 89 15v-43h-95q30 -21 45.5 -51.5t15.5 -67.5q0 -72 -55.5 -116t-146.5 -44q-63 0 -108 21q-14 -19 -14 -37q0 -22 20 -35
t57 -15l121 -9q172 -14 172 -128q0 -72 -64.5 -115.5t-180.5 -43.5q-101 0 -166 29zM151.5 -158.5q41.5 -27.5 115.5 -27.5q68 0 108.5 24.5t40.5 61.5q0 29 -30.5 43.5t-85.5 18.5l-87 5q-43 3 -78 16q-11 -9 -18 -26t-7 -38q0 -50 41.5 -77.5zM130 695q3 -44 32 -63.5
t84 -19.5t84.5 19.5t32.5 63.5h13q2 -73 -32 -114t-98 -41q-63 0 -97 41t-32 114h13zM177 210q25 -36 67 -36t66.5 36t24.5 100t-24.5 99t-66.5 35t-67 -35.5t-25 -98.5q0 -64 25 -100z" />
    <glyph glyph-name="Gdotaccent" unicode="&#x120;" horiz-adv-x="745" 
d="M206 31q-76 45 -117 123.5t-41 176.5q0 101 46.5 181t126.5 125.5t179 45.5q62 0 127.5 -14.5t110.5 -40.5l-21 -146h-14q-12 82 -65.5 127.5t-129.5 45.5q-70 0 -123 -39t-82.5 -110t-29.5 -166q0 -96 30.5 -170t85 -114.5t125.5 -40.5q38 0 69.5 10t50.5 30v180
q0 41 -21.5 63t-73.5 25v14h294v-14q-41 -3 -61 -26t-20 -62v-123q-38 -57 -109 -91.5t-158 -34.5q-103 0 -179 45zM346.5 879.5q21.5 20.5 53.5 20.5q31 0 52 -20.5t21 -49.5q0 -31 -21 -51.5t-52 -20.5q-32 0 -53.5 20.5t-21.5 51.5q0 29 21.5 49.5z" />
    <glyph glyph-name="gdotaccent" unicode="&#x121;" horiz-adv-x="511" 
d="M81 -183q-65 29 -65 82q0 63 103 92q-30 15 -44 39t-14 53q0 30 16 55t43 41q-37 21 -57 55t-20 76q0 71 55 115t146 44q62 0 107 -21l40 9q53 15 89 15v-43h-95q30 -21 45.5 -51.5t15.5 -67.5q0 -72 -55.5 -116t-146.5 -44q-63 0 -108 21q-14 -19 -14 -37q0 -22 20 -35
t57 -15l121 -9q172 -14 172 -128q0 -72 -64.5 -115.5t-180.5 -43.5q-101 0 -166 29zM151.5 -158.5q41.5 -27.5 115.5 -27.5q68 0 108.5 24.5t40.5 61.5q0 29 -30.5 43.5t-85.5 18.5l-87 5q-43 3 -78 16q-11 -9 -18 -26t-7 -38q0 -50 41.5 -77.5zM177 210q25 -36 67 -36
t66.5 36t24.5 100t-24.5 99t-66.5 35t-67 -35.5t-25 -98.5q0 -64 25 -100zM192 696q22 21 55 21q32 0 53.5 -21t21.5 -51q0 -31 -21.5 -52t-53.5 -21q-33 0 -55 21t-22 52q0 30 22 51z" />
    <glyph glyph-name="uni0122" unicode="&#x122;" horiz-adv-x="745" 
d="M206 31q-76 45 -117 123.5t-41 176.5q0 101 46.5 181t126.5 125.5t179 45.5q62 0 127.5 -14.5t110.5 -40.5l-21 -146h-14q-12 82 -65.5 127.5t-129.5 45.5q-70 0 -123 -39t-82.5 -110t-29.5 -166q0 -96 30.5 -170t85 -114.5t125.5 -40.5q38 0 69.5 10t50.5 30v180
q0 41 -21.5 63t-73.5 25v14h294v-14q-41 -3 -61 -26t-20 -62v-123q-38 -57 -109 -91.5t-158 -34.5q-103 0 -179 45zM356 -95.5q17 16.5 43 16.5q31 0 48 -22t17 -61q0 -53 -35.5 -88t-87.5 -40l-1 15q31 5 50.5 24.5t20.5 53.5q-10 -2 -15 -2q-24 0 -40.5 17.5t-16.5 42.5
q0 27 17 43.5z" />
    <glyph glyph-name="uni0123" unicode="&#x123;" horiz-adv-x="511" 
d="M81 -183q-65 29 -65 82q0 63 103 92q-30 15 -44 39t-14 53q0 30 16 55t43 41q-37 21 -57 55t-20 76q0 71 55 115t146 44q62 0 107 -21l40 9q53 15 89 15v-43h-95q30 -21 45.5 -51.5t15.5 -67.5q0 -72 -55.5 -116t-146.5 -44q-63 0 -108 21q-14 -19 -14 -37q0 -22 20 -35
t57 -15l121 -9q172 -14 172 -128q0 -72 -64.5 -115.5t-180.5 -43.5q-101 0 -166 29zM151.5 -158.5q41.5 -27.5 115.5 -27.5q68 0 108.5 24.5t40.5 61.5q0 29 -30.5 43.5t-85.5 18.5l-87 5q-43 3 -78 16q-11 -9 -18 -26t-7 -38q0 -50 41.5 -77.5zM177 210q25 -36 67 -36
t66.5 36t24.5 100t-24.5 99t-66.5 35t-67 -35.5t-25 -98.5q0 -64 25 -100zM217.5 724q35.5 35 87.5 40l1 -15q-31 -5 -50.5 -24.5t-20.5 -53.5q10 2 15 2q24 0 40.5 -17.5t16.5 -42.5q0 -27 -17 -43.5t-43 -16.5q-31 0 -48 22t-17 61q0 53 35.5 88z" />
    <glyph glyph-name="Hcircumflex" unicode="&#x124;" horiz-adv-x="810" 
d="M545.5 36q20.5 17 20.5 59v234h-322v-234q0 -42 20.5 -59t68.5 -22v-14h-295v14q47 5 67.5 22t20.5 59v479q0 42 -20.5 59t-67.5 21v14h295v-14q-47 -4 -68 -21t-21 -59v-217h322v217q0 42 -20.5 59t-67.5 21v14h295v-14q-47 -4 -68 -21t-21 -59v-479q0 -42 20.5 -59
t68.5 -22v-14h-295v14q47 5 67.5 22zM357 877h104l108 -129h-16l-144 64l-147 -64h-16z" />
    <glyph glyph-name="hcircumflex" unicode="&#x125;" horiz-adv-x="555" 
d="M495.5 30.5q12.5 -12.5 42.5 -16.5v-14h-218v14q29 5 41.5 17t12.5 37v237q0 47 -21.5 70.5t-59.5 23.5q-42 0 -72 -31t-30 -90v-210q0 -25 12.5 -37t41.5 -17v-14h-218v14q30 4 42.5 16.5t12.5 37.5v521q0 25 -11.5 38t-37.5 15l-12 1v14l170 44v-348q19 54 59.5 85
t95.5 31q64 0 100.5 -40.5t36.5 -114.5v-246q0 -25 12.5 -37.5zM83 877h104l108 -129h-16l-144 64l-147 -64h-16z" />
    <glyph glyph-name="Hbar" unicode="&#x126;" horiz-adv-x="810" 
d="M545.5 36q20.5 17 20.5 59v234h-322v-234q0 -42 20.5 -59t68.5 -22v-14h-295v14q47 5 67.5 22t20.5 59v393h-72v24h72v62q0 42 -20.5 59t-67.5 21v14h295v-14q-47 -4 -68 -21t-21 -59v-62h322v62q0 42 -20.5 59t-67.5 21v14h295v-14q-47 -4 -68 -21t-21 -59v-62h74v-24
h-74v-393q0 -42 20.5 -59t68.5 -22v-14h-295v14q47 5 67.5 22zM566 357v131h-322v-131h322z" />
    <glyph glyph-name="hbar" unicode="&#x127;" horiz-adv-x="555" 
d="M495.5 30.5q12.5 -12.5 42.5 -16.5v-14h-218v14q29 5 41.5 17t12.5 37v237q0 47 -21.5 70.5t-59.5 23.5q-42 0 -72 -31t-30 -90v-210q0 -25 12.5 -37t41.5 -17v-14h-218v14q30 4 42.5 16.5t12.5 37.5v475h-81v24h81v22q0 25 -11.5 38t-37.5 15l-12 1v14l170 44v-134h137
v-24h-137v-190q19 54 59.5 85t95.5 31q64 0 100.5 -40.5t36.5 -114.5v-246q0 -25 12.5 -37.5z" />
    <glyph glyph-name="Itilde" unicode="&#x128;" horiz-adv-x="380" 
d="M110.5 36q20.5 17 20.5 59v479q0 42 -20.5 59t-67.5 21v14h295v-14q-47 -4 -68 -21t-21 -59v-479q0 -42 20.5 -59t68.5 -22v-14h-295v14q47 5 67.5 22zM42 806q0 41 17.5 63.5t57.5 22.5q22 0 42.5 -6.5t47.5 -19.5q23 -11 40.5 -17t33.5 -6q23 0 33 10t13 39h12v-36
q0 -86 -73 -86q-20 0 -40.5 7t-47.5 19q-28 12 -44.5 18t-33.5 6q-23 0 -33 -10.5t-13 -39.5h-12v36z" />
    <glyph glyph-name="itilde" unicode="&#x129;" horiz-adv-x="273" 
d="M205.5 30.5q12.5 -12.5 42.5 -16.5v-14h-218v14q29 5 41.5 17t12.5 37v289q0 25 -11 38t-37 15l-12 1v14l169 44v-401q0 -25 12.5 -37.5zM-12 592q0 41 17.5 63.5t57.5 22.5q20 0 39.5 -6.5t45.5 -19.5q23 -11 40.5 -17t34.5 -6q21 0 30.5 10.5t12.5 38.5h12v-36
q0 -86 -73 -86q-19 0 -36 6t-47 19q-29 13 -45 18.5t-33 5.5q-21 0 -31 -10.5t-13 -39.5l-12 1v36z" />
    <glyph glyph-name="Imacron" unicode="&#x12a;" horiz-adv-x="380" 
d="M110.5 36q20.5 17 20.5 59v479q0 42 -20.5 59t-67.5 21v14h295v-14q-47 -4 -68 -21t-21 -59v-479q0 -42 20.5 -59t68.5 -22v-14h-295v14q47 5 67.5 22zM45 805h290v-24h-290v24z" />
    <glyph glyph-name="imacron" unicode="&#x12b;" horiz-adv-x="273" 
d="M205.5 30.5q12.5 -12.5 42.5 -16.5v-14h-218v14q29 5 41.5 17t12.5 37v289q0 25 -11 38t-37 15l-12 1v14l169 44v-401q0 -25 12.5 -37.5zM-8 600h290v-24h-290v24z" />
    <glyph glyph-name="Ibreve" unicode="&#x12c;" horiz-adv-x="380" 
d="M110.5 36q20.5 17 20.5 59v479q0 42 -20.5 59t-67.5 21v14h295v-14q-47 -4 -68 -21t-21 -59v-479q0 -42 20.5 -59t68.5 -22v-14h-295v14q47 5 67.5 22zM63 882q6 -34 38 -52t89 -18t89.5 18t38.5 52h12q1 -63 -36 -101.5t-104 -38.5t-103.5 38.5t-35.5 101.5h12z" />
    <glyph glyph-name="ibreve" unicode="&#x12d;" horiz-adv-x="273" 
d="M205.5 30.5q12.5 -12.5 42.5 -16.5v-14h-218v14q29 5 41.5 17t12.5 37v289q0 25 -11 38t-37 15l-12 1v14l169 44v-401q0 -25 12.5 -37.5zM21 695q3 -44 32 -63.5t84 -19.5t84.5 19.5t32.5 63.5h13q2 -73 -32 -114t-98 -41q-63 0 -97 41t-32 114h13z" />
    <glyph glyph-name="Iogonek" unicode="&#x12e;" horiz-adv-x="380" 
d="M110.5 36q20.5 17 20.5 59v479q0 42 -20.5 59t-67.5 21v14h295v-14q-47 -4 -68 -21t-21 -59v-479q0 -42 20.5 -59t68.5 -22v-14h-81q-36 -27 -55 -54.5t-19 -57.5q0 -27 16.5 -43.5t40.5 -16.5q16 0 34.5 10.5t33.5 29.5l7 -4q-14 -35 -43.5 -55.5t-64.5 -20.5
q-43 0 -69 21.5t-26 56.5q0 38 30.5 73t88.5 61h-188v14q47 5 67.5 22z" />
    <glyph glyph-name="iogonek" unicode="&#x12f;" horiz-adv-x="273" 
d="M205.5 30.5q12.5 -12.5 42.5 -16.5v-14h-64q-36 -27 -55 -54.5t-19 -57.5q0 -27 16.5 -43.5t40.5 -16.5q16 0 34.5 10.5t33.5 29.5l7 -4q-14 -35 -43.5 -55.5t-64.5 -20.5q-43 0 -69 21.5t-26 56.5q0 38 30.5 73t88.5 61h-128v14q29 5 41.5 17t12.5 37v289q0 25 -11 38
t-37 15l-12 1v14l169 44v-401q0 -25 12.5 -37.5zM84 696q22 21 55 21q32 0 53.5 -21t21.5 -51q0 -31 -21.5 -52t-53.5 -21q-33 0 -55 21t-22 52q0 30 22 51z" />
    <glyph glyph-name="Idotaccent" unicode="&#x130;" horiz-adv-x="380" 
d="M110.5 36q20.5 17 20.5 59v479q0 42 -20.5 59t-67.5 21v14h295v-14q-47 -4 -68 -21t-21 -59v-479q0 -42 20.5 -59t68.5 -22v-14h-295v14q47 5 67.5 22zM138.5 879.5q21.5 20.5 53.5 20.5q31 0 52 -20.5t21 -49.5q0 -31 -21 -51.5t-52 -20.5q-32 0 -53.5 20.5t-21.5 51.5
q0 29 21.5 49.5z" />
    <glyph glyph-name="dotlessi" unicode="&#x131;" horiz-adv-x="273" 
d="M205.5 30.5q12.5 -12.5 42.5 -16.5v-14h-218v14q29 5 41.5 17t12.5 37v289q0 25 -11 38t-37 15l-12 1v14l169 44v-401q0 -25 12.5 -37.5z" />
    <glyph glyph-name="IJ" unicode="&#x132;" horiz-adv-x="942" 
d="M110.5 36q20.5 17 20.5 59v479q0 42 -20.5 59t-67.5 21v14h295v-14q-47 -4 -68 -21t-21 -59v-479q0 -42 20.5 -59t68.5 -22v-14h-295v14q47 5 67.5 22zM846.5 636q-19.5 -16 -19.5 -57v-396q0 -95 -57.5 -146.5t-159.5 -51.5q-97 0 -155.5 52t-56.5 144h124
q-5 -24 -5 -52q0 -55 26 -85t71 -30t70 34t25 100v431q0 41 -19.5 57t-69.5 18v14h295v-14q-49 -2 -68.5 -18z" />
    <glyph glyph-name="ij" unicode="&#x133;" horiz-adv-x="573" 
d="M205.5 30.5q12.5 -12.5 42.5 -16.5v-14h-218v14q29 5 41.5 17t12.5 37v289q0 25 -11 38t-37 15l-12 1v14l169 44v-401q0 -25 12.5 -37.5zM84 696q22 21 55 21q32 0 53.5 -21t21.5 -51q0 -31 -21.5 -52t-53.5 -21q-33 0 -55 21t-22 52q0 30 22 51zM320 425l169 44v-395
q0 -72 -17.5 -124t-62.5 -93t-126 -70l-6 12q35 25 56.5 52t34 71t12.5 112v323q0 25 -11 38t-37 15l-12 1v14zM380 696q22 21 55 21q32 0 53.5 -21t21.5 -51q0 -31 -21.5 -52t-53.5 -21q-33 0 -55 21t-22 52q0 30 22 51z" />
    <glyph glyph-name="Jcircumflex" unicode="&#x134;" horiz-adv-x="562" 
d="M466.5 636q-19.5 -16 -19.5 -57v-396q0 -95 -57.5 -146.5t-159.5 -51.5q-97 0 -155.5 52t-56.5 144h124q-5 -24 -5 -52q0 -55 26 -85t71 -30t70 34t25 100v431q0 41 -19.5 57t-69.5 18v14h295v-14q-49 -2 -68.5 -18zM340 877h104l108 -129h-16l-144 64l-147 -64h-16z" />
    <glyph glyph-name="jcircumflex" unicode="&#x135;" horiz-adv-x="242" 
d="M13 425l169 44v-395q0 -72 -17.5 -124t-62.5 -93t-126 -70l-6 12q35 25 56.5 52t34 71t12.5 112v323q0 25 -11 38t-37 15l-12 1v14zM72 682h107l98 -149h-13l-137 84l-136 -84h-15z" />
    <glyph glyph-name="uni0136" unicode="&#x136;" horiz-adv-x="743" 
d="M664 40q35 -23 67 -26v-14h-219q-5 24 -21.5 50t-45.5 60l-201 223v-238q0 -42 20.5 -59t68.5 -22v-14h-295v14q47 5 67.5 22t20.5 59v479q0 42 -20.5 59t-67.5 21v14h295v-14q-47 -4 -68 -21t-21 -59v-225l278 246q25 23 25 36q0 23 -65 23v14h206v-14q-62 -3 -135 -68
l-211 -189l260 -302q27 -32 62 -55zM341 -95.5q17 16.5 43 16.5q31 0 48 -22t17 -61q0 -53 -35.5 -88t-87.5 -40l-1 15q31 5 50.5 24.5t20.5 53.5q-10 -2 -15 -2q-24 0 -40.5 17.5t-16.5 42.5q0 27 17 43.5z" />
    <glyph glyph-name="uni0137" unicode="&#x137;" horiz-adv-x="550" 
d="M317 86l-126 154v-172q0 -25 12.5 -37t41.5 -17v-14h-218v14q30 4 42.5 16.5t12.5 37.5v521q0 25 -11.5 38t-37.5 15l-12 1v14l170 44v-447l170 128q30 23 30 38q0 16 -34 20v14h167v-14q-52 -5 -137 -69l-101 -79l171 -221q23 -29 45 -42t51 -15v-14h-186q-7 34 -50 86z
M233 -95.5q17 16.5 43 16.5q31 0 48 -22t17 -61q0 -53 -35.5 -88t-87.5 -40l-1 15q31 5 50.5 24.5t20.5 53.5q-10 -2 -15 -2q-24 0 -40.5 17.5t-16.5 42.5q0 27 17 43.5z" />
    <glyph glyph-name="kgreenlandic" unicode="&#x138;" horiz-adv-x="564" 
d="M198 249l184 138q21 15 21 31q0 17 -26 22v14h161v-14q-50 -4 -137 -69l-101 -79l178 -231q18 -22 38.5 -34t50.5 -13v-14h-171zM24 425l169 44v-401q0 -25 12.5 -37.5t42.5 -16.5v-14h-218v14q29 5 41.5 17t12.5 37v289q0 25 -11 38t-37 15l-12 1v14z" />
    <glyph glyph-name="Lacute" unicode="&#x139;" horiz-adv-x="628" 
d="M600 181l-26 -192q-63 11 -141 11h-395v14q49 5 68.5 20.5t19.5 50.5v499q0 34 -19.5 49.5t-68.5 20.5v14h295v-14q-50 -5 -69.5 -20.5t-19.5 -49.5v-499q0 -57 49 -57h106q81 0 124.5 39t62.5 114h14zM233 877h161l-249 -144h-14z" />
    <glyph glyph-name="lacute" unicode="&#x13a;" horiz-adv-x="268" 
d="M203.5 31q12.5 -12 41.5 -17v-14h-218v14q30 4 42.5 16.5t12.5 37.5v521q0 25 -11.5 38t-37.5 15l-12 1v14l170 44v-633q0 -25 12.5 -37zM184 877h161l-249 -144h-14z" />
    <glyph glyph-name="uni013B" unicode="&#x13b;" horiz-adv-x="628" 
d="M600 181l-26 -192q-63 11 -141 11h-395v14q49 5 68.5 20.5t19.5 50.5v499q0 34 -19.5 49.5t-68.5 20.5v14h295v-14q-50 -5 -69.5 -20.5t-19.5 -49.5v-499q0 -57 49 -57h106q81 0 124.5 39t62.5 114h14zM302 -95.5q17 16.5 43 16.5q31 0 48 -22t17 -61q0 -53 -35.5 -88
t-87.5 -40l-1 15q31 5 50.5 24.5t20.5 53.5q-10 -2 -15 -2q-24 0 -40.5 17.5t-16.5 42.5q0 27 17 43.5z" />
    <glyph glyph-name="uni013C" unicode="&#x13c;" horiz-adv-x="268" 
d="M203.5 31q12.5 -12 41.5 -17v-14h-218v14q30 4 42.5 16.5t12.5 37.5v521q0 25 -11.5 38t-37.5 15l-12 1v14l170 44v-633q0 -25 12.5 -37zM92 -95.5q17 16.5 43 16.5q31 0 48 -22t17 -61q0 -53 -35.5 -88t-87.5 -40l-1 15q31 5 50.5 24.5t20.5 53.5q-10 -2 -15 -2
q-24 0 -40.5 17.5t-16.5 42.5q0 27 17 43.5z" />
    <glyph glyph-name="Lcaron" unicode="&#x13d;" horiz-adv-x="628" 
d="M600 181l-26 -192q-63 11 -141 11h-395v14q49 5 68.5 20.5t19.5 50.5v499q0 34 -19.5 49.5t-68.5 20.5v14h295v-14q-50 -5 -69.5 -20.5t-19.5 -49.5v-499q0 -57 49 -57h106q81 0 124.5 39t62.5 114h14zM485 669h102l-107 -201h-8z" />
    <glyph glyph-name="lcaron" unicode="&#x13e;" horiz-adv-x="268" 
d="M203.5 31q12.5 -12 41.5 -17v-14h-218v14q30 4 42.5 16.5t12.5 37.5v521q0 25 -11.5 38t-37.5 15l-12 1v14l170 44v-633q0 -25 12.5 -37zM244 698h102l-107 -201h-8z" />
    <glyph glyph-name="Ldot" unicode="&#x13f;" horiz-adv-x="628" 
d="M600 181l-26 -192q-63 11 -141 11h-395v14q49 5 68.5 20.5t19.5 50.5v499q0 34 -19.5 49.5t-68.5 20.5v14h295v-14q-50 -5 -69.5 -20.5t-19.5 -49.5v-499q0 -57 49 -57h106q81 0 124.5 39t62.5 114h14zM375 387q22 21 55 21t55 -21t22 -53t-22 -53t-55 -21t-55 21t-22 53
t22 53z" />
    <glyph glyph-name="ldot" unicode="&#x140;" horiz-adv-x="392" 
d="M203.5 31q12.5 -12 41.5 -17v-14h-218v14q30 4 42.5 16.5t12.5 37.5v521q0 25 -11.5 38t-37.5 15l-12 1v14l170 44v-633q0 -25 12.5 -37zM269.5 300.5q-22.5 21.5 -22.5 54.5q0 32 22.5 53.5t56.5 21.5t56.5 -21.5t22.5 -53.5q0 -33 -22.5 -54.5t-56.5 -21.5t-56.5 21.5z
" />
    <glyph glyph-name="Lslash" unicode="&#x141;" horiz-adv-x="628" 
d="M600 181l-26 -192q-63 11 -141 11h-395v14q49 5 68.5 20.5t19.5 50.5v220l-87 -34v23l87 34v256q0 34 -19.5 49.5t-68.5 20.5v14h295v-14q-50 -5 -69.5 -20.5t-19.5 -49.5v-216l179 69v-23l-179 -69v-260q0 -57 49 -57h106q81 0 124.5 39t62.5 114h14z" />
    <glyph glyph-name="lslash" unicode="&#x142;" horiz-adv-x="308" 
d="M223.5 31q12.5 -12 41.5 -17v-14h-218v14q30 4 42.5 16.5t12.5 37.5v295l-68 -29v23l68 29v203q0 25 -11.5 38t-37.5 15l-12 1v14l170 44v-275l76 32v-24l-76 -32v-334q0 -25 12.5 -37z" />
    <glyph glyph-name="Nacute" unicode="&#x143;" horiz-adv-x="742" 
d="M709 668v-14q-40 -2 -59.5 -17.5t-19.5 -56.5v-595h-14l-451 578v-473q0 -41 25.5 -56t83.5 -19v-15h-217v14q42 5 61 20t19 56v479q0 41 -25 60.5t-74 24.5v14h196l368 -471v383q0 41 -26.5 56.5t-83.5 17.5v14h217zM438 877h161l-249 -144h-14z" />
    <glyph glyph-name="nacute" unicode="&#x144;" horiz-adv-x="558" 
d="M498.5 31q12.5 -12 41.5 -17v-14h-218v14q30 4 42.5 16.5t12.5 37.5v237q0 47 -22 70.5t-60 23.5q-42 0 -72 -31t-30 -90v-210q0 -25 12.5 -37.5t42.5 -16.5v-14h-218v14q29 5 41.5 17t12.5 37v289q0 25 -11 38t-37 15l-12 1v14l169 44v-116q20 54 60 85t95 31
q64 0 101 -40.5t37 -114.5v-246q0 -25 12.5 -37zM301 701h147l-187 -167h-14z" />
    <glyph glyph-name="uni0145" unicode="&#x145;" horiz-adv-x="742" 
d="M709 668v-14q-40 -2 -59.5 -17.5t-19.5 -56.5v-595h-14l-451 578v-473q0 -41 25.5 -56t83.5 -19v-15h-217v14q42 5 61 20t19 56v479q0 41 -25 60.5t-74 24.5v14h196l368 -471v383q0 41 -26.5 56.5t-83.5 17.5v14h217zM335 -95.5q17 16.5 43 16.5q31 0 48 -22t17 -61
q0 -53 -35.5 -88t-87.5 -40l-1 15q31 5 50.5 24.5t20.5 53.5q-10 -2 -15 -2q-24 0 -40.5 17.5t-16.5 42.5q0 27 17 43.5z" />
    <glyph glyph-name="uni0146" unicode="&#x146;" horiz-adv-x="558" 
d="M498.5 31q12.5 -12 41.5 -17v-14h-218v14q30 4 42.5 16.5t12.5 37.5v237q0 47 -22 70.5t-60 23.5q-42 0 -72 -31t-30 -90v-210q0 -25 12.5 -37.5t42.5 -16.5v-14h-218v14q29 5 41.5 17t12.5 37v289q0 25 -11 38t-37 15l-12 1v14l169 44v-116q20 54 60 85t95 31
q64 0 101 -40.5t37 -114.5v-246q0 -25 12.5 -37zM238 -95.5q17 16.5 43 16.5q31 0 48 -22t17 -61q0 -53 -35.5 -88t-87.5 -40l-1 15q31 5 50.5 24.5t20.5 53.5q-10 -2 -15 -2q-24 0 -40.5 17.5t-16.5 42.5q0 27 17 43.5z" />
    <glyph glyph-name="Ncaron" unicode="&#x147;" horiz-adv-x="742" 
d="M709 668v-14q-40 -2 -59.5 -17.5t-19.5 -56.5v-595h-14l-451 578v-473q0 -41 25.5 -56t83.5 -19v-15h-217v14q42 5 61 20t19 56v479q0 41 -25 60.5t-74 24.5v14h196l368 -471v383q0 41 -26.5 56.5t-83.5 17.5v14h217zM244 877l147 -64l144 64h16l-108 -129h-104l-111 129
h16z" />
    <glyph glyph-name="ncaron" unicode="&#x148;" horiz-adv-x="558" 
d="M498.5 31q12.5 -12 41.5 -17v-14h-218v14q30 4 42.5 16.5t12.5 37.5v237q0 47 -22 70.5t-60 23.5q-42 0 -72 -31t-30 -90v-210q0 -25 12.5 -37.5t42.5 -16.5v-14h-218v14q29 5 41.5 17t12.5 37v289q0 25 -11 38t-37 15l-12 1v14l169 44v-116q20 54 60 85t95 31
q64 0 101 -40.5t37 -114.5v-246q0 -25 12.5 -37zM145 693l136 -84l137 84h13l-98 -149h-107l-96 149h15z" />
    <glyph glyph-name="napostrophe" unicode="&#x149;" horiz-adv-x="586" 
d="M498.5 31q12.5 -12 41.5 -17v-14h-218v14q30 4 42.5 16.5t12.5 37.5v237q0 47 -22 70.5t-60 23.5q-42 0 -72 -31t-30 -90v-210q0 -25 12.5 -37.5t42.5 -16.5v-14h-218v14q29 5 41.5 17t12.5 37v289q0 25 -11 38t-37 15l-12 1v14l169 44v-116q20 54 60 85t95 31
q64 0 101 -40.5t37 -114.5v-246q0 -25 12.5 -37zM77 740q17 15 43 15q31 0 48 -20t17 -55q0 -48 -35.5 -79t-87.5 -36l-1 13q31 5 50.5 22.5t20.5 48.5q-10 -2 -15 -2q-25 0 -41 15.5t-16 38.5q0 24 17 39z" />
    <glyph glyph-name="Eng" unicode="&#x14a;" horiz-adv-x="742" 
d="M709 668v-14q-40 -2 -59.5 -17.5t-19.5 -56.5l-1 -645q0 -69 -32.5 -108t-101.5 -39q-87 0 -126.5 46.5t-33.5 128.5h109q-5 -30 -5 -49q0 -46 20 -72t59 -26q41 0 63.5 29.5t22.5 81.5q0 39 -8.5 65t-27 51.5t-68.5 86.5l-335 433v-473q0 -41 25.5 -56t83.5 -19v-15
h-217v14q42 5 61 20t19 56v479q0 41 -25 60.5t-74 24.5v14h196l370 -474v386q0 41 -26.5 56.5t-83.5 17.5v14h215z" />
    <glyph glyph-name="eng" unicode="&#x14b;" horiz-adv-x="548" 
d="M358 376.5q-21 22.5 -57 22.5q-42 0 -73.5 -31t-31.5 -90v-210q0 -26 12 -37.5t40 -17.5v-13h-213v13q28 6 40 17.5t12 37.5v293q0 43 -49 49l-17 1v13l163 45h12v-117q19 52 59.5 84.5t91.5 32.5q69 0 105 -40t36 -109v-246q0 -72 -17.5 -124t-62.5 -93t-126 -70l-6 12
q35 25 56.5 52t34 71t12.5 112v281q0 39 -21 61.5z" />
    <glyph glyph-name="Omacron" unicode="&#x14c;" horiz-adv-x="787" 
d="M214.5 29.5q-78.5 44.5 -122.5 124t-44 181.5q0 101 44 180.5t122.5 123.5t179.5 44q100 0 178.5 -44t122.5 -123.5t44 -180.5q0 -102 -44 -181.5t-122.5 -124t-178.5 -44.5q-101 0 -179.5 44.5zM199.5 162.5q26.5 -72.5 76.5 -111t118 -38.5t117.5 38.5t76 111
t26.5 172.5q0 99 -26.5 171t-76 110.5t-117.5 38.5t-118 -38.5t-76.5 -110.5t-26.5 -171q0 -100 26.5 -172.5zM253 805h290v-24h-290v24z" />
    <glyph glyph-name="omacron" unicode="&#x14d;" horiz-adv-x="512" 
d="M137.5 15.5q-51.5 30.5 -80 85.5t-28.5 126t28.5 126t80 85.5t118.5 30.5t119 -30.5t80.5 -85.5t28.5 -126t-28.5 -126t-80.5 -85.5t-119 -30.5t-118.5 30.5zM112 600h290v-24h-290v24zM174 67q29 -56 82 -56t82.5 56t29.5 160t-29.5 160.5t-82.5 56.5t-82 -56.5
t-29 -160.5t29 -160z" />
    <glyph glyph-name="Obreve" unicode="&#x14e;" horiz-adv-x="787" 
d="M214.5 29.5q-78.5 44.5 -122.5 124t-44 181.5q0 101 44 180.5t122.5 123.5t179.5 44q100 0 178.5 -44t122.5 -123.5t44 -180.5q0 -102 -44 -181.5t-122.5 -124t-178.5 -44.5q-101 0 -179.5 44.5zM199.5 162.5q26.5 -72.5 76.5 -111t118 -38.5t117.5 38.5t76 111
t26.5 172.5q0 99 -26.5 171t-76 110.5t-117.5 38.5t-118 -38.5t-76.5 -110.5t-26.5 -171q0 -100 26.5 -172.5zM271 882q6 -34 38 -52t89 -18t89.5 18t38.5 52h12q1 -63 -36 -101.5t-104 -38.5t-103.5 38.5t-35.5 101.5h12z" />
    <glyph glyph-name="obreve" unicode="&#x14f;" horiz-adv-x="512" 
d="M137.5 15.5q-51.5 30.5 -80 85.5t-28.5 126t28.5 126t80 85.5t118.5 30.5t119 -30.5t80.5 -85.5t28.5 -126t-28.5 -126t-80.5 -85.5t-119 -30.5t-118.5 30.5zM141 695q3 -44 32 -63.5t84 -19.5t84.5 19.5t32.5 63.5h13q2 -73 -32 -114t-98 -41q-63 0 -97 41t-32 114h13z
M174 67q29 -56 82 -56t82.5 56t29.5 160t-29.5 160.5t-82.5 56.5t-82 -56.5t-29 -160.5t29 -160z" />
    <glyph glyph-name="Ohungarumlaut" unicode="&#x150;" horiz-adv-x="787" 
d="M214.5 29.5q-78.5 44.5 -122.5 124t-44 181.5q0 101 44 180.5t122.5 123.5t179.5 44q100 0 178.5 -44t122.5 -123.5t44 -180.5q0 -102 -44 -181.5t-122.5 -124t-178.5 -44.5q-101 0 -179.5 44.5zM199.5 162.5q26.5 -72.5 76.5 -111t118 -38.5t117.5 38.5t76 111
t26.5 172.5q0 99 -26.5 171t-76 110.5t-117.5 38.5t-118 -38.5t-76.5 -110.5t-26.5 -171q0 -100 26.5 -172.5zM357 887h112l-178 -154h-15zM508 887h117l-184 -154h-16z" />
    <glyph glyph-name="ohungarumlaut" unicode="&#x151;" horiz-adv-x="512" 
d="M137.5 15.5q-51.5 30.5 -80 85.5t-28.5 126t28.5 126t80 85.5t118.5 30.5t119 -30.5t80.5 -85.5t28.5 -126t-28.5 -126t-80.5 -85.5t-119 -30.5t-118.5 30.5zM174 67q29 -56 82 -56t82.5 56t29.5 160t-29.5 160.5t-82.5 56.5t-82 -56.5t-29 -160.5t29 -160zM205 701h105
l-150 -167h-15zM348 701h106l-154 -167h-16z" />
    <glyph glyph-name="OE" unicode="&#x152;" horiz-adv-x="1045" 
d="M223.5 41.5q-83.5 41.5 -129.5 117.5t-46 175t44 175t124 117.5t185 41.5h398q78 0 141 11l27 -191h-14q-20 75 -63 113.5t-124 38.5h-141v-283h134q51 0 73.5 23.5t24.5 74.5h14v-224h-14q-2 50 -25 74t-73 24h-134v-234q0 -35 12.5 -51t40.5 -16h99q81 0 124 38.5
t63 113.5h14l-27 -191q-63 11 -141 11h-394q-109 0 -192.5 41.5zM205 174.5q32 -69.5 91 -108t137 -38.5h74v558q0 30 -15.5 42t-58.5 12h-32q-69 0 -120.5 -38.5t-79.5 -108t-28 -159.5t32 -159.5z" />
    <glyph glyph-name="oe" unicode="&#x153;" horiz-adv-x="831" 
d="M137.5 15.5q-51.5 30.5 -80 85.5t-28.5 126t28.5 126t80 85.5t118.5 30.5q54 0 99 -20t75 -57q32 37 79 56.5t104 19.5q84 0 132.5 -43.5t48.5 -121.5q0 -10 -2 -32h-309v-19l1 -16q6 -83 48.5 -129.5t111.5 -46.5q48 0 83.5 25.5t53.5 64.5l11 -3q-14 -75 -67 -118
t-133 -43q-51 0 -93.5 19t-71.5 54q-30 -36 -74 -55t-97 -19q-67 0 -118.5 30.5zM174 67q29 -56 82 -56t82.5 56t29.5 160t-29.5 160.5t-82.5 56.5t-82 -56.5t-29 -160.5t29 -160zM681 296q2 22 2 32q0 53 -24.5 84t-64.5 31q-46 0 -75 -41t-35 -106h197z" />
    <glyph glyph-name="Racute" unicode="&#x154;" horiz-adv-x="726" 
d="M430 96l-185 230l-1 -241q0 -37 20 -51.5t69 -19.5v-14h-295v14q48 5 68 19.5t20 51.5v499q0 37 -20.5 51.5t-67.5 18.5v14h301q134 0 206.5 -43t72.5 -135q0 -159 -223 -175l171 -213q34 -42 66.5 -62.5t75.5 -25.5v-14h-222q-4 28 -56 96zM328 341q79 0 122 40.5
t43 108.5q0 69 -42.5 109.5t-122.5 40.5h-82l-1 -299h83zM378 877h161l-249 -144h-14z" />
    <glyph glyph-name="racute" unicode="&#x155;" horiz-adv-x="387" 
d="M248.5 430q36.5 38 79.5 38q21 0 41 -10l-9 -101q-26 20 -61 20q-43 0 -74 -35t-32 -105v-169q0 -25 19 -37.5t62 -16.5v-14h-244v14q29 5 41.5 17t12.5 37v289q0 25 -11 38t-37 15l-12 1v14l169 44v-142q19 65 55.5 103zM231 701h147l-187 -167h-14z" />
    <glyph glyph-name="uni0156" unicode="&#x156;" horiz-adv-x="726" 
d="M430 96l-185 230l-1 -241q0 -37 20 -51.5t69 -19.5v-14h-295v14q48 5 68 19.5t20 51.5v499q0 37 -20.5 51.5t-67.5 18.5v14h301q134 0 206.5 -43t72.5 -135q0 -159 -223 -175l171 -213q34 -42 66.5 -62.5t75.5 -25.5v-14h-222q-4 28 -56 96zM328 341q79 0 122 40.5
t43 108.5q0 69 -42.5 109.5t-122.5 40.5h-82l-1 -299h83zM335 -95.5q17 16.5 43 16.5q31 0 48 -22t17 -61q0 -53 -35.5 -88t-87.5 -40l-1 15q31 5 50.5 24.5t20.5 53.5q-10 -2 -15 -2q-24 0 -40.5 17.5t-16.5 42.5q0 27 17 43.5z" />
    <glyph glyph-name="uni0157" unicode="&#x157;" horiz-adv-x="387" 
d="M248.5 430q36.5 38 79.5 38q21 0 41 -10l-9 -101q-26 20 -61 20q-43 0 -74 -35t-32 -105v-169q0 -25 19 -37.5t62 -16.5v-14h-244v14q29 5 41.5 17t12.5 37v289q0 25 -11 38t-37 15l-12 1v14l169 44v-142q19 65 55.5 103zM103 -95.5q17 16.5 43 16.5q31 0 48 -22t17 -61
q0 -53 -35.5 -88t-87.5 -40l-1 15q31 5 50.5 24.5t20.5 53.5q-10 -2 -15 -2q-24 0 -40.5 17.5t-16.5 42.5q0 27 17 43.5z" />
    <glyph glyph-name="Rcaron" unicode="&#x158;" horiz-adv-x="726" 
d="M430 96l-185 230l-1 -241q0 -37 20 -51.5t69 -19.5v-14h-295v14q48 5 68 19.5t20 51.5v499q0 37 -20.5 51.5t-67.5 18.5v14h301q134 0 206.5 -43t72.5 -135q0 -159 -223 -175l171 -213q34 -42 66.5 -62.5t75.5 -25.5v-14h-222q-4 28 -56 96zM184 877l147 -64l144 64h16
l-108 -129h-104l-111 129h16zM328 341q79 0 122 40.5t43 108.5q0 69 -42.5 109.5t-122.5 40.5h-82l-1 -299h83z" />
    <glyph glyph-name="rcaron" unicode="&#x159;" horiz-adv-x="387" 
d="M248.5 430q36.5 38 79.5 38q21 0 41 -10l-9 -101q-26 20 -61 20q-43 0 -74 -35t-32 -105v-169q0 -25 19 -37.5t62 -16.5v-14h-244v14q29 5 41.5 17t12.5 37v289q0 25 -11 38t-37 15l-12 1v14l169 44v-142q19 65 55.5 103zM74 693l136 -84l137 84h13l-98 -149h-107
l-96 149h15z" />
    <glyph glyph-name="Sacute" unicode="&#x15a;" horiz-adv-x="637" 
d="M196.5 68q55.5 -54 128.5 -54q60 0 97 32.5t37 85.5q0 46 -23.5 75.5t-58 46.5t-93.5 37q-66 23 -107 44.5t-69.5 61t-28.5 101.5q0 54 27.5 95.5t79 65t120.5 23.5q58 0 116.5 -13.5t108.5 -39.5l-21 -146h-14q-20 88 -72.5 129.5t-121.5 41.5q-51 0 -86 -30t-35 -78
q0 -39 22.5 -65.5t55.5 -42.5t92 -37q70 -25 113.5 -47.5t74 -64t30.5 -106.5q0 -59 -31 -104t-87 -69t-130 -24q-73 0 -137.5 19.5t-105.5 54.5l21 158h14q28 -96 83.5 -150zM368 877h161l-249 -144h-14z" />
    <glyph glyph-name="sacute" unicode="&#x15b;" horiz-adv-x="433" 
d="M134.5 48.5q41.5 -36.5 90.5 -36.5q41 0 65.5 21.5t24.5 56.5q0 28 -15 45t-37 26t-62 21q-49 14 -80 28.5t-52.5 44t-21.5 79.5q1 62 48 98t126 36q93 0 146 -30l-9 -116h-14q-14 57 -48.5 89t-82.5 32q-37 0 -59.5 -19t-22.5 -50q0 -36 27.5 -54t84.5 -35
q49 -15 80 -29.5t53 -44t22 -78.5q0 -67 -49 -107t-127 -40q-60 0 -107.5 14t-69.5 33l11 120h14q23 -68 64.5 -104.5zM240 701h147l-187 -167h-14z" />
    <glyph glyph-name="Scircumflex" unicode="&#x15c;" horiz-adv-x="637" 
d="M196.5 68q55.5 -54 128.5 -54q60 0 97 32.5t37 85.5q0 46 -23.5 75.5t-58 46.5t-93.5 37q-66 23 -107 44.5t-69.5 61t-28.5 101.5q0 54 27.5 95.5t79 65t120.5 23.5q58 0 116.5 -13.5t108.5 -39.5l-21 -146h-14q-20 88 -72.5 129.5t-121.5 41.5q-51 0 -86 -30t-35 -78
q0 -39 22.5 -65.5t55.5 -42.5t92 -37q70 -25 113.5 -47.5t74 -64t30.5 -106.5q0 -59 -31 -104t-87 -69t-130 -24q-73 0 -137.5 19.5t-105.5 54.5l21 158h14q28 -96 83.5 -150zM270 877h104l108 -129h-16l-144 64l-147 -64h-16z" />
    <glyph glyph-name="scircumflex" unicode="&#x15d;" horiz-adv-x="433" 
d="M134.5 48.5q41.5 -36.5 90.5 -36.5q41 0 65.5 21.5t24.5 56.5q0 28 -15 45t-37 26t-62 21q-49 14 -80 28.5t-52.5 44t-21.5 79.5q1 62 48 98t126 36q93 0 146 -30l-9 -116h-14q-14 57 -48.5 89t-82.5 32q-37 0 -59.5 -19t-22.5 -50q0 -36 27.5 -54t84.5 -35
q49 -15 80 -29.5t53 -44t22 -78.5q0 -67 -49 -107t-127 -40q-60 0 -107.5 14t-69.5 33l11 120h14q23 -68 64.5 -104.5zM164 682h107l98 -149h-13l-137 84l-136 -84h-15z" />
    <glyph glyph-name="Scedilla" unicode="&#x15e;" horiz-adv-x="637" 
d="M196.5 68q55.5 -54 128.5 -54q60 0 97 32.5t37 85.5q0 46 -23.5 75.5t-58 46.5t-93.5 37q-66 23 -107 44.5t-69.5 61t-28.5 101.5q0 54 27.5 95.5t79 65t120.5 23.5q58 0 116.5 -13.5t108.5 -39.5l-21 -146h-14q-20 88 -72.5 129.5t-121.5 41.5q-51 0 -86 -30t-35 -78
q0 -39 22.5 -65.5t55.5 -42.5t92 -37q70 -25 113.5 -47.5t74 -64t30.5 -106.5q0 -87 -64.5 -140.5t-171.5 -56.5l-14 -36q115 -21 115 -87q0 -34 -27 -54.5t-74 -20.5q-60 0 -98 34l6 8q31 -19 62 -19q23 0 36 10t13 27q0 19 -17.5 30.5t-56.5 18.5l36 89q-71 1 -133 20.5
t-103 53.5l21 158h14q28 -96 83.5 -150z" />
    <glyph glyph-name="scedilla" unicode="&#x15f;" horiz-adv-x="433" 
d="M134.5 48.5q41.5 -36.5 90.5 -36.5q41 0 65.5 21.5t24.5 56.5q0 28 -15 45t-37 26t-62 21q-49 14 -80 28.5t-52.5 44t-21.5 79.5q1 62 48 98t126 36q93 0 146 -30l-9 -116h-14q-14 57 -48.5 89t-82.5 32q-37 0 -59.5 -19t-22.5 -50q0 -36 27.5 -54t84.5 -35
q49 -15 80 -29.5t53 -44t22 -78.5q0 -67 -49 -107t-127 -40h-8l-14 -36q115 -21 115 -87q0 -34 -27 -54.5t-74 -20.5q-60 0 -98 34l6 8q31 -19 62 -19q23 0 36 10t13 27q0 19 -17.5 30.5t-56.5 18.5l36 90q-51 3 -91 16t-59 30l11 120h14q23 -68 64.5 -104.5z" />
    <glyph glyph-name="Scaron" unicode="&#x160;" horiz-adv-x="637" 
d="M196.5 68q55.5 -54 128.5 -54q60 0 97 32.5t37 85.5q0 46 -23.5 75.5t-58 46.5t-93.5 37q-66 23 -107 44.5t-69.5 61t-28.5 101.5q0 54 27.5 95.5t79 65t120.5 23.5q58 0 116.5 -13.5t108.5 -39.5l-21 -146h-14q-20 88 -72.5 129.5t-121.5 41.5q-51 0 -86 -30t-35 -78
q0 -39 22.5 -65.5t55.5 -42.5t92 -37q70 -25 113.5 -47.5t74 -64t30.5 -106.5q0 -59 -31 -104t-87 -69t-130 -24q-73 0 -137.5 19.5t-105.5 54.5l21 158h14q28 -96 83.5 -150zM174 877l147 -64l144 64h16l-108 -129h-104l-111 129h16z" />
    <glyph glyph-name="scaron" unicode="&#x161;" horiz-adv-x="433" 
d="M134.5 48.5q41.5 -36.5 90.5 -36.5q41 0 65.5 21.5t24.5 56.5q0 28 -15 45t-37 26t-62 21q-49 14 -80 28.5t-52.5 44t-21.5 79.5q1 62 48 98t126 36q93 0 146 -30l-9 -116h-14q-14 57 -48.5 89t-82.5 32q-37 0 -59.5 -19t-22.5 -50q0 -36 27.5 -54t84.5 -35
q49 -15 80 -29.5t53 -44t22 -78.5q0 -67 -49 -107t-127 -40q-60 0 -107.5 14t-69.5 33l11 120h14q23 -68 64.5 -104.5zM83 693l136 -84l137 84h13l-98 -149h-107l-96 149h15z" />
    <glyph glyph-name="uni0162" unicode="&#x162;" horiz-adv-x="666" 
d="M411 36q19 -17 70 -22v-14h-139l-19 -50q115 -21 115 -87q0 -34 -27 -54.5t-74 -20.5q-60 0 -98 34l6 8q31 -19 62 -19q23 0 36 10t13 27q0 19 -17.5 30.5t-56.5 18.5l42 103h-138v14q50 5 69 22t19 59v545h-45q-81 0 -124.5 -39t-62.5 -113h-14l26 191q63 -11 141 -11
h276q78 0 141 11l27 -191h-14q-20 75 -63 113.5t-124 38.5h-46v-545q0 -42 19 -59z" />
    <glyph glyph-name="uni0163" unicode="&#x163;" horiz-adv-x="332" 
d="M267 7q-32 -20 -71 -20q-15 0 -23 1l-14 -38q115 -21 115 -87q0 -34 -27 -54.5t-74 -20.5q-60 0 -98 34l6 8q31 -19 62 -19q23 0 36 10t13 27q0 19 -17.5 30.5t-56.5 18.5l38 95q-41 11 -63.5 45t-22.5 89v303h-60v14q47 38 83 73t72 82h14v-144h127v-25h-127v-304
q0 -42 18 -64.5t54 -22.5q31 0 53 25l10 -6q-15 -30 -47 -50z" />
    <glyph glyph-name="Tcaron" unicode="&#x164;" horiz-adv-x="666" 
d="M411 36q19 -17 70 -22v-14h-295v14q50 5 69 22t19 59v545h-45q-81 0 -124.5 -39t-62.5 -113h-14l26 191q63 -11 141 -11h276q78 0 141 11l27 -191h-14q-20 75 -63 113.5t-124 38.5h-46v-545q0 -42 19 -59zM188 877l147 -64l144 64h16l-108 -129h-104l-111 129h16z" />
    <glyph glyph-name="tcaron" unicode="&#x165;" horiz-adv-x="332" 
d="M267 7q-32 -20 -71 -20q-60 0 -93 36t-33 103v303h-60v14q47 38 83 73t72 82h14v-144h127v-25h-127v-304q0 -42 18 -64.5t54 -22.5q31 0 53 25l10 -6q-15 -30 -47 -50zM248 698h102l-107 -201h-8z" />
    <glyph glyph-name="Tbar" unicode="&#x166;" horiz-adv-x="666" 
d="M411 36q19 -17 70 -22v-14h-295v14q50 5 69 22t19 59v228h-104v24h104v293h-45q-81 0 -124.5 -39t-62.5 -113h-14l26 191q63 -11 141 -11h276q78 0 141 11l27 -191h-14q-20 75 -63 113.5t-124 38.5h-46v-293h105v-24h-105v-228q0 -42 19 -59z" />
    <glyph glyph-name="tbar" unicode="&#x167;" horiz-adv-x="332" 
d="M267 7q-32 -20 -71 -20q-60 0 -93 36t-33 103v170h-57v24h57v109h-60v14q47 38 83 73t72 82h14v-144h127v-25h-127v-109h126v-24h-126v-171q0 -42 18 -64.5t54 -22.5q31 0 53 25l10 -6q-15 -30 -47 -50z" />
    <glyph glyph-name="Utilde" unicode="&#x168;" horiz-adv-x="754" 
d="M727 668v-14q-48 -4 -68.5 -18.5t-20.5 -51.5v-332q0 -131 -63.5 -198.5t-187.5 -67.5q-130 0 -200.5 67.5t-70.5 195.5v335q0 37 -20.5 51.5t-67.5 18.5v14h295v-14q-48 -4 -68.5 -18.5t-20.5 -51.5v-330q0 -104 52.5 -160t143.5 -56q86 0 133 55.5t47 160.5v330
q0 37 -20.5 51.5t-67.5 18.5v14h205zM265 806q0 41 17.5 63.5t57.5 22.5q22 0 42.5 -6.5t47.5 -19.5q23 -11 40.5 -17t33.5 -6q23 0 33 10t13 39h12v-36q0 -86 -73 -86q-20 0 -40.5 7t-47.5 19q-28 12 -44.5 18t-33.5 6q-23 0 -33 -10.5t-13 -39.5h-12v36z" />
    <glyph glyph-name="utilde" unicode="&#x169;" horiz-adv-x="545" 
d="M533 40v-14l-166 -43v131q-17 -58 -58.5 -93t-100.5 -35q-64 0 -100.5 40.5t-36.5 114.5v216q0 25 -11.5 38t-37.5 15l-12 1v14l170 44v-319q0 -47 21.5 -70.5t59.5 -23.5q42 0 72 31t30 90v180q0 25 -11 38t-37 15l-12 1v14l169 44v-375q0 -25 11.5 -38t37.5 -15z
M122 592q0 41 17.5 63.5t57.5 22.5q20 0 39.5 -6.5t45.5 -19.5q23 -11 40.5 -17t34.5 -6q21 0 30.5 10.5t12.5 38.5h12v-36q0 -86 -73 -86q-19 0 -36 6t-47 19q-29 13 -45 18.5t-33 5.5q-21 0 -31 -10.5t-13 -39.5l-12 1v36z" />
    <glyph glyph-name="Umacron" unicode="&#x16a;" horiz-adv-x="754" 
d="M727 668v-14q-48 -4 -68.5 -18.5t-20.5 -51.5v-332q0 -131 -63.5 -198.5t-187.5 -67.5q-130 0 -200.5 67.5t-70.5 195.5v335q0 37 -20.5 51.5t-67.5 18.5v14h295v-14q-48 -4 -68.5 -18.5t-20.5 -51.5v-330q0 -104 52.5 -160t143.5 -56q86 0 133 55.5t47 160.5v330
q0 37 -20.5 51.5t-67.5 18.5v14h205zM268 805h290v-24h-290v24z" />
    <glyph glyph-name="umacron" unicode="&#x16b;" horiz-adv-x="545" 
d="M533 40v-14l-166 -43v131q-17 -58 -58.5 -93t-100.5 -35q-64 0 -100.5 40.5t-36.5 114.5v216q0 25 -11.5 38t-37.5 15l-12 1v14l170 44v-319q0 -47 21.5 -70.5t59.5 -23.5q42 0 72 31t30 90v180q0 25 -11 38t-37 15l-12 1v14l169 44v-375q0 -25 11.5 -38t37.5 -15z
M127 600h290v-24h-290v24z" />
    <glyph glyph-name="Ubreve" unicode="&#x16c;" horiz-adv-x="754" 
d="M727 668v-14q-48 -4 -68.5 -18.5t-20.5 -51.5v-332q0 -131 -63.5 -198.5t-187.5 -67.5q-130 0 -200.5 67.5t-70.5 195.5v335q0 37 -20.5 51.5t-67.5 18.5v14h295v-14q-48 -4 -68.5 -18.5t-20.5 -51.5v-330q0 -104 52.5 -160t143.5 -56q86 0 133 55.5t47 160.5v330
q0 37 -20.5 51.5t-67.5 18.5v14h205zM286 882q6 -34 38 -52t89 -18t89.5 18t38.5 52h12q1 -63 -36 -101.5t-104 -38.5t-103.5 38.5t-35.5 101.5h12z" />
    <glyph glyph-name="ubreve" unicode="&#x16d;" horiz-adv-x="545" 
d="M533 40v-14l-166 -43v131q-17 -58 -58.5 -93t-100.5 -35q-64 0 -100.5 40.5t-36.5 114.5v216q0 25 -11.5 38t-37.5 15l-12 1v14l170 44v-319q0 -47 21.5 -70.5t59.5 -23.5q42 0 72 31t30 90v180q0 25 -11 38t-37 15l-12 1v14l169 44v-375q0 -25 11.5 -38t37.5 -15z
M156 695q3 -44 32 -63.5t84 -19.5t84.5 19.5t32.5 63.5h13q2 -73 -32 -114t-98 -41q-63 0 -97 41t-32 114h13z" />
    <glyph glyph-name="Uring" unicode="&#x16e;" horiz-adv-x="754" 
d="M727 668v-14q-48 -4 -68.5 -18.5t-20.5 -51.5v-332q0 -131 -63.5 -198.5t-187.5 -67.5q-130 0 -200.5 67.5t-70.5 195.5v335q0 37 -20.5 51.5t-67.5 18.5v14h295v-14q-48 -4 -68.5 -18.5t-20.5 -51.5v-330q0 -104 52.5 -160t143.5 -56q86 0 133 55.5t47 160.5v330
q0 37 -20.5 51.5t-67.5 18.5v14h205zM342.5 896q28.5 26 71.5 26t71 -26t28 -65q0 -40 -28 -66t-71 -26t-71.5 26t-28.5 66q0 39 28.5 65zM361 780q21 -20 53 -20t53 20t21 51t-21 51t-53 20t-53 -20t-21 -51t21 -51z" />
    <glyph glyph-name="uring" unicode="&#x16f;" horiz-adv-x="545" 
d="M533 40v-14l-166 -43v131q-17 -58 -58.5 -93t-100.5 -35q-64 0 -100.5 40.5t-36.5 114.5v216q0 25 -11.5 38t-37.5 15l-12 1v14l170 44v-319q0 -47 21.5 -70.5t59.5 -23.5q42 0 72 31t30 90v180q0 25 -11 38t-37 15l-12 1v14l169 44v-375q0 -25 11.5 -38t37.5 -15z
M200.5 691q28.5 26 71.5 26t71 -26t28 -65q0 -40 -28 -66t-71 -26t-71.5 26t-28.5 66q0 39 28.5 65zM219 575q21 -20 53 -20t53 20t21 51t-21 51t-53 20t-53 -20t-21 -51t21 -51z" />
    <glyph glyph-name="Uhungarumlaut" unicode="&#x170;" horiz-adv-x="754" 
d="M727 668v-14q-48 -4 -68.5 -18.5t-20.5 -51.5v-332q0 -131 -63.5 -198.5t-187.5 -67.5q-130 0 -200.5 67.5t-70.5 195.5v335q0 37 -20.5 51.5t-67.5 18.5v14h295v-14q-48 -4 -68.5 -18.5t-20.5 -51.5v-330q0 -104 52.5 -160t143.5 -56q86 0 133 55.5t47 160.5v330
q0 37 -20.5 51.5t-67.5 18.5v14h205zM372 887h112l-178 -154h-15zM523 887h117l-184 -154h-16z" />
    <glyph glyph-name="uhungarumlaut" unicode="&#x171;" horiz-adv-x="545" 
d="M533 40v-14l-166 -43v131q-17 -58 -58.5 -93t-100.5 -35q-64 0 -100.5 40.5t-36.5 114.5v216q0 25 -11.5 38t-37.5 15l-12 1v14l170 44v-319q0 -47 21.5 -70.5t59.5 -23.5q42 0 72 31t30 90v180q0 25 -11 38t-37 15l-12 1v14l169 44v-375q0 -25 11.5 -38t37.5 -15z
M220 701h105l-150 -167h-15zM363 701h106l-154 -167h-16z" />
    <glyph glyph-name="Uogonek" unicode="&#x172;" horiz-adv-x="754" 
d="M727 668v-14q-48 -4 -68.5 -18.5t-20.5 -51.5v-332q0 -114 -47.5 -179.5t-141.5 -81.5q-28 -23 -44.5 -50.5t-16.5 -52.5q0 -27 16.5 -43.5t40.5 -16.5q16 0 34.5 10.5t33.5 29.5l7 -4q-14 -35 -43.5 -55.5t-64.5 -20.5q-43 0 -69 21.5t-26 56.5q0 36 26.5 68t72.5 53
q-10 -1 -29 -1q-130 0 -200.5 67.5t-70.5 195.5v335q0 37 -20.5 51.5t-67.5 18.5v14h295v-14q-48 -4 -68.5 -18.5t-20.5 -51.5v-330q0 -104 52.5 -160t143.5 -56q86 0 133 55.5t47 160.5v330q0 37 -20.5 51.5t-67.5 18.5v14h205z" />
    <glyph glyph-name="uogonek" unicode="&#x173;" horiz-adv-x="545" 
d="M533 40v-14l-128 -33q-28 -23 -45.5 -51t-17.5 -54q0 -27 16.5 -43.5t40.5 -16.5q16 0 34.5 10.5t33.5 29.5l7 -4q-14 -35 -43.5 -55.5t-64.5 -20.5q-43 0 -69 21.5t-26 56.5q0 36 25.5 67.5t70.5 52.5v128q-17 -58 -58.5 -93t-100.5 -35q-64 0 -100.5 40.5t-36.5 114.5
v216q0 25 -11.5 38t-37.5 15l-12 1v14l170 44v-319q0 -47 21.5 -70.5t59.5 -23.5q42 0 72 31t30 90v180q0 25 -11 38t-37 15l-12 1v14l169 44v-375q0 -25 11.5 -38t37.5 -15z" />
    <glyph glyph-name="Wcircumflex" unicode="&#x174;" horiz-adv-x="1037" 
d="M441.5 622q-24.5 28 -67.5 32v14h279v-14q-58 -1 -58 -49q0 -20 10 -47l145 -396l146 389q14 40 14 57q0 45 -68 46v14h198v-14q-47 -3 -72 -29t-45 -80l-212 -560h-14l-182 478l-181 -478h-14l-212 558q-19 51 -43.5 79t-67.5 32v14h280v-14q-58 -1 -58 -49
q0 -20 10 -47l145 -394l126 339l-15 40q-19 51 -43.5 79zM465 877h104l108 -129h-16l-144 64l-147 -64h-16z" />
    <glyph glyph-name="wcircumflex" unicode="&#x175;" horiz-adv-x="735" 
d="M306 427q-14 12 -34 14v13h228v-13q-29 -2 -42 -9t-13 -22q0 -8 5 -21l102 -253l97 229q10 21 10 38q0 34 -56 38v13h142v-13q-21 -2 -38.5 -21t-34.5 -59l-157 -376h-13l-135 317l-134 -317h-13l-167 396q-13 30 -28 44t-35 16v13h229v-13q-29 -2 -42.5 -9t-13.5 -22
q0 -9 6 -23l100 -250l85 196l-24 56q-10 26 -24 38zM322 682h107l98 -149h-13l-137 84l-136 -84h-15z" />
    <glyph glyph-name="Ycircumflex" unicode="&#x176;" horiz-adv-x="641" 
d="M227.5 33.5q19.5 14.5 19.5 51.5v203l-173 284q-49 79 -97 82v14h291v-14q-35 -1 -52.5 -11.5t-17.5 -28.5t15 -42l143 -240l148 240q19 31 19 49q0 17 -16.5 24.5t-52.5 8.5v14h210v-14q-40 -1 -70.5 -21t-56.5 -61l-172 -278v-209q0 -37 19 -51.5t65 -19.5v-14h-287v14
q46 5 65.5 19.5zM277 877h104l108 -129h-16l-144 64l-147 -64h-16z" />
    <glyph glyph-name="ycircumflex" unicode="&#x177;" horiz-adv-x="461" 
d="M103 -120q58 0 96 92l14 31l-157 359q-16 36 -34.5 56t-35.5 22v14h229v-14q-25 -1 -38.5 -10.5t-13.5 -25.5q0 -10 6 -24l102 -243l91 209q16 33 16 54q0 20 -13.5 29t-42.5 11v14h149v-14q-21 -3 -40.5 -25t-43.5 -73l-163 -375q-44 -98 -85.5 -138.5t-101.5 -40.5
q-27 0 -65 18l35 113q43 -39 96 -39zM187 683h107l98 -149h-13l-137 84l-136 -84h-15z" />
    <glyph glyph-name="Ydieresis" unicode="&#x178;" horiz-adv-x="641" 
d="M227.5 33.5q19.5 14.5 19.5 51.5v203l-173 284q-49 79 -97 82v14h291v-14q-35 -1 -52.5 -11.5t-17.5 -28.5t15 -42l143 -240l148 240q19 31 19 49q0 17 -16.5 24.5t-52.5 8.5v14h210v-14q-40 -1 -70.5 -21t-56.5 -61l-172 -278v-209q0 -37 19 -51.5t65 -19.5v-14h-287v14
q46 5 65.5 19.5zM191 864q20 19 50 19q29 0 48.5 -19t19.5 -47t-19.5 -47t-48.5 -19q-30 0 -50 19t-20 47t20 47zM374.5 864q20.5 19 50.5 19q29 0 48.5 -19t19.5 -47t-19.5 -47t-48.5 -19q-30 0 -50.5 19t-20.5 47t20.5 47z" />
    <glyph glyph-name="Zacute" unicode="&#x179;" horiz-adv-x="653" 
d="M431 0h-383v14l402 626h-176q-81 0 -124.5 -39t-62.5 -113h-14l26 191q63 -11 141 -11h358v-14l-402 -626h202q81 0 124 39t63 114h14l-27 -192q-63 11 -141 11zM378 877h161l-249 -144h-14z" />
    <glyph glyph-name="zacute" unicode="&#x17a;" horiz-adv-x="480" 
d="M38 14l266 415h-111q-92 0 -135 -131h-13l24 156h370v-14l-267 -415h125q42 0 77 34t55 104h13l-24 -163h-380v14zM276 701h147l-187 -167h-14z" />
    <glyph glyph-name="Zdotaccent" unicode="&#x17b;" horiz-adv-x="653" 
d="M431 0h-383v14l402 626h-176q-81 0 -124.5 -39t-62.5 -113h-14l26 191q63 -11 141 -11h358v-14l-402 -626h202q81 0 124 39t63 114h14l-27 -192q-63 11 -141 11zM277.5 879.5q21.5 20.5 53.5 20.5q31 0 52 -20.5t21 -49.5q0 -31 -21 -51.5t-52 -20.5q-32 0 -53.5 20.5
t-21.5 51.5q0 29 21.5 49.5z" />
    <glyph glyph-name="zdotaccent" unicode="&#x17c;" horiz-adv-x="480" 
d="M38 14l266 415h-111q-92 0 -135 -131h-13l24 156h370v-14l-267 -415h125q42 0 77 34t55 104h13l-24 -163h-380v14zM202 696q22 21 55 21q32 0 53.5 -21t21.5 -51q0 -31 -21.5 -52t-53.5 -21q-33 0 -55 21t-22 52q0 30 22 51z" />
    <glyph glyph-name="Zcaron" unicode="&#x17d;" horiz-adv-x="653" 
d="M431 0h-383v14l402 626h-176q-81 0 -124.5 -39t-62.5 -113h-14l26 191q63 -11 141 -11h358v-14l-402 -626h202q81 0 124 39t63 114h14l-27 -192q-63 11 -141 11zM184 877l147 -64l144 64h16l-108 -129h-104l-111 129h16z" />
    <glyph glyph-name="zcaron" unicode="&#x17e;" horiz-adv-x="480" 
d="M38 14l266 415h-111q-92 0 -135 -131h-13l24 156h370v-14l-267 -415h125q42 0 77 34t55 104h13l-24 -163h-380v14zM119 693l136 -84l137 84h13l-98 -149h-107l-96 149h15z" />
    <glyph glyph-name="longs" unicode="&#x17f;" horiz-adv-x="327" 
d="M325.5 632q-22.5 26 -48.5 26q-39 0 -57 -38.5t-18 -97.5v-453q0 -27 16.5 -38.5t64.5 -17.5v-13h-250v13q33 6 46.5 18t13.5 38v360h-75v25h75v40q0 94 55.5 141.5t140.5 47.5q28 0 55.5 -4.5t45.5 -13.5l-22 -104h-12q-8 45 -30.5 71z" />
    <glyph glyph-name="florin" unicode="&#x192;" horiz-adv-x="520" 
d="M438.5 632q-22.5 26 -48.5 26q-39 0 -57 -38.5t-18 -97.5v-68h126v-25h-126v-452q0 -94 -56 -141.5t-141 -47.5q-28 0 -55.5 4.5t-44.5 13.5l21 104h13q7 -45 29.5 -71t48.5 -26q39 0 57.5 38t18.5 98v480h-126v25h126v40q0 94 55.5 141.5t140.5 47.5q28 0 55.5 -4.5
t45.5 -13.5l-22 -104h-12q-8 45 -30.5 71z" />
    <glyph glyph-name="Aringacute" unicode="&#x1fa;" horiz-adv-x="729" 
d="M659 44.5q27 -26.5 73 -30.5v-14h-295v14q60 1 60 48q0 21 -11 48l-45 108h-254l-43 -101q-15 -35 -15 -57t16 -33.5t54 -12.5v-14h-202v14q45 3 71 28.5t49 80.5l237 560h14l241 -558q23 -54 50 -80.5zM429 246l-115 274l-116 -274h231zM290 893.5q26 25.5 66 28.5
l99 139h161l-241 -139q38 -4 63 -29t25 -62q0 -40 -28 -66t-71 -26t-71.5 26t-28.5 66q0 37 26 62.5zM311 780q21 -20 53 -20t53 20t21 51t-21 51t-53 20t-53 -20t-21 -51t21 -51z" />
    <glyph glyph-name="aringacute" unicode="&#x1fb;" horiz-adv-x="499" 
d="M80.5 19q-37.5 34 -37.5 87q0 46 21 73.5t51.5 41t79.5 27.5q42 12 66.5 22t41 29t16.5 49q0 43 -24 69.5t-62 26.5q-39 0 -61.5 -27.5t-22.5 -69.5q0 -19 7 -45h-113q2 74 57 120.5t144 46.5q86 0 135 -43.5t49 -119.5v-212q0 -25 11.5 -38t37.5 -15l12 -1v-14l-166 -43
v119q-34 -117 -146 -117q-59 0 -96.5 34zM172.5 691q28.5 26 71.5 26t71 -26t28 -65q0 -40 -28 -66t-71 -26t-71.5 26t-28.5 66q0 39 28.5 65zM175.5 68q20.5 -23 52.5 -23q37 0 64 30t27 83v128q-9 -19 -27 -30t-46 -21q-30 -11 -48 -22t-30.5 -31.5t-12.5 -55.5t20.5 -58z
M191 575q21 -20 53 -20t53 20t21 51t-21 51t-53 20t-53 -20t-21 -51t21 -51zM310 896h147l-187 -167h-14z" />
    <glyph glyph-name="AEacute" unicode="&#x1fc;" horiz-adv-x="1019" 
d="M62.5 43.5q30.5 25.5 65.5 79.5l280 435q25 39 25 57q0 17 -17.5 25.5t-54.5 13.5v14h412q78 0 141 11l27 -191h-14q-20 75 -63 113.5t-124 38.5h-142v-283h149q43 0 62.5 23.5t21.5 74.5h14v-224h-14q-2 50 -21.5 74t-62.5 24h-149v-234q0 -35 12.5 -51t40.5 -16h100
q81 0 124 38.5t63 113.5h14l-27 -191q-63 11 -141 11h-393v14q44 4 66.5 22.5t22.5 58.5v123h-257l-65 -100q-14 -22 -22 -37.5t-8 -28.5q0 -34 71 -38v-14h-202v14q35 4 65.5 29.5zM480 246v370l-239 -370h239zM692 877h161l-249 -144h-14z" />
    <glyph glyph-name="aeacute" unicode="&#x1fd;" horiz-adv-x="778" 
d="M295.5 417q-23.5 27 -62.5 27t-61.5 -28t-22.5 -69q0 -19 7 -45h-113q1 49 27 87t70.5 59t102.5 21q52 0 89.5 -16.5t58.5 -46.5q67 62 169 62q84 0 132.5 -43.5t48.5 -121.5q0 -10 -2 -32h-309q-2 -98 41.5 -154.5t119.5 -56.5q48 0 83.5 25.5t53.5 64.5l11 -3
q-14 -75 -67 -118t-133 -43q-74 0 -127.5 38t-76.5 105q-10 -74 -54.5 -109t-103.5 -35t-96.5 34t-37.5 87q0 46 21 73.5t51.5 41t79.5 27.5q42 12 66.5 22t41 29t16.5 49v1q0 41 -23.5 68zM175.5 69q20.5 -22 52.5 -22q37 0 63.5 33.5t28.5 106.5h-1v98q-9 -19 -26 -29
t-47 -22q-30 -11 -48 -21.5t-30.5 -31.5t-12.5 -55q0 -35 20.5 -57zM408 701h147l-187 -167h-14zM628 296q2 22 2 32q0 53 -24.5 84t-64.5 31q-46 0 -75 -41t-35 -106h197z" />
    <glyph glyph-name="Oslashacute" unicode="&#x1fe;" horiz-adv-x="752" 
d="M258 9l-37 -80l-21 9l37 80q-88 41 -138.5 125t-50.5 193q0 101 44 180.5t122.5 123.5t179.5 44q75 0 136 -24l36 79l21 -8l-36 -80q87 -40 137.5 -123t50.5 -192q0 -102 -44 -182t-122.5 -124.5t-178.5 -44.5q-70 0 -136 24zM195 176.5q22 -68.5 64 -109.5l252 551
q-50 38 -117 38q-68 0 -118 -38.5t-76.5 -110.5t-26.5 -171q0 -91 22 -159.5zM394 14q68 0 117.5 38.5t76 111t26.5 172.5q0 90 -22 158t-64 109l-251 -551q50 -38 117 -38zM446 878h161l-249 -144h-14z" />
    <glyph glyph-name="oslashacute" unicode="&#x1ff;" horiz-adv-x="512" 
d="M166 2l-26 -58l-21 9l26 58q-55 30 -85.5 86t-30.5 130q0 71 28.5 126t80 85.5t118.5 30.5q49 0 92 -17l28 64l21 -8l-29 -65q55 -30 85.5 -86t30.5 -130q0 -71 -28.5 -126t-80.5 -85.5t-119 -30.5q-48 0 -90 17zM174 67l151 342q-27 35 -69 35q-53 0 -82 -56.5
t-29 -160.5t29 -160zM256 11q53 0 82.5 56t29.5 160q0 101 -28 159l-152 -341q28 -34 68 -34zM277 701h147l-187 -167h-14z" />
    <glyph glyph-name="uni0218" unicode="&#x218;" horiz-adv-x="637" 
d="M196.5 68q55.5 -54 128.5 -54q60 0 97 32.5t37 85.5q0 46 -23.5 75.5t-58 46.5t-93.5 37q-66 23 -107 44.5t-69.5 61t-28.5 101.5q0 54 27.5 95.5t79 65t120.5 23.5q58 0 116.5 -13.5t108.5 -39.5l-21 -146h-14q-20 88 -72.5 129.5t-121.5 41.5q-51 0 -86 -30t-35 -78
q0 -39 22.5 -65.5t55.5 -42.5t92 -37q70 -25 113.5 -47.5t74 -64t30.5 -106.5q0 -59 -31 -104t-87 -69t-130 -24q-73 0 -137.5 19.5t-105.5 54.5l21 158h14q28 -96 83.5 -150zM285 -95.5q17 16.5 43 16.5q31 0 48 -22t17 -61q0 -53 -35.5 -88t-87.5 -40l-1 15
q31 5 50.5 24.5t20.5 53.5q-10 -2 -15 -2q-24 0 -40.5 17.5t-16.5 42.5q0 27 17 43.5z" />
    <glyph glyph-name="uni0219" unicode="&#x219;" horiz-adv-x="433" 
d="M134.5 48.5q41.5 -36.5 90.5 -36.5q41 0 65.5 21.5t24.5 56.5q0 28 -15 45t-37 26t-62 21q-49 14 -80 28.5t-52.5 44t-21.5 79.5q1 62 48 98t126 36q93 0 146 -30l-9 -116h-14q-14 57 -48.5 89t-82.5 32q-37 0 -59.5 -19t-22.5 -50q0 -36 27.5 -54t84.5 -35
q49 -15 80 -29.5t53 -44t22 -78.5q0 -67 -49 -107t-127 -40q-60 0 -107.5 14t-69.5 33l11 120h14q23 -68 64.5 -104.5zM177 -95.5q17 16.5 43 16.5q31 0 48 -22t17 -61q0 -53 -35.5 -88t-87.5 -40l-1 15q31 5 50.5 24.5t20.5 53.5q-10 -2 -15 -2q-24 0 -40.5 17.5
t-16.5 42.5q0 27 17 43.5z" />
    <glyph glyph-name="uni021A" unicode="&#x21a;" horiz-adv-x="666" 
d="M411 36q19 -17 70 -22v-14h-295v14q50 5 69 22t19 59v545h-45q-81 0 -124.5 -39t-62.5 -113h-14l26 191q63 -11 141 -11h276q78 0 141 11l27 -191h-14q-20 75 -63 113.5t-124 38.5h-46v-545q0 -42 19 -59zM289 -95.5q17 16.5 43 16.5q31 0 48 -22t17 -61q0 -53 -35.5 -88
t-87.5 -40l-1 15q31 5 50.5 24.5t20.5 53.5q-10 -2 -15 -2q-24 0 -40.5 17.5t-16.5 42.5q0 27 17 43.5z" />
    <glyph glyph-name="uni021B" unicode="&#x21b;" horiz-adv-x="332" 
d="M267 7q-32 -20 -71 -20q-60 0 -93 36t-33 103v303h-60v14q47 38 83 73t72 82h14v-144h127v-25h-127v-304q0 -42 18 -64.5t54 -22.5q31 0 53 25l10 -6q-15 -30 -47 -50zM136 -95.5q17 16.5 43 16.5q31 0 48 -22t17 -61q0 -53 -35.5 -88t-87.5 -40l-1 15q31 5 50.5 24.5
t20.5 53.5q-10 -2 -15 -2q-24 0 -40.5 17.5t-16.5 42.5q0 27 17 43.5z" />
    <glyph glyph-name="uni0237" unicode="&#x237;" horiz-adv-x="242" 
d="M13 425l169 44v-395q0 -72 -17.5 -124t-62.5 -93t-126 -70l-6 12q35 25 56.5 52t34 71t12.5 112v323q0 25 -11 38t-37 15l-12 1v14z" />
    <glyph glyph-name="circumflex" unicode="&#x2c6;" horiz-adv-x="501" 
d="M303 682l98 -149h-13l-137 84l-136 -84h-15l96 149h107z" />
    <glyph glyph-name="caron" unicode="&#x2c7;" horiz-adv-x="501" 
d="M100 693h15l136 -84l137 84h13l-98 -149h-107z" />
    <glyph glyph-name="breve" unicode="&#x2d8;" horiz-adv-x="461" 
d="M133 581q-34 41 -32 114h13q3 -44 32 -63.5t84 -19.5t84.5 19.5t32.5 63.5h13q2 -73 -32 -114t-98 -41q-63 0 -97 41z" />
    <glyph glyph-name="dotaccent" unicode="&#x2d9;" horiz-adv-x="352" 
d="M122 593q-22 21 -22 52q0 30 22 51t55 21q32 0 53.5 -21t21.5 -51q0 -31 -21.5 -52t-53.5 -21q-33 0 -55 21z" />
    <glyph glyph-name="ring" unicode="&#x2da;" horiz-adv-x="399" 
d="M128.5 560q-28.5 26 -28.5 66q0 39 28.5 65t71.5 26t71 -26t28 -65q0 -40 -28 -66t-71 -26t-71.5 26zM147 575q21 -20 53 -20t53 20t21 51t-21 51t-53 20t-53 -20t-21 -51t21 -51z" />
    <glyph glyph-name="ogonek" unicode="&#x2db;" horiz-adv-x="403" 
d="M126 -190.5q-26 21.5 -26 56.5q0 42 36 78t96 56h12q-33 -23 -53 -53.5t-20 -58.5q0 -27 16.5 -43.5t40.5 -16.5q16 0 34.5 10.5t33.5 29.5l7 -4q-14 -35 -43.5 -55.5t-64.5 -20.5q-43 0 -69 21.5z" />
    <glyph glyph-name="tilde" unicode="&#x2dc;" horiz-adv-x="490" 
d="M117.5 655.5q17.5 22.5 57.5 22.5q20 0 39.5 -6.5t45.5 -19.5q23 -11 40.5 -17t34.5 -6q21 0 30.5 10.5t12.5 38.5h12v-36q0 -86 -73 -86q-19 0 -36 6t-47 19q-29 13 -45 18.5t-33 5.5q-21 0 -31 -10.5t-13 -39.5l-12 1v36q0 41 17.5 63.5z" />
    <glyph glyph-name="hungarumlaut" unicode="&#x2dd;" horiz-adv-x="506" 
d="M100 534l60 167h105l-150 -167h-15zM303 701h106l-154 -167h-16z" />
    <glyph glyph-name="uni0394" unicode="&#x394;" horiz-adv-x="663" 
d="M38 16l285 667h14l289 -665v-18h-588v16zM491 28l-210 493l-207 -493h417z" />
    <glyph glyph-name="uni03A9" unicode="&#x3a9;" horiz-adv-x="775" 
d="M254 0q-107 0 -173 -13l-25 184h12q18 -57 61.5 -80t126.5 -23h68v56q-77 6 -139 44.5t-97.5 101.5t-35.5 139q0 84 41.5 145.5t117.5 95t177 33.5t176.5 -33.5t117 -95.5t41.5 -146q0 -73 -33 -136t-94.5 -102.5t-144.5 -45.5v-57h68q83 0 126.5 23.5t61.5 79.5h12
l-24 -183q-69 12 -174 12h-96v153q44 0 84 33t64.5 92.5t24.5 134.5q0 116 -55.5 179.5t-154.5 63.5t-155 -63.5t-56 -179.5q0 -75 25 -134.5t65 -92.5t83 -33v-152h-96z" />
    <glyph glyph-name="uni03BC" unicode="&#x3bc;" horiz-adv-x="545" 
d="M533 40v-14l-166 -43v131q-17 -58 -58.5 -93t-100.5 -35q-44 0 -76 20t-47 58q10 -135 94 -261h-114q0 25 2 115q4 120 4 217v6v216q0 25 -11.5 38t-37.5 15l-12 1v14l170 44v-319q0 -47 21.5 -70.5t59.5 -23.5q42 0 72 31t30 90v180q0 25 -11 38t-37 15l-12 1v14l169 44
v-375q0 -25 11.5 -38t37.5 -15z" />
    <glyph glyph-name="pi" unicode="&#x3c0;" horiz-adv-x="571" 
d="M72 31q13 12 13 37v361h-75v25h553v-25h-87v-334q0 -38 16 -58t56 -23v-14q-24 -3 -45 -3q-70 0 -103 32t-33 97v303h-173v-361q0 -25 13.5 -37.5t40.5 -16.5v-14h-218v14q29 5 42 17z" />
    <glyph glyph-name="Wgrave" unicode="&#x1e80;" horiz-adv-x="1037" 
d="M441.5 622q-24.5 28 -67.5 32v14h279v-14q-58 -1 -58 -49q0 -20 10 -47l145 -396l146 389q14 40 14 57q0 45 -68 46v14h198v-14q-47 -3 -72 -29t-45 -80l-212 -560h-14l-182 478l-181 -478h-14l-212 558q-19 51 -43.5 79t-67.5 32v14h280v-14q-58 -1 -58 -49
q0 -20 10 -47l145 -394l126 339l-15 40q-19 51 -43.5 79zM461 876l102 -144h-14l-249 144h161z" />
    <glyph glyph-name="wgrave" unicode="&#x1e81;" horiz-adv-x="735" 
d="M306 427q-14 12 -34 14v13h228v-13q-29 -2 -42 -9t-13 -22q0 -8 5 -21l102 -253l97 229q10 21 10 38q0 34 -56 38v13h142v-13q-21 -2 -38.5 -21t-34.5 -59l-157 -376h-13l-135 317l-134 -317h-13l-167 396q-13 30 -28 44t-35 16v13h229v-13q-29 -2 -42.5 -9t-13.5 -22
q0 -9 6 -23l100 -250l85 196l-24 56q-10 26 -24 38zM372 701l54 -167h-14l-187 167h147z" />
    <glyph glyph-name="Wacute" unicode="&#x1e82;" horiz-adv-x="1037" 
d="M441.5 622q-24.5 28 -67.5 32v14h279v-14q-58 -1 -58 -49q0 -20 10 -47l145 -396l146 389q14 40 14 57q0 45 -68 46v14h198v-14q-47 -3 -72 -29t-45 -80l-212 -560h-14l-182 478l-181 -478h-14l-212 558q-19 51 -43.5 79t-67.5 32v14h280v-14q-58 -1 -58 -49
q0 -20 10 -47l145 -394l126 339l-15 40q-19 51 -43.5 79zM563 877h161l-249 -144h-14z" />
    <glyph glyph-name="wacute" unicode="&#x1e83;" horiz-adv-x="735" 
d="M306 427q-14 12 -34 14v13h228v-13q-29 -2 -42 -9t-13 -22q0 -8 5 -21l102 -253l97 229q10 21 10 38q0 34 -56 38v13h142v-13q-21 -2 -38.5 -21t-34.5 -59l-157 -376h-13l-135 317l-134 -317h-13l-167 396q-13 30 -28 44t-35 16v13h229v-13q-29 -2 -42.5 -9t-13.5 -22
q0 -9 6 -23l100 -250l85 196l-24 56q-10 26 -24 38zM398 701h147l-187 -167h-14z" />
    <glyph glyph-name="Wdieresis" unicode="&#x1e84;" horiz-adv-x="1037" 
d="M441.5 622q-24.5 28 -67.5 32v14h279v-14q-58 -1 -58 -49q0 -20 10 -47l145 -396l146 389q14 40 14 57q0 45 -68 46v14h198v-14q-47 -3 -72 -29t-45 -80l-212 -560h-14l-182 478l-181 -478h-14l-212 558q-19 51 -43.5 79t-67.5 32v14h280v-14q-58 -1 -58 -49
q0 -20 10 -47l145 -394l126 339l-15 40q-19 51 -43.5 79zM379 864q20 19 50 19q29 0 48.5 -19t19.5 -47t-19.5 -47t-48.5 -19q-30 0 -50 19t-20 47t20 47zM562.5 864q20.5 19 50.5 19q29 0 48.5 -19t19.5 -47t-19.5 -47t-48.5 -19q-30 0 -50.5 19t-20.5 47t20.5 47z" />
    <glyph glyph-name="wdieresis" unicode="&#x1e85;" horiz-adv-x="735" 
d="M306 427q-14 12 -34 14v13h228v-13q-29 -2 -42 -9t-13 -22q0 -8 5 -21l102 -253l97 229q10 21 10 38q0 34 -56 38v13h142v-13q-21 -2 -38.5 -21t-34.5 -59l-157 -376h-13l-135 317l-134 -317h-13l-167 396q-13 30 -28 44t-35 16v13h229v-13q-29 -2 -42.5 -9t-13.5 -22
q0 -9 6 -23l100 -250l85 196l-24 56q-10 26 -24 38zM236.5 661.5q20.5 19.5 51.5 19.5q30 0 50 -19.5t20 -48.5t-20 -48.5t-50 -19.5q-31 0 -51.5 19.5t-20.5 48.5t20.5 48.5zM424.5 661.5q20.5 19.5 51.5 19.5q30 0 50 -19.5t20 -48.5t-20 -48.5t-50 -19.5
q-31 0 -51.5 19.5t-20.5 48.5t20.5 48.5z" />
    <glyph glyph-name="uni1E9E" unicode="&#x1e9e;" horiz-adv-x="865" 
d="M368 60l20 147h16q25 -99 66.5 -146t106.5 -47q52 0 81 28.5t29 76.5q0 33 -15 57.5t-40 44t-76 52.5q-6 3 -18 11q-49 31 -78.5 56.5t-46 57.5t-16.5 76q0 60 34.5 103t105.5 63h-293v-545q0 -42 20.5 -59t68.5 -22v-14h-295v14q47 5 67.5 22t20.5 59v479q0 42 -20.5 59
t-67.5 21v14h667v-28h-33q-85 0 -130 -30.5t-45 -88.5q0 -30 13 -51.5t38.5 -41.5t79.5 -54q65 -42 99 -70t52 -61t18 -78q0 -85 -57 -132t-161 -47q-120 0 -211 74z" />
    <glyph glyph-name="Ygrave" unicode="&#x1ef2;" horiz-adv-x="641" 
d="M227.5 33.5q19.5 14.5 19.5 51.5v203l-173 284q-49 79 -97 82v14h291v-14q-35 -1 -52.5 -11.5t-17.5 -28.5t15 -42l143 -240l148 240q19 31 19 49q0 17 -16.5 24.5t-52.5 8.5v14h210v-14q-40 -1 -70.5 -21t-56.5 -61l-172 -278v-209q0 -37 19 -51.5t65 -19.5v-14h-287v14
q46 5 65.5 19.5zM273 876l102 -144h-14l-249 144h161z" />
    <glyph glyph-name="ygrave" unicode="&#x1ef3;" horiz-adv-x="461" 
d="M103 -120q58 0 96 92l14 31l-157 359q-16 36 -34.5 56t-35.5 22v14h229v-14q-25 -1 -38.5 -10.5t-13.5 -25.5q0 -10 6 -24l102 -243l91 209q16 33 16 54q0 20 -13.5 29t-42.5 11v14h149v-14q-21 -3 -40.5 -25t-43.5 -73l-163 -375q-44 -98 -85.5 -138.5t-101.5 -40.5
q-27 0 -65 18l35 113q43 -39 96 -39zM237 702l54 -167h-14l-187 167h147z" />
    <glyph glyph-name="endash" unicode="&#x2013;" horiz-adv-x="414" 
d="M379 246h-344v29h344v-29z" />
    <glyph glyph-name="emdash" unicode="&#x2014;" horiz-adv-x="782" 
d="M747 246h-712v29h712v-29z" />
    <glyph glyph-name="quoteleft" unicode="&#x2018;" horiz-adv-x="264" 
d="M139 706.5q-26 -30.5 -27 -65.5q11 4 24 4q31 0 51.5 -21t20.5 -53q-1 -31 -22 -51t-54 -20q-38 0 -58.5 25.5t-20.5 68.5q0 71 39 114.5t108 56.5l2 -10q-37 -18 -63 -48.5z" />
    <glyph glyph-name="quoteright" unicode="&#x2019;" horiz-adv-x="264" 
d="M124 559q26 31 28 66q-12 -4 -25 -4q-31 0 -51.5 21t-20.5 53q1 31 22.5 51t53.5 20q38 0 59 -26t21 -68q0 -71 -39.5 -114.5t-107.5 -56.5l-3 9q37 18 63 49z" />
    <glyph glyph-name="quotesinglbase" unicode="&#x201a;" horiz-adv-x="264" 
d="M124 -77q26 31 28 66q-12 -4 -25 -4q-31 0 -51.5 21t-20.5 53q1 31 22.5 51t53.5 20q38 0 59 -26t21 -68q0 -71 -39.5 -114.5t-107.5 -56.5l-3 9q37 18 63 49z" />
    <glyph glyph-name="quotedblleft" unicode="&#x201c;" horiz-adv-x="459" 
d="M334 708q-26 -31 -27 -66q11 4 24 4q31 0 51.5 -21t20.5 -53q-1 -31 -22 -51t-54 -20q-37 0 -58 26t-21 69q0 71 39 114t108 56l2 -9q-37 -18 -63 -49zM92 710q39 43 108 56l2 -9q-37 -18 -63 -49t-27 -66q11 4 24 4q31 0 51.5 -21t20.5 -53q-1 -31 -22 -51t-54 -20
q-37 0 -58 26t-21 69q0 71 39 114z" />
    <glyph glyph-name="quotedblright" unicode="&#x201d;" horiz-adv-x="459" 
d="M124 560q26 31 28 66q-12 -4 -25 -4q-31 0 -51.5 21t-20.5 53q1 31 22.5 51t53.5 20q38 0 59 -26t21 -68q0 -71 -39.5 -114.5t-107.5 -56.5l-3 9q37 18 63 49zM319 560q26 31 28 66q-12 -4 -25 -4q-31 0 -51.5 21t-20.5 53q1 31 22.5 51t53.5 20q38 0 59 -26t21 -68
q0 -71 -39.5 -114.5t-107.5 -56.5l-3 9q37 18 63 49z" />
    <glyph glyph-name="quotedblbase" unicode="&#x201e;" horiz-adv-x="459" 
d="M124 -77q26 31 28 66q-12 -4 -25 -4q-31 0 -51.5 21t-20.5 53q1 31 22.5 51t53.5 20q38 0 59 -26t21 -68q0 -71 -39.5 -114.5t-107.5 -56.5l-3 9q37 18 63 49zM319 -77q26 31 28 66q-12 -4 -25 -4q-31 0 -51.5 21t-20.5 53q1 31 22.5 51t53.5 20q38 0 59 -26t21 -68
q0 -71 -39.5 -114.5t-107.5 -56.5l-3 9q37 18 63 49z" />
    <glyph glyph-name="dagger" unicode="&#x2020;" horiz-adv-x="533" 
d="M209 36q19 17 19 59v356h-75q-52 0 -71.5 -22t-19.5 -68h-14v206h14q0 -46 19.5 -68t71.5 -22h75v102q0 38 -19.5 54.5t-59.5 20.5v14h235v-14q-39 -4 -58.5 -20.5t-19.5 -54.5v-102h75q52 0 71 22t20 68h14v-206h-14q-1 46 -20 68t-71 22h-75v-356q0 -42 19 -59t59 -22
v-14h-235v14q41 5 60 22z" />
    <glyph glyph-name="daggerdbl" unicode="&#x2021;" horiz-adv-x="533" 
d="M208.5 35.5q19.5 16.5 19.5 54.5v81h-80q-50 0 -68 -22t-18 -67h-14v205h14q0 -46 18 -68t68 -22h80v274h-80q-50 0 -68 -22t-18 -67h-14v205h14q0 -46 18 -68t68 -22h80v82q0 38 -19.5 54.5t-59.5 20.5v14h235v-14q-39 -4 -58.5 -20.5t-19.5 -54.5v-82h80q49 0 67 22
t19 68h14v-205h-14q-1 46 -19 67.5t-67 21.5h-80v-274h80q49 0 67 22t19 68h14v-205h-14q-1 46 -19 67.5t-67 21.5h-80v-81q0 -38 19 -54.5t59 -21.5v-14h-235v14q40 5 59.5 21.5z" />
    <glyph glyph-name="bullet" unicode="&#x2022;" horiz-adv-x="457" 
d="M129 99q-46 27 -73 72.5t-27 100.5q0 54 27 100t73.5 73t101.5 27q54 0 99.5 -27t72 -73t26.5 -100q0 -55 -26.5 -100.5t-72 -72.5t-99.5 -27q-56 0 -102 27z" />
    <glyph glyph-name="ellipsis" unicode="&#x2026;" horiz-adv-x="798" 
d="M77.5 6.5q-22.5 21.5 -22.5 54.5q0 32 22.5 53.5t56.5 21.5t56.5 -21.5t22.5 -53.5q0 -33 -22.5 -54.5t-56.5 -21.5t-56.5 21.5zM342.5 6.5q-22.5 21.5 -22.5 54.5q0 32 22.5 53.5t56.5 21.5t56.5 -21.5t22.5 -53.5q0 -33 -22.5 -54.5t-56.5 -21.5t-56.5 21.5zM607.5 6.5
q-22.5 21.5 -22.5 54.5q0 32 22.5 53.5t56.5 21.5t56.5 -21.5t22.5 -53.5q0 -33 -22.5 -54.5t-56.5 -21.5t-56.5 21.5z" />
    <glyph glyph-name="perthousand" unicode="&#x2030;" horiz-adv-x="1153" 
d="M188 1l376 668h28l-376 -668h-28zM81.5 632.5q44.5 51.5 116.5 51.5q73 0 117.5 -51.5t44.5 -137.5q0 -55 -20.5 -98.5t-57 -68t-83.5 -24.5t-84 24t-57.5 67.5t-20.5 99.5q0 86 44.5 137.5zM152 368q16 -44 47 -44q30 0 46 44t16 127q0 169 -62 169q-63 0 -63 -169
q0 -83 16 -127zM462.5 314.5q44.5 51.5 116.5 51.5q73 0 117.5 -51.5t44.5 -137.5q0 -55 -20.5 -98.5t-57 -68t-83.5 -24.5t-84 24t-57.5 67.5t-20.5 99.5q0 86 44.5 137.5zM533 50q16 -44 47 -44q30 0 46 44t16 127q0 169 -62 169q-63 0 -63 -169q0 -83 16 -127z
M837.5 314.5q44.5 51.5 116.5 51.5q73 0 117.5 -51.5t44.5 -137.5q0 -55 -20.5 -98.5t-57 -68t-83.5 -24.5t-84 24t-57.5 67.5t-20.5 99.5q0 86 44.5 137.5zM908 50q16 -44 47 -44q30 0 46 44t16 127q0 169 -62 169q-63 0 -63 -169q0 -83 16 -127z" />
    <glyph glyph-name="guilsinglleft" unicode="&#x2039;" horiz-adv-x="310" 
d="M40 269l221 183l7 -6l-111 -185l111 -185l-7 -6l-221 183v16z" />
    <glyph glyph-name="guilsinglright" unicode="&#x203a;" horiz-adv-x="310" 
d="M49 70l-7 6l111 185l-111 185l7 6l221 -183v-16z" />
    <glyph glyph-name="fraction" unicode="&#x2044;" horiz-adv-x="150" 
d="M-121 0l376 668h28l-376 -668h-28z" />
    <glyph glyph-name="uni2070" unicode="&#x2070;" horiz-adv-x="370" 
d="M101.5 373.5q-36.5 24.5 -56.5 68t-20 99.5t20 99.5t56.5 67.5t83.5 24t83.5 -24t57 -67.5t20.5 -99.5t-20.5 -100t-57 -68t-83.5 -24t-83.5 24.5zM133.5 409.5q17.5 -45.5 51.5 -45.5t51.5 45t17.5 132q0 88 -17.5 133t-51.5 45q-33 0 -51 -45.5t-18 -132.5
q0 -86 17.5 -131.5z" />
    <glyph glyph-name="uni2074" unicode="&#x2074;" horiz-adv-x="332" 
d="M317 451h-61v-32q0 -27 10.5 -38.5t37.5 -15.5v-8h-192v8q29 4 42.5 16t13.5 38v32h-162v8l170 265h80v-232h61v-41zM168 492v190l-122 -190h122z" />
    <glyph glyph-name="uni2075" unicode="&#x2075;" horiz-adv-x="319" 
d="M77 724h201v-77h-201l-21 -100q49 32 108 32q55 0 93 -29.5t38 -84.5q0 -53 -40.5 -84.5t-103.5 -31.5q-59 0 -96 28t-36 86h87q-5 -23 -5 -38q0 -30 14 -45t38 -15t37 18.5t13 52.5q0 41 -26.5 66t-71.5 25q-31 0 -63 -11l-6 6z" />
    <glyph glyph-name="uni2076" unicode="&#x2076;" horiz-adv-x="359" 
d="M66.5 398.5q-42.5 49.5 -42.5 135.5q0 94 49.5 146.5t126.5 52.5q49 0 88.5 -24t41.5 -81h-92q2 16 2 23q0 30 -13 49t-35 19q-38 0 -57.5 -49t-17.5 -120q21 48 89 48q55 0 89.5 -34.5t34.5 -87.5q0 -59 -41.5 -93t-104.5 -34q-75 0 -117.5 49.5zM133.5 394
q17.5 -30 45.5 -30t44 29t16 78q0 50 -16 76.5t-45 26.5t-45.5 -26t-16.5 -75t17.5 -79z" />
    <glyph glyph-name="uni2077" unicode="&#x2077;" horiz-adv-x="307" 
d="M211 561q-25 -69 -25 -146q0 -18 2 -58h-97q-3 64 14 111.5t47.5 85t84.5 88.5h-90q-53 0 -81 -13.5t-38 -54.5h-8l14 158q46 -8 106 -8h165v-7q-69 -87 -94 -156z" />
    <glyph glyph-name="uni2078" unicode="&#x2078;" horiz-adv-x="351" 
d="M66.5 373.5q-42.5 24.5 -42.5 67.5q0 30 22 52t65 32q-35 17 -54.5 40.5t-19.5 62.5q0 48 38 76.5t104 28.5q60 0 97.5 -24.5t37.5 -61.5q0 -26 -20 -45t-57 -29q42 -16 66 -41.5t24 -71.5q0 -49 -38 -80t-114 -31q-66 0 -108.5 24.5zM120 388q22 -24 57 -24
q29 0 47.5 17t18.5 45q0 31 -22 47t-68 35l-22 9q-33 -23 -33 -66q0 -39 22 -63zM133.5 626q12.5 -15 30.5 -23.5t51 -20.5q29 24 29 61q0 35 -18 55t-48 20q-27 0 -42 -15t-15 -39q0 -23 12.5 -38z" />
    <glyph glyph-name="uni2079" unicode="&#x2079;" horiz-adv-x="359" 
d="M292.5 682.5q42.5 -49.5 42.5 -135.5q0 -94 -49.5 -146.5t-126.5 -52.5q-49 0 -88.5 24t-41.5 81h92q-2 -16 -2 -23q0 -30 13 -49t35 -19q38 0 57.5 49t17.5 120q-21 -48 -89 -48q-55 0 -89.5 34.5t-34.5 87.5q0 59 41.5 93t104.5 34q75 0 117.5 -49.5zM136 533.5
q16 -26.5 45 -26.5t45.5 26t16.5 75t-17.5 79t-45.5 30t-44 -29t-16 -78q0 -50 16 -76.5z" />
    <glyph glyph-name="Euro" unicode="&#x20ac;" horiz-adv-x="784" 
d="M164 440q30 112 116.5 177.5t205.5 65.5q115 0 181 -50t71 -133h-117q2 18 2 26q0 59 -36 94t-101 35q-80 0 -133.5 -58.5t-69.5 -156.5h260v-25h-263q-3 -25 -3 -54q0 -32 5 -67h261v-25h-256q22 -93 86 -144.5t148 -51.5q74 0 130 39t81 109l14 -3
q-22 -110 -95.5 -171.5t-179.5 -61.5q-81 0 -148 35.5t-111 100t-56 148.5h-101v25h98q-2 26 -2 40q0 39 8 81h-104v25h109z" />
    <glyph glyph-name="uni20B9" unicode="&#x20b9;" horiz-adv-x="559" 
d="M38 305v16h86q82 0 125 38t47 109h-258v25h258q-4 72 -47 109.5t-125 37.5h-86v28h472v-25h-208q112 -41 119 -150h89v-25h-89q-4 -83 -62.5 -125.5t-157.5 -45.5l184 -195q39 -40 79 -62t78 -26v-14h-217z" />
    <glyph glyph-name="uni20BD" unicode="&#x20bd;" horiz-adv-x="654" 
d="M416 146h-173v-51q0 -43 23.5 -59.5t85.5 -21.5v-14h-315v14q47 5 67.5 22t20.5 59v51h-107v25h107v121h-107v25h107v257q0 41 -21 58.5t-67 21.5v14h311q127 0 198 -47.5t71 -140.5t-71 -141.5t-198 -48.5h-105v-119h173v-25zM322 318q83 0 126.5 43.5t43.5 118.5
q0 74 -44 117t-126 43h-79v-322h79z" />
    <glyph glyph-name="uni2116" unicode="&#x2116;" horiz-adv-x="1094" 
d="M780.5 398q-45.5 45 -45.5 121q0 75 45 119.5t115 44.5q71 0 116.5 -44.5t45.5 -119.5q0 -76 -45.5 -121t-115.5 -45t-115.5 45zM38 668h196l368 -471v383q0 41 -26.5 56.5t-83.5 17.5v14h217v-14q-40 -2 -59.5 -17.5t-19.5 -56.5v-595h-14l-451 578v-473q0 -41 25.5 -56
t83.5 -19v-15h-217v14q42 5 61 20t19 56v479q0 41 -25 60.5t-74 24.5v14zM745 278h300v-30h-300v30zM896 373q62 0 62 146q0 144 -62 144q-63 0 -63 -144q0 -146 63 -146z" />
    <glyph glyph-name="uni2117" unicode="&#x2117;" horiz-adv-x="518" 
d="M154 294q-48 28 -76 76t-28 104q0 57 28 105t76 76t104 28q57 0 105 -28t76.5 -76t28.5 -105q0 -56 -28.5 -104t-76.5 -76t-105 -28q-56 0 -104 28zM93 378q26 -44 69.5 -70t95.5 -26t96.5 26t70.5 70t26 96t-26 96.5t-70.5 70.5t-96.5 26t-95.5 -26t-69.5 -70.5
t-26 -96.5t26 -96zM162 369q16 2 22.5 9t6.5 18v158q0 23 -29 27v4h110q43 0 67 -16t24 -46q0 -31 -24 -47.5t-67 -16.5h-34v-63q0 -12 7 -18.5t29 -8.5v-4h-112v4zM260 468q26 0 39.5 15t13.5 40q0 24 -13.5 38.5t-39.5 14.5h-22v-108h22z" />
    <glyph glyph-name="trademark" unicode="&#x2122;" horiz-adv-x="720" 
d="M192 422q7 -8 28 -11v-10h-132v10q21 3 28 11t7 27v202h-4q-65 0 -81 -56h-10l10 79q33 -6 77 -6h79q45 0 76 6l11 -79h-11q-16 56 -81 56h-4v-202q0 -19 7 -27zM311 411q21 3 29 10t8 21v176q0 19 -8 29t-29 12v9h98l92 -186l89 186h93v-9q-19 -1 -28 -11t-9 -30v-176
q0 -13 8 -20t29 -11v-10h-134v10q21 3 28.5 10.5t7.5 20.5v173l-104 -220h-6l-108 219v-172q0 -13 7 -20.5t29 -10.5v-10h-92v10z" />
    <glyph glyph-name="uni2126" unicode="&#x2126;" horiz-adv-x="775" 
d="M254 0q-107 0 -173 -13l-25 184h12q18 -57 61.5 -80t126.5 -23h68v56q-77 6 -139 44.5t-97.5 101.5t-35.5 139q0 84 41.5 145.5t117.5 95t177 33.5t176.5 -33.5t117 -95.5t41.5 -146q0 -73 -33 -136t-94.5 -102.5t-144.5 -45.5v-57h68q83 0 126.5 23.5t61.5 79.5h12
l-24 -183q-69 12 -174 12h-96v153q44 0 84 33t64.5 92.5t24.5 134.5q0 116 -55.5 179.5t-154.5 63.5t-155 -63.5t-56 -179.5q0 -75 25 -134.5t65 -92.5t83 -33v-152h-96z" />
    <glyph glyph-name="estimated" unicode="&#x212e;" horiz-adv-x="791" 
d="M224 32q-82 46 -129 125.5t-47 176.5t46 176.5t125.5 125.5t176.5 46q98 0 178 -46.5t125.5 -126.5t44.5 -177h-569v-211q39 -43 98.5 -72t131.5 -29q77 0 140 33.5t109 99.5l28 -20q-46 -70 -118.5 -108.5t-158.5 -38.5q-99 0 -181 46zM618 372v177q-35 40 -94 70
t-128 30t-128.5 -30t-92.5 -71v-176h443z" />
    <glyph glyph-name="oneeighth" unicode="&#x215b;" horiz-adv-x="760" 
d="M65.5 277q11.5 8 11.5 24v258h-58v8q46 12 78.5 27t60.5 37h7v-330q0 -17 11 -25t36 -11v-8h-194v8q36 4 47.5 12zM138 0l376 668h28l-376 -668h-28zM475.5 16.5q-42.5 24.5 -42.5 67.5q0 30 22 52t65 32q-35 17 -54.5 40.5t-19.5 62.5q0 48 38 76.5t104 28.5
q60 0 97.5 -24.5t37.5 -61.5q0 -26 -20 -45t-57 -29q42 -16 66 -41.5t24 -71.5q0 -49 -38 -80t-114 -31q-66 0 -108.5 24.5zM529 31q22 -24 57 -24q29 0 47.5 17t18.5 45q0 31 -22 47t-68 35l-22 9q-33 -23 -33 -66q0 -39 22 -63zM542.5 269q12.5 -15 30.5 -23.5t51 -20.5
q29 24 29 61q0 35 -18 55t-48 20q-27 0 -42 -15t-15 -39q0 -23 12.5 -38z" />
    <glyph glyph-name="threeeighths" unicode="&#x215c;" horiz-adv-x="842" 
d="M65.5 277q-42.5 28 -41.5 86h85q-3 -12 -3 -24q0 -31 17 -52.5t44 -21.5t44.5 21.5t17.5 58.5q0 39 -20.5 62t-56.5 23q-12 0 -26 -3l-6 9l103 106h-48q-52 0 -80.5 -13.5t-38.5 -54.5h-7l13 158q46 -8 106 -8h157v-7l-166 -168q26 11 54 11q46 0 76.5 -29.5t30.5 -69.5
q0 -31 -20 -56.5t-55 -40.5t-78 -15q-59 0 -101.5 28zM220 0l376 668h28l-376 -668h-28zM557.5 16.5q-42.5 24.5 -42.5 67.5q0 30 22 52t65 32q-35 17 -54.5 40.5t-19.5 62.5q0 48 38 76.5t104 28.5q60 0 97.5 -24.5t37.5 -61.5q0 -26 -20 -45t-57 -29q42 -16 66 -41.5
t24 -71.5q0 -49 -38 -80t-114 -31q-66 0 -108.5 24.5zM611 31q22 -24 57 -24q29 0 47.5 17t18.5 45q0 31 -22 47t-68 35l-22 9q-33 -23 -33 -66q0 -39 22 -63zM624.5 269q12.5 -15 30.5 -23.5t51 -20.5q29 24 29 61q0 35 -18 55t-48 20q-27 0 -42 -15t-15 -39
q0 -23 12.5 -38z" />
    <glyph glyph-name="fiveeighths" unicode="&#x215d;" horiz-adv-x="840" 
d="M77 624h201v-77h-201l-21 -100q49 32 108 32q55 0 93 -29.5t38 -84.5q0 -53 -40.5 -84.5t-103.5 -31.5q-59 0 -96 28t-36 86h87q-5 -23 -5 -38q0 -30 14 -45t38 -15t37 18.5t13 52.5q0 41 -26.5 66t-71.5 25q-31 0 -63 -11l-6 6zM218 0l376 668h28l-376 -668h-28z
M555.5 16.5q-42.5 24.5 -42.5 67.5q0 30 22 52t65 32q-35 17 -54.5 40.5t-19.5 62.5q0 48 38 76.5t104 28.5q60 0 97.5 -24.5t37.5 -61.5q0 -26 -20 -45t-57 -29q42 -16 66 -41.5t24 -71.5q0 -49 -38 -80t-114 -31q-66 0 -108.5 24.5zM609 31q22 -24 57 -24q29 0 47.5 17
t18.5 45q0 31 -22 47t-68 35l-22 9q-33 -23 -33 -66q0 -39 22 -63zM622.5 269q12.5 -15 30.5 -23.5t51 -20.5q29 24 29 61q0 35 -18 55t-48 20q-27 0 -42 -15t-15 -39q0 -23 12.5 -38z" />
    <glyph glyph-name="seveneighths" unicode="&#x215e;" horiz-adv-x="768" 
d="M211 461q-25 -69 -25 -146q0 -18 2 -58h-97q-3 64 14 111.5t47.5 85t84.5 88.5h-90q-53 0 -81 -13.5t-38 -54.5h-8l14 158q46 -8 106 -8h165v-7q-69 -87 -94 -156zM146 0l376 668h28l-376 -668h-28zM483.5 16.5q-42.5 24.5 -42.5 67.5q0 30 22 52t65 32
q-35 17 -54.5 40.5t-19.5 62.5q0 48 38 76.5t104 28.5q60 0 97.5 -24.5t37.5 -61.5q0 -26 -20 -45t-57 -29q42 -16 66 -41.5t24 -71.5q0 -49 -38 -80t-114 -31q-66 0 -108.5 24.5zM537 31q22 -24 57 -24q29 0 47.5 17t18.5 45q0 31 -22 47t-68 35l-22 9q-33 -23 -33 -66
q0 -39 22 -63zM550.5 269q12.5 -15 30.5 -23.5t51 -20.5q29 24 29 61q0 35 -18 55t-48 20q-27 0 -42 -15t-15 -39q0 -23 12.5 -38z" />
    <glyph glyph-name="arrowleft" unicode="&#x2190;" horiz-adv-x="649" 
d="M265 467l-182 -180h528v-28h-528l182 -179l-19 -20l-209 206v14l209 207z" />
    <glyph glyph-name="arrowup" unicode="&#x2191;" horiz-adv-x="502" 
d="M245 591h14l206 -209l-20 -19l-179 182v-528h-28v528l-180 -182l-20 19z" />
    <glyph glyph-name="arrowright" unicode="&#x2192;" horiz-adv-x="649" 
d="M612 280v-14l-209 -206l-19 20l182 179h-528v28h528l-182 180l19 20z" />
    <glyph glyph-name="arrowdown" unicode="&#x2193;" horiz-adv-x="502" 
d="M258 -16h-14l-206 210l20 19l179 -182v528h28v-528l180 182l20 -19z" />
    <glyph glyph-name="uni2196" unicode="&#x2196;" horiz-adv-x="526" 
d="M371 641l-256 2l373 -374l-20 -19l-373 373l2 -255l-28 -1l-2 293l10 10l294 -1v-28z" />
    <glyph glyph-name="uni2197" unicode="&#x2197;" horiz-adv-x="526" 
d="M449 601l10 -10l-2 -293l-28 1l2 255l-373 -373l-20 19l373 374l-256 -2v28z" />
    <glyph glyph-name="uni2198" unicode="&#x2198;" horiz-adv-x="526" 
d="M459 16l-10 -10l-294 2l1 28l255 -2l-373 373l20 20l373 -373l-1 256h27z" />
    <glyph glyph-name="uni2199" unicode="&#x2199;" horiz-adv-x="526" 
d="M96 301l-1 -256l373 373l20 -20l-373 -373l255 2l1 -28l-294 -2l-10 10l2 294h27z" />
    <glyph glyph-name="partialdiff" unicode="&#x2202;" horiz-adv-x="532" 
d="M306 51q33 40 51.5 105t18.5 139q0 149 -87 149q-45 0 -78 -39.5t-50.5 -104t-17.5 -137.5q0 -152 87 -152q43 0 76 40zM59 333.5q30 62.5 86 99t130 36.5q88 0 118 -61v17q0 118 -34 175t-104 58q-54 0 -84 -33t-30 -82q0 -8 2 -26h-113q12 74 72 119.5t148 45.5
q106 0 180 -68t74 -243q0 -113 -33.5 -200.5t-95.5 -136.5t-147 -49q-92 0 -145.5 55.5t-53.5 155.5q0 75 30 137.5z" />
    <glyph glyph-name="uni2206" unicode="&#x2206;" horiz-adv-x="663" 
d="M38 16l285 667h14l289 -665v-18h-588v16zM491 28l-210 493l-207 -493h417z" />
    <glyph glyph-name="product" unicode="&#x220f;" horiz-adv-x="792" 
d="M536.5 36q20.5 17 20.5 59v545h-312v-545q0 -42 20.5 -59t68.5 -22v-14h-295v14q47 5 67.5 22t20.5 59v479q0 42 -20.5 59t-67.5 21v14h725v-14q-47 -4 -68 -21t-21 -59v-479q0 -42 20.5 -59t68.5 -22v-14h-295v14q47 5 67.5 22z" />
    <glyph glyph-name="summation" unicode="&#x2211;" horiz-adv-x="642" 
d="M192 -170h197q81 0 124 38.5t63 113.5h14l-27 -191q-63 11 -141 11h-374v14l265 431l-255 407v14h352q78 0 141 11l27 -191h-14q-20 75 -63 113.5t-124 38.5h-175l243 -389v-10z" />
    <glyph glyph-name="minus" unicode="&#x2212;" horiz-adv-x="496" 
d="M40 350h416v-31h-416v31z" />
    <glyph glyph-name="radical" unicode="&#x221a;" horiz-adv-x="464" 
d="M60 333h-70v25h168l76 -198l177 508h26l-232 -668h-16z" />
    <glyph glyph-name="infinity" unicode="&#x221e;" horiz-adv-x="691" 
d="M627.5 444.5q35.5 -40.5 35.5 -108.5t-35.5 -108t-100.5 -40q-39 0 -68 15t-50.5 38t-62.5 72q-54 -68 -95.5 -96.5t-87.5 -28.5q-62 0 -98 40.5t-36 107.5q0 68 36.5 108.5t101.5 40.5q38 0 67 -15.5t50.5 -37.5t62.5 -72q56 71 95.5 98t86.5 27q63 0 98.5 -40.5z
M87.5 249q27.5 -32 76.5 -32q41 0 74.5 25.5t88.5 92.5q-54 68 -86.5 94t-77.5 26q-50 0 -76.5 -30.5t-26.5 -86.5q0 -57 27.5 -89zM452 243q33 -26 77 -26q48 0 75.5 31t27.5 88t-27.5 88t-75.5 31q-43 0 -76.5 -25t-86.5 -92q53 -69 86 -95z" />
    <glyph glyph-name="approxequal" unicode="&#x2248;" horiz-adv-x="509" 
d="M447 207.5q-24 -38.5 -72 -38.5q-27 0 -55 14.5t-77 50.5q-45 32 -67 44.5t-43 12.5q-66 0 -61 -118h-32q-3 72 21 110t73 38q28 0 54.5 -14t77.5 -51q42 -31 65 -44t43 -13q36 0 51 31t13 84h31q2 -68 -22 -106.5zM447 388.5q-24 -38.5 -72 -38.5q-27 0 -55 14.5
t-77 50.5q-45 32 -67 44.5t-43 12.5q-66 0 -61 -118h-32q-3 72 21 110t73 38q28 0 54.5 -14t77.5 -51q42 -31 65 -44t43 -13q36 0 51 31t13 84h31q2 -68 -22 -106.5z" />
    <glyph glyph-name="notequal" unicode="&#x2260;" horiz-adv-x="519" 
d="M201 219h-160v31h172l65 170h-237v31h249l38 100h30l-38 -100h137v-31h-149l-65 -170h214v-31h-226l-38 -101h-30z" />
    <glyph glyph-name="lessequal" unicode="&#x2264;" horiz-adv-x="496" 
d="M40 0v31h416v-31h-416zM40 350l402 191l13 -28l-375 -178l376 -179l-14 -28l-402 192v30z" />
    <glyph glyph-name="greaterequal" unicode="&#x2265;" horiz-adv-x="496" 
d="M416 335l-375 178l13 28l402 -191v-30l-402 -192l-14 28zM40 31h416v-31h-416v31z" />
    <glyph glyph-name="uni2460" unicode="&#x2460;" 
d="M223.5 33q-79.5 47 -126.5 127t-47 174t47 174t126.5 127t173.5 47t174.5 -47t127.5 -127t47 -174t-47 -174t-127.5 -127t-174.5 -47t-173.5 47zM120 172.5q43 -73.5 116 -116.5t160 -43q88 0 162 43t117.5 116.5t43.5 160.5q0 88 -43.5 161.5t-117.5 117t-162 43.5
q-87 0 -160 -43.5t-116 -117t-43 -161.5q0 -87 43 -160.5zM336.5 169q11.5 8 11.5 24v258h-58v8q46 12 78.5 27t60.5 37h7v-330q0 -17 11 -25t36 -11v-8h-194v8q36 4 47.5 12z" />
    <glyph glyph-name="uni2461" unicode="&#x2461;" 
d="M223.5 33q-79.5 47 -126.5 127t-47 174t47 174t126.5 127t173.5 47t174.5 -47t127.5 -127t47 -174t-47 -174t-127.5 -127t-174.5 -47t-173.5 47zM120 172.5q43 -73.5 116 -116.5t160 -43q88 0 162 43t117.5 116.5t43.5 160.5q0 88 -43.5 161.5t-117.5 117t-162 43.5
q-87 0 -160 -43.5t-116 -117t-43 -161.5q0 -87 43 -160.5zM239 158l34 36l18 19q47 49 74.5 81.5t46.5 70.5t19 76q0 33 -13.5 52t-36.5 19t-36 -19t-13 -49q0 -26 11 -57h-96q-5 71 35 105t101 34t100.5 -31.5t39.5 -81.5q0 -40 -26.5 -72t-64.5 -56t-103 -57h119
q36 0 57 13.5t30 46.5h8l-17 -138h-287v8z" />
    <glyph glyph-name="uni2462" unicode="&#x2462;" 
d="M223.5 33q-79.5 47 -126.5 127t-47 174t47 174t126.5 127t173.5 47t174.5 -47t127.5 -127t47 -174t-47 -174t-127.5 -127t-174.5 -47t-173.5 47zM120 172.5q43 -73.5 116 -116.5t160 -43q88 0 162 43t117.5 116.5t43.5 160.5q0 88 -43.5 161.5t-117.5 117t-162 43.5
q-87 0 -160 -43.5t-116 -117t-43 -161.5q0 -87 43 -160.5zM286.5 171q-42.5 28 -41.5 86h85q-3 -12 -3 -24q0 -31 17 -52.5t44 -21.5t44.5 21.5t17.5 58.5q0 39 -20.5 62t-56.5 23q-12 0 -26 -3l-6 9l103 106h-48q-52 0 -80.5 -13.5t-38.5 -54.5h-7l13 158q46 -8 106 -8h157
v-7l-166 -168q26 11 54 11q46 0 76.5 -29.5t30.5 -69.5q0 -31 -20 -56.5t-55 -40.5t-78 -15q-59 0 -101.5 28z" />
    <glyph glyph-name="uni2463" unicode="&#x2463;" 
d="M223.5 33q-79.5 47 -126.5 127t-47 174t47 174t126.5 127t173.5 47t174.5 -47t127.5 -127t47 -174t-47 -174t-127.5 -127t-174.5 -47t-173.5 47zM120 172.5q43 -73.5 116 -116.5t160 -43q88 0 162 43t117.5 116.5t43.5 160.5q0 88 -43.5 161.5t-117.5 117t-162 43.5
q-87 0 -160 -43.5t-116 -117t-43 -161.5q0 -87 43 -160.5zM522 244h-61v-32q0 -27 10.5 -38.5t37.5 -15.5v-8h-192v8q29 4 42.5 16t13.5 38v32h-162v8l170 265h80v-232h61v-41zM373 285v190l-122 -190h122z" />
    <glyph glyph-name="uni2464" unicode="&#x2464;" 
d="M223.5 33q-79.5 47 -126.5 127t-47 174t47 174t126.5 127t173.5 47t174.5 -47t127.5 -127t47 -174t-47 -174t-127.5 -127t-174.5 -47t-173.5 47zM120 172.5q43 -73.5 116 -116.5t160 -43q88 0 162 43t117.5 116.5t43.5 160.5q0 88 -43.5 161.5t-117.5 117t-162 43.5
q-87 0 -160 -43.5t-116 -117t-43 -161.5q0 -87 43 -160.5zM304 518h201v-77h-201l-21 -100q49 32 108 32q55 0 93 -29.5t38 -84.5q0 -53 -40.5 -84.5t-103.5 -31.5q-59 0 -96 28t-36 86h87q-5 -23 -5 -38q0 -30 14 -45t38 -15t37 18.5t13 52.5q0 41 -26.5 66t-71.5 25
q-31 0 -63 -11l-6 6z" />
    <glyph glyph-name="uni2465" unicode="&#x2465;" 
d="M223.5 33q-79.5 47 -126.5 127t-47 174t47 174t126.5 127t173.5 47t174.5 -47t127.5 -127t47 -174t-47 -174t-127.5 -127t-174.5 -47t-173.5 47zM120 172.5q43 -73.5 116 -116.5t160 -43q88 0 162 43t117.5 116.5t43.5 160.5q0 88 -43.5 161.5t-117.5 117t-162 43.5
q-87 0 -160 -43.5t-116 -117t-43 -161.5q0 -87 43 -160.5zM275.5 191.5q-42.5 49.5 -42.5 135.5q0 94 49.5 146.5t126.5 52.5q49 0 88.5 -24t41.5 -81h-92q2 16 2 23q0 30 -13 49t-35 19q-38 0 -57.5 -49t-17.5 -120q21 48 89 48q55 0 89.5 -34.5t34.5 -87.5
q0 -59 -41.5 -93t-104.5 -34q-75 0 -117.5 49.5zM342.5 187q17.5 -30 45.5 -30t44 29t16 78q0 50 -16 76.5t-45 26.5t-45.5 -26t-16.5 -75t17.5 -79z" />
    <glyph glyph-name="uni2466" unicode="&#x2466;" 
d="M223.5 33q-79.5 47 -126.5 127t-47 174t47 174t126.5 127t173.5 47t174.5 -47t127.5 -127t47 -174t-47 -174t-127.5 -127t-174.5 -47t-173.5 47zM120 172.5q43 -73.5 116 -116.5t160 -43q88 0 162 43t117.5 116.5t43.5 160.5q0 88 -43.5 161.5t-117.5 117t-162 43.5
q-87 0 -160 -43.5t-116 -117t-43 -161.5q0 -87 43 -160.5zM450 354q-25 -69 -25 -146q0 -18 2 -58h-97q-3 64 14 111.5t47.5 85t84.5 88.5h-90q-53 0 -81 -13.5t-38 -54.5h-8l14 158q46 -8 106 -8h165v-7q-69 -87 -94 -156z" />
    <glyph glyph-name="uni2467" unicode="&#x2467;" 
d="M223.5 33q-79.5 47 -126.5 127t-47 174t47 174t126.5 127t173.5 47t174.5 -47t127.5 -127t47 -174t-47 -174t-127.5 -127t-174.5 -47t-173.5 47zM120 172.5q43 -73.5 116 -116.5t160 -43q88 0 162 43t117.5 116.5t43.5 160.5q0 88 -43.5 161.5t-117.5 117t-162 43.5
q-87 0 -160 -43.5t-116 -117t-43 -161.5q0 -87 43 -160.5zM289.5 166.5q-42.5 24.5 -42.5 67.5q0 30 22 52t65 32q-35 17 -54.5 40.5t-19.5 62.5q0 48 38 76.5t104 28.5q60 0 97.5 -24.5t37.5 -61.5q0 -26 -20 -45t-57 -29q42 -16 66 -41.5t24 -71.5q0 -49 -38 -80t-114 -31
q-66 0 -108.5 24.5zM343 181q22 -24 57 -24q29 0 47.5 17t18.5 45q0 31 -22 47t-68 35l-22 9q-33 -23 -33 -66q0 -39 22 -63zM356.5 419q12.5 -15 30.5 -23.5t51 -20.5q29 24 29 61q0 35 -18 55t-48 20q-27 0 -42 -15t-15 -39q0 -23 12.5 -38z" />
    <glyph glyph-name="uni2468" unicode="&#x2468;" 
d="M223.5 33q-79.5 47 -126.5 127t-47 174t47 174t126.5 127t173.5 47t174.5 -47t127.5 -127t47 -174t-47 -174t-127.5 -127t-174.5 -47t-173.5 47zM120 172.5q43 -73.5 116 -116.5t160 -43q88 0 162 43t117.5 116.5t43.5 160.5q0 88 -43.5 161.5t-117.5 117t-162 43.5
q-87 0 -160 -43.5t-116 -117t-43 -161.5q0 -87 43 -160.5zM511.5 476.5q42.5 -49.5 42.5 -135.5q0 -94 -49.5 -146.5t-126.5 -52.5q-49 0 -88.5 24t-41.5 81h92q-2 -16 -2 -23q0 -30 13 -49t35 -19q38 0 57.5 49t17.5 120q-21 -48 -89 -48q-55 0 -89.5 34.5t-34.5 87.5
q0 59 41.5 93t104.5 34q75 0 117.5 -49.5zM355 327.5q16 -26.5 45 -26.5t45.5 26t16.5 75t-17.5 79t-45.5 30t-44 -29t-16 -78q0 -50 16 -76.5z" />
    <glyph glyph-name="uni24EA" unicode="&#x24ea;" 
d="M223.5 33q-79.5 47 -126.5 127t-47 174t47 174t126.5 127t173.5 47t174.5 -47t127.5 -127t47 -174t-47 -174t-127.5 -127t-174.5 -47t-173.5 47zM120 172.5q43 -73.5 116 -116.5t160 -43q88 0 162 43t117.5 116.5t43.5 160.5q0 88 -43.5 161.5t-117.5 117t-162 43.5
q-87 0 -160 -43.5t-116 -117t-43 -161.5q0 -87 43 -160.5zM310.5 167.5q-36.5 24.5 -56.5 68t-20 99.5t20 99.5t56.5 67.5t83.5 24t83.5 -24t57 -67.5t20.5 -99.5t-20.5 -100t-57 -68t-83.5 -24t-83.5 24.5zM342.5 203.5q17.5 -45.5 51.5 -45.5t51.5 45t17.5 132
q0 88 -17.5 133t-51.5 45q-33 0 -51 -45.5t-18 -132.5q0 -86 17.5 -131.5z" />
    <glyph glyph-name="uni24FF" unicode="&#x24ff;" 
d="M571.5 33q80.5 47 127.5 127t47 174t-47 174t-127.5 127t-174.5 47t-173.5 -47t-126.5 -127t-47 -174t47 -174t126.5 -127t173.5 -47t174.5 47zM315.5 167.5q-36.5 24.5 -56.5 68t-20 99.5t20 99.5t56.5 67.5t83.5 24t83.5 -24t57 -67.5t20.5 -99.5t-20.5 -100t-57 -68
t-83.5 -24t-83.5 24.5zM347.5 203.5q17.5 -45.5 51.5 -45.5t51.5 45t17.5 132q0 88 -17.5 133t-51.5 45q-33 0 -51 -45.5t-18 -132.5q0 -86 17.5 -131.5z" />
    <glyph glyph-name="lozenge" unicode="&#x25ca;" horiz-adv-x="455" 
d="M18 334l198 349h23l199 -349l-199 -349h-23zM228 17l181 317l-181 317l-181 -317z" />
    <glyph glyph-name="circle" unicode="&#x25cb;" 
d="M223.5 33q-79.5 47 -126.5 127t-47 174t47 174t126.5 127t173.5 47t174.5 -47t127.5 -127t47 -174t-47 -174t-127.5 -127t-174.5 -47t-173.5 47zM120 172.5q43 -73.5 116 -116.5t160 -43q88 0 162 43t117.5 116.5t43.5 160.5q0 88 -43.5 161.5t-117.5 117t-162 43.5
q-87 0 -160 -43.5t-116 -117t-43 -161.5q0 -87 43 -160.5z" />
    <glyph glyph-name="uni25CF" unicode="&#x25cf;" 
d="M571.5 33q80.5 47 127.5 127t47 174t-47 174t-127.5 127t-174.5 47t-173.5 -47t-126.5 -127t-47 -174t47 -174t126.5 -127t173.5 -47t174.5 47z" />
    <glyph glyph-name="uni2776" unicode="&#x2776;" 
d="M571.5 33q80.5 47 127.5 127t47 174t-47 174t-127.5 127t-174.5 47t-173.5 -47t-126.5 -127t-47 -174t47 -174t126.5 -127t173.5 -47t174.5 47zM341.5 169q11.5 8 11.5 24v258h-58v8q46 12 78.5 27t60.5 37h7v-330q0 -17 11 -25t36 -11v-8h-194v8q36 4 47.5 12z" />
    <glyph glyph-name="uni2777" unicode="&#x2777;" 
d="M571.5 33q80.5 47 127.5 127t47 174t-47 174t-127.5 127t-174.5 47t-173.5 -47t-126.5 -127t-47 -174t47 -174t126.5 -127t173.5 -47t174.5 47zM244 158l34 36l18 19q47 49 74.5 81.5t46.5 70.5t19 76q0 33 -13.5 52t-36.5 19t-36 -19t-13 -49q0 -26 11 -57h-96
q-5 71 35 105t101 34t100.5 -31.5t39.5 -81.5q0 -40 -26.5 -72t-64.5 -56t-103 -57h119q36 0 57 13.5t30 46.5h8l-17 -138h-287v8z" />
    <glyph glyph-name="uni2778" unicode="&#x2778;" 
d="M571.5 33q80.5 47 127.5 127t47 174t-47 174t-127.5 127t-174.5 47t-173.5 -47t-126.5 -127t-47 -174t47 -174t126.5 -127t173.5 -47t174.5 47zM289.5 171q-42.5 28 -41.5 86h85q-3 -12 -3 -24q0 -31 17 -52.5t44 -21.5t44.5 21.5t17.5 58.5q0 39 -20.5 62t-56.5 23
q-12 0 -26 -3l-6 9l103 106h-48q-52 0 -80.5 -13.5t-38.5 -54.5h-7l13 158q46 -8 106 -8h157v-7l-166 -168q26 11 54 11q46 0 76.5 -29.5t30.5 -69.5q0 -31 -20 -56.5t-55 -40.5t-78 -15q-59 0 -101.5 28z" />
    <glyph glyph-name="uni2779" unicode="&#x2779;" 
d="M571.5 33q80.5 47 127.5 127t47 174t-47 174t-127.5 127t-174.5 47t-173.5 -47t-126.5 -127t-47 -174t47 -174t126.5 -127t173.5 -47t174.5 47zM526 244h-61v-32q0 -27 10.5 -38.5t37.5 -15.5v-8h-192v8q29 4 42.5 16t13.5 38v32h-162v8l170 265h80v-232h61v-41zM377 285
v190l-122 -190h122z" />
    <glyph glyph-name="uni277A" unicode="&#x277a;" 
d="M571.5 33q80.5 47 127.5 127t47 174t-47 174t-127.5 127t-174.5 47t-173.5 -47t-126.5 -127t-47 -174t47 -174t126.5 -127t173.5 -47t174.5 47zM309 518h201v-77h-201l-21 -100q49 32 108 32q55 0 93 -29.5t38 -84.5q0 -53 -40.5 -84.5t-103.5 -31.5q-59 0 -96 28t-36 86
h87q-5 -23 -5 -38q0 -30 14 -45t38 -15t37 18.5t13 52.5q0 41 -26.5 66t-71.5 25q-31 0 -63 -11l-6 6z" />
    <glyph glyph-name="uni277B" unicode="&#x277b;" 
d="M571.5 33q80.5 47 127.5 127t47 174t-47 174t-127.5 127t-174.5 47t-173.5 -47t-126.5 -127t-47 -174t47 -174t126.5 -127t173.5 -47t174.5 47zM275.5 191.5q-42.5 49.5 -42.5 135.5q0 94 49.5 146.5t126.5 52.5q49 0 88.5 -24t41.5 -81h-92q2 16 2 23q0 30 -13 49
t-35 19q-38 0 -57.5 -49t-17.5 -120q21 48 89 48q55 0 89.5 -34.5t34.5 -87.5q0 -59 -41.5 -93t-104.5 -34q-75 0 -117.5 49.5zM342.5 187q17.5 -30 45.5 -30t44 29t16 78q0 50 -16 76.5t-45 26.5t-45.5 -26t-16.5 -75t17.5 -79z" />
    <glyph glyph-name="uni277C" unicode="&#x277c;" 
d="M571.5 33q80.5 47 127.5 127t47 174t-47 174t-127.5 127t-174.5 47t-173.5 -47t-126.5 -127t-47 -174t47 -174t126.5 -127t173.5 -47t174.5 47zM450 354q-25 -69 -25 -146q0 -18 2 -58h-97q-3 64 14 111.5t47.5 85t84.5 88.5h-90q-53 0 -81 -13.5t-38 -54.5h-8l14 158
q46 -8 106 -8h165v-7q-69 -87 -94 -156z" />
    <glyph glyph-name="uni277D" unicode="&#x277d;" 
d="M571.5 33q80.5 47 127.5 127t47 174t-47 174t-127.5 127t-174.5 47t-173.5 -47t-126.5 -127t-47 -174t47 -174t126.5 -127t173.5 -47t174.5 47zM289.5 166.5q-42.5 24.5 -42.5 67.5q0 30 22 52t65 32q-35 17 -54.5 40.5t-19.5 62.5q0 48 38 76.5t104 28.5
q60 0 97.5 -24.5t37.5 -61.5q0 -26 -20 -45t-57 -29q42 -16 66 -41.5t24 -71.5q0 -49 -38 -80t-114 -31q-66 0 -108.5 24.5zM343 181q22 -24 57 -24q29 0 47.5 17t18.5 45q0 31 -22 47t-68 35l-22 9q-33 -23 -33 -66q0 -39 22 -63zM356.5 419q12.5 -15 30.5 -23.5t51 -20.5
q29 24 29 61q0 35 -18 55t-48 20q-27 0 -42 -15t-15 -39q0 -23 12.5 -38z" />
    <glyph glyph-name="uni277E" unicode="&#x277e;" 
d="M571.5 33q80.5 47 127.5 127t47 174t-47 174t-127.5 127t-174.5 47t-173.5 -47t-126.5 -127t-47 -174t47 -174t126.5 -127t173.5 -47t174.5 47zM511.5 476.5q42.5 -49.5 42.5 -135.5q0 -94 -49.5 -146.5t-126.5 -52.5q-49 0 -88.5 24t-41.5 81h92q-2 -16 -2 -23
q0 -30 13 -49t35 -19q38 0 57.5 49t17.5 120q-21 -48 -89 -48q-55 0 -89.5 34.5t-34.5 87.5q0 59 41.5 93t104.5 34q75 0 117.5 -49.5zM355 327.5q16 -26.5 45 -26.5t45.5 26t16.5 75t-17.5 79t-45.5 30t-44 -29t-16 -78q0 -50 16 -76.5z" />
    <glyph glyph-name="M.titl" horiz-adv-x="945" 
d="M799 628.5q-19 -22.5 -14 -63.5l51 -485q3 -30 19.5 -45t61.5 -21v-14h-277v14q46 7 64 21.5t15 44.5l-51 471l-233 -566h-13l-237 568l-50 -473q-4 -31 15 -45.5t65 -20.5v-14h-187v14q45 7 61 20.5t19 45.5l52 485q1 5 1 15q0 70 -82 74v14h185l212 -512l211 512h177
v-14q-46 -3 -65 -25.5z" />
    <glyph glyph-name="F_T" horiz-adv-x="1041" 
d="M244 356h140q42 0 59 23t19 75h14v-223h-14q-2 52 -19 75.5t-59 23.5h-140v-240q0 -29 10.5 -44t35.5 -22t73 -10v-14h-325v14q48 5 68 19.5t20 51.5v499q0 37 -20.5 51.5t-67.5 18.5v14h808q78 0 141 11l27 -191h-14q-20 75 -63 113.5t-124 38.5h-47v-545q0 -42 19 -59
t69 -22v-14h-295v14q51 5 70 22t19 59v545h-404v-284z" />
    <glyph glyph-name="T_T" horiz-adv-x="1121" 
d="M865 36q19 -17 69 -22v-14h-295v14q51 5 70 22t19 59v545h-335v-545q0 -42 19 -59t70 -22v-14h-295v14q50 5 69 22t19 59v545h-47q-81 0 -124 -38.5t-63 -113.5h-14l27 191q63 -11 141 -11h731q78 0 141 11l27 -191h-14q-20 75 -63 113.5t-124 38.5h-47v-545
q0 -42 19 -59z" />
    <glyph glyph-name="T_h" horiz-adv-x="1105" 
d="M1045.5 30.5q12.5 -12.5 42.5 -16.5v-14h-218v14q29 5 41.5 17t12.5 37v237q0 47 -21.5 70.5t-59.5 23.5q-42 0 -72 -31t-30 -90v-210q0 -25 12.5 -37t41.5 -17v-14h-218v14q30 4 42.5 16.5t12.5 37.5v525q0 24 -9 35.5t-37 11.5h-193v-545q0 -42 19 -59t70 -22v-14h-295
v14q50 5 69 22t19 59v545h-60q-74 -4 -114.5 -42t-58.5 -110h-14l26 191q63 -11 141 -11h388l158 34v-349q19 54 59.5 85t95.5 31q64 0 100.5 -40.5t36.5 -114.5v-246q0 -25 12.5 -37.5z" />
    <glyph glyph-name="T_i" horiz-adv-x="810" 
d="M256 36q19 17 19 59v545h-45q-80 -1 -124.5 -40t-63.5 -112h-14l26 193q68 -13 173 -13h300q21 0 40.5 5t46.5 14q4 1 24.5 7.5t38.5 6.5q33 0 54.5 -20.5t21.5 -51.5t-21.5 -52t-53.5 -21q-33 0 -54.5 21t-21.5 52v4q-70 6 -209 8v-546q0 -42 19 -59t70 -22v-14h-295v14
q50 5 69 22zM561 425l169 44v-401q0 -25 12.5 -37.5t42.5 -16.5v-14h-218v14q29 5 41.5 17t12.5 37v289q0 25 -11 38t-37 15l-12 1v14z" />
    <glyph glyph-name="i.loclTRK" horiz-adv-x="273" 
d="M205.5 30.5q12.5 -12.5 42.5 -16.5v-14h-218v14q29 5 41.5 17t12.5 37v289q0 25 -11 38t-37 15l-12 1v14l169 44v-401q0 -25 12.5 -37.5zM84 696q22 21 55 21q32 0 53.5 -21t21.5 -51q0 -31 -21.5 -52t-53.5 -21q-33 0 -55 21t-22 52q0 30 22 51z" />
    <glyph glyph-name="germandbls.calt" horiz-adv-x="865" 
d="M368 60l20 147h16q25 -99 66.5 -146t106.5 -47q52 0 81 28.5t29 76.5q0 33 -15 57.5t-40 44t-76 52.5q-6 3 -18 11q-49 31 -78.5 56.5t-46 57.5t-16.5 76q0 60 34.5 103t105.5 63h-293v-545q0 -42 20.5 -59t68.5 -22v-14h-295v14q47 5 67.5 22t20.5 59v479q0 42 -20.5 59
t-67.5 21v14h667v-28h-33q-85 0 -130 -30.5t-45 -88.5q0 -30 13 -51.5t38.5 -41.5t79.5 -54q65 -42 99 -70t52 -61t18 -78q0 -85 -57 -132t-161 -47q-120 0 -211 74z" />
    <glyph glyph-name="a.ss01" horiz-adv-x="536" 
d="M524 40v-14l-166 -43v126q-14 -59 -52 -91.5t-94 -32.5q-57 0 -100 29t-66.5 83t-23.5 125q0 80 30 135.5t80.5 83.5t110.5 28q73 0 121 -39l99 39v-375q0 -25 11.5 -38t37.5 -15zM168.5 101q30.5 -52 81.5 -52q45 0 74 34t30 103v114q0 64 -27.5 104t-75.5 40
q-56 0 -84.5 -54.5t-28.5 -144.5q0 -92 30.5 -144z" />
    <glyph glyph-name="aacute.ss01" horiz-adv-x="536" 
d="M524 40v-14l-166 -43v126q-14 -59 -52 -91.5t-94 -32.5q-57 0 -100 29t-66.5 83t-23.5 125q0 80 30 135.5t80.5 83.5t110.5 28q73 0 121 -39l99 39v-375q0 -25 11.5 -38t37.5 -15zM168.5 101q30.5 -52 81.5 -52q45 0 74 34t30 103v114q0 64 -27.5 104t-75.5 40
q-56 0 -84.5 -54.5t-28.5 -144.5q0 -92 30.5 -144zM283 701h147l-187 -167h-14z" />
    <glyph glyph-name="abreve.ss01" horiz-adv-x="536" 
d="M524 40v-14l-166 -43v126q-14 -59 -52 -91.5t-94 -32.5q-57 0 -100 29t-66.5 83t-23.5 125q0 80 30 135.5t80.5 83.5t110.5 28q73 0 121 -39l99 39v-375q0 -25 11.5 -38t37.5 -15zM146 695q3 -44 32 -63.5t84 -19.5t84.5 19.5t32.5 63.5h13q2 -73 -32 -114t-98 -41
q-63 0 -97 41t-32 114h13zM168.5 101q30.5 -52 81.5 -52q45 0 74 34t30 103v114q0 64 -27.5 104t-75.5 40q-56 0 -84.5 -54.5t-28.5 -144.5q0 -92 30.5 -144z" />
    <glyph glyph-name="acircumflex.ss01" horiz-adv-x="536" 
d="M524 40v-14l-166 -43v126q-14 -59 -52 -91.5t-94 -32.5q-57 0 -100 29t-66.5 83t-23.5 125q0 80 30 135.5t80.5 83.5t110.5 28q73 0 121 -39l99 39v-375q0 -25 11.5 -38t37.5 -15zM207 682h107l98 -149h-13l-137 84l-136 -84h-15zM168.5 101q30.5 -52 81.5 -52
q45 0 74 34t30 103v114q0 64 -27.5 104t-75.5 40q-56 0 -84.5 -54.5t-28.5 -144.5q0 -92 30.5 -144z" />
    <glyph glyph-name="adieresis.ss01" horiz-adv-x="536" 
d="M524 40v-14l-166 -43v126q-14 -59 -52 -91.5t-94 -32.5q-57 0 -100 29t-66.5 83t-23.5 125q0 80 30 135.5t80.5 83.5t110.5 28q73 0 121 -39l99 39v-375q0 -25 11.5 -38t37.5 -15zM121.5 661.5q20.5 19.5 51.5 19.5q30 0 50 -19.5t20 -48.5t-20 -48.5t-50 -19.5
q-31 0 -51.5 19.5t-20.5 48.5t20.5 48.5zM168.5 101q30.5 -52 81.5 -52q45 0 74 34t30 103v114q0 64 -27.5 104t-75.5 40q-56 0 -84.5 -54.5t-28.5 -144.5q0 -92 30.5 -144zM309.5 661.5q20.5 19.5 51.5 19.5q30 0 50 -19.5t20 -48.5t-20 -48.5t-50 -19.5q-31 0 -51.5 19.5
t-20.5 48.5t20.5 48.5z" />
    <glyph glyph-name="agrave.ss01" horiz-adv-x="536" 
d="M524 40v-14l-166 -43v126q-14 -59 -52 -91.5t-94 -32.5q-57 0 -100 29t-66.5 83t-23.5 125q0 80 30 135.5t80.5 83.5t110.5 28q73 0 121 -39l99 39v-375q0 -25 11.5 -38t37.5 -15zM257 701l54 -167h-14l-187 167h147zM168.5 101q30.5 -52 81.5 -52q45 0 74 34t30 103v114
q0 64 -27.5 104t-75.5 40q-56 0 -84.5 -54.5t-28.5 -144.5q0 -92 30.5 -144z" />
    <glyph glyph-name="amacron.ss01" horiz-adv-x="536" 
d="M524 40v-14l-166 -43v126q-14 -59 -52 -91.5t-94 -32.5q-57 0 -100 29t-66.5 83t-23.5 125q0 80 30 135.5t80.5 83.5t110.5 28q73 0 121 -39l99 39v-375q0 -25 11.5 -38t37.5 -15zM117 600h290v-24h-290v24zM168.5 101q30.5 -52 81.5 -52q45 0 74 34t30 103v114
q0 64 -27.5 104t-75.5 40q-56 0 -84.5 -54.5t-28.5 -144.5q0 -92 30.5 -144z" />
    <glyph glyph-name="aogonek.ss01" horiz-adv-x="536" 
d="M524 40v-14l-120 -31q-30 -23 -48 -51.5t-18 -55.5t16.5 -43.5t40.5 -16.5q16 0 34.5 10.5t33.5 29.5l7 -4q-14 -35 -43.5 -55.5t-64.5 -20.5q-43 0 -69 21.5t-26 56.5t24 65.5t67 51.5v126q-14 -59 -52 -91.5t-94 -32.5q-57 0 -100 29t-66.5 83t-23.5 125q0 80 30 135.5
t80.5 83.5t110.5 28q73 0 121 -39l99 39v-375q0 -25 11.5 -38t37.5 -15zM168.5 101q30.5 -52 81.5 -52q45 0 74 34t30 103v114q0 64 -27.5 104t-75.5 40q-56 0 -84.5 -54.5t-28.5 -144.5q0 -92 30.5 -144z" />
    <glyph glyph-name="aring.ss01" horiz-adv-x="536" 
d="M524 40v-14l-166 -43v126q-14 -59 -52 -91.5t-94 -32.5q-57 0 -100 29t-66.5 83t-23.5 125q0 80 30 135.5t80.5 83.5t110.5 28q73 0 121 -39l99 39v-375q0 -25 11.5 -38t37.5 -15zM168.5 101q30.5 -52 81.5 -52q45 0 74 34t30 103v114q0 64 -27.5 104t-75.5 40
q-56 0 -84.5 -54.5t-28.5 -144.5q0 -92 30.5 -144zM191.5 691q28.5 26 71.5 26t71 -26t28 -65q0 -40 -28 -66t-71 -26t-71.5 26t-28.5 66q0 39 28.5 65zM210 575q21 -20 53 -20t53 20t21 51t-21 51t-53 20t-53 -20t-21 -51t21 -51z" />
    <glyph glyph-name="aringacute.ss01" horiz-adv-x="536" 
d="M524 40v-14l-166 -43v126q-14 -59 -52 -91.5t-94 -32.5q-57 0 -100 29t-66.5 83t-23.5 125q0 80 30 135.5t80.5 83.5t110.5 28q73 0 121 -39l99 39v-375q0 -25 11.5 -38t37.5 -15zM168.5 101q30.5 -52 81.5 -52q45 0 74 34t30 103v114q0 64 -27.5 104t-75.5 40
q-56 0 -84.5 -54.5t-28.5 -144.5q0 -92 30.5 -144zM189.5 689q26.5 26 67.5 28l99 140h161l-243 -140q38 -4 63 -29t25 -62q0 -40 -28 -66t-71 -26t-71.5 26t-28.5 66q0 37 26.5 63zM210 575q21 -20 53 -20t53 20t21 51t-21 51t-53 20t-53 -20t-21 -51t21 -51z" />
    <glyph glyph-name="atilde.ss01" horiz-adv-x="536" 
d="M524 40v-14l-166 -43v126q-14 -59 -52 -91.5t-94 -32.5q-57 0 -100 29t-66.5 83t-23.5 125q0 80 30 135.5t80.5 83.5t110.5 28q73 0 121 -39l99 39v-375q0 -25 11.5 -38t37.5 -15zM113 592q0 41 17.5 63.5t57.5 22.5q20 0 39.5 -6.5t45.5 -19.5q23 -11 40.5 -17t34.5 -6
q21 0 30.5 10.5t12.5 38.5h12v-36q0 -86 -73 -86q-19 0 -36 6t-47 19q-29 13 -45 18.5t-33 5.5q-21 0 -31 -10.5t-13 -39.5l-12 1v36zM168.5 101q30.5 -52 81.5 -52q45 0 74 34t30 103v114q0 64 -27.5 104t-75.5 40q-56 0 -84.5 -54.5t-28.5 -144.5q0 -92 30.5 -144z" />
    <glyph glyph-name="ae.ss01" horiz-adv-x="819" 
d="M123 15.5q-45 30.5 -69.5 84.5t-24.5 123q0 77 30.5 132.5t81.5 84.5t111 29q69 0 116 -36l62 36v-79q60 78 171 78q84 0 132.5 -43.5t48.5 -121.5q0 -10 -2 -32h-308q-3 -96 40.5 -153.5t119.5 -57.5q48 0 83.5 25.5t53.5 64.5l11 -3q-14 -75 -67 -118t-133 -43
q-73 0 -126.5 38t-76.5 103q-10 -72 -50 -107t-100 -35q-59 0 -104 30.5zM179 100.5q34 -51.5 87 -51.5q41 0 67.5 30.5t27.5 91.5v116q0 72 -25 114.5t-72 42.5q-55 0 -87 -59.5t-32 -144.5q0 -88 34 -139.5zM669 296q2 22 2 32q0 53 -24.5 84t-64.5 31q-44 0 -73 -39
t-36 -108h196z" />
    <glyph glyph-name="aeacute.ss01" horiz-adv-x="819" 
d="M123 15.5q-45 30.5 -69.5 84.5t-24.5 123q0 77 30.5 132.5t81.5 84.5t111 29q69 0 116 -36l62 36v-79q60 78 171 78q84 0 132.5 -43.5t48.5 -121.5q0 -10 -2 -32h-308q-3 -96 40.5 -153.5t119.5 -57.5q48 0 83.5 25.5t53.5 64.5l11 -3q-14 -75 -67 -118t-133 -43
q-73 0 -126.5 38t-76.5 103q-10 -72 -50 -107t-100 -35q-59 0 -104 30.5zM179 100.5q34 -51.5 87 -51.5q41 0 67.5 30.5t27.5 91.5v116q0 72 -25 114.5t-72 42.5q-55 0 -87 -59.5t-32 -144.5q0 -88 34 -139.5zM444 701h147l-187 -167h-14zM669 296q2 22 2 32q0 53 -24.5 84
t-64.5 31q-44 0 -73 -39t-36 -108h196z" />
    <glyph glyph-name="g.ss02" horiz-adv-x="517" 
d="M163 -193q-45 19 -71.5 53.5t-27.5 78.5h113q-6 -21 -6 -39q0 -39 25 -63t69 -24q45 0 70.5 34.5t25.5 95.5v153q-17 -55 -53.5 -83t-88.5 -28q-57 0 -100 29t-66.5 83t-23.5 125q0 80 30 135.5t80.5 83.5t110.5 28q74 0 123 -40l97 40v-483q0 -96 -54 -147t-151 -51
q-57 0 -102 19zM175.5 101q30.5 -52 81.5 -52q45 0 74 34t30 103v114q0 64 -27.5 104t-75.5 40q-56 0 -84.5 -54.5t-28.5 -144.5q0 -92 30.5 -144z" />
    <glyph glyph-name="gbreve.ss02" horiz-adv-x="517" 
d="M163 -193q-45 19 -71.5 53.5t-27.5 78.5h113q-6 -21 -6 -39q0 -39 25 -63t69 -24q45 0 70.5 34.5t25.5 95.5v153q-17 -55 -53.5 -83t-88.5 -28q-57 0 -100 29t-66.5 83t-23.5 125q0 80 30 135.5t80.5 83.5t110.5 28q74 0 123 -40l97 40v-483q0 -96 -54 -147t-151 -51
q-57 0 -102 19zM150 695q3 -44 32 -63.5t84 -19.5t84.5 19.5t32.5 63.5h13q2 -73 -32 -114t-98 -41q-63 0 -97 41t-32 114h13zM175.5 101q30.5 -52 81.5 -52q45 0 74 34t30 103v114q0 64 -27.5 104t-75.5 40q-56 0 -84.5 -54.5t-28.5 -144.5q0 -92 30.5 -144z" />
    <glyph glyph-name="gcircumflex.ss02" horiz-adv-x="517" 
d="M163 -193q-45 19 -71.5 53.5t-27.5 78.5h113q-6 -21 -6 -39q0 -39 25 -63t69 -24q45 0 70.5 34.5t25.5 95.5v153q-17 -55 -53.5 -83t-88.5 -28q-57 0 -100 29t-66.5 83t-23.5 125q0 80 30 135.5t80.5 83.5t110.5 28q74 0 123 -40l97 40v-483q0 -96 -54 -147t-151 -51
q-57 0 -102 19zM211 682h107l98 -149h-13l-137 84l-136 -84h-15zM175.5 101q30.5 -52 81.5 -52q45 0 74 34t30 103v114q0 64 -27.5 104t-75.5 40q-56 0 -84.5 -54.5t-28.5 -144.5q0 -92 30.5 -144z" />
    <glyph glyph-name="uni0123.ss02" horiz-adv-x="517" 
d="M163 -193q-45 19 -71.5 53.5t-27.5 78.5h113q-6 -21 -6 -39q0 -39 25 -63t69 -24q45 0 70.5 34.5t25.5 95.5v153q-17 -55 -53.5 -83t-88.5 -28q-57 0 -100 29t-66.5 83t-23.5 125q0 80 30 135.5t80.5 83.5t110.5 28q74 0 123 -40l97 40v-483q0 -96 -54 -147t-151 -51
q-57 0 -102 19zM175.5 101q30.5 -52 81.5 -52q45 0 74 34t30 103v114q0 64 -27.5 104t-75.5 40q-56 0 -84.5 -54.5t-28.5 -144.5q0 -92 30.5 -144zM238.5 724q35.5 35 87.5 40l1 -15q-31 -5 -50.5 -24.5t-20.5 -53.5q10 2 15 2q24 0 40.5 -17.5t16.5 -42.5q0 -27 -17 -43.5
t-43 -16.5q-31 0 -48 22t-17 61q0 53 35.5 88z" />
    <glyph glyph-name="gdotaccent.ss02" horiz-adv-x="517" 
d="M163 -193q-45 19 -71.5 53.5t-27.5 78.5h113q-6 -21 -6 -39q0 -39 25 -63t69 -24q45 0 70.5 34.5t25.5 95.5v153q-17 -55 -53.5 -83t-88.5 -28q-57 0 -100 29t-66.5 83t-23.5 125q0 80 30 135.5t80.5 83.5t110.5 28q74 0 123 -40l97 40v-483q0 -96 -54 -147t-151 -51
q-57 0 -102 19zM175.5 101q30.5 -52 81.5 -52q45 0 74 34t30 103v114q0 64 -27.5 104t-75.5 40q-56 0 -84.5 -54.5t-28.5 -144.5q0 -92 30.5 -144zM213 696q22 21 55 21q32 0 53.5 -21t21.5 -51q0 -31 -21.5 -52t-53.5 -21q-33 0 -55 21t-22 52q0 30 22 51z" />
    <glyph glyph-name="g.ss03" horiz-adv-x="517" 
d="M92 -76h14q22 -50 56.5 -73t75.5 -23h57q31 0 48.5 19t17.5 51v198q-17 -55 -53.5 -83t-88.5 -28q-57 0 -100 29t-66.5 83t-23.5 125q0 80 30 135.5t80.5 83.5t110.5 28q75 0 124 -40l96 40v-519q0 -70 -38 -108.5t-107 -38.5h-241zM175.5 101q30.5 -52 81.5 -52
q45 0 74 34t30 103v114q0 64 -27.5 104t-75.5 40q-56 0 -84.5 -54.5t-28.5 -144.5q0 -92 30.5 -144z" />
    <glyph glyph-name="gbreve.ss03" horiz-adv-x="517" 
d="M92 -76h14q22 -50 56.5 -73t75.5 -23h57q31 0 48.5 19t17.5 51v198q-17 -55 -53.5 -83t-88.5 -28q-57 0 -100 29t-66.5 83t-23.5 125q0 80 30 135.5t80.5 83.5t110.5 28q75 0 124 -40l96 40v-519q0 -70 -38 -108.5t-107 -38.5h-241zM150 695q3 -44 32 -63.5t84 -19.5
t84.5 19.5t32.5 63.5h13q2 -73 -32 -114t-98 -41q-63 0 -97 41t-32 114h13zM175.5 101q30.5 -52 81.5 -52q45 0 74 34t30 103v114q0 64 -27.5 104t-75.5 40q-56 0 -84.5 -54.5t-28.5 -144.5q0 -92 30.5 -144z" />
    <glyph glyph-name="gcircumflex.ss03" horiz-adv-x="517" 
d="M92 -76h14q22 -50 56.5 -73t75.5 -23h57q31 0 48.5 19t17.5 51v198q-17 -55 -53.5 -83t-88.5 -28q-57 0 -100 29t-66.5 83t-23.5 125q0 80 30 135.5t80.5 83.5t110.5 28q75 0 124 -40l96 40v-519q0 -70 -38 -108.5t-107 -38.5h-241zM211 682h107l98 -149h-13l-137 84
l-136 -84h-15zM175.5 101q30.5 -52 81.5 -52q45 0 74 34t30 103v114q0 64 -27.5 104t-75.5 40q-56 0 -84.5 -54.5t-28.5 -144.5q0 -92 30.5 -144z" />
    <glyph glyph-name="uni0123.ss03" horiz-adv-x="517" 
d="M92 -76h14q22 -50 56.5 -73t75.5 -23h57q31 0 48.5 19t17.5 51v198q-17 -55 -53.5 -83t-88.5 -28q-57 0 -100 29t-66.5 83t-23.5 125q0 80 30 135.5t80.5 83.5t110.5 28q75 0 124 -40l96 40v-519q0 -70 -38 -108.5t-107 -38.5h-241zM175.5 101q30.5 -52 81.5 -52
q45 0 74 34t30 103v114q0 64 -27.5 104t-75.5 40q-56 0 -84.5 -54.5t-28.5 -144.5q0 -92 30.5 -144zM238.5 724q35.5 35 87.5 40l1 -15q-31 -5 -50.5 -24.5t-20.5 -53.5q10 2 15 2q24 0 40.5 -17.5t16.5 -42.5q0 -27 -17 -43.5t-43 -16.5q-31 0 -48 22t-17 61q0 53 35.5 88z
" />
    <glyph glyph-name="gdotaccent.ss03" horiz-adv-x="517" 
d="M92 -76h14q22 -50 56.5 -73t75.5 -23h57q31 0 48.5 19t17.5 51v198q-17 -55 -53.5 -83t-88.5 -28q-57 0 -100 29t-66.5 83t-23.5 125q0 80 30 135.5t80.5 83.5t110.5 28q75 0 124 -40l96 40v-519q0 -70 -38 -108.5t-107 -38.5h-241zM175.5 101q30.5 -52 81.5 -52
q45 0 74 34t30 103v114q0 64 -27.5 104t-75.5 40q-56 0 -84.5 -54.5t-28.5 -144.5q0 -92 30.5 -144zM213 696q22 21 55 21q32 0 53.5 -21t21.5 -51q0 -31 -21.5 -52t-53.5 -21q-33 0 -55 21t-22 52q0 30 22 51z" />
    <glyph glyph-name="r.ss04" horiz-adv-x="430" 
d="M334 402.5q-23 26.5 -56 26.5h-33q-29 0 -45 -18t-16 -51v-292q0 -25 19 -37.5t61 -16.5v-14h-244v14q30 4 42.5 16.5t12.5 37.5v244q-1 67 34.5 104.5t101.5 37.5h179l-9 -124h-14q-10 46 -33 72.5z" />
    <glyph glyph-name="racute.ss04" horiz-adv-x="430" 
d="M334 402.5q-23 26.5 -56 26.5h-33q-29 0 -45 -18t-16 -51v-292q0 -25 19 -37.5t61 -16.5v-14h-244v14q30 4 42.5 16.5t12.5 37.5v244q-1 67 34.5 104.5t101.5 37.5h179l-9 -124h-14q-10 46 -33 72.5zM258 701h147l-187 -167h-14z" />
    <glyph glyph-name="rcaron.ss04" horiz-adv-x="430" 
d="M334 402.5q-23 26.5 -56 26.5h-33q-29 0 -45 -18t-16 -51v-292q0 -25 19 -37.5t61 -16.5v-14h-244v14q30 4 42.5 16.5t12.5 37.5v244q-1 67 34.5 104.5t101.5 37.5h179l-9 -124h-14q-10 46 -33 72.5zM101 693l136 -84l137 84h13l-98 -149h-107l-96 149h15z" />
    <glyph glyph-name="uni0157.ss04" horiz-adv-x="430" 
d="M334 402.5q-23 26.5 -56 26.5h-33q-29 0 -45 -18t-16 -51v-292q0 -25 19 -37.5t61 -16.5v-14h-244v14q30 4 42.5 16.5t12.5 37.5v244q-1 67 34.5 104.5t101.5 37.5h179l-9 -124h-14q-10 46 -33 72.5zM93 -95.5q17 16.5 43 16.5q31 0 48 -22t17 -61q0 -53 -35.5 -88
t-87.5 -40l-1 15q31 5 50.5 24.5t20.5 53.5q-10 -2 -15 -2q-24 0 -40.5 17.5t-16.5 42.5q0 27 17 43.5z" />
    <glyph glyph-name="f_b" horiz-adv-x="872" 
d="M359 643.5q-24 15.5 -50 15.5q-52 0 -79.5 -46.5t-27.5 -114.5v-44h99v-25h-99v-361q0 -25 19 -37.5t61 -16.5v-14h-244v14q30 4 42.5 16.5t12.5 37.5v361h-75v25h75v21q0 66 29.5 113t79 71t109.5 24q54 0 103 -22l93 36v-339q16 54 53 82.5t89 28.5q57 0 100 -29
t66.5 -83t23.5 -125q0 -80 -30 -135.5t-80.5 -83.5t-110.5 -28q-72 0 -122 39l-98 -39v618q-15 25 -39 40.5zM534.5 50q27.5 -40 75.5 -40q56 0 84.5 54.5t28.5 144.5q0 92 -30.5 144t-81.5 52q-45 0 -74.5 -34t-29.5 -103v-114q0 -64 27.5 -104z" />
    <glyph glyph-name="f_j" horiz-adv-x="546" 
d="M507 469v-394q0 -72 -18 -124.5t-63 -93t-125 -69.5l-6 11q35 25 56.5 52t34 71.5t12.5 112.5v341q0 25 -11.5 38t-37.5 15h-147v-361q0 -25 19 -37.5t62 -16.5v-14h-244v14q29 5 41.5 17t12.5 37v361h-75v25h75v15q0 68 32 116.5t85 73t116 24.5q45 0 84 -8.5t57 -21.5
l-22 -110h-12q-5 51 -38.5 83t-79.5 32q-54 0 -83.5 -47t-29.5 -114v-43h203z" />
    <glyph glyph-name="ordfeminine.ss01" horiz-adv-x="367" 
d="M354 422v-12l-126 -33v76q-9 -37 -32 -55.5t-58 -18.5q-53 0 -84.5 40t-31.5 109q0 76 41.5 117t102.5 41q49 0 81 -29l59 29h11v-233q0 -14 5.5 -21t20.5 -9zM174 427q20 0 34.5 18t16.5 53l-1 94q-6 75 -50 75q-56 0 -56 -119q0 -121 56 -121z" />
    <glyph glyph-name="zero.tf" horiz-adv-x="619" 
d="M168 29q-62 44 -96.5 123.5t-34.5 181.5t34.5 181.5t96.5 123.5t142 44t141.5 -44t95.5 -123.5t34 -181.5t-34 -181.5t-95.5 -123.5t-141.5 -44t-142 44zM200.5 95q38.5 -83 109.5 -83t108.5 83t37.5 239t-37.5 239t-108.5 83t-109.5 -83t-38.5 -239t38.5 -239z" />
    <glyph glyph-name="one.tf" horiz-adv-x="619" 
d="M186.5 25.5q40.5 7.5 56 24.5t15.5 50l3 461h-198v14q115 19 184 42t120 59h10v-576q0 -32 15 -49.5t52 -25.5t110 -11v-14h-492v14q84 4 124.5 11.5z" />
    <glyph glyph-name="two.tf" horiz-adv-x="619" 
d="M45 14l55 58l19 20q99 101 154 164t90.5 130t35.5 133q0 62 -30.5 99.5t-82.5 37.5q-47 0 -76.5 -36t-29.5 -96q0 -36 14 -83h-132q-1 10 -1 29q0 72 31.5 119.5t83 70.5t113.5 23q68 0 121.5 -25t83.5 -70t30 -103q0 -72 -47.5 -135t-115 -112t-189.5 -126h219
q46 0 73.5 9t45.5 31.5t29 65.5h14l-29 -218h-479v14z" />
    <glyph glyph-name="three.tf" horiz-adv-x="619" 
d="M176 8.5q-56 22.5 -89.5 68t-29.5 111.5h118q-5 -22 -5 -39q0 -57 35.5 -96t91.5 -39q58 0 95 41.5t37 112.5t-40 115t-114 44q-28 0 -52 -5l-2 16l200 218h-128q-59 0 -96.5 -10.5t-60.5 -36.5t-35 -75h-14l26 247q68 -13 174 -13h272v-14l-280 -297q43 13 83 13
q58 0 101.5 -25.5t67 -67t23.5 -87.5q0 -58 -33 -104.5t-92 -73t-133 -26.5q-64 0 -120 22.5z" />
    <glyph glyph-name="four.tf" horiz-adv-x="619" 
d="M319 40.5q27 20.5 27 72.5v53h-317v14l343 495h92v-429h116v-80h-116v-53q0 -54 19.5 -74t69.5 -25v-14h-318v14q57 6 84 26.5zM346 246v342l-237 -342h237z" />
    <glyph glyph-name="five.tf" horiz-adv-x="619" 
d="M169 668h350v-112h-344l-36 -172q74 30 153 30q69 0 126.5 -24.5t91.5 -74t34 -121.5q0 -63 -31.5 -110t-87 -72.5t-127.5 -25.5q-104 0 -167 51t-59 151h120q-6 -28 -6 -52q0 -57 30.5 -89.5t81.5 -32.5q56 0 88.5 38.5t32.5 107.5q0 80 -54 126t-153 46q-43 0 -101 -11
l-12 10z" />
    <glyph glyph-name="six.tf" horiz-adv-x="619" 
d="M121.5 75.5q-71.5 90.5 -71.5 249.5q0 123 42.5 203.5t110 117.5t145.5 37q83 0 149 -43.5t71 -142.5h-127q1 9 1 25q0 61 -29.5 97.5t-76.5 36.5q-44 0 -80.5 -36t-58 -105t-21.5 -164v-22q43 100 172 100q66 0 116 -28t77 -77.5t27 -111.5q0 -68 -32.5 -119.5
t-88.5 -79.5t-126 -28q-128 0 -199.5 90.5zM219 67.5q37 -55.5 97 -55.5q58 0 93 52.5t35 138.5q0 87 -35.5 135.5t-96.5 48.5t-95.5 -46.5t-34.5 -131.5q0 -86 37 -141.5z" />
    <glyph glyph-name="seven.tf" horiz-adv-x="619" 
d="M394 376.5q-53 -139.5 -53 -307.5q0 -21 2 -69h-132q-1 15 -1 43q0 109 32.5 198.5t87.5 163.5t136 151h-184q-59 0 -96.5 -10.5t-60.5 -36.5t-35 -75h-14l26 247q68 -13 174 -13h286v-14q-115 -138 -168 -277.5z" />
    <glyph glyph-name="eight.tf" horiz-adv-x="619" 
d="M178.5 5.5q-57.5 20.5 -90 59t-32.5 89.5q0 56 39.5 100t112.5 66q-62 29 -97 71t-35 111q0 54 29.5 95t83.5 63.5t124 22.5q67 0 120 -20.5t82.5 -57t29.5 -81.5q0 -50 -35.5 -87t-103.5 -60q75 -31 117 -75.5t42 -125.5q0 -55 -29.5 -98t-87 -68t-139.5 -25
q-73 0 -130.5 20.5zM200.5 55q43.5 -43 111.5 -43q61 0 100.5 34t39.5 87q0 43 -22.5 71t-55.5 45t-91 40l-47 19q-79 -49 -79 -138q0 -72 43.5 -115zM210.5 477.5q21.5 -27.5 54 -44t88.5 -37.5l25 -9q70 49 70 129q0 66 -37 103.5t-99 37.5q-55 0 -89 -31t-34 -79
q0 -42 21.5 -69.5z" />
    <glyph glyph-name="nine.tf" horiz-adv-x="619" 
d="M497.5 592.5q71.5 -90.5 71.5 -249.5q0 -123 -43 -203.5t-110.5 -117.5t-145.5 -37q-83 0 -149 43.5t-71 142.5h127q-1 -9 -1 -25q0 -61 29.5 -97.5t76.5 -36.5q44 0 80.5 36t58 105t21.5 164l1 22q-43 -100 -173 -100q-66 0 -115.5 28t-76.5 77.5t-27 111.5
q0 68 32.5 119.5t88.5 79.5t126 28q128 0 199.5 -90.5zM210.5 328.5q35.5 -47.5 95.5 -47.5q61 0 96 46.5t35 131.5q0 86 -37 141.5t-97 55.5q-58 0 -93 -53.5t-35 -140.5q0 -86 35.5 -133.5z" />
    <glyph glyph-name="zero.sinf" horiz-adv-x="370" 
d="M101.5 -143.5q-36.5 24.5 -56.5 68t-20 99.5t20 99.5t56.5 67.5t83.5 24t83.5 -24t57 -67.5t20.5 -99.5t-20.5 -100t-57 -68t-83.5 -24t-83.5 24.5zM133.5 -107.5q17.5 -45.5 51.5 -45.5t51.5 45t17.5 132q0 88 -17.5 133t-51.5 45q-33 0 -51 -45.5t-18 -132.5
q0 -86 17.5 -131.5z" />
    <glyph glyph-name="one.sinf" horiz-adv-x="219" 
d="M65.5 -140q11.5 8 11.5 24v258h-58v8q46 12 78.5 27t60.5 37h7v-330q0 -17 11 -25t36 -11v-8h-194v8q36 4 47.5 12z" />
    <glyph glyph-name="two.sinf" horiz-adv-x="352" 
d="M23 -152l34 36l18 19q47 49 74.5 81.5t46.5 70.5t19 76q0 33 -13.5 52t-36.5 19t-36 -19t-13 -49q0 -26 11 -57h-96q-5 71 35 105t101 34t100.5 -31.5t39.5 -81.5q0 -40 -26.5 -72t-64.5 -56t-103 -57h119q36 0 57 13.5t30 46.5h8l-17 -138h-287v8z" />
    <glyph glyph-name="three.sinf" horiz-adv-x="341" 
d="M65.5 -140q-42.5 28 -41.5 86h85q-3 -12 -3 -24q0 -31 17 -52.5t44 -21.5t44.5 21.5t17.5 58.5q0 39 -20.5 62t-56.5 23q-12 0 -26 -3l-6 9l103 106h-48q-52 0 -80.5 -13.5t-38.5 -54.5h-7l13 158q46 -8 106 -8h157v-7l-166 -168q26 11 54 11q46 0 76.5 -29.5t30.5 -69.5
q0 -31 -20 -56.5t-55 -40.5t-78 -15q-59 0 -101.5 28z" />
    <glyph glyph-name="four.sinf" horiz-adv-x="332" 
d="M317 -66h-61v-32q0 -27 10.5 -38.5t37.5 -15.5v-8h-192v8q29 4 42.5 16t13.5 38v32h-162v8l170 265h80v-232h61v-41zM168 -25v190l-122 -190h122z" />
    <glyph glyph-name="five.sinf" horiz-adv-x="319" 
d="M77 207h201v-77h-201l-21 -100q49 32 108 32q55 0 93 -29.5t38 -84.5q0 -53 -40.5 -84.5t-103.5 -31.5q-59 0 -96 28t-36 86h87q-5 -23 -5 -38q0 -30 14 -45t38 -15t37 18.5t13 52.5q0 41 -26.5 66t-71.5 25q-31 0 -63 -11l-6 6z" />
    <glyph glyph-name="six.sinf" horiz-adv-x="359" 
d="M66.5 -118.5q-42.5 49.5 -42.5 135.5q0 94 49.5 146.5t126.5 52.5q49 0 88.5 -24t41.5 -81h-92q2 16 2 23q0 30 -13 49t-35 19q-38 0 -57.5 -49t-17.5 -120q21 48 89 48q55 0 89.5 -34.5t34.5 -87.5q0 -59 -41.5 -93t-104.5 -34q-75 0 -117.5 49.5zM133.5 -123
q17.5 -30 45.5 -30t44 29t16 78q0 50 -16 76.5t-45 26.5t-45.5 -26t-16.5 -75t17.5 -79z" />
    <glyph glyph-name="seven.sinf" horiz-adv-x="307" 
d="M211 44q-25 -69 -25 -146q0 -18 2 -58h-97q-3 64 14 111.5t47.5 85t84.5 88.5h-90q-53 0 -81 -13.5t-38 -54.5h-8l14 158q46 -8 106 -8h165v-7q-69 -87 -94 -156z" />
    <glyph glyph-name="eight.sinf" horiz-adv-x="351" 
d="M66.5 -143.5q-42.5 24.5 -42.5 67.5q0 30 22 52t65 32q-35 17 -54.5 40.5t-19.5 62.5q0 48 38 76.5t104 28.5q60 0 97.5 -24.5t37.5 -61.5q0 -26 -20 -45t-57 -29q42 -16 66 -41.5t24 -71.5q0 -49 -38 -80t-114 -31q-66 0 -108.5 24.5zM120 -129q22 -24 57 -24
q29 0 47.5 17t18.5 45q0 31 -22 47t-68 35l-22 9q-33 -23 -33 -66q0 -39 22 -63zM133.5 109q12.5 -15 30.5 -23.5t51 -20.5q29 24 29 61q0 35 -18 55t-48 20q-27 0 -42 -15t-15 -39q0 -23 12.5 -38z" />
    <glyph glyph-name="nine.sinf" horiz-adv-x="359" 
d="M292.5 165.5q42.5 -49.5 42.5 -135.5q0 -94 -49.5 -146.5t-126.5 -52.5q-49 0 -88.5 24t-41.5 81h92q-2 -16 -2 -23q0 -30 13 -49t35 -19q38 0 57.5 49t17.5 120q-21 -48 -89 -48q-55 0 -89.5 34.5t-34.5 87.5q0 59 41.5 93t104.5 34q75 0 117.5 -49.5zM136 16.5
q16 -26.5 45 -26.5t45.5 26t16.5 75t-17.5 79t-45.5 30t-44 -29t-16 -78q0 -50 16 -76.5z" />
    <glyph glyph-name="zero.dnom" horiz-adv-x="370" 
d="M101.5 16.5q-36.5 24.5 -56.5 68t-20 99.5t20 99.5t56.5 67.5t83.5 24t83.5 -24t57 -67.5t20.5 -99.5t-20.5 -100t-57 -68t-83.5 -24t-83.5 24.5zM133.5 52.5q17.5 -45.5 51.5 -45.5t51.5 45t17.5 132q0 88 -17.5 133t-51.5 45q-33 0 -51 -45.5t-18 -132.5
q0 -86 17.5 -131.5z" />
    <glyph glyph-name="one.dnom" horiz-adv-x="219" 
d="M65.5 20q11.5 8 11.5 24v258h-58v8q46 12 78.5 27t60.5 37h7v-330q0 -17 11 -25t36 -11v-8h-194v8q36 4 47.5 12z" />
    <glyph glyph-name="two.dnom" horiz-adv-x="352" 
d="M23 8l34 36l18 19q47 49 74.5 81.5t46.5 70.5t19 76q0 33 -13.5 52t-36.5 19t-36 -19t-13 -49q0 -26 11 -57h-96q-5 71 35 105t101 34t100.5 -31.5t39.5 -81.5q0 -40 -26.5 -72t-64.5 -56t-103 -57h119q36 0 57 13.5t30 46.5h8l-17 -138h-287v8z" />
    <glyph glyph-name="three.dnom" horiz-adv-x="341" 
d="M65.5 20q-42.5 28 -41.5 86h85q-3 -12 -3 -24q0 -31 17 -52.5t44 -21.5t44.5 21.5t17.5 58.5q0 39 -20.5 62t-56.5 23q-12 0 -26 -3l-6 9l103 106h-48q-52 0 -80.5 -13.5t-38.5 -54.5h-7l13 158q46 -8 106 -8h157v-7l-166 -168q26 11 54 11q46 0 76.5 -29.5t30.5 -69.5
q0 -31 -20 -56.5t-55 -40.5t-78 -15q-59 0 -101.5 28z" />
    <glyph glyph-name="four.dnom" horiz-adv-x="332" 
d="M317 94h-61v-32q0 -27 10.5 -38.5t37.5 -15.5v-8h-192v8q29 4 42.5 16t13.5 38v32h-162v8l170 265h80v-232h61v-41zM168 135v190l-122 -190h122z" />
    <glyph glyph-name="five.dnom" horiz-adv-x="319" 
d="M77 367h201v-77h-201l-21 -100q49 32 108 32q55 0 93 -29.5t38 -84.5q0 -53 -40.5 -84.5t-103.5 -31.5q-59 0 -96 28t-36 86h87q-5 -23 -5 -38q0 -30 14 -45t38 -15t37 18.5t13 52.5q0 41 -26.5 66t-71.5 25q-31 0 -63 -11l-6 6z" />
    <glyph glyph-name="six.dnom" horiz-adv-x="359" 
d="M66.5 41.5q-42.5 49.5 -42.5 135.5q0 94 49.5 146.5t126.5 52.5q49 0 88.5 -24t41.5 -81h-92q2 16 2 23q0 30 -13 49t-35 19q-38 0 -57.5 -49t-17.5 -120q21 48 89 48q55 0 89.5 -34.5t34.5 -87.5q0 -59 -41.5 -93t-104.5 -34q-75 0 -117.5 49.5zM133.5 37
q17.5 -30 45.5 -30t44 29t16 78q0 50 -16 76.5t-45 26.5t-45.5 -26t-16.5 -75t17.5 -79z" />
    <glyph glyph-name="seven.dnom" horiz-adv-x="307" 
d="M211 204q-25 -69 -25 -146q0 -18 2 -58h-97q-3 64 14 111.5t47.5 85t84.5 88.5h-90q-53 0 -81 -13.5t-38 -54.5h-8l14 158q46 -8 106 -8h165v-7q-69 -87 -94 -156z" />
    <glyph glyph-name="eight.dnom" horiz-adv-x="351" 
d="M66.5 16.5q-42.5 24.5 -42.5 67.5q0 30 22 52t65 32q-35 17 -54.5 40.5t-19.5 62.5q0 48 38 76.5t104 28.5q60 0 97.5 -24.5t37.5 -61.5q0 -26 -20 -45t-57 -29q42 -16 66 -41.5t24 -71.5q0 -49 -38 -80t-114 -31q-66 0 -108.5 24.5zM120 31q22 -24 57 -24q29 0 47.5 17
t18.5 45q0 31 -22 47t-68 35l-22 9q-33 -23 -33 -66q0 -39 22 -63zM133.5 269q12.5 -15 30.5 -23.5t51 -20.5q29 24 29 61q0 35 -18 55t-48 20q-27 0 -42 -15t-15 -39q0 -23 12.5 -38z" />
    <glyph glyph-name="nine.dnom" horiz-adv-x="359" 
d="M292.5 325.5q42.5 -49.5 42.5 -135.5q0 -94 -49.5 -146.5t-126.5 -52.5q-49 0 -88.5 24t-41.5 81h92q-2 -16 -2 -23q0 -30 13 -49t35 -19q38 0 57.5 49t17.5 120q-21 -48 -89 -48q-55 0 -89.5 34.5t-34.5 87.5q0 59 41.5 93t104.5 34q75 0 117.5 -49.5zM136 176.5
q16 -26.5 45 -26.5t45.5 26t16.5 75t-17.5 79t-45.5 30t-44 -29t-16 -78q0 -50 16 -76.5z" />
    <glyph glyph-name="zero.numr" horiz-adv-x="370" 
d="M101.5 273.5q-36.5 24.5 -56.5 68t-20 99.5t20 99.5t56.5 67.5t83.5 24t83.5 -24t57 -67.5t20.5 -99.5t-20.5 -100t-57 -68t-83.5 -24t-83.5 24.5zM133.5 309.5q17.5 -45.5 51.5 -45.5t51.5 45t17.5 132q0 88 -17.5 133t-51.5 45q-33 0 -51 -45.5t-18 -132.5
q0 -86 17.5 -131.5z" />
    <glyph glyph-name="one.numr" horiz-adv-x="219" 
d="M65.5 277q11.5 8 11.5 24v258h-58v8q46 12 78.5 27t60.5 37h7v-330q0 -17 11 -25t36 -11v-8h-194v8q36 4 47.5 12z" />
    <glyph glyph-name="two.numr" horiz-adv-x="352" 
d="M23 265l34 36l18 19q47 49 74.5 81.5t46.5 70.5t19 76q0 33 -13.5 52t-36.5 19t-36 -19t-13 -49q0 -26 11 -57h-96q-5 71 35 105t101 34t100.5 -31.5t39.5 -81.5q0 -40 -26.5 -72t-64.5 -56t-103 -57h119q36 0 57 13.5t30 46.5h8l-17 -138h-287v8z" />
    <glyph glyph-name="three.numr" horiz-adv-x="341" 
d="M65.5 277q-42.5 28 -41.5 86h85q-3 -12 -3 -24q0 -31 17 -52.5t44 -21.5t44.5 21.5t17.5 58.5q0 39 -20.5 62t-56.5 23q-12 0 -26 -3l-6 9l103 106h-48q-52 0 -80.5 -13.5t-38.5 -54.5h-7l13 158q46 -8 106 -8h157v-7l-166 -168q26 11 54 11q46 0 76.5 -29.5t30.5 -69.5
q0 -31 -20 -56.5t-55 -40.5t-78 -15q-59 0 -101.5 28z" />
    <glyph glyph-name="four.numr" horiz-adv-x="332" 
d="M317 351h-61v-32q0 -27 10.5 -38.5t37.5 -15.5v-8h-192v8q29 4 42.5 16t13.5 38v32h-162v8l170 265h80v-232h61v-41zM168 392v190l-122 -190h122z" />
    <glyph glyph-name="five.numr" horiz-adv-x="319" 
d="M77 624h201v-77h-201l-21 -100q49 32 108 32q55 0 93 -29.5t38 -84.5q0 -53 -40.5 -84.5t-103.5 -31.5q-59 0 -96 28t-36 86h87q-5 -23 -5 -38q0 -30 14 -45t38 -15t37 18.5t13 52.5q0 41 -26.5 66t-71.5 25q-31 0 -63 -11l-6 6z" />
    <glyph glyph-name="six.numr" horiz-adv-x="359" 
d="M66.5 298.5q-42.5 49.5 -42.5 135.5q0 94 49.5 146.5t126.5 52.5q49 0 88.5 -24t41.5 -81h-92q2 16 2 23q0 30 -13 49t-35 19q-38 0 -57.5 -49t-17.5 -120q21 48 89 48q55 0 89.5 -34.5t34.5 -87.5q0 -59 -41.5 -93t-104.5 -34q-75 0 -117.5 49.5zM133.5 294
q17.5 -30 45.5 -30t44 29t16 78q0 50 -16 76.5t-45 26.5t-45.5 -26t-16.5 -75t17.5 -79z" />
    <glyph glyph-name="seven.numr" horiz-adv-x="307" 
d="M211 461q-25 -69 -25 -146q0 -18 2 -58h-97q-3 64 14 111.5t47.5 85t84.5 88.5h-90q-53 0 -81 -13.5t-38 -54.5h-8l14 158q46 -8 106 -8h165v-7q-69 -87 -94 -156z" />
    <glyph glyph-name="eight.numr" horiz-adv-x="351" 
d="M66.5 273.5q-42.5 24.5 -42.5 67.5q0 30 22 52t65 32q-35 17 -54.5 40.5t-19.5 62.5q0 48 38 76.5t104 28.5q60 0 97.5 -24.5t37.5 -61.5q0 -26 -20 -45t-57 -29q42 -16 66 -41.5t24 -71.5q0 -49 -38 -80t-114 -31q-66 0 -108.5 24.5zM120 288q22 -24 57 -24
q29 0 47.5 17t18.5 45q0 31 -22 47t-68 35l-22 9q-33 -23 -33 -66q0 -39 22 -63zM133.5 526q12.5 -15 30.5 -23.5t51 -20.5q29 24 29 61q0 35 -18 55t-48 20q-27 0 -42 -15t-15 -39q0 -23 12.5 -38z" />
    <glyph glyph-name="nine.numr" horiz-adv-x="359" 
d="M292.5 582.5q42.5 -49.5 42.5 -135.5q0 -94 -49.5 -146.5t-126.5 -52.5q-49 0 -88.5 24t-41.5 81h92q-2 -16 -2 -23q0 -30 13 -49t35 -19q38 0 57.5 49t17.5 120q-21 -48 -89 -48q-55 0 -89.5 34.5t-34.5 87.5q0 59 41.5 93t104.5 34q75 0 117.5 -49.5zM136 433.5
q16 -26.5 45 -26.5t45.5 26t16.5 75t-17.5 79t-45.5 30t-44 -29t-16 -78q0 -50 16 -76.5z" />
    <glyph glyph-name="space.tf" horiz-adv-x="619" 
 />
    <glyph glyph-name="colon.case" horiz-adv-x="268" 
d="M77.5 425.5q-22.5 21.5 -22.5 54.5q0 32 22.5 53.5t56.5 21.5t56.5 -21.5t22.5 -53.5q0 -33 -22.5 -54.5t-56.5 -21.5t-56.5 21.5zM77.5 93.5q-22.5 21.5 -22.5 54.5q0 32 22.5 53.5t56.5 21.5t56.5 -21.5t22.5 -53.5q0 -33 -22.5 -54.5t-56.5 -21.5t-56.5 21.5z" />
    <glyph glyph-name="bullet.case" horiz-adv-x="495" 
d="M148 169q-46 27 -73 72.5t-27 100.5q0 54 27 100t73.5 73t101.5 27q54 0 99.5 -27t72 -73t26.5 -100q0 -55 -26.5 -100.5t-72 -72.5t-99.5 -27q-56 0 -102 27z" />
    <glyph glyph-name="period.tf" horiz-adv-x="619" 
d="M287.5 6.5q-22.5 21.5 -22.5 54.5q0 32 22.5 53.5t56.5 21.5t56.5 -21.5t22.5 -53.5q0 -33 -22.5 -54.5t-56.5 -21.5t-56.5 21.5z" />
    <glyph glyph-name="comma.tf" horiz-adv-x="619" 
d="M330.5 -79.5q27.5 31.5 28.5 68.5q-11 -4 -25 -4q-32 0 -53.5 22t-21.5 55q1 32 23 53t56 21q39 0 61 -26.5t22 -70.5q0 -74 -41 -119.5t-112 -59.5l-3 10q38 19 65.5 50.5z" />
    <glyph glyph-name="hyphen.case" horiz-adv-x="330" 
d="M295 308h-260v30h260v-30z" />
    <glyph glyph-name="endash.case" horiz-adv-x="414" 
d="M379 307h-344v29h344v-29z" />
    <glyph glyph-name="emdash.case" horiz-adv-x="782" 
d="M747 307h-712v29h712v-29z" />
    <glyph glyph-name="parenleft.case" horiz-adv-x="322" 
d="M197 3.5q-61 66.5 -95 152t-34 176.5q0 90 33.5 175t94.5 152t141 104l8 -15q-74 -61 -119.5 -175.5t-45.5 -240.5q0 -127 45.5 -241.5t119.5 -175.5l-8 -15q-79 37 -140 103.5z" />
    <glyph glyph-name="parenright.case" horiz-adv-x="322" 
d="M96.5 90.5q45.5 114.5 45.5 241.5q0 126 -45.5 240.5t-119.5 175.5l8 15q80 -37 141 -104t94.5 -152t33.5 -175q0 -91 -34 -176.5t-95 -152t-140 -103.5l-8 15q74 61 119.5 175.5z" />
    </font>
</defs>
</svg>
